G04 #@! TF.GenerationSoftware,KiCad,Pcbnew,(5.0.1)-4*
G04 #@! TF.CreationDate,2018-11-27T13:12:11-07:00*
G04 #@! TF.ProjectId,robot,726F626F742E6B696361645F70636200,rev?*
G04 #@! TF.SameCoordinates,Original*
G04 #@! TF.FileFunction,Legend,Top*
G04 #@! TF.FilePolarity,Positive*
%FSLAX46Y46*%
G04 Gerber Fmt 4.6, Leading zero omitted, Abs format (unit mm)*
G04 Created by KiCad (PCBNEW (5.0.1)-4) date 11/27/2018 1:12:11 PM*
%MOMM*%
%LPD*%
G01*
G04 APERTURE LIST*
%ADD10C,0.150000*%
%ADD11C,0.300000*%
%ADD12C,0.120000*%
G04 APERTURE END LIST*
D10*
X145296428Y-62047380D02*
X145296428Y-61047380D01*
X145534523Y-61047380D01*
X145677380Y-61095000D01*
X145772619Y-61190238D01*
X145820238Y-61285476D01*
X145867857Y-61475952D01*
X145867857Y-61618809D01*
X145820238Y-61809285D01*
X145772619Y-61904523D01*
X145677380Y-61999761D01*
X145534523Y-62047380D01*
X145296428Y-62047380D01*
X147582142Y-62047380D02*
X147010714Y-62047380D01*
X147296428Y-62047380D02*
X147296428Y-61047380D01*
X147201190Y-61190238D01*
X147105952Y-61285476D01*
X147010714Y-61333095D01*
X147963095Y-61142619D02*
X148010714Y-61095000D01*
X148105952Y-61047380D01*
X148344047Y-61047380D01*
X148439285Y-61095000D01*
X148486904Y-61142619D01*
X148534523Y-61237857D01*
X148534523Y-61333095D01*
X148486904Y-61475952D01*
X147915476Y-62047380D01*
X148534523Y-62047380D01*
X148820238Y-61047380D02*
X149153571Y-62047380D01*
X149486904Y-61047380D01*
X151105952Y-61095000D02*
X151010714Y-61047380D01*
X150867857Y-61047380D01*
X150725000Y-61095000D01*
X150629761Y-61190238D01*
X150582142Y-61285476D01*
X150534523Y-61475952D01*
X150534523Y-61618809D01*
X150582142Y-61809285D01*
X150629761Y-61904523D01*
X150725000Y-61999761D01*
X150867857Y-62047380D01*
X150963095Y-62047380D01*
X151105952Y-61999761D01*
X151153571Y-61952142D01*
X151153571Y-61618809D01*
X150963095Y-61618809D01*
X151582142Y-62047380D02*
X151582142Y-61047380D01*
X152153571Y-62047380D01*
X152153571Y-61047380D01*
X152629761Y-62047380D02*
X152629761Y-61047380D01*
X152867857Y-61047380D01*
X153010714Y-61095000D01*
X153105952Y-61190238D01*
X153153571Y-61285476D01*
X153201190Y-61475952D01*
X153201190Y-61618809D01*
X153153571Y-61809285D01*
X153105952Y-61904523D01*
X153010714Y-61999761D01*
X152867857Y-62047380D01*
X152629761Y-62047380D01*
X139787380Y-68339642D02*
X139787380Y-67720595D01*
X140168333Y-68053928D01*
X140168333Y-67911071D01*
X140215952Y-67815833D01*
X140263571Y-67768214D01*
X140358809Y-67720595D01*
X140596904Y-67720595D01*
X140692142Y-67768214D01*
X140739761Y-67815833D01*
X140787380Y-67911071D01*
X140787380Y-68196785D01*
X140739761Y-68292023D01*
X140692142Y-68339642D01*
X139787380Y-67434880D02*
X140787380Y-67101547D01*
X139787380Y-66768214D01*
X139787380Y-66530119D02*
X139787380Y-65911071D01*
X140168333Y-66244404D01*
X140168333Y-66101547D01*
X140215952Y-66006309D01*
X140263571Y-65958690D01*
X140358809Y-65911071D01*
X140596904Y-65911071D01*
X140692142Y-65958690D01*
X140739761Y-66006309D01*
X140787380Y-66101547D01*
X140787380Y-66387261D01*
X140739761Y-66482500D01*
X140692142Y-66530119D01*
X139835000Y-64196785D02*
X139787380Y-64292023D01*
X139787380Y-64434880D01*
X139835000Y-64577738D01*
X139930238Y-64672976D01*
X140025476Y-64720595D01*
X140215952Y-64768214D01*
X140358809Y-64768214D01*
X140549285Y-64720595D01*
X140644523Y-64672976D01*
X140739761Y-64577738D01*
X140787380Y-64434880D01*
X140787380Y-64339642D01*
X140739761Y-64196785D01*
X140692142Y-64149166D01*
X140358809Y-64149166D01*
X140358809Y-64339642D01*
X140787380Y-62196785D02*
X139787380Y-62196785D01*
X139787380Y-61958690D01*
X139835000Y-61815833D01*
X139930238Y-61720595D01*
X140025476Y-61672976D01*
X140215952Y-61625357D01*
X140358809Y-61625357D01*
X140549285Y-61672976D01*
X140644523Y-61720595D01*
X140739761Y-61815833D01*
X140787380Y-61958690D01*
X140787380Y-62196785D01*
X140692142Y-59101547D02*
X140739761Y-59149166D01*
X140787380Y-59292023D01*
X140787380Y-59387261D01*
X140739761Y-59530119D01*
X140644523Y-59625357D01*
X140549285Y-59672976D01*
X140358809Y-59720595D01*
X140215952Y-59720595D01*
X140025476Y-59672976D01*
X139930238Y-59625357D01*
X139835000Y-59530119D01*
X139787380Y-59387261D01*
X139787380Y-59292023D01*
X139835000Y-59149166D01*
X139882619Y-59101547D01*
X159107619Y-62047380D02*
X159107619Y-61047380D01*
X159345714Y-61047380D01*
X159488571Y-61095000D01*
X159583809Y-61190238D01*
X159631428Y-61285476D01*
X159679047Y-61475952D01*
X159679047Y-61618809D01*
X159631428Y-61809285D01*
X159583809Y-61904523D01*
X159488571Y-61999761D01*
X159345714Y-62047380D01*
X159107619Y-62047380D01*
X161345714Y-61047380D02*
X160869523Y-61047380D01*
X160821904Y-61523571D01*
X160869523Y-61475952D01*
X160964761Y-61428333D01*
X161202857Y-61428333D01*
X161298095Y-61475952D01*
X161345714Y-61523571D01*
X161393333Y-61618809D01*
X161393333Y-61856904D01*
X161345714Y-61952142D01*
X161298095Y-61999761D01*
X161202857Y-62047380D01*
X160964761Y-62047380D01*
X160869523Y-61999761D01*
X160821904Y-61952142D01*
X161679047Y-61047380D02*
X162012380Y-62047380D01*
X162345714Y-61047380D01*
X163964761Y-61095000D02*
X163869523Y-61047380D01*
X163726666Y-61047380D01*
X163583809Y-61095000D01*
X163488571Y-61190238D01*
X163440952Y-61285476D01*
X163393333Y-61475952D01*
X163393333Y-61618809D01*
X163440952Y-61809285D01*
X163488571Y-61904523D01*
X163583809Y-61999761D01*
X163726666Y-62047380D01*
X163821904Y-62047380D01*
X163964761Y-61999761D01*
X164012380Y-61952142D01*
X164012380Y-61618809D01*
X163821904Y-61618809D01*
X164440952Y-62047380D02*
X164440952Y-61047380D01*
X165012380Y-62047380D01*
X165012380Y-61047380D01*
X165488571Y-62047380D02*
X165488571Y-61047380D01*
X165726666Y-61047380D01*
X165869523Y-61095000D01*
X165964761Y-61190238D01*
X166012380Y-61285476D01*
X166060000Y-61475952D01*
X166060000Y-61618809D01*
X166012380Y-61809285D01*
X165964761Y-61904523D01*
X165869523Y-61999761D01*
X165726666Y-62047380D01*
X165488571Y-62047380D01*
D11*
X147253571Y-66078571D02*
X147253571Y-64578571D01*
X148110714Y-66078571D02*
X147467857Y-65221428D01*
X148110714Y-64578571D02*
X147253571Y-65435714D01*
X149325000Y-66007142D02*
X149182142Y-66078571D01*
X148896428Y-66078571D01*
X148753571Y-66007142D01*
X148682142Y-65864285D01*
X148682142Y-65292857D01*
X148753571Y-65150000D01*
X148896428Y-65078571D01*
X149182142Y-65078571D01*
X149325000Y-65150000D01*
X149396428Y-65292857D01*
X149396428Y-65435714D01*
X148682142Y-65578571D01*
X149896428Y-65078571D02*
X150253571Y-66078571D01*
X150610714Y-65078571D01*
X151182142Y-66078571D02*
X151182142Y-65078571D01*
X151182142Y-64578571D02*
X151110714Y-64650000D01*
X151182142Y-64721428D01*
X151253571Y-64650000D01*
X151182142Y-64578571D01*
X151182142Y-64721428D01*
X151896428Y-65078571D02*
X151896428Y-66078571D01*
X151896428Y-65221428D02*
X151967857Y-65150000D01*
X152110714Y-65078571D01*
X152325000Y-65078571D01*
X152467857Y-65150000D01*
X152539285Y-65292857D01*
X152539285Y-66078571D01*
X154253571Y-64578571D02*
X154610714Y-66078571D01*
X154896428Y-65007142D01*
X155182142Y-66078571D01*
X155539285Y-64578571D01*
X156753571Y-66078571D02*
X156753571Y-65292857D01*
X156682142Y-65150000D01*
X156539285Y-65078571D01*
X156253571Y-65078571D01*
X156110714Y-65150000D01*
X156753571Y-66007142D02*
X156610714Y-66078571D01*
X156253571Y-66078571D01*
X156110714Y-66007142D01*
X156039285Y-65864285D01*
X156039285Y-65721428D01*
X156110714Y-65578571D01*
X156253571Y-65507142D01*
X156610714Y-65507142D01*
X156753571Y-65435714D01*
X157682142Y-66078571D02*
X157539285Y-66007142D01*
X157467857Y-65864285D01*
X157467857Y-64578571D01*
X158896428Y-66007142D02*
X158753571Y-66078571D01*
X158467857Y-66078571D01*
X158325000Y-66007142D01*
X158253571Y-65935714D01*
X158182142Y-65792857D01*
X158182142Y-65364285D01*
X158253571Y-65221428D01*
X158325000Y-65150000D01*
X158467857Y-65078571D01*
X158753571Y-65078571D01*
X158896428Y-65150000D01*
X159539285Y-66078571D02*
X159539285Y-64578571D01*
X160182142Y-66078571D02*
X160182142Y-65292857D01*
X160110714Y-65150000D01*
X159967857Y-65078571D01*
X159753571Y-65078571D01*
X159610714Y-65150000D01*
X159539285Y-65221428D01*
X160896428Y-66078571D02*
X160896428Y-64578571D01*
X161039285Y-65507142D02*
X161467857Y-66078571D01*
X161467857Y-65078571D02*
X160896428Y-65650000D01*
X162325000Y-66078571D02*
X162182142Y-66007142D01*
X162110714Y-65935714D01*
X162039285Y-65792857D01*
X162039285Y-65364285D01*
X162110714Y-65221428D01*
X162182142Y-65150000D01*
X162325000Y-65078571D01*
X162539285Y-65078571D01*
X162682142Y-65150000D01*
X162753571Y-65221428D01*
X162825000Y-65364285D01*
X162825000Y-65792857D01*
X162753571Y-65935714D01*
X162682142Y-66007142D01*
X162539285Y-66078571D01*
X162325000Y-66078571D01*
X148717857Y-67128571D02*
X149217857Y-68628571D01*
X149717857Y-67128571D01*
X150146428Y-67271428D02*
X150217857Y-67200000D01*
X150360714Y-67128571D01*
X150717857Y-67128571D01*
X150860714Y-67200000D01*
X150932142Y-67271428D01*
X151003571Y-67414285D01*
X151003571Y-67557142D01*
X150932142Y-67771428D01*
X150075000Y-68628571D01*
X151003571Y-68628571D01*
X153217857Y-69200000D02*
X153146428Y-69128571D01*
X153003571Y-68914285D01*
X152932142Y-68771428D01*
X152860714Y-68557142D01*
X152789285Y-68200000D01*
X152789285Y-67914285D01*
X152860714Y-67557142D01*
X152932142Y-67342857D01*
X153003571Y-67200000D01*
X153146428Y-66985714D01*
X153217857Y-66914285D01*
X154432142Y-68557142D02*
X154289285Y-68628571D01*
X154003571Y-68628571D01*
X153860714Y-68557142D01*
X153789285Y-68485714D01*
X153717857Y-68342857D01*
X153717857Y-67914285D01*
X153789285Y-67771428D01*
X153860714Y-67700000D01*
X154003571Y-67628571D01*
X154289285Y-67628571D01*
X154432142Y-67700000D01*
X154932142Y-69200000D02*
X155003571Y-69128571D01*
X155146428Y-68914285D01*
X155217857Y-68771428D01*
X155289285Y-68557142D01*
X155360714Y-68200000D01*
X155360714Y-67914285D01*
X155289285Y-67557142D01*
X155217857Y-67342857D01*
X155146428Y-67200000D01*
X155003571Y-66985714D01*
X154932142Y-66914285D01*
X157146428Y-67271428D02*
X157217857Y-67200000D01*
X157360714Y-67128571D01*
X157717857Y-67128571D01*
X157860714Y-67200000D01*
X157932142Y-67271428D01*
X158003571Y-67414285D01*
X158003571Y-67557142D01*
X157932142Y-67771428D01*
X157075000Y-68628571D01*
X158003571Y-68628571D01*
X158932142Y-67128571D02*
X159075000Y-67128571D01*
X159217857Y-67200000D01*
X159289285Y-67271428D01*
X159360714Y-67414285D01*
X159432142Y-67700000D01*
X159432142Y-68057142D01*
X159360714Y-68342857D01*
X159289285Y-68485714D01*
X159217857Y-68557142D01*
X159075000Y-68628571D01*
X158932142Y-68628571D01*
X158789285Y-68557142D01*
X158717857Y-68485714D01*
X158646428Y-68342857D01*
X158575000Y-68057142D01*
X158575000Y-67700000D01*
X158646428Y-67414285D01*
X158717857Y-67271428D01*
X158789285Y-67200000D01*
X158932142Y-67128571D01*
X160860714Y-68628571D02*
X160003571Y-68628571D01*
X160432142Y-68628571D02*
X160432142Y-67128571D01*
X160289285Y-67342857D01*
X160146428Y-67485714D01*
X160003571Y-67557142D01*
X161717857Y-67771428D02*
X161575000Y-67700000D01*
X161503571Y-67628571D01*
X161432142Y-67485714D01*
X161432142Y-67414285D01*
X161503571Y-67271428D01*
X161575000Y-67200000D01*
X161717857Y-67128571D01*
X162003571Y-67128571D01*
X162146428Y-67200000D01*
X162217857Y-67271428D01*
X162289285Y-67414285D01*
X162289285Y-67485714D01*
X162217857Y-67628571D01*
X162146428Y-67700000D01*
X162003571Y-67771428D01*
X161717857Y-67771428D01*
X161575000Y-67842857D01*
X161503571Y-67914285D01*
X161432142Y-68057142D01*
X161432142Y-68342857D01*
X161503571Y-68485714D01*
X161575000Y-68557142D01*
X161717857Y-68628571D01*
X162003571Y-68628571D01*
X162146428Y-68557142D01*
X162217857Y-68485714D01*
X162289285Y-68342857D01*
X162289285Y-68057142D01*
X162217857Y-67914285D01*
X162146428Y-67842857D01*
X162003571Y-67771428D01*
D12*
G04 #@! TO.C,J6*
X166470000Y-60855000D02*
X167470000Y-59855000D01*
X157570000Y-55955000D02*
X157570000Y-60855000D01*
X157570000Y-60855000D02*
X166470000Y-60855000D01*
X167470000Y-59855000D02*
X167470000Y-55955000D01*
X167470000Y-55955000D02*
X157570000Y-55955000D01*
G04 #@! TO.C,J2*
X168850000Y-58360000D02*
X170180000Y-58360000D01*
X168850000Y-59690000D02*
X168850000Y-58360000D01*
X171450000Y-58360000D02*
X174050000Y-58360000D01*
X171450000Y-60960000D02*
X171450000Y-58360000D01*
X168850000Y-60960000D02*
X171450000Y-60960000D01*
X174050000Y-58360000D02*
X174050000Y-71180000D01*
X168850000Y-60960000D02*
X168850000Y-71180000D01*
X168850000Y-71180000D02*
X174050000Y-71180000D01*
G04 #@! TO.C,J4*
X132655000Y-68640000D02*
X135315000Y-68640000D01*
X132655000Y-60960000D02*
X132655000Y-68640000D01*
X135315000Y-60960000D02*
X135315000Y-68640000D01*
X132655000Y-60960000D02*
X135315000Y-60960000D01*
X132655000Y-59690000D02*
X132655000Y-58360000D01*
X132655000Y-58360000D02*
X133985000Y-58360000D01*
G04 #@! TO.C,J1*
X136465000Y-58360000D02*
X137795000Y-58360000D01*
X136465000Y-59690000D02*
X136465000Y-58360000D01*
X136465000Y-60960000D02*
X139125000Y-60960000D01*
X139125000Y-60960000D02*
X139125000Y-68640000D01*
X136465000Y-60960000D02*
X136465000Y-68640000D01*
X136465000Y-68640000D02*
X139125000Y-68640000D01*
G04 #@! TO.C,J3*
X153500000Y-55955000D02*
X143600000Y-55955000D01*
X153500000Y-59855000D02*
X153500000Y-55955000D01*
X143600000Y-60855000D02*
X152500000Y-60855000D01*
X143600000Y-55955000D02*
X143600000Y-60855000D01*
X152500000Y-60855000D02*
X153500000Y-59855000D01*
G04 #@! TO.C,J6*
D10*
X167941666Y-56602380D02*
X167941666Y-57316666D01*
X167894047Y-57459523D01*
X167798809Y-57554761D01*
X167655952Y-57602380D01*
X167560714Y-57602380D01*
X168846428Y-56602380D02*
X168655952Y-56602380D01*
X168560714Y-56650000D01*
X168513095Y-56697619D01*
X168417857Y-56840476D01*
X168370238Y-57030952D01*
X168370238Y-57411904D01*
X168417857Y-57507142D01*
X168465476Y-57554761D01*
X168560714Y-57602380D01*
X168751190Y-57602380D01*
X168846428Y-57554761D01*
X168894047Y-57507142D01*
X168941666Y-57411904D01*
X168941666Y-57173809D01*
X168894047Y-57078571D01*
X168846428Y-57030952D01*
X168751190Y-56983333D01*
X168560714Y-56983333D01*
X168465476Y-57030952D01*
X168417857Y-57078571D01*
X168370238Y-57173809D01*
G04 #@! TO.C,J2*
X171116666Y-56812380D02*
X171116666Y-57526666D01*
X171069047Y-57669523D01*
X170973809Y-57764761D01*
X170830952Y-57812380D01*
X170735714Y-57812380D01*
X171545238Y-56907619D02*
X171592857Y-56860000D01*
X171688095Y-56812380D01*
X171926190Y-56812380D01*
X172021428Y-56860000D01*
X172069047Y-56907619D01*
X172116666Y-57002857D01*
X172116666Y-57098095D01*
X172069047Y-57240952D01*
X171497619Y-57812380D01*
X172116666Y-57812380D01*
G04 #@! TO.C,J4*
X133651666Y-56812380D02*
X133651666Y-57526666D01*
X133604047Y-57669523D01*
X133508809Y-57764761D01*
X133365952Y-57812380D01*
X133270714Y-57812380D01*
X134556428Y-57145714D02*
X134556428Y-57812380D01*
X134318333Y-56764761D02*
X134080238Y-57479047D01*
X134699285Y-57479047D01*
G04 #@! TO.C,J1*
X137461666Y-56812380D02*
X137461666Y-57526666D01*
X137414047Y-57669523D01*
X137318809Y-57764761D01*
X137175952Y-57812380D01*
X137080714Y-57812380D01*
X138461666Y-57812380D02*
X137890238Y-57812380D01*
X138175952Y-57812380D02*
X138175952Y-56812380D01*
X138080714Y-56955238D01*
X137985476Y-57050476D01*
X137890238Y-57098095D01*
G04 #@! TO.C,J3*
X144446666Y-55967380D02*
X144446666Y-56681666D01*
X144399047Y-56824523D01*
X144303809Y-56919761D01*
X144160952Y-56967380D01*
X144065714Y-56967380D01*
X144827619Y-55967380D02*
X145446666Y-55967380D01*
X145113333Y-56348333D01*
X145256190Y-56348333D01*
X145351428Y-56395952D01*
X145399047Y-56443571D01*
X145446666Y-56538809D01*
X145446666Y-56776904D01*
X145399047Y-56872142D01*
X145351428Y-56919761D01*
X145256190Y-56967380D01*
X144970476Y-56967380D01*
X144875238Y-56919761D01*
X144827619Y-56872142D01*
G04 #@! TD*
M02*
