G04 #@! TF.GenerationSoftware,KiCad,Pcbnew,(5.0.1)-4*
G04 #@! TF.CreationDate,2018-11-27T13:12:11-07:00*
G04 #@! TF.ProjectId,robot,726F626F742E6B696361645F70636200,rev?*
G04 #@! TF.SameCoordinates,Original*
G04 #@! TF.FileFunction,Copper,L2,Bot,Signal*
G04 #@! TF.FilePolarity,Positive*
%FSLAX46Y46*%
G04 Gerber Fmt 4.6, Leading zero omitted, Abs format (unit mm)*
G04 Created by KiCad (PCBNEW (5.0.1)-4) date 11/27/2018 1:12:11 PM*
%MOMM*%
%LPD*%
G01*
G04 APERTURE LIST*
G04 #@! TA.AperFunction,ComponentPad*
%ADD10R,2.000000X2.600000*%
G04 #@! TD*
G04 #@! TA.AperFunction,ComponentPad*
%ADD11O,2.000000X2.600000*%
G04 #@! TD*
G04 #@! TA.AperFunction,ComponentPad*
%ADD12O,1.700000X1.700000*%
G04 #@! TD*
G04 #@! TA.AperFunction,ComponentPad*
%ADD13R,1.700000X1.700000*%
G04 #@! TD*
G04 #@! TA.AperFunction,SMDPad,CuDef*
%ADD14R,1.700000X2.000000*%
G04 #@! TD*
G04 #@! TA.AperFunction,SMDPad,CuDef*
%ADD15R,2.000000X1.700000*%
G04 #@! TD*
G04 #@! TA.AperFunction,SMDPad,CuDef*
%ADD16R,0.800000X0.900000*%
G04 #@! TD*
G04 #@! TA.AperFunction,SMDPad,CuDef*
%ADD17R,0.650000X1.560000*%
G04 #@! TD*
G04 #@! TA.AperFunction,SMDPad,CuDef*
%ADD18R,1.560000X0.650000*%
G04 #@! TD*
G04 #@! TA.AperFunction,ViaPad*
%ADD19C,0.600000*%
G04 #@! TD*
G04 #@! TA.AperFunction,Conductor*
%ADD20C,0.250000*%
G04 #@! TD*
G04 #@! TA.AperFunction,Conductor*
%ADD21C,0.254000*%
G04 #@! TD*
G04 APERTURE END LIST*
D10*
G04 #@! TO.P,J6,1*
G04 #@! TO.N,DATA*
X160020000Y-59055000D03*
D11*
G04 #@! TO.P,J6,2*
G04 #@! TO.N,+5V*
X162560000Y-59055000D03*
G04 #@! TO.P,J6,3*
G04 #@! TO.N,GND*
X165100000Y-59055000D03*
G04 #@! TD*
D12*
G04 #@! TO.P,J2,10*
G04 #@! TO.N,RXI*
X172720000Y-69850000D03*
G04 #@! TO.P,J2,9*
G04 #@! TO.N,GND*
X170180000Y-69850000D03*
G04 #@! TO.P,J2,8*
G04 #@! TO.N,TXO*
X172720000Y-67310000D03*
G04 #@! TO.P,J2,7*
G04 #@! TO.N,DTR*
X170180000Y-67310000D03*
G04 #@! TO.P,J2,6*
G04 #@! TO.N,GND*
X172720000Y-64770000D03*
G04 #@! TO.P,J2,5*
G04 #@! TO.N,SCL*
X170180000Y-64770000D03*
G04 #@! TO.P,J2,4*
G04 #@! TO.N,+5V*
X172720000Y-62230000D03*
G04 #@! TO.P,J2,3*
G04 #@! TO.N,SDA*
X170180000Y-62230000D03*
G04 #@! TO.P,J2,2*
G04 #@! TO.N,+5V*
X172720000Y-59690000D03*
D13*
G04 #@! TO.P,J2,1*
G04 #@! TO.N,+3V3*
X170180000Y-59690000D03*
G04 #@! TD*
D14*
G04 #@! TO.P,R2,1*
G04 #@! TO.N,+5V*
X155575000Y-62230000D03*
G04 #@! TO.P,R2,2*
G04 #@! TO.N,DATA*
X155575000Y-58230000D03*
G04 #@! TD*
D15*
G04 #@! TO.P,R3,1*
G04 #@! TO.N,+3V3*
X146685000Y-68580000D03*
G04 #@! TO.P,R3,2*
G04 #@! TO.N,Net-(Q1-Pad2)*
X142685000Y-68580000D03*
G04 #@! TD*
D16*
G04 #@! TO.P,Q1,1*
G04 #@! TO.N,+3V3*
X145415000Y-64135000D03*
G04 #@! TO.P,Q1,2*
G04 #@! TO.N,Net-(Q1-Pad2)*
X143515000Y-64135000D03*
G04 #@! TO.P,Q1,3*
G04 #@! TO.N,DATA*
X144465000Y-62135000D03*
G04 #@! TD*
D17*
G04 #@! TO.P,U2,1*
G04 #@! TO.N,DTR*
X154620000Y-68580000D03*
G04 #@! TO.P,U2,2*
G04 #@! TO.N,Net-(Q1-Pad2)*
X153670000Y-68580000D03*
G04 #@! TO.P,U2,3*
G04 #@! TO.N,GND*
X152720000Y-68580000D03*
G04 #@! TO.P,U2,4*
G04 #@! TO.N,RXI*
X152720000Y-65880000D03*
G04 #@! TO.P,U2,5*
G04 #@! TO.N,+3V3*
X154620000Y-65880000D03*
G04 #@! TD*
D18*
G04 #@! TO.P,U3,1*
G04 #@! TO.N,DTR*
X163910000Y-63820000D03*
G04 #@! TO.P,U3,2*
G04 #@! TO.N,TXO*
X163910000Y-64770000D03*
G04 #@! TO.P,U3,3*
G04 #@! TO.N,GND*
X163910000Y-65720000D03*
G04 #@! TO.P,U3,4*
G04 #@! TO.N,Net-(Q1-Pad2)*
X161210000Y-65720000D03*
G04 #@! TO.P,U3,5*
G04 #@! TO.N,+3V3*
X161210000Y-63820000D03*
G04 #@! TD*
D13*
G04 #@! TO.P,J4,1*
G04 #@! TO.N,SCL*
X133985000Y-59690000D03*
D12*
G04 #@! TO.P,J4,2*
G04 #@! TO.N,SDA*
X133985000Y-62230000D03*
G04 #@! TO.P,J4,3*
G04 #@! TO.N,GND*
X133985000Y-64770000D03*
G04 #@! TO.P,J4,4*
G04 #@! TO.N,+3V3*
X133985000Y-67310000D03*
G04 #@! TD*
G04 #@! TO.P,J1,4*
G04 #@! TO.N,+3V3*
X137795000Y-67310000D03*
G04 #@! TO.P,J1,3*
G04 #@! TO.N,GND*
X137795000Y-64770000D03*
G04 #@! TO.P,J1,2*
G04 #@! TO.N,SDA*
X137795000Y-62230000D03*
D13*
G04 #@! TO.P,J1,1*
G04 #@! TO.N,SCL*
X137795000Y-59690000D03*
G04 #@! TD*
D11*
G04 #@! TO.P,J3,3*
G04 #@! TO.N,GND*
X151130000Y-59055000D03*
G04 #@! TO.P,J3,2*
G04 #@! TO.N,N/C*
X148590000Y-59055000D03*
D10*
G04 #@! TO.P,J3,1*
G04 #@! TO.N,DATA*
X146050000Y-59055000D03*
G04 #@! TD*
D19*
G04 #@! TO.N,GND*
X142875000Y-57785000D03*
X149225000Y-66675000D03*
X149860000Y-68580000D03*
X147320000Y-66040000D03*
G04 #@! TO.N,+5V*
X157480000Y-62230000D03*
G04 #@! TO.N,+3V3*
X161290000Y-61595000D03*
X154940000Y-64135000D03*
X144145000Y-66675000D03*
X166370000Y-61595000D03*
X166370000Y-61595000D03*
G04 #@! TO.N,RXI*
X149860000Y-64770000D03*
X165735000Y-68580000D03*
G04 #@! TO.N,TXO*
X167640000Y-66040000D03*
G04 #@! TO.N,DTR*
X160020000Y-68580000D03*
X156845000Y-68580000D03*
G04 #@! TO.N,SDA*
X165735000Y-62865000D03*
G04 #@! TO.N,SCL*
X167129442Y-62989442D03*
G04 #@! TD*
D20*
G04 #@! TO.N,+5V*
X157480000Y-62230000D02*
X155575000Y-62230000D01*
G04 #@! TO.N,+3V3*
X161290000Y-63740000D02*
X161210000Y-63820000D01*
X161290000Y-61595000D02*
X161290000Y-63740000D01*
X154940000Y-65560000D02*
X154620000Y-65880000D01*
X154940000Y-64135000D02*
X154940000Y-65560000D01*
X154940000Y-64135000D02*
X145415000Y-64135000D01*
X145415000Y-64135000D02*
X145415000Y-65405000D01*
X145415000Y-65405000D02*
X144145000Y-66675000D01*
X146685000Y-67480000D02*
X146685000Y-68580000D01*
X145880000Y-66675000D02*
X146685000Y-67480000D01*
X144145000Y-66675000D02*
X145880000Y-66675000D01*
X166370000Y-61595000D02*
X167005000Y-61595000D01*
X168910000Y-59690000D02*
X170180000Y-59690000D01*
X167005000Y-61595000D02*
X168910000Y-59690000D01*
G04 #@! TO.N,RXI*
X150970000Y-65880000D02*
X152720000Y-65880000D01*
X149860000Y-64770000D02*
X150970000Y-65880000D01*
X172720000Y-69850000D02*
X171870001Y-69000001D01*
X171450000Y-68580000D02*
X167640000Y-68580000D01*
X171870001Y-69000001D02*
X171450000Y-68580000D01*
X167640000Y-68580000D02*
X165735000Y-68580000D01*
G04 #@! TO.N,TXO*
X167640000Y-66040000D02*
X166370000Y-64770000D01*
X166370000Y-64770000D02*
X163910000Y-64770000D01*
G04 #@! TO.N,DATA*
X160020000Y-59055000D02*
X158115000Y-59055000D01*
X157290000Y-58230000D02*
X155575000Y-58230000D01*
X158115000Y-59055000D02*
X157290000Y-58230000D01*
X154475000Y-58230000D02*
X153395000Y-57150000D01*
X155575000Y-58230000D02*
X154475000Y-58230000D01*
X146050000Y-58755000D02*
X146050000Y-59055000D01*
X147655000Y-57150000D02*
X146050000Y-58755000D01*
X153395000Y-57150000D02*
X147655000Y-57150000D01*
X144465000Y-61435000D02*
X144465000Y-62135000D01*
X144465000Y-60940000D02*
X144465000Y-61435000D01*
X146050000Y-59355000D02*
X144465000Y-60940000D01*
X146050000Y-59055000D02*
X146050000Y-59355000D01*
G04 #@! TO.N,DTR*
X166690000Y-63820000D02*
X163910000Y-63820000D01*
X170180000Y-67310000D02*
X166690000Y-63820000D01*
X162880000Y-63820000D02*
X162560000Y-64140000D01*
X163910000Y-63820000D02*
X162880000Y-63820000D01*
X162560000Y-64140000D02*
X162560000Y-67310000D01*
X162560000Y-67310000D02*
X162560000Y-67945000D01*
X162560000Y-67945000D02*
X161925000Y-68580000D01*
X161925000Y-68580000D02*
X160020000Y-68580000D01*
X156845000Y-68580000D02*
X154620000Y-68580000D01*
G04 #@! TO.N,Net-(Q1-Pad2)*
X142685000Y-69680000D02*
X143490000Y-70485000D01*
X142685000Y-68580000D02*
X142685000Y-69680000D01*
X143490000Y-70485000D02*
X153035000Y-70485000D01*
X153670000Y-69850000D02*
X153670000Y-68580000D01*
X153035000Y-70485000D02*
X153670000Y-69850000D01*
X142865000Y-64135000D02*
X143515000Y-64135000D01*
X142240000Y-64760000D02*
X142865000Y-64135000D01*
X142240000Y-67035000D02*
X142240000Y-64760000D01*
X142685000Y-67480000D02*
X142240000Y-67035000D01*
X142685000Y-68580000D02*
X142685000Y-67480000D01*
X160180000Y-65720000D02*
X158115000Y-67785000D01*
X161210000Y-65720000D02*
X160180000Y-65720000D01*
X158115000Y-67785000D02*
X158115000Y-69850000D01*
X158115000Y-69850000D02*
X157480000Y-70485000D01*
X154305000Y-70485000D02*
X153670000Y-69850000D01*
X157480000Y-70485000D02*
X154305000Y-70485000D01*
G04 #@! TO.N,SDA*
X165735000Y-62865000D02*
X166370000Y-62865000D01*
X167005000Y-62230000D02*
X170180000Y-62230000D01*
X166370000Y-62865000D02*
X167005000Y-62230000D01*
G04 #@! TO.N,SCL*
X168910000Y-64770000D02*
X170180000Y-64770000D01*
X167129442Y-62989442D02*
X168910000Y-64770000D01*
G04 #@! TD*
D21*
G04 #@! TO.N,GND*
G36*
X147107071Y-56602071D02*
X147064671Y-56665527D01*
X146622638Y-57107560D01*
X145050000Y-57107560D01*
X144802235Y-57156843D01*
X144592191Y-57297191D01*
X144451843Y-57507235D01*
X144402560Y-57755000D01*
X144402560Y-59927638D01*
X143980530Y-60349669D01*
X143917071Y-60392071D01*
X143749096Y-60643464D01*
X143705000Y-60865149D01*
X143705000Y-60865153D01*
X143690112Y-60940000D01*
X143705000Y-61014847D01*
X143705000Y-61161837D01*
X143607191Y-61227191D01*
X143466843Y-61437235D01*
X143417560Y-61685000D01*
X143417560Y-62585000D01*
X143466843Y-62832765D01*
X143603684Y-63037560D01*
X143115000Y-63037560D01*
X142867235Y-63086843D01*
X142657191Y-63227191D01*
X142516843Y-63437235D01*
X142513092Y-63456094D01*
X142380526Y-63544671D01*
X142380524Y-63544673D01*
X142317071Y-63587071D01*
X142274672Y-63650525D01*
X141755527Y-64169672D01*
X141692072Y-64212071D01*
X141649672Y-64275527D01*
X141649671Y-64275528D01*
X141524097Y-64463463D01*
X141465112Y-64760000D01*
X141480001Y-64834852D01*
X141480000Y-66960153D01*
X141465112Y-67035000D01*
X141480000Y-67109847D01*
X141480000Y-67109851D01*
X141482580Y-67122823D01*
X141437235Y-67131843D01*
X141227191Y-67272191D01*
X141086843Y-67482235D01*
X141037560Y-67730000D01*
X141037560Y-69430000D01*
X141086843Y-69677765D01*
X141227191Y-69887809D01*
X141437235Y-70028157D01*
X141685000Y-70077440D01*
X142036518Y-70077440D01*
X142082688Y-70146537D01*
X142137072Y-70227929D01*
X142200528Y-70270329D01*
X142340199Y-70410000D01*
X132790000Y-70410000D01*
X132790000Y-68194485D01*
X132914375Y-68380625D01*
X133405582Y-68708839D01*
X133838744Y-68795000D01*
X134131256Y-68795000D01*
X134564418Y-68708839D01*
X135055625Y-68380625D01*
X135383839Y-67889418D01*
X135499092Y-67310000D01*
X136280908Y-67310000D01*
X136396161Y-67889418D01*
X136724375Y-68380625D01*
X137215582Y-68708839D01*
X137648744Y-68795000D01*
X137941256Y-68795000D01*
X138374418Y-68708839D01*
X138865625Y-68380625D01*
X139193839Y-67889418D01*
X139309092Y-67310000D01*
X139193839Y-66730582D01*
X138865625Y-66239375D01*
X138546522Y-66026157D01*
X138676358Y-65965183D01*
X139066645Y-65536924D01*
X139236476Y-65126890D01*
X139115155Y-64897000D01*
X137922000Y-64897000D01*
X137922000Y-64917000D01*
X137668000Y-64917000D01*
X137668000Y-64897000D01*
X136474845Y-64897000D01*
X136353524Y-65126890D01*
X136523355Y-65536924D01*
X136913642Y-65965183D01*
X137043478Y-66026157D01*
X136724375Y-66239375D01*
X136396161Y-66730582D01*
X136280908Y-67310000D01*
X135499092Y-67310000D01*
X135383839Y-66730582D01*
X135055625Y-66239375D01*
X134736522Y-66026157D01*
X134866358Y-65965183D01*
X135256645Y-65536924D01*
X135426476Y-65126890D01*
X135305155Y-64897000D01*
X134112000Y-64897000D01*
X134112000Y-64917000D01*
X133858000Y-64917000D01*
X133858000Y-64897000D01*
X133838000Y-64897000D01*
X133838000Y-64643000D01*
X133858000Y-64643000D01*
X133858000Y-64623000D01*
X134112000Y-64623000D01*
X134112000Y-64643000D01*
X135305155Y-64643000D01*
X135426476Y-64413110D01*
X135256645Y-64003076D01*
X134866358Y-63574817D01*
X134736522Y-63513843D01*
X135055625Y-63300625D01*
X135383839Y-62809418D01*
X135499092Y-62230000D01*
X136280908Y-62230000D01*
X136396161Y-62809418D01*
X136724375Y-63300625D01*
X137043478Y-63513843D01*
X136913642Y-63574817D01*
X136523355Y-64003076D01*
X136353524Y-64413110D01*
X136474845Y-64643000D01*
X137668000Y-64643000D01*
X137668000Y-64623000D01*
X137922000Y-64623000D01*
X137922000Y-64643000D01*
X139115155Y-64643000D01*
X139236476Y-64413110D01*
X139066645Y-64003076D01*
X138676358Y-63574817D01*
X138546522Y-63513843D01*
X138865625Y-63300625D01*
X139193839Y-62809418D01*
X139309092Y-62230000D01*
X139193839Y-61650582D01*
X138865625Y-61159375D01*
X138847381Y-61147184D01*
X138892765Y-61138157D01*
X139102809Y-60997809D01*
X139243157Y-60787765D01*
X139292440Y-60540000D01*
X139292440Y-58840000D01*
X139243157Y-58592235D01*
X139102809Y-58382191D01*
X138892765Y-58241843D01*
X138645000Y-58192560D01*
X136945000Y-58192560D01*
X136697235Y-58241843D01*
X136487191Y-58382191D01*
X136346843Y-58592235D01*
X136297560Y-58840000D01*
X136297560Y-60540000D01*
X136346843Y-60787765D01*
X136487191Y-60997809D01*
X136697235Y-61138157D01*
X136742619Y-61147184D01*
X136724375Y-61159375D01*
X136396161Y-61650582D01*
X136280908Y-62230000D01*
X135499092Y-62230000D01*
X135383839Y-61650582D01*
X135055625Y-61159375D01*
X135037381Y-61147184D01*
X135082765Y-61138157D01*
X135292809Y-60997809D01*
X135433157Y-60787765D01*
X135482440Y-60540000D01*
X135482440Y-58840000D01*
X135433157Y-58592235D01*
X135292809Y-58382191D01*
X135082765Y-58241843D01*
X134835000Y-58192560D01*
X133135000Y-58192560D01*
X132887235Y-58241843D01*
X132790000Y-58306814D01*
X132790000Y-57983071D01*
X132815000Y-57857388D01*
X132815000Y-56590000D01*
X147125137Y-56590000D01*
X147107071Y-56602071D01*
X147107071Y-56602071D01*
G37*
X147107071Y-56602071D02*
X147064671Y-56665527D01*
X146622638Y-57107560D01*
X145050000Y-57107560D01*
X144802235Y-57156843D01*
X144592191Y-57297191D01*
X144451843Y-57507235D01*
X144402560Y-57755000D01*
X144402560Y-59927638D01*
X143980530Y-60349669D01*
X143917071Y-60392071D01*
X143749096Y-60643464D01*
X143705000Y-60865149D01*
X143705000Y-60865153D01*
X143690112Y-60940000D01*
X143705000Y-61014847D01*
X143705000Y-61161837D01*
X143607191Y-61227191D01*
X143466843Y-61437235D01*
X143417560Y-61685000D01*
X143417560Y-62585000D01*
X143466843Y-62832765D01*
X143603684Y-63037560D01*
X143115000Y-63037560D01*
X142867235Y-63086843D01*
X142657191Y-63227191D01*
X142516843Y-63437235D01*
X142513092Y-63456094D01*
X142380526Y-63544671D01*
X142380524Y-63544673D01*
X142317071Y-63587071D01*
X142274672Y-63650525D01*
X141755527Y-64169672D01*
X141692072Y-64212071D01*
X141649672Y-64275527D01*
X141649671Y-64275528D01*
X141524097Y-64463463D01*
X141465112Y-64760000D01*
X141480001Y-64834852D01*
X141480000Y-66960153D01*
X141465112Y-67035000D01*
X141480000Y-67109847D01*
X141480000Y-67109851D01*
X141482580Y-67122823D01*
X141437235Y-67131843D01*
X141227191Y-67272191D01*
X141086843Y-67482235D01*
X141037560Y-67730000D01*
X141037560Y-69430000D01*
X141086843Y-69677765D01*
X141227191Y-69887809D01*
X141437235Y-70028157D01*
X141685000Y-70077440D01*
X142036518Y-70077440D01*
X142082688Y-70146537D01*
X142137072Y-70227929D01*
X142200528Y-70270329D01*
X142340199Y-70410000D01*
X132790000Y-70410000D01*
X132790000Y-68194485D01*
X132914375Y-68380625D01*
X133405582Y-68708839D01*
X133838744Y-68795000D01*
X134131256Y-68795000D01*
X134564418Y-68708839D01*
X135055625Y-68380625D01*
X135383839Y-67889418D01*
X135499092Y-67310000D01*
X136280908Y-67310000D01*
X136396161Y-67889418D01*
X136724375Y-68380625D01*
X137215582Y-68708839D01*
X137648744Y-68795000D01*
X137941256Y-68795000D01*
X138374418Y-68708839D01*
X138865625Y-68380625D01*
X139193839Y-67889418D01*
X139309092Y-67310000D01*
X139193839Y-66730582D01*
X138865625Y-66239375D01*
X138546522Y-66026157D01*
X138676358Y-65965183D01*
X139066645Y-65536924D01*
X139236476Y-65126890D01*
X139115155Y-64897000D01*
X137922000Y-64897000D01*
X137922000Y-64917000D01*
X137668000Y-64917000D01*
X137668000Y-64897000D01*
X136474845Y-64897000D01*
X136353524Y-65126890D01*
X136523355Y-65536924D01*
X136913642Y-65965183D01*
X137043478Y-66026157D01*
X136724375Y-66239375D01*
X136396161Y-66730582D01*
X136280908Y-67310000D01*
X135499092Y-67310000D01*
X135383839Y-66730582D01*
X135055625Y-66239375D01*
X134736522Y-66026157D01*
X134866358Y-65965183D01*
X135256645Y-65536924D01*
X135426476Y-65126890D01*
X135305155Y-64897000D01*
X134112000Y-64897000D01*
X134112000Y-64917000D01*
X133858000Y-64917000D01*
X133858000Y-64897000D01*
X133838000Y-64897000D01*
X133838000Y-64643000D01*
X133858000Y-64643000D01*
X133858000Y-64623000D01*
X134112000Y-64623000D01*
X134112000Y-64643000D01*
X135305155Y-64643000D01*
X135426476Y-64413110D01*
X135256645Y-64003076D01*
X134866358Y-63574817D01*
X134736522Y-63513843D01*
X135055625Y-63300625D01*
X135383839Y-62809418D01*
X135499092Y-62230000D01*
X136280908Y-62230000D01*
X136396161Y-62809418D01*
X136724375Y-63300625D01*
X137043478Y-63513843D01*
X136913642Y-63574817D01*
X136523355Y-64003076D01*
X136353524Y-64413110D01*
X136474845Y-64643000D01*
X137668000Y-64643000D01*
X137668000Y-64623000D01*
X137922000Y-64623000D01*
X137922000Y-64643000D01*
X139115155Y-64643000D01*
X139236476Y-64413110D01*
X139066645Y-64003076D01*
X138676358Y-63574817D01*
X138546522Y-63513843D01*
X138865625Y-63300625D01*
X139193839Y-62809418D01*
X139309092Y-62230000D01*
X139193839Y-61650582D01*
X138865625Y-61159375D01*
X138847381Y-61147184D01*
X138892765Y-61138157D01*
X139102809Y-60997809D01*
X139243157Y-60787765D01*
X139292440Y-60540000D01*
X139292440Y-58840000D01*
X139243157Y-58592235D01*
X139102809Y-58382191D01*
X138892765Y-58241843D01*
X138645000Y-58192560D01*
X136945000Y-58192560D01*
X136697235Y-58241843D01*
X136487191Y-58382191D01*
X136346843Y-58592235D01*
X136297560Y-58840000D01*
X136297560Y-60540000D01*
X136346843Y-60787765D01*
X136487191Y-60997809D01*
X136697235Y-61138157D01*
X136742619Y-61147184D01*
X136724375Y-61159375D01*
X136396161Y-61650582D01*
X136280908Y-62230000D01*
X135499092Y-62230000D01*
X135383839Y-61650582D01*
X135055625Y-61159375D01*
X135037381Y-61147184D01*
X135082765Y-61138157D01*
X135292809Y-60997809D01*
X135433157Y-60787765D01*
X135482440Y-60540000D01*
X135482440Y-58840000D01*
X135433157Y-58592235D01*
X135292809Y-58382191D01*
X135082765Y-58241843D01*
X134835000Y-58192560D01*
X133135000Y-58192560D01*
X132887235Y-58241843D01*
X132790000Y-58306814D01*
X132790000Y-57983071D01*
X132815000Y-57857388D01*
X132815000Y-56590000D01*
X147125137Y-56590000D01*
X147107071Y-56602071D01*
G36*
X166705000Y-66179802D02*
X166705000Y-66225983D01*
X166847345Y-66569635D01*
X167110365Y-66832655D01*
X167454017Y-66975000D01*
X167825983Y-66975000D01*
X168169635Y-66832655D01*
X168398744Y-66603546D01*
X168738791Y-66943593D01*
X168665908Y-67310000D01*
X168767353Y-67820000D01*
X166297290Y-67820000D01*
X166264635Y-67787345D01*
X165920983Y-67645000D01*
X165549017Y-67645000D01*
X165205365Y-67787345D01*
X164942345Y-68050365D01*
X164800000Y-68394017D01*
X164800000Y-68765983D01*
X164942345Y-69109635D01*
X165205365Y-69372655D01*
X165549017Y-69515000D01*
X165920983Y-69515000D01*
X166264635Y-69372655D01*
X166297290Y-69340000D01*
X168801940Y-69340000D01*
X168738524Y-69493110D01*
X168859845Y-69723000D01*
X170053000Y-69723000D01*
X170053000Y-69703000D01*
X170307000Y-69703000D01*
X170307000Y-69723000D01*
X170327000Y-69723000D01*
X170327000Y-69977000D01*
X170307000Y-69977000D01*
X170307000Y-69997000D01*
X170053000Y-69997000D01*
X170053000Y-69977000D01*
X168859845Y-69977000D01*
X168738524Y-70206890D01*
X168822650Y-70410000D01*
X158644863Y-70410000D01*
X158662929Y-70397929D01*
X158830904Y-70146537D01*
X158875000Y-69924852D01*
X158875000Y-69924848D01*
X158889888Y-69850000D01*
X158875000Y-69775152D01*
X158875000Y-68099801D01*
X160306856Y-66667945D01*
X160430000Y-66692440D01*
X161800001Y-66692440D01*
X161800001Y-67235144D01*
X161800000Y-67235149D01*
X161800000Y-67630198D01*
X161610199Y-67820000D01*
X160582290Y-67820000D01*
X160549635Y-67787345D01*
X160205983Y-67645000D01*
X159834017Y-67645000D01*
X159490365Y-67787345D01*
X159227345Y-68050365D01*
X159085000Y-68394017D01*
X159085000Y-68765983D01*
X159227345Y-69109635D01*
X159490365Y-69372655D01*
X159834017Y-69515000D01*
X160205983Y-69515000D01*
X160549635Y-69372655D01*
X160582290Y-69340000D01*
X161850153Y-69340000D01*
X161925000Y-69354888D01*
X161999847Y-69340000D01*
X161999852Y-69340000D01*
X162221537Y-69295904D01*
X162472929Y-69127929D01*
X162515331Y-69064470D01*
X163044473Y-68535329D01*
X163107929Y-68492929D01*
X163275904Y-68241537D01*
X163320000Y-68019852D01*
X163320000Y-68019848D01*
X163334888Y-67945000D01*
X163320000Y-67870152D01*
X163320000Y-66680000D01*
X163624250Y-66680000D01*
X163783000Y-66521250D01*
X163783000Y-65847000D01*
X164037000Y-65847000D01*
X164037000Y-66521250D01*
X164195750Y-66680000D01*
X164816309Y-66680000D01*
X165049698Y-66583327D01*
X165228327Y-66404699D01*
X165325000Y-66171310D01*
X165325000Y-66005750D01*
X165166250Y-65847000D01*
X164037000Y-65847000D01*
X163783000Y-65847000D01*
X163763000Y-65847000D01*
X163763000Y-65742440D01*
X164690000Y-65742440D01*
X164937765Y-65693157D01*
X165087659Y-65593000D01*
X165166250Y-65593000D01*
X165229250Y-65530000D01*
X166055199Y-65530000D01*
X166705000Y-66179802D01*
X166705000Y-66179802D01*
G37*
X166705000Y-66179802D02*
X166705000Y-66225983D01*
X166847345Y-66569635D01*
X167110365Y-66832655D01*
X167454017Y-66975000D01*
X167825983Y-66975000D01*
X168169635Y-66832655D01*
X168398744Y-66603546D01*
X168738791Y-66943593D01*
X168665908Y-67310000D01*
X168767353Y-67820000D01*
X166297290Y-67820000D01*
X166264635Y-67787345D01*
X165920983Y-67645000D01*
X165549017Y-67645000D01*
X165205365Y-67787345D01*
X164942345Y-68050365D01*
X164800000Y-68394017D01*
X164800000Y-68765983D01*
X164942345Y-69109635D01*
X165205365Y-69372655D01*
X165549017Y-69515000D01*
X165920983Y-69515000D01*
X166264635Y-69372655D01*
X166297290Y-69340000D01*
X168801940Y-69340000D01*
X168738524Y-69493110D01*
X168859845Y-69723000D01*
X170053000Y-69723000D01*
X170053000Y-69703000D01*
X170307000Y-69703000D01*
X170307000Y-69723000D01*
X170327000Y-69723000D01*
X170327000Y-69977000D01*
X170307000Y-69977000D01*
X170307000Y-69997000D01*
X170053000Y-69997000D01*
X170053000Y-69977000D01*
X168859845Y-69977000D01*
X168738524Y-70206890D01*
X168822650Y-70410000D01*
X158644863Y-70410000D01*
X158662929Y-70397929D01*
X158830904Y-70146537D01*
X158875000Y-69924852D01*
X158875000Y-69924848D01*
X158889888Y-69850000D01*
X158875000Y-69775152D01*
X158875000Y-68099801D01*
X160306856Y-66667945D01*
X160430000Y-66692440D01*
X161800001Y-66692440D01*
X161800001Y-67235144D01*
X161800000Y-67235149D01*
X161800000Y-67630198D01*
X161610199Y-67820000D01*
X160582290Y-67820000D01*
X160549635Y-67787345D01*
X160205983Y-67645000D01*
X159834017Y-67645000D01*
X159490365Y-67787345D01*
X159227345Y-68050365D01*
X159085000Y-68394017D01*
X159085000Y-68765983D01*
X159227345Y-69109635D01*
X159490365Y-69372655D01*
X159834017Y-69515000D01*
X160205983Y-69515000D01*
X160549635Y-69372655D01*
X160582290Y-69340000D01*
X161850153Y-69340000D01*
X161925000Y-69354888D01*
X161999847Y-69340000D01*
X161999852Y-69340000D01*
X162221537Y-69295904D01*
X162472929Y-69127929D01*
X162515331Y-69064470D01*
X163044473Y-68535329D01*
X163107929Y-68492929D01*
X163275904Y-68241537D01*
X163320000Y-68019852D01*
X163320000Y-68019848D01*
X163334888Y-67945000D01*
X163320000Y-67870152D01*
X163320000Y-66680000D01*
X163624250Y-66680000D01*
X163783000Y-66521250D01*
X163783000Y-65847000D01*
X164037000Y-65847000D01*
X164037000Y-66521250D01*
X164195750Y-66680000D01*
X164816309Y-66680000D01*
X165049698Y-66583327D01*
X165228327Y-66404699D01*
X165325000Y-66171310D01*
X165325000Y-66005750D01*
X165166250Y-65847000D01*
X164037000Y-65847000D01*
X163783000Y-65847000D01*
X163763000Y-65847000D01*
X163763000Y-65742440D01*
X164690000Y-65742440D01*
X164937765Y-65693157D01*
X165087659Y-65593000D01*
X165166250Y-65593000D01*
X165229250Y-65530000D01*
X166055199Y-65530000D01*
X166705000Y-66179802D01*
G36*
X148925000Y-64955983D02*
X149067345Y-65299635D01*
X149330365Y-65562655D01*
X149674017Y-65705000D01*
X149720199Y-65705000D01*
X150379671Y-66364473D01*
X150422071Y-66427929D01*
X150673463Y-66595904D01*
X150895148Y-66640000D01*
X150895152Y-66640000D01*
X150969999Y-66654888D01*
X151044846Y-66640000D01*
X151747560Y-66640000D01*
X151747560Y-66660000D01*
X151796843Y-66907765D01*
X151937191Y-67117809D01*
X152107648Y-67231706D01*
X152035301Y-67261673D01*
X151856673Y-67440302D01*
X151760000Y-67673691D01*
X151760000Y-68294250D01*
X151918750Y-68453000D01*
X152593000Y-68453000D01*
X152593000Y-68433000D01*
X152697560Y-68433000D01*
X152697560Y-68727000D01*
X152593000Y-68727000D01*
X152593000Y-68707000D01*
X151918750Y-68707000D01*
X151760000Y-68865750D01*
X151760000Y-69486309D01*
X151856673Y-69719698D01*
X151861975Y-69725000D01*
X148251595Y-69725000D01*
X148283157Y-69677765D01*
X148332440Y-69430000D01*
X148332440Y-67730000D01*
X148283157Y-67482235D01*
X148142809Y-67272191D01*
X147932765Y-67131843D01*
X147685000Y-67082560D01*
X147333483Y-67082560D01*
X147232929Y-66932071D01*
X147169473Y-66889671D01*
X146470331Y-66190530D01*
X146427929Y-66127071D01*
X146176537Y-65959096D01*
X145984352Y-65920868D01*
X146130904Y-65701537D01*
X146175000Y-65479852D01*
X146175000Y-65479848D01*
X146189888Y-65405001D01*
X146175000Y-65330154D01*
X146175000Y-65108163D01*
X146272809Y-65042809D01*
X146371573Y-64895000D01*
X148925000Y-64895000D01*
X148925000Y-64955983D01*
X148925000Y-64955983D01*
G37*
X148925000Y-64955983D02*
X149067345Y-65299635D01*
X149330365Y-65562655D01*
X149674017Y-65705000D01*
X149720199Y-65705000D01*
X150379671Y-66364473D01*
X150422071Y-66427929D01*
X150673463Y-66595904D01*
X150895148Y-66640000D01*
X150895152Y-66640000D01*
X150969999Y-66654888D01*
X151044846Y-66640000D01*
X151747560Y-66640000D01*
X151747560Y-66660000D01*
X151796843Y-66907765D01*
X151937191Y-67117809D01*
X152107648Y-67231706D01*
X152035301Y-67261673D01*
X151856673Y-67440302D01*
X151760000Y-67673691D01*
X151760000Y-68294250D01*
X151918750Y-68453000D01*
X152593000Y-68453000D01*
X152593000Y-68433000D01*
X152697560Y-68433000D01*
X152697560Y-68727000D01*
X152593000Y-68727000D01*
X152593000Y-68707000D01*
X151918750Y-68707000D01*
X151760000Y-68865750D01*
X151760000Y-69486309D01*
X151856673Y-69719698D01*
X151861975Y-69725000D01*
X148251595Y-69725000D01*
X148283157Y-69677765D01*
X148332440Y-69430000D01*
X148332440Y-67730000D01*
X148283157Y-67482235D01*
X148142809Y-67272191D01*
X147932765Y-67131843D01*
X147685000Y-67082560D01*
X147333483Y-67082560D01*
X147232929Y-66932071D01*
X147169473Y-66889671D01*
X146470331Y-66190530D01*
X146427929Y-66127071D01*
X146176537Y-65959096D01*
X145984352Y-65920868D01*
X146130904Y-65701537D01*
X146175000Y-65479852D01*
X146175000Y-65479848D01*
X146189888Y-65405001D01*
X146175000Y-65330154D01*
X146175000Y-65108163D01*
X146272809Y-65042809D01*
X146371573Y-64895000D01*
X148925000Y-64895000D01*
X148925000Y-64955983D01*
G36*
X153884670Y-58714472D02*
X153927071Y-58777929D01*
X153990527Y-58820329D01*
X154077560Y-58878483D01*
X154077560Y-59230000D01*
X154126843Y-59477765D01*
X154267191Y-59687809D01*
X154477235Y-59828157D01*
X154725000Y-59877440D01*
X156425000Y-59877440D01*
X156672765Y-59828157D01*
X156882809Y-59687809D01*
X157023157Y-59477765D01*
X157072440Y-59230000D01*
X157072440Y-59087241D01*
X157524671Y-59539473D01*
X157567071Y-59602929D01*
X157818463Y-59770904D01*
X158040148Y-59815000D01*
X158040152Y-59815000D01*
X158114999Y-59829888D01*
X158189846Y-59815000D01*
X158372560Y-59815000D01*
X158372560Y-60355000D01*
X158421843Y-60602765D01*
X158562191Y-60812809D01*
X158772235Y-60953157D01*
X159020000Y-61002440D01*
X160560270Y-61002440D01*
X160497345Y-61065365D01*
X160355000Y-61409017D01*
X160355000Y-61780983D01*
X160497345Y-62124635D01*
X160530000Y-62157290D01*
X160530001Y-62847560D01*
X160430000Y-62847560D01*
X160182235Y-62896843D01*
X159972191Y-63037191D01*
X159831843Y-63247235D01*
X159782560Y-63495000D01*
X159782560Y-64145000D01*
X159831843Y-64392765D01*
X159972191Y-64602809D01*
X160182235Y-64743157D01*
X160317185Y-64770000D01*
X160182235Y-64796843D01*
X159972191Y-64937191D01*
X159934234Y-64993997D01*
X159883463Y-65004096D01*
X159632071Y-65172071D01*
X159589671Y-65235527D01*
X157630530Y-67194669D01*
X157567071Y-67237071D01*
X157399096Y-67488464D01*
X157355000Y-67710149D01*
X157355000Y-67710153D01*
X157342309Y-67773955D01*
X157030983Y-67645000D01*
X156659017Y-67645000D01*
X156315365Y-67787345D01*
X156282710Y-67820000D01*
X155592440Y-67820000D01*
X155592440Y-67800000D01*
X155543157Y-67552235D01*
X155402809Y-67342191D01*
X155234905Y-67230000D01*
X155402809Y-67117809D01*
X155543157Y-66907765D01*
X155592440Y-66660000D01*
X155592440Y-65951517D01*
X155655904Y-65856537D01*
X155700000Y-65634852D01*
X155700000Y-65634848D01*
X155714888Y-65560001D01*
X155700000Y-65485154D01*
X155700000Y-64697290D01*
X155732655Y-64664635D01*
X155875000Y-64320983D01*
X155875000Y-63949017D01*
X155845352Y-63877440D01*
X156425000Y-63877440D01*
X156672765Y-63828157D01*
X156882809Y-63687809D01*
X157023157Y-63477765D01*
X157072440Y-63230000D01*
X157072440Y-63073220D01*
X157294017Y-63165000D01*
X157665983Y-63165000D01*
X158009635Y-63022655D01*
X158272655Y-62759635D01*
X158415000Y-62415983D01*
X158415000Y-62044017D01*
X158272655Y-61700365D01*
X158009635Y-61437345D01*
X157665983Y-61295000D01*
X157294017Y-61295000D01*
X157072440Y-61386780D01*
X157072440Y-61230000D01*
X157023157Y-60982235D01*
X156882809Y-60772191D01*
X156672765Y-60631843D01*
X156425000Y-60582560D01*
X154725000Y-60582560D01*
X154477235Y-60631843D01*
X154267191Y-60772191D01*
X154126843Y-60982235D01*
X154077560Y-61230000D01*
X154077560Y-63230000D01*
X154106402Y-63375000D01*
X146371573Y-63375000D01*
X146272809Y-63227191D01*
X146062765Y-63086843D01*
X145815000Y-63037560D01*
X145326316Y-63037560D01*
X145463157Y-62832765D01*
X145512440Y-62585000D01*
X145512440Y-61685000D01*
X145463157Y-61437235D01*
X145322809Y-61227191D01*
X145280728Y-61199073D01*
X145477362Y-61002440D01*
X147050000Y-61002440D01*
X147297765Y-60953157D01*
X147507809Y-60812809D01*
X147606900Y-60664510D01*
X147952056Y-60895136D01*
X148590000Y-61022031D01*
X149227945Y-60895136D01*
X149768769Y-60533769D01*
X149879952Y-60367371D01*
X150063683Y-60600922D01*
X150621645Y-60914144D01*
X150749566Y-60945124D01*
X151003000Y-60825777D01*
X151003000Y-59182000D01*
X151257000Y-59182000D01*
X151257000Y-60825777D01*
X151510434Y-60945124D01*
X151638355Y-60914144D01*
X152196317Y-60600922D01*
X152591942Y-60098020D01*
X152765000Y-59482000D01*
X152765000Y-59182000D01*
X151257000Y-59182000D01*
X151003000Y-59182000D01*
X150983000Y-59182000D01*
X150983000Y-58928000D01*
X151003000Y-58928000D01*
X151003000Y-58908000D01*
X151257000Y-58908000D01*
X151257000Y-58928000D01*
X152765000Y-58928000D01*
X152765000Y-58628000D01*
X152591942Y-58011980D01*
X152511716Y-57910000D01*
X153080199Y-57910000D01*
X153884670Y-58714472D01*
X153884670Y-58714472D01*
G37*
X153884670Y-58714472D02*
X153927071Y-58777929D01*
X153990527Y-58820329D01*
X154077560Y-58878483D01*
X154077560Y-59230000D01*
X154126843Y-59477765D01*
X154267191Y-59687809D01*
X154477235Y-59828157D01*
X154725000Y-59877440D01*
X156425000Y-59877440D01*
X156672765Y-59828157D01*
X156882809Y-59687809D01*
X157023157Y-59477765D01*
X157072440Y-59230000D01*
X157072440Y-59087241D01*
X157524671Y-59539473D01*
X157567071Y-59602929D01*
X157818463Y-59770904D01*
X158040148Y-59815000D01*
X158040152Y-59815000D01*
X158114999Y-59829888D01*
X158189846Y-59815000D01*
X158372560Y-59815000D01*
X158372560Y-60355000D01*
X158421843Y-60602765D01*
X158562191Y-60812809D01*
X158772235Y-60953157D01*
X159020000Y-61002440D01*
X160560270Y-61002440D01*
X160497345Y-61065365D01*
X160355000Y-61409017D01*
X160355000Y-61780983D01*
X160497345Y-62124635D01*
X160530000Y-62157290D01*
X160530001Y-62847560D01*
X160430000Y-62847560D01*
X160182235Y-62896843D01*
X159972191Y-63037191D01*
X159831843Y-63247235D01*
X159782560Y-63495000D01*
X159782560Y-64145000D01*
X159831843Y-64392765D01*
X159972191Y-64602809D01*
X160182235Y-64743157D01*
X160317185Y-64770000D01*
X160182235Y-64796843D01*
X159972191Y-64937191D01*
X159934234Y-64993997D01*
X159883463Y-65004096D01*
X159632071Y-65172071D01*
X159589671Y-65235527D01*
X157630530Y-67194669D01*
X157567071Y-67237071D01*
X157399096Y-67488464D01*
X157355000Y-67710149D01*
X157355000Y-67710153D01*
X157342309Y-67773955D01*
X157030983Y-67645000D01*
X156659017Y-67645000D01*
X156315365Y-67787345D01*
X156282710Y-67820000D01*
X155592440Y-67820000D01*
X155592440Y-67800000D01*
X155543157Y-67552235D01*
X155402809Y-67342191D01*
X155234905Y-67230000D01*
X155402809Y-67117809D01*
X155543157Y-66907765D01*
X155592440Y-66660000D01*
X155592440Y-65951517D01*
X155655904Y-65856537D01*
X155700000Y-65634852D01*
X155700000Y-65634848D01*
X155714888Y-65560001D01*
X155700000Y-65485154D01*
X155700000Y-64697290D01*
X155732655Y-64664635D01*
X155875000Y-64320983D01*
X155875000Y-63949017D01*
X155845352Y-63877440D01*
X156425000Y-63877440D01*
X156672765Y-63828157D01*
X156882809Y-63687809D01*
X157023157Y-63477765D01*
X157072440Y-63230000D01*
X157072440Y-63073220D01*
X157294017Y-63165000D01*
X157665983Y-63165000D01*
X158009635Y-63022655D01*
X158272655Y-62759635D01*
X158415000Y-62415983D01*
X158415000Y-62044017D01*
X158272655Y-61700365D01*
X158009635Y-61437345D01*
X157665983Y-61295000D01*
X157294017Y-61295000D01*
X157072440Y-61386780D01*
X157072440Y-61230000D01*
X157023157Y-60982235D01*
X156882809Y-60772191D01*
X156672765Y-60631843D01*
X156425000Y-60582560D01*
X154725000Y-60582560D01*
X154477235Y-60631843D01*
X154267191Y-60772191D01*
X154126843Y-60982235D01*
X154077560Y-61230000D01*
X154077560Y-63230000D01*
X154106402Y-63375000D01*
X146371573Y-63375000D01*
X146272809Y-63227191D01*
X146062765Y-63086843D01*
X145815000Y-63037560D01*
X145326316Y-63037560D01*
X145463157Y-62832765D01*
X145512440Y-62585000D01*
X145512440Y-61685000D01*
X145463157Y-61437235D01*
X145322809Y-61227191D01*
X145280728Y-61199073D01*
X145477362Y-61002440D01*
X147050000Y-61002440D01*
X147297765Y-60953157D01*
X147507809Y-60812809D01*
X147606900Y-60664510D01*
X147952056Y-60895136D01*
X148590000Y-61022031D01*
X149227945Y-60895136D01*
X149768769Y-60533769D01*
X149879952Y-60367371D01*
X150063683Y-60600922D01*
X150621645Y-60914144D01*
X150749566Y-60945124D01*
X151003000Y-60825777D01*
X151003000Y-59182000D01*
X151257000Y-59182000D01*
X151257000Y-60825777D01*
X151510434Y-60945124D01*
X151638355Y-60914144D01*
X152196317Y-60600922D01*
X152591942Y-60098020D01*
X152765000Y-59482000D01*
X152765000Y-59182000D01*
X151257000Y-59182000D01*
X151003000Y-59182000D01*
X150983000Y-59182000D01*
X150983000Y-58928000D01*
X151003000Y-58928000D01*
X151003000Y-58908000D01*
X151257000Y-58908000D01*
X151257000Y-58928000D01*
X152765000Y-58928000D01*
X152765000Y-58628000D01*
X152591942Y-58011980D01*
X152511716Y-57910000D01*
X153080199Y-57910000D01*
X153884670Y-58714472D01*
G36*
X172847000Y-64643000D02*
X172867000Y-64643000D01*
X172867000Y-64897000D01*
X172847000Y-64897000D01*
X172847000Y-64917000D01*
X172593000Y-64917000D01*
X172593000Y-64897000D01*
X172573000Y-64897000D01*
X172573000Y-64643000D01*
X172593000Y-64643000D01*
X172593000Y-64623000D01*
X172847000Y-64623000D01*
X172847000Y-64643000D01*
X172847000Y-64643000D01*
G37*
X172847000Y-64643000D02*
X172867000Y-64643000D01*
X172867000Y-64897000D01*
X172847000Y-64897000D01*
X172847000Y-64917000D01*
X172593000Y-64917000D01*
X172593000Y-64897000D01*
X172573000Y-64897000D01*
X172573000Y-64643000D01*
X172593000Y-64643000D01*
X172593000Y-64623000D01*
X172847000Y-64623000D01*
X172847000Y-64643000D01*
G36*
X173890000Y-57857387D02*
X173915000Y-57983070D01*
X173915000Y-58805515D01*
X173790625Y-58619375D01*
X173299418Y-58291161D01*
X172866256Y-58205000D01*
X172573744Y-58205000D01*
X172140582Y-58291161D01*
X171649375Y-58619375D01*
X171637184Y-58637619D01*
X171628157Y-58592235D01*
X171487809Y-58382191D01*
X171277765Y-58241843D01*
X171030000Y-58192560D01*
X169330000Y-58192560D01*
X169082235Y-58241843D01*
X168872191Y-58382191D01*
X168731843Y-58592235D01*
X168682560Y-58840000D01*
X168682560Y-58960352D01*
X168661605Y-58964520D01*
X168613462Y-58974096D01*
X168426418Y-59099076D01*
X168362071Y-59142071D01*
X168319671Y-59205527D01*
X166774632Y-60750567D01*
X166555983Y-60660000D01*
X166184017Y-60660000D01*
X165840365Y-60802345D01*
X165577345Y-61065365D01*
X165435000Y-61409017D01*
X165435000Y-61780983D01*
X165504383Y-61948488D01*
X165205365Y-62072345D01*
X164942345Y-62335365D01*
X164800000Y-62679017D01*
X164800000Y-62869440D01*
X164690000Y-62847560D01*
X163130000Y-62847560D01*
X162882235Y-62896843D01*
X162672191Y-63037191D01*
X162634234Y-63093997D01*
X162583463Y-63104096D01*
X162520586Y-63146109D01*
X162447809Y-63037191D01*
X162237765Y-62896843D01*
X162050000Y-62859495D01*
X162050000Y-62157290D01*
X162082655Y-62124635D01*
X162225000Y-61780983D01*
X162225000Y-61409017D01*
X162082655Y-61065365D01*
X161893034Y-60875744D01*
X161922056Y-60895136D01*
X162560000Y-61022031D01*
X163197945Y-60895136D01*
X163738769Y-60533769D01*
X163849952Y-60367371D01*
X164033683Y-60600922D01*
X164591645Y-60914144D01*
X164719566Y-60945124D01*
X164973000Y-60825777D01*
X164973000Y-59182000D01*
X165227000Y-59182000D01*
X165227000Y-60825777D01*
X165480434Y-60945124D01*
X165608355Y-60914144D01*
X166166317Y-60600922D01*
X166561942Y-60098020D01*
X166735000Y-59482000D01*
X166735000Y-59182000D01*
X165227000Y-59182000D01*
X164973000Y-59182000D01*
X164953000Y-59182000D01*
X164953000Y-58928000D01*
X164973000Y-58928000D01*
X164973000Y-57284223D01*
X165227000Y-57284223D01*
X165227000Y-58928000D01*
X166735000Y-58928000D01*
X166735000Y-58628000D01*
X166561942Y-58011980D01*
X166166317Y-57509078D01*
X165608355Y-57195856D01*
X165480434Y-57164876D01*
X165227000Y-57284223D01*
X164973000Y-57284223D01*
X164719566Y-57164876D01*
X164591645Y-57195856D01*
X164033683Y-57509078D01*
X163849952Y-57742629D01*
X163738769Y-57576231D01*
X163197944Y-57214864D01*
X162560000Y-57087969D01*
X161922055Y-57214864D01*
X161576900Y-57445489D01*
X161477809Y-57297191D01*
X161267765Y-57156843D01*
X161020000Y-57107560D01*
X159020000Y-57107560D01*
X158772235Y-57156843D01*
X158562191Y-57297191D01*
X158421843Y-57507235D01*
X158372560Y-57755000D01*
X158372560Y-58237758D01*
X157880331Y-57745530D01*
X157837929Y-57682071D01*
X157586537Y-57514096D01*
X157364852Y-57470000D01*
X157364847Y-57470000D01*
X157290000Y-57455112D01*
X157215153Y-57470000D01*
X157072440Y-57470000D01*
X157072440Y-57230000D01*
X157023157Y-56982235D01*
X156882809Y-56772191D01*
X156672765Y-56631843D01*
X156462404Y-56590000D01*
X173890001Y-56590000D01*
X173890000Y-57857387D01*
X173890000Y-57857387D01*
G37*
X173890000Y-57857387D02*
X173915000Y-57983070D01*
X173915000Y-58805515D01*
X173790625Y-58619375D01*
X173299418Y-58291161D01*
X172866256Y-58205000D01*
X172573744Y-58205000D01*
X172140582Y-58291161D01*
X171649375Y-58619375D01*
X171637184Y-58637619D01*
X171628157Y-58592235D01*
X171487809Y-58382191D01*
X171277765Y-58241843D01*
X171030000Y-58192560D01*
X169330000Y-58192560D01*
X169082235Y-58241843D01*
X168872191Y-58382191D01*
X168731843Y-58592235D01*
X168682560Y-58840000D01*
X168682560Y-58960352D01*
X168661605Y-58964520D01*
X168613462Y-58974096D01*
X168426418Y-59099076D01*
X168362071Y-59142071D01*
X168319671Y-59205527D01*
X166774632Y-60750567D01*
X166555983Y-60660000D01*
X166184017Y-60660000D01*
X165840365Y-60802345D01*
X165577345Y-61065365D01*
X165435000Y-61409017D01*
X165435000Y-61780983D01*
X165504383Y-61948488D01*
X165205365Y-62072345D01*
X164942345Y-62335365D01*
X164800000Y-62679017D01*
X164800000Y-62869440D01*
X164690000Y-62847560D01*
X163130000Y-62847560D01*
X162882235Y-62896843D01*
X162672191Y-63037191D01*
X162634234Y-63093997D01*
X162583463Y-63104096D01*
X162520586Y-63146109D01*
X162447809Y-63037191D01*
X162237765Y-62896843D01*
X162050000Y-62859495D01*
X162050000Y-62157290D01*
X162082655Y-62124635D01*
X162225000Y-61780983D01*
X162225000Y-61409017D01*
X162082655Y-61065365D01*
X161893034Y-60875744D01*
X161922056Y-60895136D01*
X162560000Y-61022031D01*
X163197945Y-60895136D01*
X163738769Y-60533769D01*
X163849952Y-60367371D01*
X164033683Y-60600922D01*
X164591645Y-60914144D01*
X164719566Y-60945124D01*
X164973000Y-60825777D01*
X164973000Y-59182000D01*
X165227000Y-59182000D01*
X165227000Y-60825777D01*
X165480434Y-60945124D01*
X165608355Y-60914144D01*
X166166317Y-60600922D01*
X166561942Y-60098020D01*
X166735000Y-59482000D01*
X166735000Y-59182000D01*
X165227000Y-59182000D01*
X164973000Y-59182000D01*
X164953000Y-59182000D01*
X164953000Y-58928000D01*
X164973000Y-58928000D01*
X164973000Y-57284223D01*
X165227000Y-57284223D01*
X165227000Y-58928000D01*
X166735000Y-58928000D01*
X166735000Y-58628000D01*
X166561942Y-58011980D01*
X166166317Y-57509078D01*
X165608355Y-57195856D01*
X165480434Y-57164876D01*
X165227000Y-57284223D01*
X164973000Y-57284223D01*
X164719566Y-57164876D01*
X164591645Y-57195856D01*
X164033683Y-57509078D01*
X163849952Y-57742629D01*
X163738769Y-57576231D01*
X163197944Y-57214864D01*
X162560000Y-57087969D01*
X161922055Y-57214864D01*
X161576900Y-57445489D01*
X161477809Y-57297191D01*
X161267765Y-57156843D01*
X161020000Y-57107560D01*
X159020000Y-57107560D01*
X158772235Y-57156843D01*
X158562191Y-57297191D01*
X158421843Y-57507235D01*
X158372560Y-57755000D01*
X158372560Y-58237758D01*
X157880331Y-57745530D01*
X157837929Y-57682071D01*
X157586537Y-57514096D01*
X157364852Y-57470000D01*
X157364847Y-57470000D01*
X157290000Y-57455112D01*
X157215153Y-57470000D01*
X157072440Y-57470000D01*
X157072440Y-57230000D01*
X157023157Y-56982235D01*
X156882809Y-56772191D01*
X156672765Y-56631843D01*
X156462404Y-56590000D01*
X173890001Y-56590000D01*
X173890000Y-57857387D01*
G04 #@! TD*
M02*
