M48
;DRILL file {KiCad (5.0.1)-4} date 11/27/2018 1:12:08 PM
;FORMAT={-:-/ absolute / inch / decimal}
FMAT,2
INCH,TZ
T1C0.0157
T2C0.0394
T3C0.0472
%
G90
G05
M72
T1
X5.625Y-2.275
X5.675Y-2.625
X5.8Y-2.6
X5.875Y-2.625
X5.9Y-2.55
X5.9Y-2.7
X6.1Y-2.525
X6.175Y-2.7
X6.2Y-2.45
X6.3Y-2.7
X6.35Y-2.425
X6.525Y-2.475
X6.525Y-2.7
X6.55Y-2.425
X6.55Y-2.425
X6.5799Y-2.4799
X6.6Y-2.6
T2
X5.275Y-2.35
X5.275Y-2.45
X5.275Y-2.55
X5.275Y-2.65
X6.7Y-2.35
X6.7Y-2.45
X6.7Y-2.55
X6.7Y-2.65
X6.7Y-2.75
X6.8Y-2.35
X6.8Y-2.45
X6.8Y-2.55
X6.8Y-2.65
X6.8Y-2.75
X5.425Y-2.35
X5.425Y-2.45
X5.425Y-2.55
X5.425Y-2.65
T3
X6.3Y-2.325
X6.4Y-2.325
X6.5Y-2.325
X5.75Y-2.325
X5.85Y-2.325
X5.95Y-2.325
T0
M30
