G04 #@! TF.GenerationSoftware,KiCad,Pcbnew,(5.0.1)-4*
G04 #@! TF.CreationDate,2018-11-29T15:58:35-07:00*
G04 #@! TF.ProjectId,robot,726F626F742E6B696361645F70636200,rev?*
G04 #@! TF.SameCoordinates,Original*
G04 #@! TF.FileFunction,Legend,Top*
G04 #@! TF.FilePolarity,Positive*
%FSLAX46Y46*%
G04 Gerber Fmt 4.6, Leading zero omitted, Abs format (unit mm)*
G04 Created by KiCad (PCBNEW (5.0.1)-4) date 11/29/2018 3:58:35 PM*
%MOMM*%
%LPD*%
G01*
G04 APERTURE LIST*
%ADD10C,0.300000*%
%ADD11C,0.150000*%
%ADD12C,0.100000*%
%ADD13C,0.200000*%
%ADD14C,0.120000*%
G04 APERTURE END LIST*
D10*
X139089285Y-67353571D02*
X138232142Y-67353571D01*
X138660714Y-67353571D02*
X138660714Y-65853571D01*
X138517857Y-66067857D01*
X138375000Y-66210714D01*
X138232142Y-66282142D01*
X139660714Y-65996428D02*
X139732142Y-65925000D01*
X139875000Y-65853571D01*
X140232142Y-65853571D01*
X140375000Y-65925000D01*
X140446428Y-65996428D01*
X140517857Y-66139285D01*
X140517857Y-66282142D01*
X140446428Y-66496428D01*
X139589285Y-67353571D01*
X140517857Y-67353571D01*
X140946428Y-65853571D02*
X141446428Y-67353571D01*
X141946428Y-65853571D01*
X144375000Y-65925000D02*
X144232142Y-65853571D01*
X144017857Y-65853571D01*
X143803571Y-65925000D01*
X143660714Y-66067857D01*
X143589285Y-66210714D01*
X143517857Y-66496428D01*
X143517857Y-66710714D01*
X143589285Y-66996428D01*
X143660714Y-67139285D01*
X143803571Y-67282142D01*
X144017857Y-67353571D01*
X144160714Y-67353571D01*
X144375000Y-67282142D01*
X144446428Y-67210714D01*
X144446428Y-66710714D01*
X144160714Y-66710714D01*
X145089285Y-67353571D02*
X145089285Y-65853571D01*
X145946428Y-67353571D01*
X145946428Y-65853571D01*
X146660714Y-67353571D02*
X146660714Y-65853571D01*
X147017857Y-65853571D01*
X147232142Y-65925000D01*
X147375000Y-66067857D01*
X147446428Y-66210714D01*
X147517857Y-66496428D01*
X147517857Y-66710714D01*
X147446428Y-66996428D01*
X147375000Y-67139285D01*
X147232142Y-67282142D01*
X147017857Y-67353571D01*
X146660714Y-67353571D01*
X121309285Y-65925000D02*
X121166428Y-65853571D01*
X120952142Y-65853571D01*
X120737857Y-65925000D01*
X120595000Y-66067857D01*
X120523571Y-66210714D01*
X120452142Y-66496428D01*
X120452142Y-66710714D01*
X120523571Y-66996428D01*
X120595000Y-67139285D01*
X120737857Y-67282142D01*
X120952142Y-67353571D01*
X121095000Y-67353571D01*
X121309285Y-67282142D01*
X121380714Y-67210714D01*
X121380714Y-66710714D01*
X121095000Y-66710714D01*
X122023571Y-67353571D02*
X122023571Y-65853571D01*
X122880714Y-67353571D01*
X122880714Y-65853571D01*
X123595000Y-67353571D02*
X123595000Y-65853571D01*
X123952142Y-65853571D01*
X124166428Y-65925000D01*
X124309285Y-66067857D01*
X124380714Y-66210714D01*
X124452142Y-66496428D01*
X124452142Y-66710714D01*
X124380714Y-66996428D01*
X124309285Y-67139285D01*
X124166428Y-67282142D01*
X123952142Y-67353571D01*
X123595000Y-67353571D01*
X127023571Y-67353571D02*
X126166428Y-67353571D01*
X126595000Y-67353571D02*
X126595000Y-65853571D01*
X126452142Y-66067857D01*
X126309285Y-66210714D01*
X126166428Y-66282142D01*
X127595000Y-65996428D02*
X127666428Y-65925000D01*
X127809285Y-65853571D01*
X128166428Y-65853571D01*
X128309285Y-65925000D01*
X128380714Y-65996428D01*
X128452142Y-66139285D01*
X128452142Y-66282142D01*
X128380714Y-66496428D01*
X127523571Y-67353571D01*
X128452142Y-67353571D01*
X128880714Y-65853571D02*
X129380714Y-67353571D01*
X129880714Y-65853571D01*
D11*
X115389642Y-88437857D02*
X115889642Y-88437857D01*
X116103928Y-89223571D02*
X115389642Y-89223571D01*
X115389642Y-87723571D01*
X116103928Y-87723571D01*
X116746785Y-89223571D02*
X116746785Y-87723571D01*
X117603928Y-89223571D01*
X117603928Y-87723571D01*
X116175357Y-91623571D02*
X115318214Y-91623571D01*
X115746785Y-91623571D02*
X115746785Y-90123571D01*
X115603928Y-90337857D01*
X115461071Y-90480714D01*
X115318214Y-90552142D01*
X116746785Y-90266428D02*
X116818214Y-90195000D01*
X116961071Y-90123571D01*
X117318214Y-90123571D01*
X117461071Y-90195000D01*
X117532500Y-90266428D01*
X117603928Y-90409285D01*
X117603928Y-90552142D01*
X117532500Y-90766428D01*
X116675357Y-91623571D01*
X117603928Y-91623571D01*
X118032500Y-90123571D02*
X118532500Y-91623571D01*
X119032500Y-90123571D01*
X116175357Y-92595000D02*
X116032500Y-92523571D01*
X115818214Y-92523571D01*
X115603928Y-92595000D01*
X115461071Y-92737857D01*
X115389642Y-92880714D01*
X115318214Y-93166428D01*
X115318214Y-93380714D01*
X115389642Y-93666428D01*
X115461071Y-93809285D01*
X115603928Y-93952142D01*
X115818214Y-94023571D01*
X115961071Y-94023571D01*
X116175357Y-93952142D01*
X116246785Y-93880714D01*
X116246785Y-93380714D01*
X115961071Y-93380714D01*
X116889642Y-94023571D02*
X116889642Y-92523571D01*
X117746785Y-94023571D01*
X117746785Y-92523571D01*
X118461071Y-94023571D02*
X118461071Y-92523571D01*
X118818214Y-92523571D01*
X119032500Y-92595000D01*
X119175357Y-92737857D01*
X119246785Y-92880714D01*
X119318214Y-93166428D01*
X119318214Y-93380714D01*
X119246785Y-93666428D01*
X119175357Y-93809285D01*
X119032500Y-93952142D01*
X118818214Y-94023571D01*
X118461071Y-94023571D01*
X116175357Y-94995000D02*
X116032500Y-94923571D01*
X115818214Y-94923571D01*
X115603928Y-94995000D01*
X115461071Y-95137857D01*
X115389642Y-95280714D01*
X115318214Y-95566428D01*
X115318214Y-95780714D01*
X115389642Y-96066428D01*
X115461071Y-96209285D01*
X115603928Y-96352142D01*
X115818214Y-96423571D01*
X115961071Y-96423571D01*
X116175357Y-96352142D01*
X116246785Y-96280714D01*
X116246785Y-95780714D01*
X115961071Y-95780714D01*
X116889642Y-96423571D02*
X116889642Y-94923571D01*
X117746785Y-96423571D01*
X117746785Y-94923571D01*
X118461071Y-96423571D02*
X118461071Y-94923571D01*
X118818214Y-94923571D01*
X119032500Y-94995000D01*
X119175357Y-95137857D01*
X119246785Y-95280714D01*
X119318214Y-95566428D01*
X119318214Y-95780714D01*
X119246785Y-96066428D01*
X119175357Y-96209285D01*
X119032500Y-96352142D01*
X118818214Y-96423571D01*
X118461071Y-96423571D01*
X116103928Y-97323571D02*
X115389642Y-97323571D01*
X115318214Y-98037857D01*
X115389642Y-97966428D01*
X115532500Y-97895000D01*
X115889642Y-97895000D01*
X116032500Y-97966428D01*
X116103928Y-98037857D01*
X116175357Y-98180714D01*
X116175357Y-98537857D01*
X116103928Y-98680714D01*
X116032500Y-98752142D01*
X115889642Y-98823571D01*
X115532500Y-98823571D01*
X115389642Y-98752142D01*
X115318214Y-98680714D01*
X116603928Y-97323571D02*
X117103928Y-98823571D01*
X117603928Y-97323571D01*
D12*
X114409761Y-102627380D02*
X113933571Y-102627380D01*
X113885952Y-103103571D01*
X113933571Y-103055952D01*
X114028809Y-103008333D01*
X114266904Y-103008333D01*
X114362142Y-103055952D01*
X114409761Y-103103571D01*
X114457380Y-103198809D01*
X114457380Y-103436904D01*
X114409761Y-103532142D01*
X114362142Y-103579761D01*
X114266904Y-103627380D01*
X114028809Y-103627380D01*
X113933571Y-103579761D01*
X113885952Y-103532142D01*
X114743095Y-102627380D02*
X115076428Y-103627380D01*
X115409761Y-102627380D01*
X115266904Y-105875000D02*
X115171666Y-105827380D01*
X115028809Y-105827380D01*
X114885952Y-105875000D01*
X114790714Y-105970238D01*
X114743095Y-106065476D01*
X114695476Y-106255952D01*
X114695476Y-106398809D01*
X114743095Y-106589285D01*
X114790714Y-106684523D01*
X114885952Y-106779761D01*
X115028809Y-106827380D01*
X115124047Y-106827380D01*
X115266904Y-106779761D01*
X115314523Y-106732142D01*
X115314523Y-106398809D01*
X115124047Y-106398809D01*
X153226904Y-103627380D02*
X152655476Y-103627380D01*
X152941190Y-103627380D02*
X152941190Y-102627380D01*
X152845952Y-102770238D01*
X152750714Y-102865476D01*
X152655476Y-102913095D01*
X153607857Y-102722619D02*
X153655476Y-102675000D01*
X153750714Y-102627380D01*
X153988809Y-102627380D01*
X154084047Y-102675000D01*
X154131666Y-102722619D01*
X154179285Y-102817857D01*
X154179285Y-102913095D01*
X154131666Y-103055952D01*
X153560238Y-103627380D01*
X154179285Y-103627380D01*
X154465000Y-102627380D02*
X154798333Y-103627380D01*
X155131666Y-102627380D01*
X153226904Y-105875000D02*
X153131666Y-105827380D01*
X152988809Y-105827380D01*
X152845952Y-105875000D01*
X152750714Y-105970238D01*
X152703095Y-106065476D01*
X152655476Y-106255952D01*
X152655476Y-106398809D01*
X152703095Y-106589285D01*
X152750714Y-106684523D01*
X152845952Y-106779761D01*
X152988809Y-106827380D01*
X153084047Y-106827380D01*
X153226904Y-106779761D01*
X153274523Y-106732142D01*
X153274523Y-106398809D01*
X153084047Y-106398809D01*
D13*
X157213095Y-88492380D02*
X157213095Y-87492380D01*
X157451190Y-87492380D01*
X157594047Y-87540000D01*
X157689285Y-87635238D01*
X157736904Y-87730476D01*
X157784523Y-87920952D01*
X157784523Y-88063809D01*
X157736904Y-88254285D01*
X157689285Y-88349523D01*
X157594047Y-88444761D01*
X157451190Y-88492380D01*
X157213095Y-88492380D01*
X157736904Y-91892380D02*
X157165476Y-91892380D01*
X157451190Y-91892380D02*
X157451190Y-90892380D01*
X157355952Y-91035238D01*
X157260714Y-91130476D01*
X157165476Y-91178095D01*
X158117857Y-90987619D02*
X158165476Y-90940000D01*
X158260714Y-90892380D01*
X158498809Y-90892380D01*
X158594047Y-90940000D01*
X158641666Y-90987619D01*
X158689285Y-91082857D01*
X158689285Y-91178095D01*
X158641666Y-91320952D01*
X158070238Y-91892380D01*
X158689285Y-91892380D01*
X157736904Y-94340000D02*
X157641666Y-94292380D01*
X157498809Y-94292380D01*
X157355952Y-94340000D01*
X157260714Y-94435238D01*
X157213095Y-94530476D01*
X157165476Y-94720952D01*
X157165476Y-94863809D01*
X157213095Y-95054285D01*
X157260714Y-95149523D01*
X157355952Y-95244761D01*
X157498809Y-95292380D01*
X157594047Y-95292380D01*
X157736904Y-95244761D01*
X157784523Y-95197142D01*
X157784523Y-94863809D01*
X157594047Y-94863809D01*
D10*
X136172142Y-70933571D02*
X136672142Y-72433571D01*
X137172142Y-70933571D01*
X138243571Y-72362142D02*
X138100714Y-72433571D01*
X137815000Y-72433571D01*
X137672142Y-72362142D01*
X137600714Y-72219285D01*
X137600714Y-71647857D01*
X137672142Y-71505000D01*
X137815000Y-71433571D01*
X138100714Y-71433571D01*
X138243571Y-71505000D01*
X138315000Y-71647857D01*
X138315000Y-71790714D01*
X137600714Y-71933571D01*
X138957857Y-72433571D02*
X138957857Y-71433571D01*
X138957857Y-71719285D02*
X139029285Y-71576428D01*
X139100714Y-71505000D01*
X139243571Y-71433571D01*
X139386428Y-71433571D01*
X141672142Y-70933571D02*
X141386428Y-70933571D01*
X141243571Y-71005000D01*
X141172142Y-71076428D01*
X141029285Y-71290714D01*
X140957857Y-71576428D01*
X140957857Y-72147857D01*
X141029285Y-72290714D01*
X141100714Y-72362142D01*
X141243571Y-72433571D01*
X141529285Y-72433571D01*
X141672142Y-72362142D01*
X141743571Y-72290714D01*
X141815000Y-72147857D01*
X141815000Y-71790714D01*
X141743571Y-71647857D01*
X141672142Y-71576428D01*
X141529285Y-71505000D01*
X141243571Y-71505000D01*
X141100714Y-71576428D01*
X141029285Y-71647857D01*
X140957857Y-71790714D01*
X110685714Y-70933571D02*
X111042857Y-72433571D01*
X111328571Y-71362142D01*
X111614285Y-72433571D01*
X111971428Y-70933571D01*
X113185714Y-72433571D02*
X113185714Y-71647857D01*
X113114285Y-71505000D01*
X112971428Y-71433571D01*
X112685714Y-71433571D01*
X112542857Y-71505000D01*
X113185714Y-72362142D02*
X113042857Y-72433571D01*
X112685714Y-72433571D01*
X112542857Y-72362142D01*
X112471428Y-72219285D01*
X112471428Y-72076428D01*
X112542857Y-71933571D01*
X112685714Y-71862142D01*
X113042857Y-71862142D01*
X113185714Y-71790714D01*
X114114285Y-72433571D02*
X113971428Y-72362142D01*
X113900000Y-72219285D01*
X113900000Y-70933571D01*
X115328571Y-72362142D02*
X115185714Y-72433571D01*
X114900000Y-72433571D01*
X114757142Y-72362142D01*
X114685714Y-72290714D01*
X114614285Y-72147857D01*
X114614285Y-71719285D01*
X114685714Y-71576428D01*
X114757142Y-71505000D01*
X114900000Y-71433571D01*
X115185714Y-71433571D01*
X115328571Y-71505000D01*
X115971428Y-72433571D02*
X115971428Y-70933571D01*
X116614285Y-72433571D02*
X116614285Y-71647857D01*
X116542857Y-71505000D01*
X116400000Y-71433571D01*
X116185714Y-71433571D01*
X116042857Y-71505000D01*
X115971428Y-71576428D01*
X117328571Y-72433571D02*
X117328571Y-70933571D01*
X117471428Y-71862142D02*
X117900000Y-72433571D01*
X117900000Y-71433571D02*
X117328571Y-72005000D01*
X118757142Y-72433571D02*
X118614285Y-72362142D01*
X118542857Y-72290714D01*
X118471428Y-72147857D01*
X118471428Y-71719285D01*
X118542857Y-71576428D01*
X118614285Y-71505000D01*
X118757142Y-71433571D01*
X118971428Y-71433571D01*
X119114285Y-71505000D01*
X119185714Y-71576428D01*
X119257142Y-71719285D01*
X119257142Y-72147857D01*
X119185714Y-72290714D01*
X119114285Y-72362142D01*
X118971428Y-72433571D01*
X118757142Y-72433571D01*
X121471428Y-73005000D02*
X121400000Y-72933571D01*
X121257142Y-72719285D01*
X121185714Y-72576428D01*
X121114285Y-72362142D01*
X121042857Y-72005000D01*
X121042857Y-71719285D01*
X121114285Y-71362142D01*
X121185714Y-71147857D01*
X121257142Y-71005000D01*
X121400000Y-70790714D01*
X121471428Y-70719285D01*
X122685714Y-72362142D02*
X122542857Y-72433571D01*
X122257142Y-72433571D01*
X122114285Y-72362142D01*
X122042857Y-72290714D01*
X121971428Y-72147857D01*
X121971428Y-71719285D01*
X122042857Y-71576428D01*
X122114285Y-71505000D01*
X122257142Y-71433571D01*
X122542857Y-71433571D01*
X122685714Y-71505000D01*
X123185714Y-73005000D02*
X123257142Y-72933571D01*
X123400000Y-72719285D01*
X123471428Y-72576428D01*
X123542857Y-72362142D01*
X123614285Y-72005000D01*
X123614285Y-71719285D01*
X123542857Y-71362142D01*
X123471428Y-71147857D01*
X123400000Y-71005000D01*
X123257142Y-70790714D01*
X123185714Y-70719285D01*
X125400000Y-71076428D02*
X125471428Y-71005000D01*
X125614285Y-70933571D01*
X125971428Y-70933571D01*
X126114285Y-71005000D01*
X126185714Y-71076428D01*
X126257142Y-71219285D01*
X126257142Y-71362142D01*
X126185714Y-71576428D01*
X125328571Y-72433571D01*
X126257142Y-72433571D01*
X127185714Y-70933571D02*
X127328571Y-70933571D01*
X127471428Y-71005000D01*
X127542857Y-71076428D01*
X127614285Y-71219285D01*
X127685714Y-71505000D01*
X127685714Y-71862142D01*
X127614285Y-72147857D01*
X127542857Y-72290714D01*
X127471428Y-72362142D01*
X127328571Y-72433571D01*
X127185714Y-72433571D01*
X127042857Y-72362142D01*
X126971428Y-72290714D01*
X126900000Y-72147857D01*
X126828571Y-71862142D01*
X126828571Y-71505000D01*
X126900000Y-71219285D01*
X126971428Y-71076428D01*
X127042857Y-71005000D01*
X127185714Y-70933571D01*
X129114285Y-72433571D02*
X128257142Y-72433571D01*
X128685714Y-72433571D02*
X128685714Y-70933571D01*
X128542857Y-71147857D01*
X128400000Y-71290714D01*
X128257142Y-71362142D01*
X129971428Y-71576428D02*
X129828571Y-71505000D01*
X129757142Y-71433571D01*
X129685714Y-71290714D01*
X129685714Y-71219285D01*
X129757142Y-71076428D01*
X129828571Y-71005000D01*
X129971428Y-70933571D01*
X130257142Y-70933571D01*
X130400000Y-71005000D01*
X130471428Y-71076428D01*
X130542857Y-71219285D01*
X130542857Y-71290714D01*
X130471428Y-71433571D01*
X130400000Y-71505000D01*
X130257142Y-71576428D01*
X129971428Y-71576428D01*
X129828571Y-71647857D01*
X129757142Y-71719285D01*
X129685714Y-71862142D01*
X129685714Y-72147857D01*
X129757142Y-72290714D01*
X129828571Y-72362142D01*
X129971428Y-72433571D01*
X130257142Y-72433571D01*
X130400000Y-72362142D01*
X130471428Y-72290714D01*
X130542857Y-72147857D01*
X130542857Y-71862142D01*
X130471428Y-71719285D01*
X130400000Y-71647857D01*
X130257142Y-71576428D01*
D14*
G04 #@! TO.C,D1*
X126385000Y-96835000D02*
X126385000Y-94935000D01*
X126385000Y-94935000D02*
X121685000Y-94935000D01*
X126385000Y-96835000D02*
X121685000Y-96835000D01*
G04 #@! TO.C,J1*
X119480000Y-78635000D02*
X120480000Y-77635000D01*
X110580000Y-73735000D02*
X110580000Y-78635000D01*
X110580000Y-78635000D02*
X119480000Y-78635000D01*
X120480000Y-77635000D02*
X120480000Y-73735000D01*
X120480000Y-73735000D02*
X110580000Y-73735000D01*
G04 #@! TO.C,J3*
X153610000Y-95310000D02*
X156270000Y-95310000D01*
X153610000Y-90170000D02*
X153610000Y-95310000D01*
X156270000Y-90170000D02*
X156270000Y-95310000D01*
X153610000Y-90170000D02*
X156270000Y-90170000D01*
X153610000Y-88900000D02*
X153610000Y-87570000D01*
X153610000Y-87570000D02*
X154940000Y-87570000D01*
G04 #@! TO.C,J8*
X130910000Y-78635000D02*
X131910000Y-77635000D01*
X122010000Y-73735000D02*
X122010000Y-78635000D01*
X122010000Y-78635000D02*
X130910000Y-78635000D01*
X131910000Y-77635000D02*
X131910000Y-73735000D01*
X131910000Y-73735000D02*
X122010000Y-73735000D01*
G04 #@! TO.C,J10*
X119480000Y-83715000D02*
X120480000Y-82715000D01*
X110580000Y-78815000D02*
X110580000Y-83715000D01*
X110580000Y-83715000D02*
X119480000Y-83715000D01*
X120480000Y-82715000D02*
X120480000Y-78815000D01*
X120480000Y-78815000D02*
X110580000Y-78815000D01*
G04 #@! TO.C,J11*
X130910000Y-83715000D02*
X131910000Y-82715000D01*
X122010000Y-78815000D02*
X122010000Y-83715000D01*
X122010000Y-83715000D02*
X130910000Y-83715000D01*
X131910000Y-82715000D02*
X131910000Y-78815000D01*
X131910000Y-78815000D02*
X122010000Y-78815000D01*
G04 #@! TO.C,R1*
X124285000Y-92510000D02*
X122285000Y-92510000D01*
X122285000Y-90370000D02*
X124285000Y-90370000D01*
G04 #@! TO.C,J12*
X156310000Y-83715000D02*
X157310000Y-82715000D01*
X147410000Y-78815000D02*
X147410000Y-83715000D01*
X147410000Y-83715000D02*
X156310000Y-83715000D01*
X157310000Y-82715000D02*
X157310000Y-78815000D01*
X157310000Y-78815000D02*
X147410000Y-78815000D01*
G04 #@! TO.C,J13*
X144880000Y-83715000D02*
X145880000Y-82715000D01*
X135980000Y-78815000D02*
X135980000Y-83715000D01*
X135980000Y-83715000D02*
X144880000Y-83715000D01*
X145880000Y-82715000D02*
X145880000Y-78815000D01*
X145880000Y-78815000D02*
X135980000Y-78815000D01*
G04 #@! TO.C,J14*
X156310000Y-78635000D02*
X157310000Y-77635000D01*
X147410000Y-73735000D02*
X147410000Y-78635000D01*
X147410000Y-78635000D02*
X156310000Y-78635000D01*
X157310000Y-77635000D02*
X157310000Y-73735000D01*
X157310000Y-73735000D02*
X147410000Y-73735000D01*
G04 #@! TO.C,J15*
X144880000Y-78635000D02*
X145880000Y-77635000D01*
X135980000Y-73735000D02*
X135980000Y-78635000D01*
X135980000Y-78635000D02*
X144880000Y-78635000D01*
X145880000Y-77635000D02*
X145880000Y-73735000D01*
X145880000Y-73735000D02*
X135980000Y-73735000D01*
G04 #@! TO.C,J2*
X130075000Y-89640000D02*
X129075000Y-90640000D01*
X138975000Y-94540000D02*
X138975000Y-89640000D01*
X138975000Y-89640000D02*
X130075000Y-89640000D01*
X129075000Y-90640000D02*
X129075000Y-94540000D01*
X129075000Y-94540000D02*
X138975000Y-94540000D01*
G04 #@! TO.C,J6*
X111954000Y-87062000D02*
X113284000Y-87062000D01*
X111954000Y-88392000D02*
X111954000Y-87062000D01*
X111954000Y-89662000D02*
X114614000Y-89662000D01*
X114614000Y-89662000D02*
X114614000Y-99882000D01*
X111954000Y-89662000D02*
X111954000Y-99882000D01*
X111954000Y-99882000D02*
X114614000Y-99882000D01*
G04 #@! TO.C,J9*
X119955000Y-107375000D02*
X122615000Y-107375000D01*
X119955000Y-104775000D02*
X119955000Y-107375000D01*
X122615000Y-104775000D02*
X122615000Y-107375000D01*
X119955000Y-104775000D02*
X122615000Y-104775000D01*
X119955000Y-103505000D02*
X119955000Y-102175000D01*
X119955000Y-102175000D02*
X121285000Y-102175000D01*
G04 #@! TO.C,J16*
X116145000Y-102175000D02*
X117475000Y-102175000D01*
X116145000Y-103505000D02*
X116145000Y-102175000D01*
X116145000Y-104775000D02*
X118805000Y-104775000D01*
X118805000Y-104775000D02*
X118805000Y-107375000D01*
X116145000Y-104775000D02*
X116145000Y-107375000D01*
X116145000Y-107375000D02*
X118805000Y-107375000D01*
G04 #@! TO.C,J17*
X149165000Y-107375000D02*
X151825000Y-107375000D01*
X149165000Y-104775000D02*
X149165000Y-107375000D01*
X151825000Y-104775000D02*
X151825000Y-107375000D01*
X149165000Y-104775000D02*
X151825000Y-104775000D01*
X149165000Y-103505000D02*
X149165000Y-102175000D01*
X149165000Y-102175000D02*
X150495000Y-102175000D01*
G04 #@! TO.C,J18*
X145355000Y-102175000D02*
X146685000Y-102175000D01*
X145355000Y-103505000D02*
X145355000Y-102175000D01*
X145355000Y-104775000D02*
X148015000Y-104775000D01*
X148015000Y-104775000D02*
X148015000Y-107375000D01*
X145355000Y-104775000D02*
X145355000Y-107375000D01*
X145355000Y-107375000D02*
X148015000Y-107375000D01*
G04 #@! TO.C,J5*
X131210000Y-98730000D02*
X130410000Y-98730000D01*
X129120000Y-98880000D02*
X139500000Y-98880000D01*
X128000000Y-115380000D02*
X128000000Y-107410000D01*
X127000000Y-115380000D02*
X128000000Y-115380000D01*
X127000000Y-116000000D02*
X127000000Y-115380000D01*
X141620000Y-116000000D02*
X127000000Y-116000000D01*
X141620000Y-115380000D02*
X141620000Y-116000000D01*
X140620000Y-115380000D02*
X141620000Y-115380000D01*
X140620000Y-107410000D02*
X140620000Y-115380000D01*
X128000000Y-103910000D02*
X128000000Y-101730000D01*
X140620000Y-103910000D02*
X140620000Y-101730000D01*
G04 #@! TO.C,D1*
D11*
X128182380Y-96623095D02*
X127182380Y-96623095D01*
X127182380Y-96385000D01*
X127230000Y-96242142D01*
X127325238Y-96146904D01*
X127420476Y-96099285D01*
X127610952Y-96051666D01*
X127753809Y-96051666D01*
X127944285Y-96099285D01*
X128039523Y-96146904D01*
X128134761Y-96242142D01*
X128182380Y-96385000D01*
X128182380Y-96623095D01*
X128182380Y-95099285D02*
X128182380Y-95670714D01*
X128182380Y-95385000D02*
X127182380Y-95385000D01*
X127325238Y-95480238D01*
X127420476Y-95575476D01*
X127468095Y-95670714D01*
X121856666Y-98877380D02*
X121856666Y-97877380D01*
X122237619Y-97877380D01*
X122332857Y-97925000D01*
X122380476Y-97972619D01*
X122428095Y-98067857D01*
X122428095Y-98210714D01*
X122380476Y-98305952D01*
X122332857Y-98353571D01*
X122237619Y-98401190D01*
X121856666Y-98401190D01*
X122761428Y-97877380D02*
X122999523Y-98877380D01*
X123190000Y-98163095D01*
X123380476Y-98877380D01*
X123618571Y-97877380D01*
X124570952Y-98877380D02*
X124237619Y-98401190D01*
X123999523Y-98877380D02*
X123999523Y-97877380D01*
X124380476Y-97877380D01*
X124475714Y-97925000D01*
X124523333Y-97972619D01*
X124570952Y-98067857D01*
X124570952Y-98210714D01*
X124523333Y-98305952D01*
X124475714Y-98353571D01*
X124380476Y-98401190D01*
X123999523Y-98401190D01*
G04 #@! TO.C,J1*
X110212142Y-78096904D02*
X110259761Y-78144523D01*
X110307380Y-78287380D01*
X110307380Y-78382619D01*
X110259761Y-78525476D01*
X110164523Y-78620714D01*
X110069285Y-78668333D01*
X109878809Y-78715952D01*
X109735952Y-78715952D01*
X109545476Y-78668333D01*
X109450238Y-78620714D01*
X109355000Y-78525476D01*
X109307380Y-78382619D01*
X109307380Y-78287380D01*
X109355000Y-78144523D01*
X109402619Y-78096904D01*
X110307380Y-77144523D02*
X110307380Y-77715952D01*
X110307380Y-77430238D02*
X109307380Y-77430238D01*
X109450238Y-77525476D01*
X109545476Y-77620714D01*
X109593095Y-77715952D01*
X109926428Y-76715952D02*
X109926428Y-75954047D01*
X109402619Y-75525476D02*
X109355000Y-75477857D01*
X109307380Y-75382619D01*
X109307380Y-75144523D01*
X109355000Y-75049285D01*
X109402619Y-75001666D01*
X109497857Y-74954047D01*
X109593095Y-74954047D01*
X109735952Y-75001666D01*
X110307380Y-75573095D01*
X110307380Y-74954047D01*
G04 #@! TO.C,J8*
X121737380Y-77954047D02*
X121737380Y-78430238D01*
X120737380Y-78430238D01*
X121213571Y-77620714D02*
X121213571Y-77287380D01*
X121737380Y-77144523D02*
X121737380Y-77620714D01*
X120737380Y-77620714D01*
X120737380Y-77144523D01*
X120785000Y-76192142D02*
X120737380Y-76287380D01*
X120737380Y-76430238D01*
X120785000Y-76573095D01*
X120880238Y-76668333D01*
X120975476Y-76715952D01*
X121165952Y-76763571D01*
X121308809Y-76763571D01*
X121499285Y-76715952D01*
X121594523Y-76668333D01*
X121689761Y-76573095D01*
X121737380Y-76430238D01*
X121737380Y-76335000D01*
X121689761Y-76192142D01*
X121642142Y-76144523D01*
X121308809Y-76144523D01*
X121308809Y-76335000D01*
X121737380Y-75192142D02*
X121737380Y-75763571D01*
X121737380Y-75477857D02*
X120737380Y-75477857D01*
X120880238Y-75573095D01*
X120975476Y-75668333D01*
X121023095Y-75763571D01*
G04 #@! TO.C,J10*
X110307380Y-83034047D02*
X110307380Y-83510238D01*
X109307380Y-83510238D01*
X109783571Y-82700714D02*
X109783571Y-82367380D01*
X110307380Y-82224523D02*
X110307380Y-82700714D01*
X109307380Y-82700714D01*
X109307380Y-82224523D01*
X109355000Y-81272142D02*
X109307380Y-81367380D01*
X109307380Y-81510238D01*
X109355000Y-81653095D01*
X109450238Y-81748333D01*
X109545476Y-81795952D01*
X109735952Y-81843571D01*
X109878809Y-81843571D01*
X110069285Y-81795952D01*
X110164523Y-81748333D01*
X110259761Y-81653095D01*
X110307380Y-81510238D01*
X110307380Y-81415000D01*
X110259761Y-81272142D01*
X110212142Y-81224523D01*
X109878809Y-81224523D01*
X109878809Y-81415000D01*
X109402619Y-80843571D02*
X109355000Y-80795952D01*
X109307380Y-80700714D01*
X109307380Y-80462619D01*
X109355000Y-80367380D01*
X109402619Y-80319761D01*
X109497857Y-80272142D01*
X109593095Y-80272142D01*
X109735952Y-80319761D01*
X110307380Y-80891190D01*
X110307380Y-80272142D01*
G04 #@! TO.C,J11*
X121213571Y-82986428D02*
X121213571Y-82653095D01*
X121737380Y-82510238D02*
X121737380Y-82986428D01*
X120737380Y-82986428D01*
X120737380Y-82510238D01*
X120737380Y-82176904D02*
X121737380Y-81510238D01*
X120737380Y-81510238D02*
X121737380Y-82176904D01*
X120737380Y-81272142D02*
X120737380Y-80700714D01*
X121737380Y-80986428D02*
X120737380Y-80986428D01*
G04 #@! TO.C,R1*
X123023333Y-89352380D02*
X122690000Y-88876190D01*
X122451904Y-89352380D02*
X122451904Y-88352380D01*
X122832857Y-88352380D01*
X122928095Y-88400000D01*
X122975714Y-88447619D01*
X123023333Y-88542857D01*
X123023333Y-88685714D01*
X122975714Y-88780952D01*
X122928095Y-88828571D01*
X122832857Y-88876190D01*
X122451904Y-88876190D01*
X123975714Y-89352380D02*
X123404285Y-89352380D01*
X123690000Y-89352380D02*
X123690000Y-88352380D01*
X123594761Y-88495238D01*
X123499523Y-88590476D01*
X123404285Y-88638095D01*
X121880238Y-92892619D02*
X121927857Y-92845000D01*
X122023095Y-92797380D01*
X122261190Y-92797380D01*
X122356428Y-92845000D01*
X122404047Y-92892619D01*
X122451666Y-92987857D01*
X122451666Y-93083095D01*
X122404047Y-93225952D01*
X121832619Y-93797380D01*
X122451666Y-93797380D01*
X122880238Y-93702142D02*
X122927857Y-93749761D01*
X122880238Y-93797380D01*
X122832619Y-93749761D01*
X122880238Y-93702142D01*
X122880238Y-93797380D01*
X123785000Y-93130714D02*
X123785000Y-93797380D01*
X123546904Y-92749761D02*
X123308809Y-93464047D01*
X123927857Y-93464047D01*
X124308809Y-93797380D02*
X124308809Y-92797380D01*
X124404047Y-93416428D02*
X124689761Y-93797380D01*
X124689761Y-93130714D02*
X124308809Y-93511666D01*
G04 #@! TO.C,J12*
X158567380Y-83034047D02*
X158567380Y-83510238D01*
X157567380Y-83510238D01*
X158043571Y-82700714D02*
X158043571Y-82367380D01*
X158567380Y-82224523D02*
X158567380Y-82700714D01*
X157567380Y-82700714D01*
X157567380Y-82224523D01*
X157615000Y-81272142D02*
X157567380Y-81367380D01*
X157567380Y-81510238D01*
X157615000Y-81653095D01*
X157710238Y-81748333D01*
X157805476Y-81795952D01*
X157995952Y-81843571D01*
X158138809Y-81843571D01*
X158329285Y-81795952D01*
X158424523Y-81748333D01*
X158519761Y-81653095D01*
X158567380Y-81510238D01*
X158567380Y-81415000D01*
X158519761Y-81272142D01*
X158472142Y-81224523D01*
X158138809Y-81224523D01*
X158138809Y-81415000D01*
X157900714Y-80367380D02*
X158567380Y-80367380D01*
X157519761Y-80605476D02*
X158234047Y-80843571D01*
X158234047Y-80224523D01*
G04 #@! TO.C,J13*
X146613571Y-82986428D02*
X146613571Y-82653095D01*
X147137380Y-82510238D02*
X147137380Y-82986428D01*
X146137380Y-82986428D01*
X146137380Y-82510238D01*
X146137380Y-82176904D02*
X147137380Y-81510238D01*
X146137380Y-81510238D02*
X147137380Y-82176904D01*
X146137380Y-81272142D02*
X146137380Y-80700714D01*
X147137380Y-80986428D02*
X146137380Y-80986428D01*
G04 #@! TO.C,J14*
X158472142Y-78096904D02*
X158519761Y-78144523D01*
X158567380Y-78287380D01*
X158567380Y-78382619D01*
X158519761Y-78525476D01*
X158424523Y-78620714D01*
X158329285Y-78668333D01*
X158138809Y-78715952D01*
X157995952Y-78715952D01*
X157805476Y-78668333D01*
X157710238Y-78620714D01*
X157615000Y-78525476D01*
X157567380Y-78382619D01*
X157567380Y-78287380D01*
X157615000Y-78144523D01*
X157662619Y-78096904D01*
X157567380Y-77763571D02*
X157567380Y-77144523D01*
X157948333Y-77477857D01*
X157948333Y-77335000D01*
X157995952Y-77239761D01*
X158043571Y-77192142D01*
X158138809Y-77144523D01*
X158376904Y-77144523D01*
X158472142Y-77192142D01*
X158519761Y-77239761D01*
X158567380Y-77335000D01*
X158567380Y-77620714D01*
X158519761Y-77715952D01*
X158472142Y-77763571D01*
X158186428Y-76715952D02*
X158186428Y-75954047D01*
X157900714Y-75049285D02*
X158567380Y-75049285D01*
X157519761Y-75287380D02*
X158234047Y-75525476D01*
X158234047Y-74906428D01*
G04 #@! TO.C,J15*
X147137380Y-77954047D02*
X147137380Y-78430238D01*
X146137380Y-78430238D01*
X146613571Y-77620714D02*
X146613571Y-77287380D01*
X147137380Y-77144523D02*
X147137380Y-77620714D01*
X146137380Y-77620714D01*
X146137380Y-77144523D01*
X146185000Y-76192142D02*
X146137380Y-76287380D01*
X146137380Y-76430238D01*
X146185000Y-76573095D01*
X146280238Y-76668333D01*
X146375476Y-76715952D01*
X146565952Y-76763571D01*
X146708809Y-76763571D01*
X146899285Y-76715952D01*
X146994523Y-76668333D01*
X147089761Y-76573095D01*
X147137380Y-76430238D01*
X147137380Y-76335000D01*
X147089761Y-76192142D01*
X147042142Y-76144523D01*
X146708809Y-76144523D01*
X146708809Y-76335000D01*
X146137380Y-75811190D02*
X146137380Y-75192142D01*
X146518333Y-75525476D01*
X146518333Y-75382619D01*
X146565952Y-75287380D01*
X146613571Y-75239761D01*
X146708809Y-75192142D01*
X146946904Y-75192142D01*
X147042142Y-75239761D01*
X147089761Y-75287380D01*
X147137380Y-75382619D01*
X147137380Y-75668333D01*
X147089761Y-75763571D01*
X147042142Y-75811190D01*
G04 #@! TO.C,J2*
X133556428Y-89352380D02*
X133223095Y-88876190D01*
X132985000Y-89352380D02*
X132985000Y-88352380D01*
X133365952Y-88352380D01*
X133461190Y-88400000D01*
X133508809Y-88447619D01*
X133556428Y-88542857D01*
X133556428Y-88685714D01*
X133508809Y-88780952D01*
X133461190Y-88828571D01*
X133365952Y-88876190D01*
X132985000Y-88876190D01*
X133985000Y-89352380D02*
X133985000Y-88352380D01*
X134365952Y-88352380D01*
X134461190Y-88400000D01*
X134508809Y-88447619D01*
X134556428Y-88542857D01*
X134556428Y-88685714D01*
X134508809Y-88780952D01*
X134461190Y-88828571D01*
X134365952Y-88876190D01*
X133985000Y-88876190D01*
X134985000Y-89352380D02*
X134985000Y-88685714D01*
X134985000Y-88352380D02*
X134937380Y-88400000D01*
X134985000Y-88447619D01*
X135032619Y-88400000D01*
X134985000Y-88352380D01*
X134985000Y-88447619D01*
G04 #@! TO.C,J6*
X112950666Y-85514380D02*
X112950666Y-86228666D01*
X112903047Y-86371523D01*
X112807809Y-86466761D01*
X112664952Y-86514380D01*
X112569714Y-86514380D01*
X113855428Y-85514380D02*
X113664952Y-85514380D01*
X113569714Y-85562000D01*
X113522095Y-85609619D01*
X113426857Y-85752476D01*
X113379238Y-85942952D01*
X113379238Y-86323904D01*
X113426857Y-86419142D01*
X113474476Y-86466761D01*
X113569714Y-86514380D01*
X113760190Y-86514380D01*
X113855428Y-86466761D01*
X113903047Y-86419142D01*
X113950666Y-86323904D01*
X113950666Y-86085809D01*
X113903047Y-85990571D01*
X113855428Y-85942952D01*
X113760190Y-85895333D01*
X113569714Y-85895333D01*
X113474476Y-85942952D01*
X113426857Y-85990571D01*
X113379238Y-86085809D01*
G04 #@! TO.C,J4*
X126438066Y-63155580D02*
X126438066Y-63869866D01*
X126390447Y-64012723D01*
X126295209Y-64107961D01*
X126152352Y-64155580D01*
X126057114Y-64155580D01*
X127342828Y-63488914D02*
X127342828Y-64155580D01*
X127104733Y-63107961D02*
X126866638Y-63822247D01*
X127485685Y-63822247D01*
X122317142Y-61412380D02*
X121840952Y-61412380D01*
X121840952Y-60412380D01*
X123031428Y-61364761D02*
X122936190Y-61412380D01*
X122745714Y-61412380D01*
X122650476Y-61364761D01*
X122602857Y-61269523D01*
X122602857Y-60888571D01*
X122650476Y-60793333D01*
X122745714Y-60745714D01*
X122936190Y-60745714D01*
X123031428Y-60793333D01*
X123079047Y-60888571D01*
X123079047Y-60983809D01*
X122602857Y-61079047D01*
X123936190Y-60745714D02*
X123936190Y-61555238D01*
X123888571Y-61650476D01*
X123840952Y-61698095D01*
X123745714Y-61745714D01*
X123602857Y-61745714D01*
X123507619Y-61698095D01*
X123936190Y-61364761D02*
X123840952Y-61412380D01*
X123650476Y-61412380D01*
X123555238Y-61364761D01*
X123507619Y-61317142D01*
X123460000Y-61221904D01*
X123460000Y-60936190D01*
X123507619Y-60840952D01*
X123555238Y-60793333D01*
X123650476Y-60745714D01*
X123840952Y-60745714D01*
X123936190Y-60793333D01*
X124936190Y-61412380D02*
X124364761Y-61412380D01*
X124650476Y-61412380D02*
X124650476Y-60412380D01*
X124555238Y-60555238D01*
X124460000Y-60650476D01*
X124364761Y-60698095D01*
X125364761Y-61031428D02*
X126126666Y-61031428D01*
X126555238Y-60507619D02*
X126602857Y-60460000D01*
X126698095Y-60412380D01*
X126936190Y-60412380D01*
X127031428Y-60460000D01*
X127079047Y-60507619D01*
X127126666Y-60602857D01*
X127126666Y-60698095D01*
X127079047Y-60840952D01*
X126507619Y-61412380D01*
X127126666Y-61412380D01*
G04 #@! TO.C,J7*
X145310266Y-62749180D02*
X145310266Y-63463466D01*
X145262647Y-63606323D01*
X145167409Y-63701561D01*
X145024552Y-63749180D01*
X144929314Y-63749180D01*
X145691219Y-62749180D02*
X146357885Y-62749180D01*
X145929314Y-63749180D01*
X140732142Y-61412380D02*
X140255952Y-61412380D01*
X140255952Y-60412380D01*
X141446428Y-61364761D02*
X141351190Y-61412380D01*
X141160714Y-61412380D01*
X141065476Y-61364761D01*
X141017857Y-61269523D01*
X141017857Y-60888571D01*
X141065476Y-60793333D01*
X141160714Y-60745714D01*
X141351190Y-60745714D01*
X141446428Y-60793333D01*
X141494047Y-60888571D01*
X141494047Y-60983809D01*
X141017857Y-61079047D01*
X142351190Y-60745714D02*
X142351190Y-61555238D01*
X142303571Y-61650476D01*
X142255952Y-61698095D01*
X142160714Y-61745714D01*
X142017857Y-61745714D01*
X141922619Y-61698095D01*
X142351190Y-61364761D02*
X142255952Y-61412380D01*
X142065476Y-61412380D01*
X141970238Y-61364761D01*
X141922619Y-61317142D01*
X141875000Y-61221904D01*
X141875000Y-60936190D01*
X141922619Y-60840952D01*
X141970238Y-60793333D01*
X142065476Y-60745714D01*
X142255952Y-60745714D01*
X142351190Y-60793333D01*
X142732142Y-60412380D02*
X143351190Y-60412380D01*
X143017857Y-60793333D01*
X143160714Y-60793333D01*
X143255952Y-60840952D01*
X143303571Y-60888571D01*
X143351190Y-60983809D01*
X143351190Y-61221904D01*
X143303571Y-61317142D01*
X143255952Y-61364761D01*
X143160714Y-61412380D01*
X142875000Y-61412380D01*
X142779761Y-61364761D01*
X142732142Y-61317142D01*
X143779761Y-61031428D02*
X144541666Y-61031428D01*
X145446428Y-60745714D02*
X145446428Y-61412380D01*
X145208333Y-60364761D02*
X144970238Y-61079047D01*
X145589285Y-61079047D01*
G04 #@! TO.C,J9*
X120951666Y-100627380D02*
X120951666Y-101341666D01*
X120904047Y-101484523D01*
X120808809Y-101579761D01*
X120665952Y-101627380D01*
X120570714Y-101627380D01*
X121475476Y-101627380D02*
X121665952Y-101627380D01*
X121761190Y-101579761D01*
X121808809Y-101532142D01*
X121904047Y-101389285D01*
X121951666Y-101198809D01*
X121951666Y-100817857D01*
X121904047Y-100722619D01*
X121856428Y-100675000D01*
X121761190Y-100627380D01*
X121570714Y-100627380D01*
X121475476Y-100675000D01*
X121427857Y-100722619D01*
X121380238Y-100817857D01*
X121380238Y-101055952D01*
X121427857Y-101151190D01*
X121475476Y-101198809D01*
X121570714Y-101246428D01*
X121761190Y-101246428D01*
X121856428Y-101198809D01*
X121904047Y-101151190D01*
X121951666Y-101055952D01*
G04 #@! TO.C,J16*
X116665476Y-100627380D02*
X116665476Y-101341666D01*
X116617857Y-101484523D01*
X116522619Y-101579761D01*
X116379761Y-101627380D01*
X116284523Y-101627380D01*
X117665476Y-101627380D02*
X117094047Y-101627380D01*
X117379761Y-101627380D02*
X117379761Y-100627380D01*
X117284523Y-100770238D01*
X117189285Y-100865476D01*
X117094047Y-100913095D01*
X118522619Y-100627380D02*
X118332142Y-100627380D01*
X118236904Y-100675000D01*
X118189285Y-100722619D01*
X118094047Y-100865476D01*
X118046428Y-101055952D01*
X118046428Y-101436904D01*
X118094047Y-101532142D01*
X118141666Y-101579761D01*
X118236904Y-101627380D01*
X118427380Y-101627380D01*
X118522619Y-101579761D01*
X118570238Y-101532142D01*
X118617857Y-101436904D01*
X118617857Y-101198809D01*
X118570238Y-101103571D01*
X118522619Y-101055952D01*
X118427380Y-101008333D01*
X118236904Y-101008333D01*
X118141666Y-101055952D01*
X118094047Y-101103571D01*
X118046428Y-101198809D01*
G04 #@! TO.C,J17*
X149685476Y-100627380D02*
X149685476Y-101341666D01*
X149637857Y-101484523D01*
X149542619Y-101579761D01*
X149399761Y-101627380D01*
X149304523Y-101627380D01*
X150685476Y-101627380D02*
X150114047Y-101627380D01*
X150399761Y-101627380D02*
X150399761Y-100627380D01*
X150304523Y-100770238D01*
X150209285Y-100865476D01*
X150114047Y-100913095D01*
X151018809Y-100627380D02*
X151685476Y-100627380D01*
X151256904Y-101627380D01*
G04 #@! TO.C,J18*
X145875476Y-100627380D02*
X145875476Y-101341666D01*
X145827857Y-101484523D01*
X145732619Y-101579761D01*
X145589761Y-101627380D01*
X145494523Y-101627380D01*
X146875476Y-101627380D02*
X146304047Y-101627380D01*
X146589761Y-101627380D02*
X146589761Y-100627380D01*
X146494523Y-100770238D01*
X146399285Y-100865476D01*
X146304047Y-100913095D01*
X147446904Y-101055952D02*
X147351666Y-101008333D01*
X147304047Y-100960714D01*
X147256428Y-100865476D01*
X147256428Y-100817857D01*
X147304047Y-100722619D01*
X147351666Y-100675000D01*
X147446904Y-100627380D01*
X147637380Y-100627380D01*
X147732619Y-100675000D01*
X147780238Y-100722619D01*
X147827857Y-100817857D01*
X147827857Y-100865476D01*
X147780238Y-100960714D01*
X147732619Y-101008333D01*
X147637380Y-101055952D01*
X147446904Y-101055952D01*
X147351666Y-101103571D01*
X147304047Y-101151190D01*
X147256428Y-101246428D01*
X147256428Y-101436904D01*
X147304047Y-101532142D01*
X147351666Y-101579761D01*
X147446904Y-101627380D01*
X147637380Y-101627380D01*
X147732619Y-101579761D01*
X147780238Y-101532142D01*
X147827857Y-101436904D01*
X147827857Y-101246428D01*
X147780238Y-101151190D01*
X147732619Y-101103571D01*
X147637380Y-101055952D01*
G04 #@! TO.C,*
G04 #@! TO.C,J5*
X133976666Y-96782380D02*
X133976666Y-97496666D01*
X133929047Y-97639523D01*
X133833809Y-97734761D01*
X133690952Y-97782380D01*
X133595714Y-97782380D01*
X134929047Y-96782380D02*
X134452857Y-96782380D01*
X134405238Y-97258571D01*
X134452857Y-97210952D01*
X134548095Y-97163333D01*
X134786190Y-97163333D01*
X134881428Y-97210952D01*
X134929047Y-97258571D01*
X134976666Y-97353809D01*
X134976666Y-97591904D01*
X134929047Y-97687142D01*
X134881428Y-97734761D01*
X134786190Y-97782380D01*
X134548095Y-97782380D01*
X134452857Y-97734761D01*
X134405238Y-97687142D01*
G04 #@! TD*
M02*
