G04 #@! TF.GenerationSoftware,KiCad,Pcbnew,(5.0.1)-4*
G04 #@! TF.CreationDate,2018-11-27T15:03:00-07:00*
G04 #@! TF.ProjectId,robot,726F626F742E6B696361645F70636200,rev?*
G04 #@! TF.SameCoordinates,Original*
G04 #@! TF.FileFunction,Copper,L2,Bot,Signal*
G04 #@! TF.FilePolarity,Positive*
%FSLAX46Y46*%
G04 Gerber Fmt 4.6, Leading zero omitted, Abs format (unit mm)*
G04 Created by KiCad (PCBNEW (5.0.1)-4) date 11/27/2018 3:03:00 PM*
%MOMM*%
%LPD*%
G01*
G04 APERTURE LIST*
G04 #@! TA.AperFunction,ComponentPad*
%ADD10R,2.000000X2.600000*%
G04 #@! TD*
G04 #@! TA.AperFunction,ComponentPad*
%ADD11O,2.000000X2.600000*%
G04 #@! TD*
G04 #@! TA.AperFunction,ComponentPad*
%ADD12R,1.700000X1.700000*%
G04 #@! TD*
G04 #@! TA.AperFunction,ComponentPad*
%ADD13O,1.700000X1.700000*%
G04 #@! TD*
G04 #@! TA.AperFunction,ComponentPad*
%ADD14C,3.000000*%
G04 #@! TD*
G04 #@! TA.AperFunction,ComponentPad*
%ADD15C,1.500000*%
G04 #@! TD*
G04 #@! TA.AperFunction,ComponentPad*
%ADD16C,2.999740*%
G04 #@! TD*
G04 #@! TA.AperFunction,Conductor*
%ADD17C,0.250000*%
G04 #@! TD*
G04 #@! TA.AperFunction,Conductor*
%ADD18C,2.000000*%
G04 #@! TD*
G04 #@! TA.AperFunction,Conductor*
%ADD19C,0.254000*%
G04 #@! TD*
G04 APERTURE END LIST*
D10*
G04 #@! TO.P,J1,1*
G04 #@! TO.N,DATA*
X113030000Y-76835000D03*
D11*
G04 #@! TO.P,J1,2*
G04 #@! TO.N,Net-(D1-Pad2)*
X115570000Y-76835000D03*
G04 #@! TO.P,J1,3*
G04 #@! TO.N,GND*
X118110000Y-76835000D03*
G04 #@! TD*
D12*
G04 #@! TO.P,J3,1*
G04 #@! TO.N,DATA*
X154940000Y-88900000D03*
D13*
G04 #@! TO.P,J3,2*
G04 #@! TO.N,Net-(J12-Pad2)*
X154940000Y-91440000D03*
G04 #@! TO.P,J3,3*
G04 #@! TO.N,GND*
X154940000Y-93980000D03*
G04 #@! TD*
D10*
G04 #@! TO.P,J8,1*
G04 #@! TO.N,DATA*
X124460000Y-76835000D03*
D11*
G04 #@! TO.P,J8,2*
G04 #@! TO.N,Net-(D1-Pad2)*
X127000000Y-76835000D03*
G04 #@! TO.P,J8,3*
G04 #@! TO.N,GND*
X129540000Y-76835000D03*
G04 #@! TD*
D10*
G04 #@! TO.P,J10,1*
G04 #@! TO.N,DATA*
X113030000Y-81915000D03*
D11*
G04 #@! TO.P,J10,2*
G04 #@! TO.N,Net-(D1-Pad2)*
X115570000Y-81915000D03*
G04 #@! TO.P,J10,3*
G04 #@! TO.N,GND*
X118110000Y-81915000D03*
G04 #@! TD*
D10*
G04 #@! TO.P,J11,1*
G04 #@! TO.N,DATA*
X124460000Y-81915000D03*
D11*
G04 #@! TO.P,J11,2*
G04 #@! TO.N,Net-(D1-Pad2)*
X127000000Y-81915000D03*
G04 #@! TO.P,J11,3*
G04 #@! TO.N,GND*
X129540000Y-81915000D03*
G04 #@! TD*
D10*
G04 #@! TO.P,J12,1*
G04 #@! TO.N,DATA*
X149860000Y-81915000D03*
D11*
G04 #@! TO.P,J12,2*
G04 #@! TO.N,Net-(J12-Pad2)*
X152400000Y-81915000D03*
G04 #@! TO.P,J12,3*
G04 #@! TO.N,GND*
X154940000Y-81915000D03*
G04 #@! TD*
D10*
G04 #@! TO.P,J13,1*
G04 #@! TO.N,DATA*
X138430000Y-81915000D03*
D11*
G04 #@! TO.P,J13,2*
G04 #@! TO.N,Net-(J12-Pad2)*
X140970000Y-81915000D03*
G04 #@! TO.P,J13,3*
G04 #@! TO.N,GND*
X143510000Y-81915000D03*
G04 #@! TD*
D10*
G04 #@! TO.P,J14,1*
G04 #@! TO.N,DATA*
X149860000Y-76835000D03*
D11*
G04 #@! TO.P,J14,2*
G04 #@! TO.N,Net-(J12-Pad2)*
X152400000Y-76835000D03*
G04 #@! TO.P,J14,3*
G04 #@! TO.N,GND*
X154940000Y-76835000D03*
G04 #@! TD*
D10*
G04 #@! TO.P,J15,1*
G04 #@! TO.N,DATA*
X138430000Y-76835000D03*
D11*
G04 #@! TO.P,J15,2*
G04 #@! TO.N,Net-(J12-Pad2)*
X140970000Y-76835000D03*
G04 #@! TO.P,J15,3*
G04 #@! TO.N,GND*
X143510000Y-76835000D03*
G04 #@! TD*
D10*
G04 #@! TO.P,J2,1*
G04 #@! TO.N,DATA*
X136525000Y-91440000D03*
D11*
G04 #@! TO.P,J2,2*
G04 #@! TO.N,+5V*
X133985000Y-91440000D03*
G04 #@! TO.P,J2,3*
G04 #@! TO.N,GND*
X131445000Y-91440000D03*
G04 #@! TD*
D14*
G04 #@! TO.P,J5,5*
G04 #@! TO.N,GND*
X127250000Y-103000000D03*
X140970000Y-103000000D03*
D15*
G04 #@! TO.P,J5,1*
G04 #@! TO.N,+5V*
X130810000Y-100330000D03*
G04 #@! TO.P,J5,2*
G04 #@! TO.N,N/C*
X133350000Y-100330000D03*
G04 #@! TO.P,J5,3*
X135380000Y-100330000D03*
G04 #@! TO.P,J5,4*
G04 #@! TO.N,GND*
X137920000Y-100330000D03*
G04 #@! TD*
D13*
G04 #@! TO.P,J6,5*
G04 #@! TO.N,+5V*
X113284000Y-98552000D03*
G04 #@! TO.P,J6,4*
G04 #@! TO.N,GND*
X113284000Y-96012000D03*
G04 #@! TO.P,J6,3*
X113284000Y-93472000D03*
G04 #@! TO.P,J6,2*
G04 #@! TO.N,Net-(D1-Pad2)*
X113284000Y-90932000D03*
D12*
G04 #@! TO.P,J6,1*
G04 #@! TO.N,N/C*
X113284000Y-88392000D03*
G04 #@! TD*
D16*
G04 #@! TO.P,J4,1*
G04 #@! TO.N,GND*
X121920000Y-63500000D03*
G04 #@! TO.P,J4,2*
G04 #@! TO.N,Net-(D1-Pad2)*
X127080000Y-63500000D03*
G04 #@! TD*
G04 #@! TO.P,J7,2*
G04 #@! TO.N,Net-(J12-Pad2)*
X140335000Y-63500000D03*
G04 #@! TO.P,J7,1*
G04 #@! TO.N,GND*
X145495000Y-63500000D03*
G04 #@! TD*
D12*
G04 #@! TO.P,J9,1*
G04 #@! TO.N,+5V*
X121285000Y-103505000D03*
D13*
G04 #@! TO.P,J9,2*
G04 #@! TO.N,GND*
X121285000Y-106045000D03*
G04 #@! TD*
G04 #@! TO.P,J16,2*
G04 #@! TO.N,GND*
X117475000Y-106045000D03*
D12*
G04 #@! TO.P,J16,1*
G04 #@! TO.N,+5V*
X117475000Y-103505000D03*
G04 #@! TD*
G04 #@! TO.P,J17,1*
G04 #@! TO.N,Net-(J12-Pad2)*
X150495000Y-103505000D03*
D13*
G04 #@! TO.P,J17,2*
G04 #@! TO.N,GND*
X150495000Y-106045000D03*
G04 #@! TD*
G04 #@! TO.P,J18,2*
G04 #@! TO.N,GND*
X146685000Y-106045000D03*
D12*
G04 #@! TO.P,J18,1*
G04 #@! TO.N,Net-(J12-Pad2)*
X146685000Y-103505000D03*
G04 #@! TD*
D17*
G04 #@! TO.N,DATA*
X113030000Y-78385000D02*
X113030000Y-81915000D01*
X113030000Y-76835000D02*
X113030000Y-78385000D01*
X122555000Y-86360000D02*
X124460000Y-84455000D01*
X115570000Y-86360000D02*
X122555000Y-86360000D01*
X113030000Y-81915000D02*
X113030000Y-83820000D01*
X113030000Y-83820000D02*
X115570000Y-86360000D01*
X124460000Y-81915000D02*
X124460000Y-76835000D01*
X124460000Y-81915000D02*
X124460000Y-84455000D01*
X124460000Y-81915000D02*
X124460000Y-83820000D01*
X124460000Y-83820000D02*
X127000000Y-86360000D01*
X127000000Y-86360000D02*
X135890000Y-86360000D01*
X138430000Y-83820000D02*
X138430000Y-81915000D01*
X135890000Y-86360000D02*
X138430000Y-83820000D01*
X138430000Y-81915000D02*
X138430000Y-76835000D01*
X138430000Y-81915000D02*
X138430000Y-84455000D01*
X138430000Y-84455000D02*
X140970000Y-86995000D01*
X140970000Y-86995000D02*
X147955000Y-86995000D01*
X149860000Y-85090000D02*
X149860000Y-81915000D01*
X147955000Y-86995000D02*
X149860000Y-85090000D01*
X149860000Y-81915000D02*
X149860000Y-76835000D01*
X153670000Y-88900000D02*
X154940000Y-88900000D01*
X149860000Y-85090000D02*
X153670000Y-88900000D01*
X136525000Y-86995000D02*
X135890000Y-86360000D01*
X136525000Y-91440000D02*
X136525000Y-86995000D01*
D18*
G04 #@! TO.N,Net-(J12-Pad2)*
X140335000Y-63500000D02*
X140335000Y-71120000D01*
X140335000Y-71120000D02*
X140970000Y-71755000D01*
X140970000Y-71755000D02*
X140970000Y-76835000D01*
X140335000Y-63500000D02*
X140335000Y-66040000D01*
X140335000Y-66040000D02*
X145415000Y-71120000D01*
X145415000Y-71120000D02*
X151130000Y-71120000D01*
X152400000Y-72390000D02*
X152400000Y-76835000D01*
X151130000Y-71120000D02*
X152400000Y-72390000D01*
X152400000Y-76835000D02*
X152400000Y-81915000D01*
X140970000Y-76835000D02*
X140970000Y-81915000D01*
G04 #@! TO.N,Net-(D1-Pad2)*
X127080000Y-76755000D02*
X127000000Y-76835000D01*
X127080000Y-63500000D02*
X127080000Y-76755000D01*
X127000000Y-76835000D02*
X127000000Y-81915000D01*
X115570000Y-73535000D02*
X115570000Y-76835000D01*
X117350000Y-71755000D02*
X115570000Y-73535000D01*
X121285000Y-71755000D02*
X117350000Y-71755000D01*
X125580131Y-67459869D02*
X121285000Y-71755000D01*
X125580131Y-64999869D02*
X125580131Y-67459869D01*
X127080000Y-63500000D02*
X125580131Y-64999869D01*
X115570000Y-76835000D02*
X115570000Y-81915000D01*
G04 #@! TO.N,+5V*
X117475000Y-100655000D02*
X117475000Y-103505000D01*
X115372000Y-98552000D02*
X117475000Y-100655000D01*
X113284000Y-98552000D02*
X115372000Y-98552000D01*
X117475000Y-103505000D02*
X121285000Y-103505000D01*
X121285000Y-100655000D02*
X122880000Y-99060000D01*
X121285000Y-103505000D02*
X121285000Y-100655000D01*
X129540000Y-99060000D02*
X130810000Y-100330000D01*
X122880000Y-99060000D02*
X129540000Y-99060000D01*
X129540000Y-99060000D02*
X130175000Y-99060000D01*
X133985000Y-95250000D02*
X133985000Y-91440000D01*
X130175000Y-99060000D02*
X133985000Y-95250000D01*
G04 #@! TD*
D19*
G04 #@! TO.N,GND*
G36*
X158040001Y-98990074D02*
X158040000Y-108510000D01*
X109930000Y-108510000D01*
X109930000Y-106334887D01*
X110025000Y-106334887D01*
X110025000Y-107025113D01*
X110289138Y-107662799D01*
X110777201Y-108150862D01*
X111414887Y-108415000D01*
X112105113Y-108415000D01*
X112742799Y-108150862D01*
X113230862Y-107662799D01*
X113495000Y-107025113D01*
X113495000Y-106401890D01*
X116033524Y-106401890D01*
X116203355Y-106811924D01*
X116593642Y-107240183D01*
X117118108Y-107486486D01*
X117348000Y-107365819D01*
X117348000Y-106172000D01*
X117602000Y-106172000D01*
X117602000Y-107365819D01*
X117831892Y-107486486D01*
X118356358Y-107240183D01*
X118746645Y-106811924D01*
X118916476Y-106401890D01*
X119843524Y-106401890D01*
X120013355Y-106811924D01*
X120403642Y-107240183D01*
X120928108Y-107486486D01*
X121158000Y-107365819D01*
X121158000Y-106172000D01*
X121412000Y-106172000D01*
X121412000Y-107365819D01*
X121641892Y-107486486D01*
X122166358Y-107240183D01*
X122556645Y-106811924D01*
X122726476Y-106401890D01*
X145243524Y-106401890D01*
X145413355Y-106811924D01*
X145803642Y-107240183D01*
X146328108Y-107486486D01*
X146558000Y-107365819D01*
X146558000Y-106172000D01*
X146812000Y-106172000D01*
X146812000Y-107365819D01*
X147041892Y-107486486D01*
X147566358Y-107240183D01*
X147956645Y-106811924D01*
X148126476Y-106401890D01*
X149053524Y-106401890D01*
X149223355Y-106811924D01*
X149613642Y-107240183D01*
X150138108Y-107486486D01*
X150368000Y-107365819D01*
X150368000Y-106172000D01*
X150622000Y-106172000D01*
X150622000Y-107365819D01*
X150851892Y-107486486D01*
X151376358Y-107240183D01*
X151766645Y-106811924D01*
X151936476Y-106401890D01*
X151901117Y-106334887D01*
X154475000Y-106334887D01*
X154475000Y-107025113D01*
X154739138Y-107662799D01*
X155227201Y-108150862D01*
X155864887Y-108415000D01*
X156555113Y-108415000D01*
X157192799Y-108150862D01*
X157680862Y-107662799D01*
X157945000Y-107025113D01*
X157945000Y-106334887D01*
X157680862Y-105697201D01*
X157192799Y-105209138D01*
X156555113Y-104945000D01*
X155864887Y-104945000D01*
X155227201Y-105209138D01*
X154739138Y-105697201D01*
X154475000Y-106334887D01*
X151901117Y-106334887D01*
X151815155Y-106172000D01*
X150622000Y-106172000D01*
X150368000Y-106172000D01*
X149174845Y-106172000D01*
X149053524Y-106401890D01*
X148126476Y-106401890D01*
X148005155Y-106172000D01*
X146812000Y-106172000D01*
X146558000Y-106172000D01*
X145364845Y-106172000D01*
X145243524Y-106401890D01*
X122726476Y-106401890D01*
X122605155Y-106172000D01*
X121412000Y-106172000D01*
X121158000Y-106172000D01*
X119964845Y-106172000D01*
X119843524Y-106401890D01*
X118916476Y-106401890D01*
X118795155Y-106172000D01*
X117602000Y-106172000D01*
X117348000Y-106172000D01*
X116154845Y-106172000D01*
X116033524Y-106401890D01*
X113495000Y-106401890D01*
X113495000Y-106334887D01*
X113230862Y-105697201D01*
X112742799Y-105209138D01*
X112105113Y-104945000D01*
X111414887Y-104945000D01*
X110777201Y-105209138D01*
X110289138Y-105697201D01*
X110025000Y-106334887D01*
X109930000Y-106334887D01*
X109930000Y-93828890D01*
X111842524Y-93828890D01*
X112012355Y-94238924D01*
X112402642Y-94667183D01*
X112561954Y-94742000D01*
X112402642Y-94816817D01*
X112012355Y-95245076D01*
X111842524Y-95655110D01*
X111963845Y-95885000D01*
X113157000Y-95885000D01*
X113157000Y-93599000D01*
X113411000Y-93599000D01*
X113411000Y-95885000D01*
X114604155Y-95885000D01*
X114725476Y-95655110D01*
X114555645Y-95245076D01*
X114165358Y-94816817D01*
X114006046Y-94742000D01*
X114165358Y-94667183D01*
X114555645Y-94238924D01*
X114725476Y-93828890D01*
X114604155Y-93599000D01*
X113411000Y-93599000D01*
X113157000Y-93599000D01*
X111963845Y-93599000D01*
X111842524Y-93828890D01*
X109930000Y-93828890D01*
X109930000Y-90932000D01*
X111769908Y-90932000D01*
X111885161Y-91511418D01*
X112213375Y-92002625D01*
X112532478Y-92215843D01*
X112402642Y-92276817D01*
X112012355Y-92705076D01*
X111842524Y-93115110D01*
X111963845Y-93345000D01*
X113157000Y-93345000D01*
X113157000Y-93325000D01*
X113411000Y-93325000D01*
X113411000Y-93345000D01*
X114604155Y-93345000D01*
X114725476Y-93115110D01*
X114555645Y-92705076D01*
X114165358Y-92276817D01*
X114035522Y-92215843D01*
X114354625Y-92002625D01*
X114645700Y-91567000D01*
X129810000Y-91567000D01*
X129810000Y-91867000D01*
X129983058Y-92483020D01*
X130378683Y-92985922D01*
X130936645Y-93299144D01*
X131064566Y-93330124D01*
X131318000Y-93210777D01*
X131318000Y-91567000D01*
X129810000Y-91567000D01*
X114645700Y-91567000D01*
X114682839Y-91511418D01*
X114781980Y-91013000D01*
X129810000Y-91013000D01*
X129810000Y-91313000D01*
X131318000Y-91313000D01*
X131318000Y-89669223D01*
X131064566Y-89549876D01*
X130936645Y-89580856D01*
X130378683Y-89894078D01*
X129983058Y-90396980D01*
X129810000Y-91013000D01*
X114781980Y-91013000D01*
X114798092Y-90932000D01*
X114682839Y-90352582D01*
X114354625Y-89861375D01*
X114336381Y-89849184D01*
X114381765Y-89840157D01*
X114591809Y-89699809D01*
X114732157Y-89489765D01*
X114781440Y-89242000D01*
X114781440Y-87542000D01*
X114732157Y-87294235D01*
X114591809Y-87084191D01*
X114381765Y-86943843D01*
X114134000Y-86894560D01*
X112434000Y-86894560D01*
X112186235Y-86943843D01*
X111976191Y-87084191D01*
X111835843Y-87294235D01*
X111786560Y-87542000D01*
X111786560Y-89242000D01*
X111835843Y-89489765D01*
X111976191Y-89699809D01*
X112186235Y-89840157D01*
X112231619Y-89849184D01*
X112213375Y-89861375D01*
X111885161Y-90352582D01*
X111769908Y-90932000D01*
X109930000Y-90932000D01*
X109930000Y-75535000D01*
X111382560Y-75535000D01*
X111382560Y-78135000D01*
X111431843Y-78382765D01*
X111572191Y-78592809D01*
X111782235Y-78733157D01*
X112030000Y-78782440D01*
X112270000Y-78782440D01*
X112270000Y-79967560D01*
X112030000Y-79967560D01*
X111782235Y-80016843D01*
X111572191Y-80157191D01*
X111431843Y-80367235D01*
X111382560Y-80615000D01*
X111382560Y-83215000D01*
X111431843Y-83462765D01*
X111572191Y-83672809D01*
X111782235Y-83813157D01*
X112030000Y-83862440D01*
X112263554Y-83862440D01*
X112270001Y-83894851D01*
X112270001Y-83894852D01*
X112314097Y-84116537D01*
X112482072Y-84367929D01*
X112545528Y-84410329D01*
X114979673Y-86844476D01*
X115022071Y-86907929D01*
X115085524Y-86950327D01*
X115085526Y-86950329D01*
X115210902Y-87034102D01*
X115273463Y-87075904D01*
X115495148Y-87120000D01*
X115495152Y-87120000D01*
X115569999Y-87134888D01*
X115644846Y-87120000D01*
X122480153Y-87120000D01*
X122555000Y-87134888D01*
X122629847Y-87120000D01*
X122629852Y-87120000D01*
X122851537Y-87075904D01*
X123102929Y-86907929D01*
X123145331Y-86844470D01*
X124777500Y-85212302D01*
X126409673Y-86844476D01*
X126452071Y-86907929D01*
X126515524Y-86950327D01*
X126515526Y-86950329D01*
X126640902Y-87034102D01*
X126703463Y-87075904D01*
X126925148Y-87120000D01*
X126925152Y-87120000D01*
X126999999Y-87134888D01*
X127074846Y-87120000D01*
X135575199Y-87120000D01*
X135765001Y-87309803D01*
X135765000Y-89492560D01*
X135525000Y-89492560D01*
X135277235Y-89541843D01*
X135067191Y-89682191D01*
X134968100Y-89830489D01*
X134622945Y-89599864D01*
X133985000Y-89472969D01*
X133347056Y-89599864D01*
X132806231Y-89961231D01*
X132695048Y-90127629D01*
X132511317Y-89894078D01*
X131953355Y-89580856D01*
X131825434Y-89549876D01*
X131572000Y-89669223D01*
X131572000Y-91313000D01*
X131592000Y-91313000D01*
X131592000Y-91567000D01*
X131572000Y-91567000D01*
X131572000Y-93210777D01*
X131825434Y-93330124D01*
X131953355Y-93299144D01*
X132350001Y-93076480D01*
X132350000Y-94572761D01*
X129527258Y-97395503D01*
X129378970Y-97425000D01*
X123041031Y-97425000D01*
X122880000Y-97392969D01*
X122242054Y-97519864D01*
X121988132Y-97689530D01*
X121701231Y-97881231D01*
X121610014Y-98017747D01*
X120242748Y-99385014D01*
X120106232Y-99476231D01*
X119936155Y-99730769D01*
X119744865Y-100017055D01*
X119617969Y-100655000D01*
X119650001Y-100816034D01*
X119650001Y-101870000D01*
X119110000Y-101870000D01*
X119110000Y-100816029D01*
X119142031Y-100654999D01*
X119110000Y-100493969D01*
X119015136Y-100017055D01*
X118653769Y-99476231D01*
X118517253Y-99385014D01*
X116641988Y-97509750D01*
X116550769Y-97373231D01*
X116009945Y-97011864D01*
X115533031Y-96917000D01*
X115533030Y-96917000D01*
X115372000Y-96884969D01*
X115210970Y-96917000D01*
X114429812Y-96917000D01*
X114555645Y-96778924D01*
X114725476Y-96368890D01*
X114604155Y-96139000D01*
X113411000Y-96139000D01*
X113411000Y-96159000D01*
X113157000Y-96159000D01*
X113157000Y-96139000D01*
X111963845Y-96139000D01*
X111842524Y-96368890D01*
X112012355Y-96778924D01*
X112384134Y-97186874D01*
X112105231Y-97373231D01*
X111743864Y-97914055D01*
X111616969Y-98552000D01*
X111743864Y-99189945D01*
X112105231Y-99730769D01*
X112646055Y-100092136D01*
X113122969Y-100187000D01*
X114694762Y-100187000D01*
X115840000Y-101332239D01*
X115840001Y-103343965D01*
X115807969Y-103505000D01*
X115934864Y-104142945D01*
X115977560Y-104206844D01*
X115977560Y-104355000D01*
X116026843Y-104602765D01*
X116167191Y-104812809D01*
X116377235Y-104953157D01*
X116480708Y-104973739D01*
X116203355Y-105278076D01*
X116033524Y-105688110D01*
X116154845Y-105918000D01*
X117348000Y-105918000D01*
X117348000Y-105898000D01*
X117602000Y-105898000D01*
X117602000Y-105918000D01*
X118795155Y-105918000D01*
X118916476Y-105688110D01*
X118746645Y-105278076D01*
X118620812Y-105140000D01*
X120139188Y-105140000D01*
X120013355Y-105278076D01*
X119843524Y-105688110D01*
X119964845Y-105918000D01*
X121158000Y-105918000D01*
X121158000Y-105898000D01*
X121412000Y-105898000D01*
X121412000Y-105918000D01*
X122605155Y-105918000D01*
X122726476Y-105688110D01*
X122556645Y-105278076D01*
X122279292Y-104973739D01*
X122382765Y-104953157D01*
X122592809Y-104812809D01*
X122733157Y-104602765D01*
X122750819Y-104513970D01*
X125915635Y-104513970D01*
X126075418Y-104832739D01*
X126866187Y-105142723D01*
X127715387Y-105126497D01*
X128424582Y-104832739D01*
X128584365Y-104513970D01*
X139635635Y-104513970D01*
X139795418Y-104832739D01*
X140586187Y-105142723D01*
X141435387Y-105126497D01*
X142144582Y-104832739D01*
X142304365Y-104513970D01*
X140970000Y-103179605D01*
X139635635Y-104513970D01*
X128584365Y-104513970D01*
X127250000Y-103179605D01*
X125915635Y-104513970D01*
X122750819Y-104513970D01*
X122782440Y-104355000D01*
X122782440Y-104206844D01*
X122825136Y-104142945D01*
X122952031Y-103505000D01*
X122920000Y-103343969D01*
X122920000Y-102616187D01*
X125107277Y-102616187D01*
X125123503Y-103465387D01*
X125417261Y-104174582D01*
X125736030Y-104334365D01*
X127070395Y-103000000D01*
X127429605Y-103000000D01*
X128763970Y-104334365D01*
X129082739Y-104174582D01*
X129392723Y-103383813D01*
X129378056Y-102616187D01*
X138827277Y-102616187D01*
X138843503Y-103465387D01*
X139137261Y-104174582D01*
X139456030Y-104334365D01*
X140790395Y-103000000D01*
X141149605Y-103000000D01*
X142483970Y-104334365D01*
X142802739Y-104174582D01*
X143112723Y-103383813D01*
X143098798Y-102655000D01*
X145187560Y-102655000D01*
X145187560Y-104355000D01*
X145236843Y-104602765D01*
X145377191Y-104812809D01*
X145587235Y-104953157D01*
X145690708Y-104973739D01*
X145413355Y-105278076D01*
X145243524Y-105688110D01*
X145364845Y-105918000D01*
X146558000Y-105918000D01*
X146558000Y-105898000D01*
X146812000Y-105898000D01*
X146812000Y-105918000D01*
X148005155Y-105918000D01*
X148126476Y-105688110D01*
X147956645Y-105278076D01*
X147679292Y-104973739D01*
X147782765Y-104953157D01*
X147992809Y-104812809D01*
X148133157Y-104602765D01*
X148182440Y-104355000D01*
X148182440Y-102655000D01*
X148997560Y-102655000D01*
X148997560Y-104355000D01*
X149046843Y-104602765D01*
X149187191Y-104812809D01*
X149397235Y-104953157D01*
X149500708Y-104973739D01*
X149223355Y-105278076D01*
X149053524Y-105688110D01*
X149174845Y-105918000D01*
X150368000Y-105918000D01*
X150368000Y-105898000D01*
X150622000Y-105898000D01*
X150622000Y-105918000D01*
X151815155Y-105918000D01*
X151936476Y-105688110D01*
X151766645Y-105278076D01*
X151489292Y-104973739D01*
X151592765Y-104953157D01*
X151802809Y-104812809D01*
X151943157Y-104602765D01*
X151992440Y-104355000D01*
X151992440Y-102655000D01*
X151943157Y-102407235D01*
X151802809Y-102197191D01*
X151592765Y-102056843D01*
X151345000Y-102007560D01*
X149645000Y-102007560D01*
X149397235Y-102056843D01*
X149187191Y-102197191D01*
X149046843Y-102407235D01*
X148997560Y-102655000D01*
X148182440Y-102655000D01*
X148133157Y-102407235D01*
X147992809Y-102197191D01*
X147782765Y-102056843D01*
X147535000Y-102007560D01*
X145835000Y-102007560D01*
X145587235Y-102056843D01*
X145377191Y-102197191D01*
X145236843Y-102407235D01*
X145187560Y-102655000D01*
X143098798Y-102655000D01*
X143096497Y-102534613D01*
X142802739Y-101825418D01*
X142483970Y-101665635D01*
X141149605Y-103000000D01*
X140790395Y-103000000D01*
X139456030Y-101665635D01*
X139137261Y-101825418D01*
X138827277Y-102616187D01*
X129378056Y-102616187D01*
X129376497Y-102534613D01*
X129082739Y-101825418D01*
X128763970Y-101665635D01*
X127429605Y-103000000D01*
X127070395Y-103000000D01*
X125736030Y-101665635D01*
X125417261Y-101825418D01*
X125107277Y-102616187D01*
X122920000Y-102616187D01*
X122920000Y-101486030D01*
X125915635Y-101486030D01*
X127250000Y-102820395D01*
X128584365Y-101486030D01*
X128424582Y-101167261D01*
X127633813Y-100857277D01*
X126784613Y-100873503D01*
X126075418Y-101167261D01*
X125915635Y-101486030D01*
X122920000Y-101486030D01*
X122920000Y-101332238D01*
X123557239Y-100695000D01*
X128862762Y-100695000D01*
X129767746Y-101599985D01*
X130172054Y-101870135D01*
X130809999Y-101997030D01*
X131447945Y-101870135D01*
X131988768Y-101508768D01*
X132221610Y-101160297D01*
X132565460Y-101504147D01*
X133074506Y-101715000D01*
X133625494Y-101715000D01*
X134134540Y-101504147D01*
X134365000Y-101273687D01*
X134595460Y-101504147D01*
X135104506Y-101715000D01*
X135655494Y-101715000D01*
X136164540Y-101504147D01*
X136367170Y-101301517D01*
X137128088Y-101301517D01*
X137196077Y-101542460D01*
X137715171Y-101727201D01*
X138265448Y-101699230D01*
X138643923Y-101542460D01*
X138659846Y-101486030D01*
X139635635Y-101486030D01*
X140970000Y-102820395D01*
X142304365Y-101486030D01*
X142144582Y-101167261D01*
X141353813Y-100857277D01*
X140504613Y-100873503D01*
X139795418Y-101167261D01*
X139635635Y-101486030D01*
X138659846Y-101486030D01*
X138711912Y-101301517D01*
X137920000Y-100509605D01*
X137128088Y-101301517D01*
X136367170Y-101301517D01*
X136554147Y-101114540D01*
X136643397Y-100899070D01*
X136707540Y-101053923D01*
X136948483Y-101121912D01*
X137740395Y-100330000D01*
X138099605Y-100330000D01*
X138891517Y-101121912D01*
X139132460Y-101053923D01*
X139317201Y-100534829D01*
X139289230Y-99984552D01*
X139132460Y-99606077D01*
X138891517Y-99538088D01*
X138099605Y-100330000D01*
X137740395Y-100330000D01*
X136948483Y-99538088D01*
X136707540Y-99606077D01*
X136648255Y-99772658D01*
X136554147Y-99545460D01*
X136367170Y-99358483D01*
X137128088Y-99358483D01*
X137920000Y-100150395D01*
X138711912Y-99358483D01*
X138643923Y-99117540D01*
X138124829Y-98932799D01*
X137574552Y-98960770D01*
X137196077Y-99117540D01*
X137128088Y-99358483D01*
X136367170Y-99358483D01*
X136164540Y-99155853D01*
X135655494Y-98945000D01*
X135104506Y-98945000D01*
X134595460Y-99155853D01*
X134365000Y-99386313D01*
X134134540Y-99155853D01*
X133625494Y-98945000D01*
X133074506Y-98945000D01*
X132565460Y-99155853D01*
X132221610Y-99499703D01*
X132151886Y-99395353D01*
X135027253Y-96519986D01*
X135163769Y-96428769D01*
X135357386Y-96139000D01*
X135525136Y-95887946D01*
X135652031Y-95250000D01*
X135620000Y-95088969D01*
X135620000Y-94336890D01*
X153498524Y-94336890D01*
X153668355Y-94746924D01*
X154058642Y-95175183D01*
X154583108Y-95421486D01*
X154813000Y-95300819D01*
X154813000Y-94107000D01*
X155067000Y-94107000D01*
X155067000Y-95300819D01*
X155296892Y-95421486D01*
X155821358Y-95175183D01*
X156211645Y-94746924D01*
X156381476Y-94336890D01*
X156260155Y-94107000D01*
X155067000Y-94107000D01*
X154813000Y-94107000D01*
X153619845Y-94107000D01*
X153498524Y-94336890D01*
X135620000Y-94336890D01*
X135620000Y-93387440D01*
X137525000Y-93387440D01*
X137772765Y-93338157D01*
X137982809Y-93197809D01*
X138123157Y-92987765D01*
X138172440Y-92740000D01*
X138172440Y-90140000D01*
X138123157Y-89892235D01*
X137982809Y-89682191D01*
X137772765Y-89541843D01*
X137525000Y-89492560D01*
X137285000Y-89492560D01*
X137285000Y-87069848D01*
X137299888Y-86995000D01*
X137285000Y-86920152D01*
X137285000Y-86920148D01*
X137240904Y-86698463D01*
X137072929Y-86447071D01*
X137009473Y-86404671D01*
X136964802Y-86360000D01*
X138112501Y-85212302D01*
X140379673Y-87479476D01*
X140422071Y-87542929D01*
X140485524Y-87585327D01*
X140485526Y-87585329D01*
X140610902Y-87669102D01*
X140673463Y-87710904D01*
X140895148Y-87755000D01*
X140895152Y-87755000D01*
X140969999Y-87769888D01*
X141044846Y-87755000D01*
X147880153Y-87755000D01*
X147955000Y-87769888D01*
X148029847Y-87755000D01*
X148029852Y-87755000D01*
X148251537Y-87710904D01*
X148502929Y-87542929D01*
X148545331Y-87479470D01*
X149860000Y-86164801D01*
X153079671Y-89384473D01*
X153122071Y-89447929D01*
X153185527Y-89490329D01*
X153373462Y-89615904D01*
X153421605Y-89625480D01*
X153442560Y-89629648D01*
X153442560Y-89750000D01*
X153491843Y-89997765D01*
X153632191Y-90207809D01*
X153842235Y-90348157D01*
X153887619Y-90357184D01*
X153869375Y-90369375D01*
X153541161Y-90860582D01*
X153425908Y-91440000D01*
X153541161Y-92019418D01*
X153869375Y-92510625D01*
X154188478Y-92723843D01*
X154058642Y-92784817D01*
X153668355Y-93213076D01*
X153498524Y-93623110D01*
X153619845Y-93853000D01*
X154813000Y-93853000D01*
X154813000Y-93833000D01*
X155067000Y-93833000D01*
X155067000Y-93853000D01*
X156260155Y-93853000D01*
X156381476Y-93623110D01*
X156211645Y-93213076D01*
X155821358Y-92784817D01*
X155691522Y-92723843D01*
X156010625Y-92510625D01*
X156338839Y-92019418D01*
X156454092Y-91440000D01*
X156338839Y-90860582D01*
X156010625Y-90369375D01*
X155992381Y-90357184D01*
X156037765Y-90348157D01*
X156247809Y-90207809D01*
X156388157Y-89997765D01*
X156437440Y-89750000D01*
X156437440Y-88050000D01*
X156388157Y-87802235D01*
X156247809Y-87592191D01*
X156037765Y-87451843D01*
X155790000Y-87402560D01*
X154090000Y-87402560D01*
X153842235Y-87451843D01*
X153632191Y-87592191D01*
X153554005Y-87709203D01*
X150620000Y-84775199D01*
X150620000Y-83862440D01*
X150860000Y-83862440D01*
X151107765Y-83813157D01*
X151317809Y-83672809D01*
X151416900Y-83524510D01*
X151762056Y-83755136D01*
X152400000Y-83882031D01*
X153037945Y-83755136D01*
X153578769Y-83393769D01*
X153689952Y-83227371D01*
X153873683Y-83460922D01*
X154431645Y-83774144D01*
X154559566Y-83805124D01*
X154813000Y-83685777D01*
X154813000Y-82042000D01*
X155067000Y-82042000D01*
X155067000Y-83685777D01*
X155320434Y-83805124D01*
X155448355Y-83774144D01*
X156006317Y-83460922D01*
X156401942Y-82958020D01*
X156575000Y-82342000D01*
X156575000Y-82042000D01*
X155067000Y-82042000D01*
X154813000Y-82042000D01*
X154793000Y-82042000D01*
X154793000Y-81788000D01*
X154813000Y-81788000D01*
X154813000Y-80144223D01*
X155067000Y-80144223D01*
X155067000Y-81788000D01*
X156575000Y-81788000D01*
X156575000Y-81488000D01*
X156401942Y-80871980D01*
X156006317Y-80369078D01*
X155448355Y-80055856D01*
X155320434Y-80024876D01*
X155067000Y-80144223D01*
X154813000Y-80144223D01*
X154559566Y-80024876D01*
X154431645Y-80055856D01*
X154035000Y-80278520D01*
X154035000Y-78471480D01*
X154431645Y-78694144D01*
X154559566Y-78725124D01*
X154813000Y-78605777D01*
X154813000Y-76962000D01*
X155067000Y-76962000D01*
X155067000Y-78605777D01*
X155320434Y-78725124D01*
X155448355Y-78694144D01*
X156006317Y-78380922D01*
X156401942Y-77878020D01*
X156575000Y-77262000D01*
X156575000Y-76962000D01*
X155067000Y-76962000D01*
X154813000Y-76962000D01*
X154793000Y-76962000D01*
X154793000Y-76708000D01*
X154813000Y-76708000D01*
X154813000Y-75064223D01*
X155067000Y-75064223D01*
X155067000Y-76708000D01*
X156575000Y-76708000D01*
X156575000Y-76408000D01*
X156401942Y-75791980D01*
X156006317Y-75289078D01*
X155448355Y-74975856D01*
X155320434Y-74944876D01*
X155067000Y-75064223D01*
X154813000Y-75064223D01*
X154559566Y-74944876D01*
X154431645Y-74975856D01*
X154035000Y-75198520D01*
X154035000Y-72551025D01*
X154067030Y-72389999D01*
X154035000Y-72228973D01*
X154035000Y-72228969D01*
X153940136Y-71752055D01*
X153578769Y-71211231D01*
X153442253Y-71120014D01*
X152399988Y-70077750D01*
X152308769Y-69941231D01*
X151767945Y-69579864D01*
X151291031Y-69485000D01*
X151291030Y-69485000D01*
X151130000Y-69452969D01*
X150968970Y-69485000D01*
X146092239Y-69485000D01*
X141970000Y-65362762D01*
X141970000Y-65013877D01*
X144160728Y-65013877D01*
X144320495Y-65332632D01*
X145111217Y-65642595D01*
X145960366Y-65626367D01*
X146669505Y-65332632D01*
X146829272Y-65013877D01*
X145495000Y-63679605D01*
X144160728Y-65013877D01*
X141970000Y-65013877D01*
X141970000Y-64884163D01*
X142144856Y-64709307D01*
X142469870Y-63924652D01*
X142469870Y-63116217D01*
X143352405Y-63116217D01*
X143368633Y-63965366D01*
X143662368Y-64674505D01*
X143981123Y-64834272D01*
X145315395Y-63500000D01*
X145674605Y-63500000D01*
X147008877Y-64834272D01*
X147327632Y-64674505D01*
X147637595Y-63883783D01*
X147621367Y-63034634D01*
X147327632Y-62325495D01*
X147008877Y-62165728D01*
X145674605Y-63500000D01*
X145315395Y-63500000D01*
X143981123Y-62165728D01*
X143662368Y-62325495D01*
X143352405Y-63116217D01*
X142469870Y-63116217D01*
X142469870Y-63075348D01*
X142144856Y-62290693D01*
X141840286Y-61986123D01*
X144160728Y-61986123D01*
X145495000Y-63320395D01*
X146829272Y-61986123D01*
X146778531Y-61884887D01*
X154475000Y-61884887D01*
X154475000Y-62575113D01*
X154739138Y-63212799D01*
X155227201Y-63700862D01*
X155864887Y-63965000D01*
X156555113Y-63965000D01*
X157192799Y-63700862D01*
X157680862Y-63212799D01*
X157945000Y-62575113D01*
X157945000Y-61884887D01*
X157680862Y-61247201D01*
X157192799Y-60759138D01*
X156555113Y-60495000D01*
X155864887Y-60495000D01*
X155227201Y-60759138D01*
X154739138Y-61247201D01*
X154475000Y-61884887D01*
X146778531Y-61884887D01*
X146669505Y-61667368D01*
X145878783Y-61357405D01*
X145029634Y-61373633D01*
X144320495Y-61667368D01*
X144160728Y-61986123D01*
X141840286Y-61986123D01*
X141544307Y-61690144D01*
X140759652Y-61365130D01*
X139910348Y-61365130D01*
X139125693Y-61690144D01*
X138525144Y-62290693D01*
X138200130Y-63075348D01*
X138200130Y-63924652D01*
X138525144Y-64709307D01*
X138700000Y-64884163D01*
X138700000Y-65878969D01*
X138667969Y-66040000D01*
X138700000Y-66201031D01*
X138700001Y-70958966D01*
X138667969Y-71120000D01*
X138713271Y-71347746D01*
X138794865Y-71757945D01*
X139156232Y-72298769D01*
X139292748Y-72389986D01*
X139335000Y-72432238D01*
X139335001Y-74887560D01*
X137430000Y-74887560D01*
X137182235Y-74936843D01*
X136972191Y-75077191D01*
X136831843Y-75287235D01*
X136782560Y-75535000D01*
X136782560Y-78135000D01*
X136831843Y-78382765D01*
X136972191Y-78592809D01*
X137182235Y-78733157D01*
X137430000Y-78782440D01*
X137670001Y-78782440D01*
X137670000Y-79967560D01*
X137430000Y-79967560D01*
X137182235Y-80016843D01*
X136972191Y-80157191D01*
X136831843Y-80367235D01*
X136782560Y-80615000D01*
X136782560Y-83215000D01*
X136831843Y-83462765D01*
X136972191Y-83672809D01*
X137182235Y-83813157D01*
X137332209Y-83842988D01*
X135575199Y-85600000D01*
X127314803Y-85600000D01*
X125557790Y-83842989D01*
X125707765Y-83813157D01*
X125917809Y-83672809D01*
X126016900Y-83524510D01*
X126362056Y-83755136D01*
X127000000Y-83882031D01*
X127637945Y-83755136D01*
X128178769Y-83393769D01*
X128289952Y-83227371D01*
X128473683Y-83460922D01*
X129031645Y-83774144D01*
X129159566Y-83805124D01*
X129413000Y-83685777D01*
X129413000Y-82042000D01*
X129667000Y-82042000D01*
X129667000Y-83685777D01*
X129920434Y-83805124D01*
X130048355Y-83774144D01*
X130606317Y-83460922D01*
X131001942Y-82958020D01*
X131175000Y-82342000D01*
X131175000Y-82042000D01*
X129667000Y-82042000D01*
X129413000Y-82042000D01*
X129393000Y-82042000D01*
X129393000Y-81788000D01*
X129413000Y-81788000D01*
X129413000Y-80144223D01*
X129667000Y-80144223D01*
X129667000Y-81788000D01*
X131175000Y-81788000D01*
X131175000Y-81488000D01*
X131001942Y-80871980D01*
X130606317Y-80369078D01*
X130048355Y-80055856D01*
X129920434Y-80024876D01*
X129667000Y-80144223D01*
X129413000Y-80144223D01*
X129159566Y-80024876D01*
X129031645Y-80055856D01*
X128635000Y-80278520D01*
X128635000Y-78471480D01*
X129031645Y-78694144D01*
X129159566Y-78725124D01*
X129413000Y-78605777D01*
X129413000Y-76962000D01*
X129667000Y-76962000D01*
X129667000Y-78605777D01*
X129920434Y-78725124D01*
X130048355Y-78694144D01*
X130606317Y-78380922D01*
X131001942Y-77878020D01*
X131175000Y-77262000D01*
X131175000Y-76962000D01*
X129667000Y-76962000D01*
X129413000Y-76962000D01*
X129393000Y-76962000D01*
X129393000Y-76708000D01*
X129413000Y-76708000D01*
X129413000Y-75064223D01*
X129667000Y-75064223D01*
X129667000Y-76708000D01*
X131175000Y-76708000D01*
X131175000Y-76408000D01*
X131001942Y-75791980D01*
X130606317Y-75289078D01*
X130048355Y-74975856D01*
X129920434Y-74944876D01*
X129667000Y-75064223D01*
X129413000Y-75064223D01*
X129159566Y-74944876D01*
X129031645Y-74975856D01*
X128715000Y-75153610D01*
X128715000Y-64884163D01*
X128889856Y-64709307D01*
X129214870Y-63924652D01*
X129214870Y-63075348D01*
X128889856Y-62290693D01*
X128289307Y-61690144D01*
X127504652Y-61365130D01*
X126655348Y-61365130D01*
X125870693Y-61690144D01*
X125270144Y-62290693D01*
X124945130Y-63075348D01*
X124945130Y-63322632D01*
X124537881Y-63729881D01*
X124401362Y-63821100D01*
X124039995Y-64361925D01*
X123945131Y-64838838D01*
X123913100Y-64999869D01*
X123945131Y-65160899D01*
X123945132Y-66782629D01*
X120607762Y-70120000D01*
X117511029Y-70120000D01*
X117349999Y-70087969D01*
X117188969Y-70120000D01*
X116712055Y-70214864D01*
X116171231Y-70576231D01*
X116080014Y-70712747D01*
X114527750Y-72265012D01*
X114391231Y-72356231D01*
X114029864Y-72897056D01*
X114003829Y-73027945D01*
X113902969Y-73535000D01*
X113935000Y-73696030D01*
X113935000Y-74887560D01*
X112030000Y-74887560D01*
X111782235Y-74936843D01*
X111572191Y-75077191D01*
X111431843Y-75287235D01*
X111382560Y-75535000D01*
X109930000Y-75535000D01*
X109930000Y-65013877D01*
X120585728Y-65013877D01*
X120745495Y-65332632D01*
X121536217Y-65642595D01*
X122385366Y-65626367D01*
X123094505Y-65332632D01*
X123254272Y-65013877D01*
X121920000Y-63679605D01*
X120585728Y-65013877D01*
X109930000Y-65013877D01*
X109930000Y-61884887D01*
X110025000Y-61884887D01*
X110025000Y-62575113D01*
X110289138Y-63212799D01*
X110777201Y-63700862D01*
X111414887Y-63965000D01*
X112105113Y-63965000D01*
X112742799Y-63700862D01*
X113230862Y-63212799D01*
X113270867Y-63116217D01*
X119777405Y-63116217D01*
X119793633Y-63965366D01*
X120087368Y-64674505D01*
X120406123Y-64834272D01*
X121740395Y-63500000D01*
X122099605Y-63500000D01*
X123433877Y-64834272D01*
X123752632Y-64674505D01*
X124062595Y-63883783D01*
X124046367Y-63034634D01*
X123752632Y-62325495D01*
X123433877Y-62165728D01*
X122099605Y-63500000D01*
X121740395Y-63500000D01*
X120406123Y-62165728D01*
X120087368Y-62325495D01*
X119777405Y-63116217D01*
X113270867Y-63116217D01*
X113495000Y-62575113D01*
X113495000Y-61986123D01*
X120585728Y-61986123D01*
X121920000Y-63320395D01*
X123254272Y-61986123D01*
X123094505Y-61667368D01*
X122303783Y-61357405D01*
X121454634Y-61373633D01*
X120745495Y-61667368D01*
X120585728Y-61986123D01*
X113495000Y-61986123D01*
X113495000Y-61884887D01*
X113230862Y-61247201D01*
X112742799Y-60759138D01*
X112105113Y-60495000D01*
X111414887Y-60495000D01*
X110777201Y-60759138D01*
X110289138Y-61247201D01*
X110025000Y-61884887D01*
X109930000Y-61884887D01*
X109930000Y-60400000D01*
X158040000Y-60400000D01*
X158040001Y-98990074D01*
X158040001Y-98990074D01*
G37*
X158040001Y-98990074D02*
X158040000Y-108510000D01*
X109930000Y-108510000D01*
X109930000Y-106334887D01*
X110025000Y-106334887D01*
X110025000Y-107025113D01*
X110289138Y-107662799D01*
X110777201Y-108150862D01*
X111414887Y-108415000D01*
X112105113Y-108415000D01*
X112742799Y-108150862D01*
X113230862Y-107662799D01*
X113495000Y-107025113D01*
X113495000Y-106401890D01*
X116033524Y-106401890D01*
X116203355Y-106811924D01*
X116593642Y-107240183D01*
X117118108Y-107486486D01*
X117348000Y-107365819D01*
X117348000Y-106172000D01*
X117602000Y-106172000D01*
X117602000Y-107365819D01*
X117831892Y-107486486D01*
X118356358Y-107240183D01*
X118746645Y-106811924D01*
X118916476Y-106401890D01*
X119843524Y-106401890D01*
X120013355Y-106811924D01*
X120403642Y-107240183D01*
X120928108Y-107486486D01*
X121158000Y-107365819D01*
X121158000Y-106172000D01*
X121412000Y-106172000D01*
X121412000Y-107365819D01*
X121641892Y-107486486D01*
X122166358Y-107240183D01*
X122556645Y-106811924D01*
X122726476Y-106401890D01*
X145243524Y-106401890D01*
X145413355Y-106811924D01*
X145803642Y-107240183D01*
X146328108Y-107486486D01*
X146558000Y-107365819D01*
X146558000Y-106172000D01*
X146812000Y-106172000D01*
X146812000Y-107365819D01*
X147041892Y-107486486D01*
X147566358Y-107240183D01*
X147956645Y-106811924D01*
X148126476Y-106401890D01*
X149053524Y-106401890D01*
X149223355Y-106811924D01*
X149613642Y-107240183D01*
X150138108Y-107486486D01*
X150368000Y-107365819D01*
X150368000Y-106172000D01*
X150622000Y-106172000D01*
X150622000Y-107365819D01*
X150851892Y-107486486D01*
X151376358Y-107240183D01*
X151766645Y-106811924D01*
X151936476Y-106401890D01*
X151901117Y-106334887D01*
X154475000Y-106334887D01*
X154475000Y-107025113D01*
X154739138Y-107662799D01*
X155227201Y-108150862D01*
X155864887Y-108415000D01*
X156555113Y-108415000D01*
X157192799Y-108150862D01*
X157680862Y-107662799D01*
X157945000Y-107025113D01*
X157945000Y-106334887D01*
X157680862Y-105697201D01*
X157192799Y-105209138D01*
X156555113Y-104945000D01*
X155864887Y-104945000D01*
X155227201Y-105209138D01*
X154739138Y-105697201D01*
X154475000Y-106334887D01*
X151901117Y-106334887D01*
X151815155Y-106172000D01*
X150622000Y-106172000D01*
X150368000Y-106172000D01*
X149174845Y-106172000D01*
X149053524Y-106401890D01*
X148126476Y-106401890D01*
X148005155Y-106172000D01*
X146812000Y-106172000D01*
X146558000Y-106172000D01*
X145364845Y-106172000D01*
X145243524Y-106401890D01*
X122726476Y-106401890D01*
X122605155Y-106172000D01*
X121412000Y-106172000D01*
X121158000Y-106172000D01*
X119964845Y-106172000D01*
X119843524Y-106401890D01*
X118916476Y-106401890D01*
X118795155Y-106172000D01*
X117602000Y-106172000D01*
X117348000Y-106172000D01*
X116154845Y-106172000D01*
X116033524Y-106401890D01*
X113495000Y-106401890D01*
X113495000Y-106334887D01*
X113230862Y-105697201D01*
X112742799Y-105209138D01*
X112105113Y-104945000D01*
X111414887Y-104945000D01*
X110777201Y-105209138D01*
X110289138Y-105697201D01*
X110025000Y-106334887D01*
X109930000Y-106334887D01*
X109930000Y-93828890D01*
X111842524Y-93828890D01*
X112012355Y-94238924D01*
X112402642Y-94667183D01*
X112561954Y-94742000D01*
X112402642Y-94816817D01*
X112012355Y-95245076D01*
X111842524Y-95655110D01*
X111963845Y-95885000D01*
X113157000Y-95885000D01*
X113157000Y-93599000D01*
X113411000Y-93599000D01*
X113411000Y-95885000D01*
X114604155Y-95885000D01*
X114725476Y-95655110D01*
X114555645Y-95245076D01*
X114165358Y-94816817D01*
X114006046Y-94742000D01*
X114165358Y-94667183D01*
X114555645Y-94238924D01*
X114725476Y-93828890D01*
X114604155Y-93599000D01*
X113411000Y-93599000D01*
X113157000Y-93599000D01*
X111963845Y-93599000D01*
X111842524Y-93828890D01*
X109930000Y-93828890D01*
X109930000Y-90932000D01*
X111769908Y-90932000D01*
X111885161Y-91511418D01*
X112213375Y-92002625D01*
X112532478Y-92215843D01*
X112402642Y-92276817D01*
X112012355Y-92705076D01*
X111842524Y-93115110D01*
X111963845Y-93345000D01*
X113157000Y-93345000D01*
X113157000Y-93325000D01*
X113411000Y-93325000D01*
X113411000Y-93345000D01*
X114604155Y-93345000D01*
X114725476Y-93115110D01*
X114555645Y-92705076D01*
X114165358Y-92276817D01*
X114035522Y-92215843D01*
X114354625Y-92002625D01*
X114645700Y-91567000D01*
X129810000Y-91567000D01*
X129810000Y-91867000D01*
X129983058Y-92483020D01*
X130378683Y-92985922D01*
X130936645Y-93299144D01*
X131064566Y-93330124D01*
X131318000Y-93210777D01*
X131318000Y-91567000D01*
X129810000Y-91567000D01*
X114645700Y-91567000D01*
X114682839Y-91511418D01*
X114781980Y-91013000D01*
X129810000Y-91013000D01*
X129810000Y-91313000D01*
X131318000Y-91313000D01*
X131318000Y-89669223D01*
X131064566Y-89549876D01*
X130936645Y-89580856D01*
X130378683Y-89894078D01*
X129983058Y-90396980D01*
X129810000Y-91013000D01*
X114781980Y-91013000D01*
X114798092Y-90932000D01*
X114682839Y-90352582D01*
X114354625Y-89861375D01*
X114336381Y-89849184D01*
X114381765Y-89840157D01*
X114591809Y-89699809D01*
X114732157Y-89489765D01*
X114781440Y-89242000D01*
X114781440Y-87542000D01*
X114732157Y-87294235D01*
X114591809Y-87084191D01*
X114381765Y-86943843D01*
X114134000Y-86894560D01*
X112434000Y-86894560D01*
X112186235Y-86943843D01*
X111976191Y-87084191D01*
X111835843Y-87294235D01*
X111786560Y-87542000D01*
X111786560Y-89242000D01*
X111835843Y-89489765D01*
X111976191Y-89699809D01*
X112186235Y-89840157D01*
X112231619Y-89849184D01*
X112213375Y-89861375D01*
X111885161Y-90352582D01*
X111769908Y-90932000D01*
X109930000Y-90932000D01*
X109930000Y-75535000D01*
X111382560Y-75535000D01*
X111382560Y-78135000D01*
X111431843Y-78382765D01*
X111572191Y-78592809D01*
X111782235Y-78733157D01*
X112030000Y-78782440D01*
X112270000Y-78782440D01*
X112270000Y-79967560D01*
X112030000Y-79967560D01*
X111782235Y-80016843D01*
X111572191Y-80157191D01*
X111431843Y-80367235D01*
X111382560Y-80615000D01*
X111382560Y-83215000D01*
X111431843Y-83462765D01*
X111572191Y-83672809D01*
X111782235Y-83813157D01*
X112030000Y-83862440D01*
X112263554Y-83862440D01*
X112270001Y-83894851D01*
X112270001Y-83894852D01*
X112314097Y-84116537D01*
X112482072Y-84367929D01*
X112545528Y-84410329D01*
X114979673Y-86844476D01*
X115022071Y-86907929D01*
X115085524Y-86950327D01*
X115085526Y-86950329D01*
X115210902Y-87034102D01*
X115273463Y-87075904D01*
X115495148Y-87120000D01*
X115495152Y-87120000D01*
X115569999Y-87134888D01*
X115644846Y-87120000D01*
X122480153Y-87120000D01*
X122555000Y-87134888D01*
X122629847Y-87120000D01*
X122629852Y-87120000D01*
X122851537Y-87075904D01*
X123102929Y-86907929D01*
X123145331Y-86844470D01*
X124777500Y-85212302D01*
X126409673Y-86844476D01*
X126452071Y-86907929D01*
X126515524Y-86950327D01*
X126515526Y-86950329D01*
X126640902Y-87034102D01*
X126703463Y-87075904D01*
X126925148Y-87120000D01*
X126925152Y-87120000D01*
X126999999Y-87134888D01*
X127074846Y-87120000D01*
X135575199Y-87120000D01*
X135765001Y-87309803D01*
X135765000Y-89492560D01*
X135525000Y-89492560D01*
X135277235Y-89541843D01*
X135067191Y-89682191D01*
X134968100Y-89830489D01*
X134622945Y-89599864D01*
X133985000Y-89472969D01*
X133347056Y-89599864D01*
X132806231Y-89961231D01*
X132695048Y-90127629D01*
X132511317Y-89894078D01*
X131953355Y-89580856D01*
X131825434Y-89549876D01*
X131572000Y-89669223D01*
X131572000Y-91313000D01*
X131592000Y-91313000D01*
X131592000Y-91567000D01*
X131572000Y-91567000D01*
X131572000Y-93210777D01*
X131825434Y-93330124D01*
X131953355Y-93299144D01*
X132350001Y-93076480D01*
X132350000Y-94572761D01*
X129527258Y-97395503D01*
X129378970Y-97425000D01*
X123041031Y-97425000D01*
X122880000Y-97392969D01*
X122242054Y-97519864D01*
X121988132Y-97689530D01*
X121701231Y-97881231D01*
X121610014Y-98017747D01*
X120242748Y-99385014D01*
X120106232Y-99476231D01*
X119936155Y-99730769D01*
X119744865Y-100017055D01*
X119617969Y-100655000D01*
X119650001Y-100816034D01*
X119650001Y-101870000D01*
X119110000Y-101870000D01*
X119110000Y-100816029D01*
X119142031Y-100654999D01*
X119110000Y-100493969D01*
X119015136Y-100017055D01*
X118653769Y-99476231D01*
X118517253Y-99385014D01*
X116641988Y-97509750D01*
X116550769Y-97373231D01*
X116009945Y-97011864D01*
X115533031Y-96917000D01*
X115533030Y-96917000D01*
X115372000Y-96884969D01*
X115210970Y-96917000D01*
X114429812Y-96917000D01*
X114555645Y-96778924D01*
X114725476Y-96368890D01*
X114604155Y-96139000D01*
X113411000Y-96139000D01*
X113411000Y-96159000D01*
X113157000Y-96159000D01*
X113157000Y-96139000D01*
X111963845Y-96139000D01*
X111842524Y-96368890D01*
X112012355Y-96778924D01*
X112384134Y-97186874D01*
X112105231Y-97373231D01*
X111743864Y-97914055D01*
X111616969Y-98552000D01*
X111743864Y-99189945D01*
X112105231Y-99730769D01*
X112646055Y-100092136D01*
X113122969Y-100187000D01*
X114694762Y-100187000D01*
X115840000Y-101332239D01*
X115840001Y-103343965D01*
X115807969Y-103505000D01*
X115934864Y-104142945D01*
X115977560Y-104206844D01*
X115977560Y-104355000D01*
X116026843Y-104602765D01*
X116167191Y-104812809D01*
X116377235Y-104953157D01*
X116480708Y-104973739D01*
X116203355Y-105278076D01*
X116033524Y-105688110D01*
X116154845Y-105918000D01*
X117348000Y-105918000D01*
X117348000Y-105898000D01*
X117602000Y-105898000D01*
X117602000Y-105918000D01*
X118795155Y-105918000D01*
X118916476Y-105688110D01*
X118746645Y-105278076D01*
X118620812Y-105140000D01*
X120139188Y-105140000D01*
X120013355Y-105278076D01*
X119843524Y-105688110D01*
X119964845Y-105918000D01*
X121158000Y-105918000D01*
X121158000Y-105898000D01*
X121412000Y-105898000D01*
X121412000Y-105918000D01*
X122605155Y-105918000D01*
X122726476Y-105688110D01*
X122556645Y-105278076D01*
X122279292Y-104973739D01*
X122382765Y-104953157D01*
X122592809Y-104812809D01*
X122733157Y-104602765D01*
X122750819Y-104513970D01*
X125915635Y-104513970D01*
X126075418Y-104832739D01*
X126866187Y-105142723D01*
X127715387Y-105126497D01*
X128424582Y-104832739D01*
X128584365Y-104513970D01*
X139635635Y-104513970D01*
X139795418Y-104832739D01*
X140586187Y-105142723D01*
X141435387Y-105126497D01*
X142144582Y-104832739D01*
X142304365Y-104513970D01*
X140970000Y-103179605D01*
X139635635Y-104513970D01*
X128584365Y-104513970D01*
X127250000Y-103179605D01*
X125915635Y-104513970D01*
X122750819Y-104513970D01*
X122782440Y-104355000D01*
X122782440Y-104206844D01*
X122825136Y-104142945D01*
X122952031Y-103505000D01*
X122920000Y-103343969D01*
X122920000Y-102616187D01*
X125107277Y-102616187D01*
X125123503Y-103465387D01*
X125417261Y-104174582D01*
X125736030Y-104334365D01*
X127070395Y-103000000D01*
X127429605Y-103000000D01*
X128763970Y-104334365D01*
X129082739Y-104174582D01*
X129392723Y-103383813D01*
X129378056Y-102616187D01*
X138827277Y-102616187D01*
X138843503Y-103465387D01*
X139137261Y-104174582D01*
X139456030Y-104334365D01*
X140790395Y-103000000D01*
X141149605Y-103000000D01*
X142483970Y-104334365D01*
X142802739Y-104174582D01*
X143112723Y-103383813D01*
X143098798Y-102655000D01*
X145187560Y-102655000D01*
X145187560Y-104355000D01*
X145236843Y-104602765D01*
X145377191Y-104812809D01*
X145587235Y-104953157D01*
X145690708Y-104973739D01*
X145413355Y-105278076D01*
X145243524Y-105688110D01*
X145364845Y-105918000D01*
X146558000Y-105918000D01*
X146558000Y-105898000D01*
X146812000Y-105898000D01*
X146812000Y-105918000D01*
X148005155Y-105918000D01*
X148126476Y-105688110D01*
X147956645Y-105278076D01*
X147679292Y-104973739D01*
X147782765Y-104953157D01*
X147992809Y-104812809D01*
X148133157Y-104602765D01*
X148182440Y-104355000D01*
X148182440Y-102655000D01*
X148997560Y-102655000D01*
X148997560Y-104355000D01*
X149046843Y-104602765D01*
X149187191Y-104812809D01*
X149397235Y-104953157D01*
X149500708Y-104973739D01*
X149223355Y-105278076D01*
X149053524Y-105688110D01*
X149174845Y-105918000D01*
X150368000Y-105918000D01*
X150368000Y-105898000D01*
X150622000Y-105898000D01*
X150622000Y-105918000D01*
X151815155Y-105918000D01*
X151936476Y-105688110D01*
X151766645Y-105278076D01*
X151489292Y-104973739D01*
X151592765Y-104953157D01*
X151802809Y-104812809D01*
X151943157Y-104602765D01*
X151992440Y-104355000D01*
X151992440Y-102655000D01*
X151943157Y-102407235D01*
X151802809Y-102197191D01*
X151592765Y-102056843D01*
X151345000Y-102007560D01*
X149645000Y-102007560D01*
X149397235Y-102056843D01*
X149187191Y-102197191D01*
X149046843Y-102407235D01*
X148997560Y-102655000D01*
X148182440Y-102655000D01*
X148133157Y-102407235D01*
X147992809Y-102197191D01*
X147782765Y-102056843D01*
X147535000Y-102007560D01*
X145835000Y-102007560D01*
X145587235Y-102056843D01*
X145377191Y-102197191D01*
X145236843Y-102407235D01*
X145187560Y-102655000D01*
X143098798Y-102655000D01*
X143096497Y-102534613D01*
X142802739Y-101825418D01*
X142483970Y-101665635D01*
X141149605Y-103000000D01*
X140790395Y-103000000D01*
X139456030Y-101665635D01*
X139137261Y-101825418D01*
X138827277Y-102616187D01*
X129378056Y-102616187D01*
X129376497Y-102534613D01*
X129082739Y-101825418D01*
X128763970Y-101665635D01*
X127429605Y-103000000D01*
X127070395Y-103000000D01*
X125736030Y-101665635D01*
X125417261Y-101825418D01*
X125107277Y-102616187D01*
X122920000Y-102616187D01*
X122920000Y-101486030D01*
X125915635Y-101486030D01*
X127250000Y-102820395D01*
X128584365Y-101486030D01*
X128424582Y-101167261D01*
X127633813Y-100857277D01*
X126784613Y-100873503D01*
X126075418Y-101167261D01*
X125915635Y-101486030D01*
X122920000Y-101486030D01*
X122920000Y-101332238D01*
X123557239Y-100695000D01*
X128862762Y-100695000D01*
X129767746Y-101599985D01*
X130172054Y-101870135D01*
X130809999Y-101997030D01*
X131447945Y-101870135D01*
X131988768Y-101508768D01*
X132221610Y-101160297D01*
X132565460Y-101504147D01*
X133074506Y-101715000D01*
X133625494Y-101715000D01*
X134134540Y-101504147D01*
X134365000Y-101273687D01*
X134595460Y-101504147D01*
X135104506Y-101715000D01*
X135655494Y-101715000D01*
X136164540Y-101504147D01*
X136367170Y-101301517D01*
X137128088Y-101301517D01*
X137196077Y-101542460D01*
X137715171Y-101727201D01*
X138265448Y-101699230D01*
X138643923Y-101542460D01*
X138659846Y-101486030D01*
X139635635Y-101486030D01*
X140970000Y-102820395D01*
X142304365Y-101486030D01*
X142144582Y-101167261D01*
X141353813Y-100857277D01*
X140504613Y-100873503D01*
X139795418Y-101167261D01*
X139635635Y-101486030D01*
X138659846Y-101486030D01*
X138711912Y-101301517D01*
X137920000Y-100509605D01*
X137128088Y-101301517D01*
X136367170Y-101301517D01*
X136554147Y-101114540D01*
X136643397Y-100899070D01*
X136707540Y-101053923D01*
X136948483Y-101121912D01*
X137740395Y-100330000D01*
X138099605Y-100330000D01*
X138891517Y-101121912D01*
X139132460Y-101053923D01*
X139317201Y-100534829D01*
X139289230Y-99984552D01*
X139132460Y-99606077D01*
X138891517Y-99538088D01*
X138099605Y-100330000D01*
X137740395Y-100330000D01*
X136948483Y-99538088D01*
X136707540Y-99606077D01*
X136648255Y-99772658D01*
X136554147Y-99545460D01*
X136367170Y-99358483D01*
X137128088Y-99358483D01*
X137920000Y-100150395D01*
X138711912Y-99358483D01*
X138643923Y-99117540D01*
X138124829Y-98932799D01*
X137574552Y-98960770D01*
X137196077Y-99117540D01*
X137128088Y-99358483D01*
X136367170Y-99358483D01*
X136164540Y-99155853D01*
X135655494Y-98945000D01*
X135104506Y-98945000D01*
X134595460Y-99155853D01*
X134365000Y-99386313D01*
X134134540Y-99155853D01*
X133625494Y-98945000D01*
X133074506Y-98945000D01*
X132565460Y-99155853D01*
X132221610Y-99499703D01*
X132151886Y-99395353D01*
X135027253Y-96519986D01*
X135163769Y-96428769D01*
X135357386Y-96139000D01*
X135525136Y-95887946D01*
X135652031Y-95250000D01*
X135620000Y-95088969D01*
X135620000Y-94336890D01*
X153498524Y-94336890D01*
X153668355Y-94746924D01*
X154058642Y-95175183D01*
X154583108Y-95421486D01*
X154813000Y-95300819D01*
X154813000Y-94107000D01*
X155067000Y-94107000D01*
X155067000Y-95300819D01*
X155296892Y-95421486D01*
X155821358Y-95175183D01*
X156211645Y-94746924D01*
X156381476Y-94336890D01*
X156260155Y-94107000D01*
X155067000Y-94107000D01*
X154813000Y-94107000D01*
X153619845Y-94107000D01*
X153498524Y-94336890D01*
X135620000Y-94336890D01*
X135620000Y-93387440D01*
X137525000Y-93387440D01*
X137772765Y-93338157D01*
X137982809Y-93197809D01*
X138123157Y-92987765D01*
X138172440Y-92740000D01*
X138172440Y-90140000D01*
X138123157Y-89892235D01*
X137982809Y-89682191D01*
X137772765Y-89541843D01*
X137525000Y-89492560D01*
X137285000Y-89492560D01*
X137285000Y-87069848D01*
X137299888Y-86995000D01*
X137285000Y-86920152D01*
X137285000Y-86920148D01*
X137240904Y-86698463D01*
X137072929Y-86447071D01*
X137009473Y-86404671D01*
X136964802Y-86360000D01*
X138112501Y-85212302D01*
X140379673Y-87479476D01*
X140422071Y-87542929D01*
X140485524Y-87585327D01*
X140485526Y-87585329D01*
X140610902Y-87669102D01*
X140673463Y-87710904D01*
X140895148Y-87755000D01*
X140895152Y-87755000D01*
X140969999Y-87769888D01*
X141044846Y-87755000D01*
X147880153Y-87755000D01*
X147955000Y-87769888D01*
X148029847Y-87755000D01*
X148029852Y-87755000D01*
X148251537Y-87710904D01*
X148502929Y-87542929D01*
X148545331Y-87479470D01*
X149860000Y-86164801D01*
X153079671Y-89384473D01*
X153122071Y-89447929D01*
X153185527Y-89490329D01*
X153373462Y-89615904D01*
X153421605Y-89625480D01*
X153442560Y-89629648D01*
X153442560Y-89750000D01*
X153491843Y-89997765D01*
X153632191Y-90207809D01*
X153842235Y-90348157D01*
X153887619Y-90357184D01*
X153869375Y-90369375D01*
X153541161Y-90860582D01*
X153425908Y-91440000D01*
X153541161Y-92019418D01*
X153869375Y-92510625D01*
X154188478Y-92723843D01*
X154058642Y-92784817D01*
X153668355Y-93213076D01*
X153498524Y-93623110D01*
X153619845Y-93853000D01*
X154813000Y-93853000D01*
X154813000Y-93833000D01*
X155067000Y-93833000D01*
X155067000Y-93853000D01*
X156260155Y-93853000D01*
X156381476Y-93623110D01*
X156211645Y-93213076D01*
X155821358Y-92784817D01*
X155691522Y-92723843D01*
X156010625Y-92510625D01*
X156338839Y-92019418D01*
X156454092Y-91440000D01*
X156338839Y-90860582D01*
X156010625Y-90369375D01*
X155992381Y-90357184D01*
X156037765Y-90348157D01*
X156247809Y-90207809D01*
X156388157Y-89997765D01*
X156437440Y-89750000D01*
X156437440Y-88050000D01*
X156388157Y-87802235D01*
X156247809Y-87592191D01*
X156037765Y-87451843D01*
X155790000Y-87402560D01*
X154090000Y-87402560D01*
X153842235Y-87451843D01*
X153632191Y-87592191D01*
X153554005Y-87709203D01*
X150620000Y-84775199D01*
X150620000Y-83862440D01*
X150860000Y-83862440D01*
X151107765Y-83813157D01*
X151317809Y-83672809D01*
X151416900Y-83524510D01*
X151762056Y-83755136D01*
X152400000Y-83882031D01*
X153037945Y-83755136D01*
X153578769Y-83393769D01*
X153689952Y-83227371D01*
X153873683Y-83460922D01*
X154431645Y-83774144D01*
X154559566Y-83805124D01*
X154813000Y-83685777D01*
X154813000Y-82042000D01*
X155067000Y-82042000D01*
X155067000Y-83685777D01*
X155320434Y-83805124D01*
X155448355Y-83774144D01*
X156006317Y-83460922D01*
X156401942Y-82958020D01*
X156575000Y-82342000D01*
X156575000Y-82042000D01*
X155067000Y-82042000D01*
X154813000Y-82042000D01*
X154793000Y-82042000D01*
X154793000Y-81788000D01*
X154813000Y-81788000D01*
X154813000Y-80144223D01*
X155067000Y-80144223D01*
X155067000Y-81788000D01*
X156575000Y-81788000D01*
X156575000Y-81488000D01*
X156401942Y-80871980D01*
X156006317Y-80369078D01*
X155448355Y-80055856D01*
X155320434Y-80024876D01*
X155067000Y-80144223D01*
X154813000Y-80144223D01*
X154559566Y-80024876D01*
X154431645Y-80055856D01*
X154035000Y-80278520D01*
X154035000Y-78471480D01*
X154431645Y-78694144D01*
X154559566Y-78725124D01*
X154813000Y-78605777D01*
X154813000Y-76962000D01*
X155067000Y-76962000D01*
X155067000Y-78605777D01*
X155320434Y-78725124D01*
X155448355Y-78694144D01*
X156006317Y-78380922D01*
X156401942Y-77878020D01*
X156575000Y-77262000D01*
X156575000Y-76962000D01*
X155067000Y-76962000D01*
X154813000Y-76962000D01*
X154793000Y-76962000D01*
X154793000Y-76708000D01*
X154813000Y-76708000D01*
X154813000Y-75064223D01*
X155067000Y-75064223D01*
X155067000Y-76708000D01*
X156575000Y-76708000D01*
X156575000Y-76408000D01*
X156401942Y-75791980D01*
X156006317Y-75289078D01*
X155448355Y-74975856D01*
X155320434Y-74944876D01*
X155067000Y-75064223D01*
X154813000Y-75064223D01*
X154559566Y-74944876D01*
X154431645Y-74975856D01*
X154035000Y-75198520D01*
X154035000Y-72551025D01*
X154067030Y-72389999D01*
X154035000Y-72228973D01*
X154035000Y-72228969D01*
X153940136Y-71752055D01*
X153578769Y-71211231D01*
X153442253Y-71120014D01*
X152399988Y-70077750D01*
X152308769Y-69941231D01*
X151767945Y-69579864D01*
X151291031Y-69485000D01*
X151291030Y-69485000D01*
X151130000Y-69452969D01*
X150968970Y-69485000D01*
X146092239Y-69485000D01*
X141970000Y-65362762D01*
X141970000Y-65013877D01*
X144160728Y-65013877D01*
X144320495Y-65332632D01*
X145111217Y-65642595D01*
X145960366Y-65626367D01*
X146669505Y-65332632D01*
X146829272Y-65013877D01*
X145495000Y-63679605D01*
X144160728Y-65013877D01*
X141970000Y-65013877D01*
X141970000Y-64884163D01*
X142144856Y-64709307D01*
X142469870Y-63924652D01*
X142469870Y-63116217D01*
X143352405Y-63116217D01*
X143368633Y-63965366D01*
X143662368Y-64674505D01*
X143981123Y-64834272D01*
X145315395Y-63500000D01*
X145674605Y-63500000D01*
X147008877Y-64834272D01*
X147327632Y-64674505D01*
X147637595Y-63883783D01*
X147621367Y-63034634D01*
X147327632Y-62325495D01*
X147008877Y-62165728D01*
X145674605Y-63500000D01*
X145315395Y-63500000D01*
X143981123Y-62165728D01*
X143662368Y-62325495D01*
X143352405Y-63116217D01*
X142469870Y-63116217D01*
X142469870Y-63075348D01*
X142144856Y-62290693D01*
X141840286Y-61986123D01*
X144160728Y-61986123D01*
X145495000Y-63320395D01*
X146829272Y-61986123D01*
X146778531Y-61884887D01*
X154475000Y-61884887D01*
X154475000Y-62575113D01*
X154739138Y-63212799D01*
X155227201Y-63700862D01*
X155864887Y-63965000D01*
X156555113Y-63965000D01*
X157192799Y-63700862D01*
X157680862Y-63212799D01*
X157945000Y-62575113D01*
X157945000Y-61884887D01*
X157680862Y-61247201D01*
X157192799Y-60759138D01*
X156555113Y-60495000D01*
X155864887Y-60495000D01*
X155227201Y-60759138D01*
X154739138Y-61247201D01*
X154475000Y-61884887D01*
X146778531Y-61884887D01*
X146669505Y-61667368D01*
X145878783Y-61357405D01*
X145029634Y-61373633D01*
X144320495Y-61667368D01*
X144160728Y-61986123D01*
X141840286Y-61986123D01*
X141544307Y-61690144D01*
X140759652Y-61365130D01*
X139910348Y-61365130D01*
X139125693Y-61690144D01*
X138525144Y-62290693D01*
X138200130Y-63075348D01*
X138200130Y-63924652D01*
X138525144Y-64709307D01*
X138700000Y-64884163D01*
X138700000Y-65878969D01*
X138667969Y-66040000D01*
X138700000Y-66201031D01*
X138700001Y-70958966D01*
X138667969Y-71120000D01*
X138713271Y-71347746D01*
X138794865Y-71757945D01*
X139156232Y-72298769D01*
X139292748Y-72389986D01*
X139335000Y-72432238D01*
X139335001Y-74887560D01*
X137430000Y-74887560D01*
X137182235Y-74936843D01*
X136972191Y-75077191D01*
X136831843Y-75287235D01*
X136782560Y-75535000D01*
X136782560Y-78135000D01*
X136831843Y-78382765D01*
X136972191Y-78592809D01*
X137182235Y-78733157D01*
X137430000Y-78782440D01*
X137670001Y-78782440D01*
X137670000Y-79967560D01*
X137430000Y-79967560D01*
X137182235Y-80016843D01*
X136972191Y-80157191D01*
X136831843Y-80367235D01*
X136782560Y-80615000D01*
X136782560Y-83215000D01*
X136831843Y-83462765D01*
X136972191Y-83672809D01*
X137182235Y-83813157D01*
X137332209Y-83842988D01*
X135575199Y-85600000D01*
X127314803Y-85600000D01*
X125557790Y-83842989D01*
X125707765Y-83813157D01*
X125917809Y-83672809D01*
X126016900Y-83524510D01*
X126362056Y-83755136D01*
X127000000Y-83882031D01*
X127637945Y-83755136D01*
X128178769Y-83393769D01*
X128289952Y-83227371D01*
X128473683Y-83460922D01*
X129031645Y-83774144D01*
X129159566Y-83805124D01*
X129413000Y-83685777D01*
X129413000Y-82042000D01*
X129667000Y-82042000D01*
X129667000Y-83685777D01*
X129920434Y-83805124D01*
X130048355Y-83774144D01*
X130606317Y-83460922D01*
X131001942Y-82958020D01*
X131175000Y-82342000D01*
X131175000Y-82042000D01*
X129667000Y-82042000D01*
X129413000Y-82042000D01*
X129393000Y-82042000D01*
X129393000Y-81788000D01*
X129413000Y-81788000D01*
X129413000Y-80144223D01*
X129667000Y-80144223D01*
X129667000Y-81788000D01*
X131175000Y-81788000D01*
X131175000Y-81488000D01*
X131001942Y-80871980D01*
X130606317Y-80369078D01*
X130048355Y-80055856D01*
X129920434Y-80024876D01*
X129667000Y-80144223D01*
X129413000Y-80144223D01*
X129159566Y-80024876D01*
X129031645Y-80055856D01*
X128635000Y-80278520D01*
X128635000Y-78471480D01*
X129031645Y-78694144D01*
X129159566Y-78725124D01*
X129413000Y-78605777D01*
X129413000Y-76962000D01*
X129667000Y-76962000D01*
X129667000Y-78605777D01*
X129920434Y-78725124D01*
X130048355Y-78694144D01*
X130606317Y-78380922D01*
X131001942Y-77878020D01*
X131175000Y-77262000D01*
X131175000Y-76962000D01*
X129667000Y-76962000D01*
X129413000Y-76962000D01*
X129393000Y-76962000D01*
X129393000Y-76708000D01*
X129413000Y-76708000D01*
X129413000Y-75064223D01*
X129667000Y-75064223D01*
X129667000Y-76708000D01*
X131175000Y-76708000D01*
X131175000Y-76408000D01*
X131001942Y-75791980D01*
X130606317Y-75289078D01*
X130048355Y-74975856D01*
X129920434Y-74944876D01*
X129667000Y-75064223D01*
X129413000Y-75064223D01*
X129159566Y-74944876D01*
X129031645Y-74975856D01*
X128715000Y-75153610D01*
X128715000Y-64884163D01*
X128889856Y-64709307D01*
X129214870Y-63924652D01*
X129214870Y-63075348D01*
X128889856Y-62290693D01*
X128289307Y-61690144D01*
X127504652Y-61365130D01*
X126655348Y-61365130D01*
X125870693Y-61690144D01*
X125270144Y-62290693D01*
X124945130Y-63075348D01*
X124945130Y-63322632D01*
X124537881Y-63729881D01*
X124401362Y-63821100D01*
X124039995Y-64361925D01*
X123945131Y-64838838D01*
X123913100Y-64999869D01*
X123945131Y-65160899D01*
X123945132Y-66782629D01*
X120607762Y-70120000D01*
X117511029Y-70120000D01*
X117349999Y-70087969D01*
X117188969Y-70120000D01*
X116712055Y-70214864D01*
X116171231Y-70576231D01*
X116080014Y-70712747D01*
X114527750Y-72265012D01*
X114391231Y-72356231D01*
X114029864Y-72897056D01*
X114003829Y-73027945D01*
X113902969Y-73535000D01*
X113935000Y-73696030D01*
X113935000Y-74887560D01*
X112030000Y-74887560D01*
X111782235Y-74936843D01*
X111572191Y-75077191D01*
X111431843Y-75287235D01*
X111382560Y-75535000D01*
X109930000Y-75535000D01*
X109930000Y-65013877D01*
X120585728Y-65013877D01*
X120745495Y-65332632D01*
X121536217Y-65642595D01*
X122385366Y-65626367D01*
X123094505Y-65332632D01*
X123254272Y-65013877D01*
X121920000Y-63679605D01*
X120585728Y-65013877D01*
X109930000Y-65013877D01*
X109930000Y-61884887D01*
X110025000Y-61884887D01*
X110025000Y-62575113D01*
X110289138Y-63212799D01*
X110777201Y-63700862D01*
X111414887Y-63965000D01*
X112105113Y-63965000D01*
X112742799Y-63700862D01*
X113230862Y-63212799D01*
X113270867Y-63116217D01*
X119777405Y-63116217D01*
X119793633Y-63965366D01*
X120087368Y-64674505D01*
X120406123Y-64834272D01*
X121740395Y-63500000D01*
X122099605Y-63500000D01*
X123433877Y-64834272D01*
X123752632Y-64674505D01*
X124062595Y-63883783D01*
X124046367Y-63034634D01*
X123752632Y-62325495D01*
X123433877Y-62165728D01*
X122099605Y-63500000D01*
X121740395Y-63500000D01*
X120406123Y-62165728D01*
X120087368Y-62325495D01*
X119777405Y-63116217D01*
X113270867Y-63116217D01*
X113495000Y-62575113D01*
X113495000Y-61986123D01*
X120585728Y-61986123D01*
X121920000Y-63320395D01*
X123254272Y-61986123D01*
X123094505Y-61667368D01*
X122303783Y-61357405D01*
X121454634Y-61373633D01*
X120745495Y-61667368D01*
X120585728Y-61986123D01*
X113495000Y-61986123D01*
X113495000Y-61884887D01*
X113230862Y-61247201D01*
X112742799Y-60759138D01*
X112105113Y-60495000D01*
X111414887Y-60495000D01*
X110777201Y-60759138D01*
X110289138Y-61247201D01*
X110025000Y-61884887D01*
X109930000Y-61884887D01*
X109930000Y-60400000D01*
X158040000Y-60400000D01*
X158040001Y-98990074D01*
G36*
X144145014Y-72162253D02*
X144236231Y-72298769D01*
X144777055Y-72660136D01*
X145253969Y-72755000D01*
X145253970Y-72755000D01*
X145415000Y-72787031D01*
X145576030Y-72755000D01*
X150452762Y-72755000D01*
X150765000Y-73067239D01*
X150765001Y-74887560D01*
X148860000Y-74887560D01*
X148612235Y-74936843D01*
X148402191Y-75077191D01*
X148261843Y-75287235D01*
X148212560Y-75535000D01*
X148212560Y-78135000D01*
X148261843Y-78382765D01*
X148402191Y-78592809D01*
X148612235Y-78733157D01*
X148860000Y-78782440D01*
X149100001Y-78782440D01*
X149100000Y-79967560D01*
X148860000Y-79967560D01*
X148612235Y-80016843D01*
X148402191Y-80157191D01*
X148261843Y-80367235D01*
X148212560Y-80615000D01*
X148212560Y-83215000D01*
X148261843Y-83462765D01*
X148402191Y-83672809D01*
X148612235Y-83813157D01*
X148860000Y-83862440D01*
X149100000Y-83862440D01*
X149100000Y-84775198D01*
X147640199Y-86235000D01*
X141284803Y-86235000D01*
X139190000Y-84140199D01*
X139190000Y-83894848D01*
X139196446Y-83862440D01*
X139430000Y-83862440D01*
X139677765Y-83813157D01*
X139887809Y-83672809D01*
X139986900Y-83524510D01*
X140332056Y-83755136D01*
X140970000Y-83882031D01*
X141607945Y-83755136D01*
X142148769Y-83393769D01*
X142259952Y-83227371D01*
X142443683Y-83460922D01*
X143001645Y-83774144D01*
X143129566Y-83805124D01*
X143383000Y-83685777D01*
X143383000Y-82042000D01*
X143637000Y-82042000D01*
X143637000Y-83685777D01*
X143890434Y-83805124D01*
X144018355Y-83774144D01*
X144576317Y-83460922D01*
X144971942Y-82958020D01*
X145145000Y-82342000D01*
X145145000Y-82042000D01*
X143637000Y-82042000D01*
X143383000Y-82042000D01*
X143363000Y-82042000D01*
X143363000Y-81788000D01*
X143383000Y-81788000D01*
X143383000Y-80144223D01*
X143637000Y-80144223D01*
X143637000Y-81788000D01*
X145145000Y-81788000D01*
X145145000Y-81488000D01*
X144971942Y-80871980D01*
X144576317Y-80369078D01*
X144018355Y-80055856D01*
X143890434Y-80024876D01*
X143637000Y-80144223D01*
X143383000Y-80144223D01*
X143129566Y-80024876D01*
X143001645Y-80055856D01*
X142605000Y-80278520D01*
X142605000Y-78471480D01*
X143001645Y-78694144D01*
X143129566Y-78725124D01*
X143383000Y-78605777D01*
X143383000Y-76962000D01*
X143637000Y-76962000D01*
X143637000Y-78605777D01*
X143890434Y-78725124D01*
X144018355Y-78694144D01*
X144576317Y-78380922D01*
X144971942Y-77878020D01*
X145145000Y-77262000D01*
X145145000Y-76962000D01*
X143637000Y-76962000D01*
X143383000Y-76962000D01*
X143363000Y-76962000D01*
X143363000Y-76708000D01*
X143383000Y-76708000D01*
X143383000Y-75064223D01*
X143637000Y-75064223D01*
X143637000Y-76708000D01*
X145145000Y-76708000D01*
X145145000Y-76408000D01*
X144971942Y-75791980D01*
X144576317Y-75289078D01*
X144018355Y-74975856D01*
X143890434Y-74944876D01*
X143637000Y-75064223D01*
X143383000Y-75064223D01*
X143129566Y-74944876D01*
X143001645Y-74975856D01*
X142605000Y-75198520D01*
X142605000Y-71916031D01*
X142637031Y-71755000D01*
X142510136Y-71117055D01*
X142148769Y-70576231D01*
X142012250Y-70485012D01*
X141970000Y-70442762D01*
X141970000Y-69987239D01*
X144145014Y-72162253D01*
X144145014Y-72162253D01*
G37*
X144145014Y-72162253D02*
X144236231Y-72298769D01*
X144777055Y-72660136D01*
X145253969Y-72755000D01*
X145253970Y-72755000D01*
X145415000Y-72787031D01*
X145576030Y-72755000D01*
X150452762Y-72755000D01*
X150765000Y-73067239D01*
X150765001Y-74887560D01*
X148860000Y-74887560D01*
X148612235Y-74936843D01*
X148402191Y-75077191D01*
X148261843Y-75287235D01*
X148212560Y-75535000D01*
X148212560Y-78135000D01*
X148261843Y-78382765D01*
X148402191Y-78592809D01*
X148612235Y-78733157D01*
X148860000Y-78782440D01*
X149100001Y-78782440D01*
X149100000Y-79967560D01*
X148860000Y-79967560D01*
X148612235Y-80016843D01*
X148402191Y-80157191D01*
X148261843Y-80367235D01*
X148212560Y-80615000D01*
X148212560Y-83215000D01*
X148261843Y-83462765D01*
X148402191Y-83672809D01*
X148612235Y-83813157D01*
X148860000Y-83862440D01*
X149100000Y-83862440D01*
X149100000Y-84775198D01*
X147640199Y-86235000D01*
X141284803Y-86235000D01*
X139190000Y-84140199D01*
X139190000Y-83894848D01*
X139196446Y-83862440D01*
X139430000Y-83862440D01*
X139677765Y-83813157D01*
X139887809Y-83672809D01*
X139986900Y-83524510D01*
X140332056Y-83755136D01*
X140970000Y-83882031D01*
X141607945Y-83755136D01*
X142148769Y-83393769D01*
X142259952Y-83227371D01*
X142443683Y-83460922D01*
X143001645Y-83774144D01*
X143129566Y-83805124D01*
X143383000Y-83685777D01*
X143383000Y-82042000D01*
X143637000Y-82042000D01*
X143637000Y-83685777D01*
X143890434Y-83805124D01*
X144018355Y-83774144D01*
X144576317Y-83460922D01*
X144971942Y-82958020D01*
X145145000Y-82342000D01*
X145145000Y-82042000D01*
X143637000Y-82042000D01*
X143383000Y-82042000D01*
X143363000Y-82042000D01*
X143363000Y-81788000D01*
X143383000Y-81788000D01*
X143383000Y-80144223D01*
X143637000Y-80144223D01*
X143637000Y-81788000D01*
X145145000Y-81788000D01*
X145145000Y-81488000D01*
X144971942Y-80871980D01*
X144576317Y-80369078D01*
X144018355Y-80055856D01*
X143890434Y-80024876D01*
X143637000Y-80144223D01*
X143383000Y-80144223D01*
X143129566Y-80024876D01*
X143001645Y-80055856D01*
X142605000Y-80278520D01*
X142605000Y-78471480D01*
X143001645Y-78694144D01*
X143129566Y-78725124D01*
X143383000Y-78605777D01*
X143383000Y-76962000D01*
X143637000Y-76962000D01*
X143637000Y-78605777D01*
X143890434Y-78725124D01*
X144018355Y-78694144D01*
X144576317Y-78380922D01*
X144971942Y-77878020D01*
X145145000Y-77262000D01*
X145145000Y-76962000D01*
X143637000Y-76962000D01*
X143383000Y-76962000D01*
X143363000Y-76962000D01*
X143363000Y-76708000D01*
X143383000Y-76708000D01*
X143383000Y-75064223D01*
X143637000Y-75064223D01*
X143637000Y-76708000D01*
X145145000Y-76708000D01*
X145145000Y-76408000D01*
X144971942Y-75791980D01*
X144576317Y-75289078D01*
X144018355Y-74975856D01*
X143890434Y-74944876D01*
X143637000Y-75064223D01*
X143383000Y-75064223D01*
X143129566Y-74944876D01*
X143001645Y-74975856D01*
X142605000Y-75198520D01*
X142605000Y-71916031D01*
X142637031Y-71755000D01*
X142510136Y-71117055D01*
X142148769Y-70576231D01*
X142012250Y-70485012D01*
X141970000Y-70442762D01*
X141970000Y-69987239D01*
X144145014Y-72162253D01*
G36*
X125445001Y-74887560D02*
X123460000Y-74887560D01*
X123212235Y-74936843D01*
X123002191Y-75077191D01*
X122861843Y-75287235D01*
X122812560Y-75535000D01*
X122812560Y-78135000D01*
X122861843Y-78382765D01*
X123002191Y-78592809D01*
X123212235Y-78733157D01*
X123460000Y-78782440D01*
X123700001Y-78782440D01*
X123700000Y-79967560D01*
X123460000Y-79967560D01*
X123212235Y-80016843D01*
X123002191Y-80157191D01*
X122861843Y-80367235D01*
X122812560Y-80615000D01*
X122812560Y-83215000D01*
X122861843Y-83462765D01*
X123002191Y-83672809D01*
X123212235Y-83813157D01*
X123460000Y-83862440D01*
X123693554Y-83862440D01*
X123700001Y-83894851D01*
X123700001Y-84140197D01*
X122240199Y-85600000D01*
X115884803Y-85600000D01*
X114127790Y-83842989D01*
X114277765Y-83813157D01*
X114487809Y-83672809D01*
X114586900Y-83524510D01*
X114932056Y-83755136D01*
X115570000Y-83882031D01*
X116207945Y-83755136D01*
X116748769Y-83393769D01*
X116859952Y-83227371D01*
X117043683Y-83460922D01*
X117601645Y-83774144D01*
X117729566Y-83805124D01*
X117983000Y-83685777D01*
X117983000Y-82042000D01*
X118237000Y-82042000D01*
X118237000Y-83685777D01*
X118490434Y-83805124D01*
X118618355Y-83774144D01*
X119176317Y-83460922D01*
X119571942Y-82958020D01*
X119745000Y-82342000D01*
X119745000Y-82042000D01*
X118237000Y-82042000D01*
X117983000Y-82042000D01*
X117963000Y-82042000D01*
X117963000Y-81788000D01*
X117983000Y-81788000D01*
X117983000Y-80144223D01*
X118237000Y-80144223D01*
X118237000Y-81788000D01*
X119745000Y-81788000D01*
X119745000Y-81488000D01*
X119571942Y-80871980D01*
X119176317Y-80369078D01*
X118618355Y-80055856D01*
X118490434Y-80024876D01*
X118237000Y-80144223D01*
X117983000Y-80144223D01*
X117729566Y-80024876D01*
X117601645Y-80055856D01*
X117205000Y-80278520D01*
X117205000Y-78471480D01*
X117601645Y-78694144D01*
X117729566Y-78725124D01*
X117983000Y-78605777D01*
X117983000Y-76962000D01*
X118237000Y-76962000D01*
X118237000Y-78605777D01*
X118490434Y-78725124D01*
X118618355Y-78694144D01*
X119176317Y-78380922D01*
X119571942Y-77878020D01*
X119745000Y-77262000D01*
X119745000Y-76962000D01*
X118237000Y-76962000D01*
X117983000Y-76962000D01*
X117963000Y-76962000D01*
X117963000Y-76708000D01*
X117983000Y-76708000D01*
X117983000Y-75064223D01*
X118237000Y-75064223D01*
X118237000Y-76708000D01*
X119745000Y-76708000D01*
X119745000Y-76408000D01*
X119571942Y-75791980D01*
X119176317Y-75289078D01*
X118618355Y-74975856D01*
X118490434Y-74944876D01*
X118237000Y-75064223D01*
X117983000Y-75064223D01*
X117729566Y-74944876D01*
X117601645Y-74975856D01*
X117205000Y-75198520D01*
X117205000Y-74212238D01*
X118027239Y-73390000D01*
X121123970Y-73390000D01*
X121285000Y-73422031D01*
X121446030Y-73390000D01*
X121446031Y-73390000D01*
X121922945Y-73295136D01*
X122463769Y-72933769D01*
X122554988Y-72797250D01*
X125445000Y-69907239D01*
X125445001Y-74887560D01*
X125445001Y-74887560D01*
G37*
X125445001Y-74887560D02*
X123460000Y-74887560D01*
X123212235Y-74936843D01*
X123002191Y-75077191D01*
X122861843Y-75287235D01*
X122812560Y-75535000D01*
X122812560Y-78135000D01*
X122861843Y-78382765D01*
X123002191Y-78592809D01*
X123212235Y-78733157D01*
X123460000Y-78782440D01*
X123700001Y-78782440D01*
X123700000Y-79967560D01*
X123460000Y-79967560D01*
X123212235Y-80016843D01*
X123002191Y-80157191D01*
X122861843Y-80367235D01*
X122812560Y-80615000D01*
X122812560Y-83215000D01*
X122861843Y-83462765D01*
X123002191Y-83672809D01*
X123212235Y-83813157D01*
X123460000Y-83862440D01*
X123693554Y-83862440D01*
X123700001Y-83894851D01*
X123700001Y-84140197D01*
X122240199Y-85600000D01*
X115884803Y-85600000D01*
X114127790Y-83842989D01*
X114277765Y-83813157D01*
X114487809Y-83672809D01*
X114586900Y-83524510D01*
X114932056Y-83755136D01*
X115570000Y-83882031D01*
X116207945Y-83755136D01*
X116748769Y-83393769D01*
X116859952Y-83227371D01*
X117043683Y-83460922D01*
X117601645Y-83774144D01*
X117729566Y-83805124D01*
X117983000Y-83685777D01*
X117983000Y-82042000D01*
X118237000Y-82042000D01*
X118237000Y-83685777D01*
X118490434Y-83805124D01*
X118618355Y-83774144D01*
X119176317Y-83460922D01*
X119571942Y-82958020D01*
X119745000Y-82342000D01*
X119745000Y-82042000D01*
X118237000Y-82042000D01*
X117983000Y-82042000D01*
X117963000Y-82042000D01*
X117963000Y-81788000D01*
X117983000Y-81788000D01*
X117983000Y-80144223D01*
X118237000Y-80144223D01*
X118237000Y-81788000D01*
X119745000Y-81788000D01*
X119745000Y-81488000D01*
X119571942Y-80871980D01*
X119176317Y-80369078D01*
X118618355Y-80055856D01*
X118490434Y-80024876D01*
X118237000Y-80144223D01*
X117983000Y-80144223D01*
X117729566Y-80024876D01*
X117601645Y-80055856D01*
X117205000Y-80278520D01*
X117205000Y-78471480D01*
X117601645Y-78694144D01*
X117729566Y-78725124D01*
X117983000Y-78605777D01*
X117983000Y-76962000D01*
X118237000Y-76962000D01*
X118237000Y-78605777D01*
X118490434Y-78725124D01*
X118618355Y-78694144D01*
X119176317Y-78380922D01*
X119571942Y-77878020D01*
X119745000Y-77262000D01*
X119745000Y-76962000D01*
X118237000Y-76962000D01*
X117983000Y-76962000D01*
X117963000Y-76962000D01*
X117963000Y-76708000D01*
X117983000Y-76708000D01*
X117983000Y-75064223D01*
X118237000Y-75064223D01*
X118237000Y-76708000D01*
X119745000Y-76708000D01*
X119745000Y-76408000D01*
X119571942Y-75791980D01*
X119176317Y-75289078D01*
X118618355Y-74975856D01*
X118490434Y-74944876D01*
X118237000Y-75064223D01*
X117983000Y-75064223D01*
X117729566Y-74944876D01*
X117601645Y-74975856D01*
X117205000Y-75198520D01*
X117205000Y-74212238D01*
X118027239Y-73390000D01*
X121123970Y-73390000D01*
X121285000Y-73422031D01*
X121446030Y-73390000D01*
X121446031Y-73390000D01*
X121922945Y-73295136D01*
X122463769Y-72933769D01*
X122554988Y-72797250D01*
X125445000Y-69907239D01*
X125445001Y-74887560D01*
G04 #@! TD*
M02*
