G04 #@! TF.GenerationSoftware,KiCad,Pcbnew,(5.0.1)-4*
G04 #@! TF.CreationDate,2018-11-29T15:58:35-07:00*
G04 #@! TF.ProjectId,robot,726F626F742E6B696361645F70636200,rev?*
G04 #@! TF.SameCoordinates,Original*
G04 #@! TF.FileFunction,Legend,Bot*
G04 #@! TF.FilePolarity,Positive*
%FSLAX46Y46*%
G04 Gerber Fmt 4.6, Leading zero omitted, Abs format (unit mm)*
G04 Created by KiCad (PCBNEW (5.0.1)-4) date 11/29/2018 3:58:35 PM*
%MOMM*%
%LPD*%
G01*
G04 APERTURE LIST*
%ADD10C,0.010000*%
G04 APERTURE END LIST*
D10*
G04 #@! TO.C,LOGO1*
G36*
X141396834Y-85176506D02*
X141210916Y-85269204D01*
X141046820Y-85439885D01*
X141001628Y-85503107D01*
X140952396Y-85585834D01*
X140920453Y-85675687D01*
X140902178Y-85795608D01*
X140893952Y-85968537D01*
X140892145Y-86196835D01*
X140900303Y-86509693D01*
X140928659Y-86744598D01*
X140983038Y-86919847D01*
X141069263Y-87053738D01*
X141193159Y-87164569D01*
X141202263Y-87171131D01*
X141324366Y-87238256D01*
X141471400Y-87271467D01*
X141658396Y-87279655D01*
X141962387Y-87279655D01*
X141962515Y-87574762D01*
X141965344Y-87739117D01*
X141982582Y-87835523D01*
X142027630Y-87893343D01*
X142113886Y-87941941D01*
X142134601Y-87951869D01*
X142231538Y-87998398D01*
X142306593Y-88027786D01*
X142362402Y-88030324D01*
X142401603Y-87996302D01*
X142426832Y-87916012D01*
X142440728Y-87779743D01*
X142445927Y-87577787D01*
X142445066Y-87300434D01*
X142440784Y-86937976D01*
X142439447Y-86829560D01*
X142434629Y-86455837D01*
X142430313Y-86211369D01*
X141962643Y-86211369D01*
X141960015Y-86418877D01*
X141948333Y-86554645D01*
X141921903Y-86644192D01*
X141875031Y-86713039D01*
X141843207Y-86746618D01*
X141713108Y-86844869D01*
X141597921Y-86852866D01*
X141479066Y-86771730D01*
X141476053Y-86768736D01*
X141427695Y-86706030D01*
X141398278Y-86620808D01*
X141383440Y-86489564D01*
X141378819Y-86288793D01*
X141378735Y-86244314D01*
X141389902Y-85967639D01*
X141426253Y-85775842D01*
X141492059Y-85658757D01*
X141591593Y-85606215D01*
X141649119Y-85600920D01*
X141785649Y-85625767D01*
X141879298Y-85707581D01*
X141935670Y-85857270D01*
X141960367Y-86085743D01*
X141962643Y-86211369D01*
X142430313Y-86211369D01*
X142429522Y-86166587D01*
X142422922Y-85948970D01*
X142413623Y-85790146D01*
X142400423Y-85677274D01*
X142382115Y-85597513D01*
X142357497Y-85538023D01*
X142325363Y-85485963D01*
X142311585Y-85466373D01*
X142128812Y-85281328D01*
X141897724Y-85176412D01*
X141630410Y-85147163D01*
X141396834Y-85176506D01*
X141396834Y-85176506D01*
G37*
X141396834Y-85176506D02*
X141210916Y-85269204D01*
X141046820Y-85439885D01*
X141001628Y-85503107D01*
X140952396Y-85585834D01*
X140920453Y-85675687D01*
X140902178Y-85795608D01*
X140893952Y-85968537D01*
X140892145Y-86196835D01*
X140900303Y-86509693D01*
X140928659Y-86744598D01*
X140983038Y-86919847D01*
X141069263Y-87053738D01*
X141193159Y-87164569D01*
X141202263Y-87171131D01*
X141324366Y-87238256D01*
X141471400Y-87271467D01*
X141658396Y-87279655D01*
X141962387Y-87279655D01*
X141962515Y-87574762D01*
X141965344Y-87739117D01*
X141982582Y-87835523D01*
X142027630Y-87893343D01*
X142113886Y-87941941D01*
X142134601Y-87951869D01*
X142231538Y-87998398D01*
X142306593Y-88027786D01*
X142362402Y-88030324D01*
X142401603Y-87996302D01*
X142426832Y-87916012D01*
X142440728Y-87779743D01*
X142445927Y-87577787D01*
X142445066Y-87300434D01*
X142440784Y-86937976D01*
X142439447Y-86829560D01*
X142434629Y-86455837D01*
X142430313Y-86211369D01*
X141962643Y-86211369D01*
X141960015Y-86418877D01*
X141948333Y-86554645D01*
X141921903Y-86644192D01*
X141875031Y-86713039D01*
X141843207Y-86746618D01*
X141713108Y-86844869D01*
X141597921Y-86852866D01*
X141479066Y-86771730D01*
X141476053Y-86768736D01*
X141427695Y-86706030D01*
X141398278Y-86620808D01*
X141383440Y-86489564D01*
X141378819Y-86288793D01*
X141378735Y-86244314D01*
X141389902Y-85967639D01*
X141426253Y-85775842D01*
X141492059Y-85658757D01*
X141591593Y-85606215D01*
X141649119Y-85600920D01*
X141785649Y-85625767D01*
X141879298Y-85707581D01*
X141935670Y-85857270D01*
X141960367Y-86085743D01*
X141962643Y-86211369D01*
X142430313Y-86211369D01*
X142429522Y-86166587D01*
X142422922Y-85948970D01*
X142413623Y-85790146D01*
X142400423Y-85677274D01*
X142382115Y-85597513D01*
X142357497Y-85538023D01*
X142325363Y-85485963D01*
X142311585Y-85466373D01*
X142128812Y-85281328D01*
X141897724Y-85176412D01*
X141630410Y-85147163D01*
X141396834Y-85176506D01*
G36*
X137654284Y-85202865D02*
X137498128Y-85293190D01*
X137389559Y-85382845D01*
X137310155Y-85476776D01*
X137255454Y-85591646D01*
X137220990Y-85744114D01*
X137202299Y-85950844D01*
X137194919Y-86228496D01*
X137194061Y-86428086D01*
X137194061Y-87162766D01*
X137400862Y-87255472D01*
X137607662Y-87348179D01*
X137631992Y-86543492D01*
X137642045Y-86242966D01*
X137652591Y-86024835D01*
X137665657Y-85874186D01*
X137683271Y-85776107D01*
X137707461Y-85715688D01*
X137740254Y-85678016D01*
X137750775Y-85669862D01*
X137910187Y-85606178D01*
X138071321Y-85631378D01*
X138167241Y-85698238D01*
X138206259Y-85745616D01*
X138233267Y-85807787D01*
X138250432Y-85902039D01*
X138259918Y-86045657D01*
X138263893Y-86255931D01*
X138264559Y-86475070D01*
X138264690Y-86749999D01*
X138269397Y-86944602D01*
X138285154Y-87075851D01*
X138318433Y-87160718D01*
X138375707Y-87216177D01*
X138463447Y-87259201D01*
X138580638Y-87303907D01*
X138708632Y-87352571D01*
X138693396Y-86488910D01*
X138687261Y-86177565D01*
X138680082Y-85947483D01*
X138669795Y-85782614D01*
X138654330Y-85666909D01*
X138631621Y-85584316D01*
X138599601Y-85518788D01*
X138560997Y-85460974D01*
X138374747Y-85276283D01*
X138147479Y-85169481D01*
X137900291Y-85143898D01*
X137654284Y-85202865D01*
X137654284Y-85202865D01*
G37*
X137654284Y-85202865D02*
X137498128Y-85293190D01*
X137389559Y-85382845D01*
X137310155Y-85476776D01*
X137255454Y-85591646D01*
X137220990Y-85744114D01*
X137202299Y-85950844D01*
X137194919Y-86228496D01*
X137194061Y-86428086D01*
X137194061Y-87162766D01*
X137400862Y-87255472D01*
X137607662Y-87348179D01*
X137631992Y-86543492D01*
X137642045Y-86242966D01*
X137652591Y-86024835D01*
X137665657Y-85874186D01*
X137683271Y-85776107D01*
X137707461Y-85715688D01*
X137740254Y-85678016D01*
X137750775Y-85669862D01*
X137910187Y-85606178D01*
X138071321Y-85631378D01*
X138167241Y-85698238D01*
X138206259Y-85745616D01*
X138233267Y-85807787D01*
X138250432Y-85902039D01*
X138259918Y-86045657D01*
X138263893Y-86255931D01*
X138264559Y-86475070D01*
X138264690Y-86749999D01*
X138269397Y-86944602D01*
X138285154Y-87075851D01*
X138318433Y-87160718D01*
X138375707Y-87216177D01*
X138463447Y-87259201D01*
X138580638Y-87303907D01*
X138708632Y-87352571D01*
X138693396Y-86488910D01*
X138687261Y-86177565D01*
X138680082Y-85947483D01*
X138669795Y-85782614D01*
X138654330Y-85666909D01*
X138631621Y-85584316D01*
X138599601Y-85518788D01*
X138560997Y-85460974D01*
X138374747Y-85276283D01*
X138147479Y-85169481D01*
X137900291Y-85143898D01*
X137654284Y-85202865D01*
G36*
X143269632Y-85183358D02*
X143041564Y-85303280D01*
X142873248Y-85496278D01*
X142813459Y-85620355D01*
X142766934Y-85806653D01*
X142743118Y-86042045D01*
X142740860Y-86298952D01*
X142759008Y-86549799D01*
X142796411Y-86767009D01*
X142851916Y-86923005D01*
X142868975Y-86949871D01*
X143071030Y-87150415D01*
X143311022Y-87270529D01*
X143571434Y-87305680D01*
X143834753Y-87251337D01*
X143908033Y-87218756D01*
X144050739Y-87118353D01*
X144175986Y-86985225D01*
X144187823Y-86968341D01*
X144235935Y-86886969D01*
X144267738Y-86799984D01*
X144286526Y-86685475D01*
X144295592Y-86521530D01*
X144298229Y-86286240D01*
X144298275Y-86233487D01*
X144298154Y-86216699D01*
X143811685Y-86216699D01*
X143808854Y-86438761D01*
X143797712Y-86586123D01*
X143774291Y-86681308D01*
X143734619Y-86746837D01*
X143714367Y-86768736D01*
X143597940Y-86851953D01*
X143484902Y-86848158D01*
X143370609Y-86775973D01*
X143302441Y-86698911D01*
X143262070Y-86586429D01*
X143239398Y-86409055D01*
X143237843Y-86388367D01*
X143233973Y-86066911D01*
X143274417Y-85828167D01*
X143358626Y-85673600D01*
X143486053Y-85604678D01*
X143531540Y-85600920D01*
X143650981Y-85619821D01*
X143732683Y-85685306D01*
X143782637Y-85810544D01*
X143806834Y-86008704D01*
X143811685Y-86216699D01*
X144298154Y-86216699D01*
X144296463Y-85982765D01*
X144288853Y-85807582D01*
X144272186Y-85686191D01*
X144243201Y-85596847D01*
X144198640Y-85517803D01*
X144188793Y-85503107D01*
X144023280Y-85305011D01*
X143842930Y-85190014D01*
X143623365Y-85144365D01*
X143548805Y-85142135D01*
X143269632Y-85183358D01*
X143269632Y-85183358D01*
G37*
X143269632Y-85183358D02*
X143041564Y-85303280D01*
X142873248Y-85496278D01*
X142813459Y-85620355D01*
X142766934Y-85806653D01*
X142743118Y-86042045D01*
X142740860Y-86298952D01*
X142759008Y-86549799D01*
X142796411Y-86767009D01*
X142851916Y-86923005D01*
X142868975Y-86949871D01*
X143071030Y-87150415D01*
X143311022Y-87270529D01*
X143571434Y-87305680D01*
X143834753Y-87251337D01*
X143908033Y-87218756D01*
X144050739Y-87118353D01*
X144175986Y-86985225D01*
X144187823Y-86968341D01*
X144235935Y-86886969D01*
X144267738Y-86799984D01*
X144286526Y-86685475D01*
X144295592Y-86521530D01*
X144298229Y-86286240D01*
X144298275Y-86233487D01*
X144298154Y-86216699D01*
X143811685Y-86216699D01*
X143808854Y-86438761D01*
X143797712Y-86586123D01*
X143774291Y-86681308D01*
X143734619Y-86746837D01*
X143714367Y-86768736D01*
X143597940Y-86851953D01*
X143484902Y-86848158D01*
X143370609Y-86775973D01*
X143302441Y-86698911D01*
X143262070Y-86586429D01*
X143239398Y-86409055D01*
X143237843Y-86388367D01*
X143233973Y-86066911D01*
X143274417Y-85828167D01*
X143358626Y-85673600D01*
X143486053Y-85604678D01*
X143531540Y-85600920D01*
X143650981Y-85619821D01*
X143732683Y-85685306D01*
X143782637Y-85810544D01*
X143806834Y-86008704D01*
X143811685Y-86216699D01*
X144298154Y-86216699D01*
X144296463Y-85982765D01*
X144288853Y-85807582D01*
X144272186Y-85686191D01*
X144243201Y-85596847D01*
X144198640Y-85517803D01*
X144188793Y-85503107D01*
X144023280Y-85305011D01*
X143842930Y-85190014D01*
X143623365Y-85144365D01*
X143548805Y-85142135D01*
X143269632Y-85183358D01*
G36*
X139490747Y-85214461D02*
X139298903Y-85343519D01*
X139150648Y-85529915D01*
X139062084Y-85767109D01*
X139044172Y-85941691D01*
X139046206Y-86014544D01*
X139063240Y-86070324D01*
X139110064Y-86120298D01*
X139201473Y-86175733D01*
X139352258Y-86247896D01*
X139577213Y-86348055D01*
X139578352Y-86348558D01*
X139785415Y-86443396D01*
X139955212Y-86527609D01*
X140070388Y-86592133D01*
X140113590Y-86627900D01*
X140113601Y-86628188D01*
X140075525Y-86706074D01*
X139986484Y-86791924D01*
X139884263Y-86853769D01*
X139832474Y-86866054D01*
X139691184Y-86823564D01*
X139569512Y-86717152D01*
X139510145Y-86600156D01*
X139453033Y-86513905D01*
X139341161Y-86415681D01*
X139209654Y-86330827D01*
X139093632Y-86284681D01*
X139069371Y-86282146D01*
X139042062Y-86323868D01*
X139040416Y-86430519D01*
X139060486Y-86574321D01*
X139098322Y-86727501D01*
X139149977Y-86862283D01*
X139152586Y-86867516D01*
X139308031Y-87084557D01*
X139509493Y-87232185D01*
X139738288Y-87304644D01*
X139975733Y-87296177D01*
X140203146Y-87201027D01*
X140213257Y-87194337D01*
X140392150Y-87032211D01*
X140509780Y-86820682D01*
X140574877Y-86542543D01*
X140583613Y-86464398D01*
X140599086Y-86095549D01*
X140580537Y-85923541D01*
X140113601Y-85923541D01*
X140107534Y-86030838D01*
X140074351Y-86062152D01*
X139991623Y-86038725D01*
X139861221Y-85983348D01*
X139715457Y-85913932D01*
X139711834Y-85912094D01*
X139588283Y-85847108D01*
X139538697Y-85803740D01*
X139550925Y-85758275D01*
X139602412Y-85698536D01*
X139733399Y-85612085D01*
X139874462Y-85605733D01*
X140000995Y-85668649D01*
X140088392Y-85790003D01*
X140113601Y-85923541D01*
X140580537Y-85923541D01*
X140567260Y-85800435D01*
X140485609Y-85566382D01*
X140371939Y-85402413D01*
X140166775Y-85236716D01*
X139940786Y-85154519D01*
X139710075Y-85149281D01*
X139490747Y-85214461D01*
X139490747Y-85214461D01*
G37*
X139490747Y-85214461D02*
X139298903Y-85343519D01*
X139150648Y-85529915D01*
X139062084Y-85767109D01*
X139044172Y-85941691D01*
X139046206Y-86014544D01*
X139063240Y-86070324D01*
X139110064Y-86120298D01*
X139201473Y-86175733D01*
X139352258Y-86247896D01*
X139577213Y-86348055D01*
X139578352Y-86348558D01*
X139785415Y-86443396D01*
X139955212Y-86527609D01*
X140070388Y-86592133D01*
X140113590Y-86627900D01*
X140113601Y-86628188D01*
X140075525Y-86706074D01*
X139986484Y-86791924D01*
X139884263Y-86853769D01*
X139832474Y-86866054D01*
X139691184Y-86823564D01*
X139569512Y-86717152D01*
X139510145Y-86600156D01*
X139453033Y-86513905D01*
X139341161Y-86415681D01*
X139209654Y-86330827D01*
X139093632Y-86284681D01*
X139069371Y-86282146D01*
X139042062Y-86323868D01*
X139040416Y-86430519D01*
X139060486Y-86574321D01*
X139098322Y-86727501D01*
X139149977Y-86862283D01*
X139152586Y-86867516D01*
X139308031Y-87084557D01*
X139509493Y-87232185D01*
X139738288Y-87304644D01*
X139975733Y-87296177D01*
X140203146Y-87201027D01*
X140213257Y-87194337D01*
X140392150Y-87032211D01*
X140509780Y-86820682D01*
X140574877Y-86542543D01*
X140583613Y-86464398D01*
X140599086Y-86095549D01*
X140580537Y-85923541D01*
X140113601Y-85923541D01*
X140107534Y-86030838D01*
X140074351Y-86062152D01*
X139991623Y-86038725D01*
X139861221Y-85983348D01*
X139715457Y-85913932D01*
X139711834Y-85912094D01*
X139588283Y-85847108D01*
X139538697Y-85803740D01*
X139550925Y-85758275D01*
X139602412Y-85698536D01*
X139733399Y-85612085D01*
X139874462Y-85605733D01*
X140000995Y-85668649D01*
X140088392Y-85790003D01*
X140113601Y-85923541D01*
X140580537Y-85923541D01*
X140567260Y-85800435D01*
X140485609Y-85566382D01*
X140371939Y-85402413D01*
X140166775Y-85236716D01*
X139940786Y-85154519D01*
X139710075Y-85149281D01*
X139490747Y-85214461D01*
G36*
X135442337Y-84946429D02*
X135428077Y-85145313D01*
X135411698Y-85262511D01*
X135389002Y-85313632D01*
X135355788Y-85314286D01*
X135345019Y-85308183D01*
X135201767Y-85263997D01*
X135015425Y-85266577D01*
X134825976Y-85311999D01*
X134707483Y-85370759D01*
X134585991Y-85464631D01*
X134497177Y-85570865D01*
X134436208Y-85705850D01*
X134398250Y-85885976D01*
X134378468Y-86127633D01*
X134372030Y-86447211D01*
X134371914Y-86508516D01*
X134371839Y-87197147D01*
X134525077Y-87250566D01*
X134633913Y-87286908D01*
X134693626Y-87303828D01*
X134695383Y-87303985D01*
X134701264Y-87258100D01*
X134706268Y-87131539D01*
X134710016Y-86940941D01*
X134712127Y-86702948D01*
X134712452Y-86558252D01*
X134713129Y-86272955D01*
X134716614Y-86068480D01*
X134725088Y-85928334D01*
X134740734Y-85836023D01*
X134765731Y-85775053D01*
X134802262Y-85728931D01*
X134825071Y-85706720D01*
X134981751Y-85617214D01*
X135152726Y-85610511D01*
X135307850Y-85686208D01*
X135336537Y-85713539D01*
X135378613Y-85764929D01*
X135407799Y-85825886D01*
X135426429Y-85914025D01*
X135436839Y-86046961D01*
X135441363Y-86242309D01*
X135442337Y-86511652D01*
X135442337Y-87197147D01*
X135595575Y-87250566D01*
X135704411Y-87286908D01*
X135764124Y-87303828D01*
X135765881Y-87303985D01*
X135770375Y-87257414D01*
X135774425Y-87126051D01*
X135777870Y-86922422D01*
X135780547Y-86659054D01*
X135782294Y-86348471D01*
X135782949Y-86003201D01*
X135782950Y-85987843D01*
X135782950Y-84671701D01*
X135466666Y-84538289D01*
X135442337Y-84946429D01*
X135442337Y-84946429D01*
G37*
X135442337Y-84946429D02*
X135428077Y-85145313D01*
X135411698Y-85262511D01*
X135389002Y-85313632D01*
X135355788Y-85314286D01*
X135345019Y-85308183D01*
X135201767Y-85263997D01*
X135015425Y-85266577D01*
X134825976Y-85311999D01*
X134707483Y-85370759D01*
X134585991Y-85464631D01*
X134497177Y-85570865D01*
X134436208Y-85705850D01*
X134398250Y-85885976D01*
X134378468Y-86127633D01*
X134372030Y-86447211D01*
X134371914Y-86508516D01*
X134371839Y-87197147D01*
X134525077Y-87250566D01*
X134633913Y-87286908D01*
X134693626Y-87303828D01*
X134695383Y-87303985D01*
X134701264Y-87258100D01*
X134706268Y-87131539D01*
X134710016Y-86940941D01*
X134712127Y-86702948D01*
X134712452Y-86558252D01*
X134713129Y-86272955D01*
X134716614Y-86068480D01*
X134725088Y-85928334D01*
X134740734Y-85836023D01*
X134765731Y-85775053D01*
X134802262Y-85728931D01*
X134825071Y-85706720D01*
X134981751Y-85617214D01*
X135152726Y-85610511D01*
X135307850Y-85686208D01*
X135336537Y-85713539D01*
X135378613Y-85764929D01*
X135407799Y-85825886D01*
X135426429Y-85914025D01*
X135436839Y-86046961D01*
X135441363Y-86242309D01*
X135442337Y-86511652D01*
X135442337Y-87197147D01*
X135595575Y-87250566D01*
X135704411Y-87286908D01*
X135764124Y-87303828D01*
X135765881Y-87303985D01*
X135770375Y-87257414D01*
X135774425Y-87126051D01*
X135777870Y-86922422D01*
X135780547Y-86659054D01*
X135782294Y-86348471D01*
X135782949Y-86003201D01*
X135782950Y-85987843D01*
X135782950Y-84671701D01*
X135466666Y-84538289D01*
X135442337Y-84946429D01*
G36*
X133216759Y-85280601D02*
X133026095Y-85351403D01*
X133023914Y-85352764D01*
X132905994Y-85439550D01*
X132818940Y-85540973D01*
X132757714Y-85673145D01*
X132717277Y-85852182D01*
X132692591Y-86094195D01*
X132678618Y-86415299D01*
X132677393Y-86461048D01*
X132659800Y-87150869D01*
X132807848Y-87227427D01*
X132914970Y-87279163D01*
X132979649Y-87303678D01*
X132982641Y-87303985D01*
X132993834Y-87258751D01*
X133002725Y-87136736D01*
X133008194Y-86958468D01*
X133009387Y-86814116D01*
X133009414Y-86580271D01*
X133020104Y-86433419D01*
X133057367Y-86363376D01*
X133137112Y-86359958D01*
X133275251Y-86412983D01*
X133483812Y-86510454D01*
X133637171Y-86591409D01*
X133716048Y-86661644D01*
X133739236Y-86738194D01*
X133739272Y-86741982D01*
X133701007Y-86873852D01*
X133587717Y-86945091D01*
X133414336Y-86955410D01*
X133289450Y-86953620D01*
X133223601Y-86989589D01*
X133182536Y-87075985D01*
X133158901Y-87186054D01*
X133192961Y-87248508D01*
X133205786Y-87257446D01*
X133326528Y-87293343D01*
X133495612Y-87298426D01*
X133669739Y-87274631D01*
X133793124Y-87231147D01*
X133963713Y-87086309D01*
X134060681Y-86884694D01*
X134079885Y-86727180D01*
X134065230Y-86585104D01*
X134012199Y-86469127D01*
X133907194Y-86366121D01*
X133736614Y-86262954D01*
X133486862Y-86146496D01*
X133471647Y-86139914D01*
X133246671Y-86035981D01*
X133107843Y-85950743D01*
X133048338Y-85874147D01*
X133061328Y-85796139D01*
X133139988Y-85706664D01*
X133163510Y-85686073D01*
X133321067Y-85606236D01*
X133484323Y-85609597D01*
X133626505Y-85687874D01*
X133720840Y-85832781D01*
X133729605Y-85861224D01*
X133814962Y-85999174D01*
X133923271Y-86065620D01*
X134079885Y-86131471D01*
X134079885Y-85961097D01*
X134032244Y-85713454D01*
X133890841Y-85486307D01*
X133817258Y-85410318D01*
X133649991Y-85312790D01*
X133437274Y-85268640D01*
X133216759Y-85280601D01*
X133216759Y-85280601D01*
G37*
X133216759Y-85280601D02*
X133026095Y-85351403D01*
X133023914Y-85352764D01*
X132905994Y-85439550D01*
X132818940Y-85540973D01*
X132757714Y-85673145D01*
X132717277Y-85852182D01*
X132692591Y-86094195D01*
X132678618Y-86415299D01*
X132677393Y-86461048D01*
X132659800Y-87150869D01*
X132807848Y-87227427D01*
X132914970Y-87279163D01*
X132979649Y-87303678D01*
X132982641Y-87303985D01*
X132993834Y-87258751D01*
X133002725Y-87136736D01*
X133008194Y-86958468D01*
X133009387Y-86814116D01*
X133009414Y-86580271D01*
X133020104Y-86433419D01*
X133057367Y-86363376D01*
X133137112Y-86359958D01*
X133275251Y-86412983D01*
X133483812Y-86510454D01*
X133637171Y-86591409D01*
X133716048Y-86661644D01*
X133739236Y-86738194D01*
X133739272Y-86741982D01*
X133701007Y-86873852D01*
X133587717Y-86945091D01*
X133414336Y-86955410D01*
X133289450Y-86953620D01*
X133223601Y-86989589D01*
X133182536Y-87075985D01*
X133158901Y-87186054D01*
X133192961Y-87248508D01*
X133205786Y-87257446D01*
X133326528Y-87293343D01*
X133495612Y-87298426D01*
X133669739Y-87274631D01*
X133793124Y-87231147D01*
X133963713Y-87086309D01*
X134060681Y-86884694D01*
X134079885Y-86727180D01*
X134065230Y-86585104D01*
X134012199Y-86469127D01*
X133907194Y-86366121D01*
X133736614Y-86262954D01*
X133486862Y-86146496D01*
X133471647Y-86139914D01*
X133246671Y-86035981D01*
X133107843Y-85950743D01*
X133048338Y-85874147D01*
X133061328Y-85796139D01*
X133139988Y-85706664D01*
X133163510Y-85686073D01*
X133321067Y-85606236D01*
X133484323Y-85609597D01*
X133626505Y-85687874D01*
X133720840Y-85832781D01*
X133729605Y-85861224D01*
X133814962Y-85999174D01*
X133923271Y-86065620D01*
X134079885Y-86131471D01*
X134079885Y-85961097D01*
X134032244Y-85713454D01*
X133890841Y-85486307D01*
X133817258Y-85410318D01*
X133649991Y-85312790D01*
X133437274Y-85268640D01*
X133216759Y-85280601D01*
G36*
X131573428Y-85276534D02*
X131352391Y-85358099D01*
X131173317Y-85502366D01*
X131103280Y-85603920D01*
X131026929Y-85790268D01*
X131028515Y-85925010D01*
X131108653Y-86015631D01*
X131138304Y-86031040D01*
X131266326Y-86079084D01*
X131331706Y-86066776D01*
X131353852Y-85986098D01*
X131354980Y-85941533D01*
X131395523Y-85777581D01*
X131501198Y-85662891D01*
X131648076Y-85607497D01*
X131812227Y-85621435D01*
X131945663Y-85693827D01*
X131990731Y-85735120D01*
X132022677Y-85785216D01*
X132044256Y-85860942D01*
X132058227Y-85979128D01*
X132067345Y-86156600D01*
X132074369Y-86410186D01*
X132076188Y-86490479D01*
X132082822Y-86765158D01*
X132090364Y-86958481D01*
X132101675Y-87086388D01*
X132119615Y-87164822D01*
X132147045Y-87209725D01*
X132186823Y-87237038D01*
X132212290Y-87249105D01*
X132320444Y-87290367D01*
X132384110Y-87303985D01*
X132405146Y-87258505D01*
X132417987Y-87121006D01*
X132422700Y-86889902D01*
X132419356Y-86563604D01*
X132418314Y-86513276D01*
X132410965Y-86215581D01*
X132402274Y-85998205D01*
X132389908Y-85844153D01*
X132371530Y-85736430D01*
X132344805Y-85658042D01*
X132307398Y-85591994D01*
X132287830Y-85563691D01*
X132175634Y-85438467D01*
X132050150Y-85341063D01*
X132034787Y-85332561D01*
X131809777Y-85265433D01*
X131573428Y-85276534D01*
X131573428Y-85276534D01*
G37*
X131573428Y-85276534D02*
X131352391Y-85358099D01*
X131173317Y-85502366D01*
X131103280Y-85603920D01*
X131026929Y-85790268D01*
X131028515Y-85925010D01*
X131108653Y-86015631D01*
X131138304Y-86031040D01*
X131266326Y-86079084D01*
X131331706Y-86066776D01*
X131353852Y-85986098D01*
X131354980Y-85941533D01*
X131395523Y-85777581D01*
X131501198Y-85662891D01*
X131648076Y-85607497D01*
X131812227Y-85621435D01*
X131945663Y-85693827D01*
X131990731Y-85735120D01*
X132022677Y-85785216D01*
X132044256Y-85860942D01*
X132058227Y-85979128D01*
X132067345Y-86156600D01*
X132074369Y-86410186D01*
X132076188Y-86490479D01*
X132082822Y-86765158D01*
X132090364Y-86958481D01*
X132101675Y-87086388D01*
X132119615Y-87164822D01*
X132147045Y-87209725D01*
X132186823Y-87237038D01*
X132212290Y-87249105D01*
X132320444Y-87290367D01*
X132384110Y-87303985D01*
X132405146Y-87258505D01*
X132417987Y-87121006D01*
X132422700Y-86889902D01*
X132419356Y-86563604D01*
X132418314Y-86513276D01*
X132410965Y-86215581D01*
X132402274Y-85998205D01*
X132389908Y-85844153D01*
X132371530Y-85736430D01*
X132344805Y-85658042D01*
X132307398Y-85591994D01*
X132287830Y-85563691D01*
X132175634Y-85438467D01*
X132050150Y-85341063D01*
X132034787Y-85332561D01*
X131809777Y-85265433D01*
X131573428Y-85276534D01*
G36*
X129360143Y-85664093D02*
X129360761Y-86027769D01*
X129363153Y-86307532D01*
X129368329Y-86516784D01*
X129377296Y-86668926D01*
X129391064Y-86777359D01*
X129410639Y-86855485D01*
X129437032Y-86916707D01*
X129457016Y-86951652D01*
X129622517Y-87141157D01*
X129832352Y-87259942D01*
X130064514Y-87302564D01*
X130296992Y-87263583D01*
X130435428Y-87193532D01*
X130580758Y-87072353D01*
X130679805Y-86924354D01*
X130739565Y-86730534D01*
X130767031Y-86471892D01*
X130770921Y-86282146D01*
X130770397Y-86268510D01*
X130430459Y-86268510D01*
X130428383Y-86486096D01*
X130418870Y-86630134D01*
X130396992Y-86724364D01*
X130357824Y-86792523D01*
X130311024Y-86843936D01*
X130153854Y-86943175D01*
X129985100Y-86951653D01*
X129825607Y-86868799D01*
X129813193Y-86857572D01*
X129760209Y-86799171D01*
X129726986Y-86729686D01*
X129709000Y-86626270D01*
X129701725Y-86466073D01*
X129700574Y-86288965D01*
X129703068Y-86066467D01*
X129713392Y-85918037D01*
X129735809Y-85820489D01*
X129774582Y-85750637D01*
X129806374Y-85713539D01*
X129954061Y-85619975D01*
X130124154Y-85608725D01*
X130286508Y-85680190D01*
X130317840Y-85706720D01*
X130371178Y-85765636D01*
X130404469Y-85835837D01*
X130422344Y-85940418D01*
X130429434Y-86102479D01*
X130430459Y-86268510D01*
X130770397Y-86268510D01*
X130759160Y-85976579D01*
X130719213Y-85746993D01*
X130644087Y-85574387D01*
X130526786Y-85439760D01*
X130435428Y-85370759D01*
X130269373Y-85296214D01*
X130076908Y-85261613D01*
X129898001Y-85270875D01*
X129797892Y-85308238D01*
X129758607Y-85318872D01*
X129732539Y-85279225D01*
X129714342Y-85172981D01*
X129700574Y-85011145D01*
X129685501Y-84830902D01*
X129664564Y-84722458D01*
X129626468Y-84660446D01*
X129559915Y-84619499D01*
X129518103Y-84601366D01*
X129359961Y-84535120D01*
X129360143Y-85664093D01*
X129360143Y-85664093D01*
G37*
X129360143Y-85664093D02*
X129360761Y-86027769D01*
X129363153Y-86307532D01*
X129368329Y-86516784D01*
X129377296Y-86668926D01*
X129391064Y-86777359D01*
X129410639Y-86855485D01*
X129437032Y-86916707D01*
X129457016Y-86951652D01*
X129622517Y-87141157D01*
X129832352Y-87259942D01*
X130064514Y-87302564D01*
X130296992Y-87263583D01*
X130435428Y-87193532D01*
X130580758Y-87072353D01*
X130679805Y-86924354D01*
X130739565Y-86730534D01*
X130767031Y-86471892D01*
X130770921Y-86282146D01*
X130770397Y-86268510D01*
X130430459Y-86268510D01*
X130428383Y-86486096D01*
X130418870Y-86630134D01*
X130396992Y-86724364D01*
X130357824Y-86792523D01*
X130311024Y-86843936D01*
X130153854Y-86943175D01*
X129985100Y-86951653D01*
X129825607Y-86868799D01*
X129813193Y-86857572D01*
X129760209Y-86799171D01*
X129726986Y-86729686D01*
X129709000Y-86626270D01*
X129701725Y-86466073D01*
X129700574Y-86288965D01*
X129703068Y-86066467D01*
X129713392Y-85918037D01*
X129735809Y-85820489D01*
X129774582Y-85750637D01*
X129806374Y-85713539D01*
X129954061Y-85619975D01*
X130124154Y-85608725D01*
X130286508Y-85680190D01*
X130317840Y-85706720D01*
X130371178Y-85765636D01*
X130404469Y-85835837D01*
X130422344Y-85940418D01*
X130429434Y-86102479D01*
X130430459Y-86268510D01*
X130770397Y-86268510D01*
X130759160Y-85976579D01*
X130719213Y-85746993D01*
X130644087Y-85574387D01*
X130526786Y-85439760D01*
X130435428Y-85370759D01*
X130269373Y-85296214D01*
X130076908Y-85261613D01*
X129898001Y-85270875D01*
X129797892Y-85308238D01*
X129758607Y-85318872D01*
X129732539Y-85279225D01*
X129714342Y-85172981D01*
X129700574Y-85011145D01*
X129685501Y-84830902D01*
X129664564Y-84722458D01*
X129626468Y-84660446D01*
X129559915Y-84619499D01*
X129518103Y-84601366D01*
X129359961Y-84535120D01*
X129360143Y-85664093D01*
G36*
X127383127Y-85306400D02*
X127375701Y-85434422D01*
X127369882Y-85628985D01*
X127366141Y-85874702D01*
X127364942Y-86132426D01*
X127364942Y-87004545D01*
X127518925Y-87158528D01*
X127625037Y-87253412D01*
X127718184Y-87291845D01*
X127845496Y-87289413D01*
X127896032Y-87283223D01*
X128053983Y-87265210D01*
X128184629Y-87254888D01*
X128216475Y-87253935D01*
X128323834Y-87260171D01*
X128477381Y-87275824D01*
X128536917Y-87283223D01*
X128683143Y-87294668D01*
X128781411Y-87269808D01*
X128878850Y-87193058D01*
X128914024Y-87158528D01*
X129068007Y-87004545D01*
X129068007Y-85373246D01*
X128944070Y-85316776D01*
X128837350Y-85274950D01*
X128774913Y-85260307D01*
X128758904Y-85306583D01*
X128743942Y-85435884D01*
X128731022Y-85633914D01*
X128721143Y-85886380D01*
X128716378Y-86099675D01*
X128703065Y-86939042D01*
X128586920Y-86955464D01*
X128481284Y-86943982D01*
X128429523Y-86906805D01*
X128415055Y-86837298D01*
X128402702Y-86689240D01*
X128393448Y-86481391D01*
X128388272Y-86232512D01*
X128387526Y-86104435D01*
X128386781Y-85367145D01*
X128233543Y-85313726D01*
X128125084Y-85277406D01*
X128066087Y-85260468D01*
X128064386Y-85260307D01*
X128058467Y-85306349D01*
X128051961Y-85434018D01*
X128045414Y-85627632D01*
X128039373Y-85871507D01*
X128035152Y-86099675D01*
X128021839Y-86939042D01*
X127729885Y-86939042D01*
X127716487Y-86173275D01*
X127703090Y-85407508D01*
X127560762Y-85333908D01*
X127455678Y-85283366D01*
X127393483Y-85260431D01*
X127391688Y-85260307D01*
X127383127Y-85306400D01*
X127383127Y-85306400D01*
G37*
X127383127Y-85306400D02*
X127375701Y-85434422D01*
X127369882Y-85628985D01*
X127366141Y-85874702D01*
X127364942Y-86132426D01*
X127364942Y-87004545D01*
X127518925Y-87158528D01*
X127625037Y-87253412D01*
X127718184Y-87291845D01*
X127845496Y-87289413D01*
X127896032Y-87283223D01*
X128053983Y-87265210D01*
X128184629Y-87254888D01*
X128216475Y-87253935D01*
X128323834Y-87260171D01*
X128477381Y-87275824D01*
X128536917Y-87283223D01*
X128683143Y-87294668D01*
X128781411Y-87269808D01*
X128878850Y-87193058D01*
X128914024Y-87158528D01*
X129068007Y-87004545D01*
X129068007Y-85373246D01*
X128944070Y-85316776D01*
X128837350Y-85274950D01*
X128774913Y-85260307D01*
X128758904Y-85306583D01*
X128743942Y-85435884D01*
X128731022Y-85633914D01*
X128721143Y-85886380D01*
X128716378Y-86099675D01*
X128703065Y-86939042D01*
X128586920Y-86955464D01*
X128481284Y-86943982D01*
X128429523Y-86906805D01*
X128415055Y-86837298D01*
X128402702Y-86689240D01*
X128393448Y-86481391D01*
X128388272Y-86232512D01*
X128387526Y-86104435D01*
X128386781Y-85367145D01*
X128233543Y-85313726D01*
X128125084Y-85277406D01*
X128066087Y-85260468D01*
X128064386Y-85260307D01*
X128058467Y-85306349D01*
X128051961Y-85434018D01*
X128045414Y-85627632D01*
X128039373Y-85871507D01*
X128035152Y-86099675D01*
X128021839Y-86939042D01*
X127729885Y-86939042D01*
X127716487Y-86173275D01*
X127703090Y-85407508D01*
X127560762Y-85333908D01*
X127455678Y-85283366D01*
X127393483Y-85260431D01*
X127391688Y-85260307D01*
X127383127Y-85306400D01*
G36*
X126159322Y-85298594D02*
X126019218Y-85362323D01*
X125909250Y-85439543D01*
X125828676Y-85525887D01*
X125773046Y-85637272D01*
X125737911Y-85789616D01*
X125718821Y-85998835D01*
X125711328Y-86280846D01*
X125710536Y-86466555D01*
X125710536Y-87191046D01*
X125834473Y-87247515D01*
X125932090Y-87288787D01*
X125980450Y-87303985D01*
X125989702Y-87258762D01*
X125997042Y-87136824D01*
X126001536Y-86958772D01*
X126002490Y-86817395D01*
X126006590Y-86613146D01*
X126017646Y-86451113D01*
X126033789Y-86351891D01*
X126046613Y-86330805D01*
X126132814Y-86352338D01*
X126268138Y-86407566D01*
X126424830Y-86482436D01*
X126575137Y-86562892D01*
X126691307Y-86634880D01*
X126745587Y-86684346D01*
X126745802Y-86684881D01*
X126741133Y-86776428D01*
X126699268Y-86863820D01*
X126625765Y-86934802D01*
X126518484Y-86958543D01*
X126426798Y-86955777D01*
X126296942Y-86953741D01*
X126228779Y-86984164D01*
X126187841Y-87064543D01*
X126182679Y-87079700D01*
X126164933Y-87194331D01*
X126212391Y-87263934D01*
X126336093Y-87297105D01*
X126469719Y-87303240D01*
X126710183Y-87257763D01*
X126834662Y-87192817D01*
X126988395Y-87040246D01*
X127069927Y-86852971D01*
X127077244Y-86655085D01*
X127008331Y-86470685D01*
X126904672Y-86355134D01*
X126801177Y-86290442D01*
X126638508Y-86208542D01*
X126448946Y-86125486D01*
X126417350Y-86112795D01*
X126209131Y-86020908D01*
X126089102Y-85939923D01*
X126050499Y-85859413D01*
X126086560Y-85768950D01*
X126148467Y-85698238D01*
X126294787Y-85611170D01*
X126455783Y-85604640D01*
X126603427Y-85671735D01*
X126709690Y-85805544D01*
X126723638Y-85840067D01*
X126804840Y-85967042D01*
X126923392Y-86061309D01*
X127072988Y-86138668D01*
X127072988Y-85919307D01*
X127064183Y-85785280D01*
X127026430Y-85679644D01*
X126942721Y-85566939D01*
X126862364Y-85480127D01*
X126737409Y-85357204D01*
X126640323Y-85291171D01*
X126536046Y-85264684D01*
X126418011Y-85260307D01*
X126159322Y-85298594D01*
X126159322Y-85298594D01*
G37*
X126159322Y-85298594D02*
X126019218Y-85362323D01*
X125909250Y-85439543D01*
X125828676Y-85525887D01*
X125773046Y-85637272D01*
X125737911Y-85789616D01*
X125718821Y-85998835D01*
X125711328Y-86280846D01*
X125710536Y-86466555D01*
X125710536Y-87191046D01*
X125834473Y-87247515D01*
X125932090Y-87288787D01*
X125980450Y-87303985D01*
X125989702Y-87258762D01*
X125997042Y-87136824D01*
X126001536Y-86958772D01*
X126002490Y-86817395D01*
X126006590Y-86613146D01*
X126017646Y-86451113D01*
X126033789Y-86351891D01*
X126046613Y-86330805D01*
X126132814Y-86352338D01*
X126268138Y-86407566D01*
X126424830Y-86482436D01*
X126575137Y-86562892D01*
X126691307Y-86634880D01*
X126745587Y-86684346D01*
X126745802Y-86684881D01*
X126741133Y-86776428D01*
X126699268Y-86863820D01*
X126625765Y-86934802D01*
X126518484Y-86958543D01*
X126426798Y-86955777D01*
X126296942Y-86953741D01*
X126228779Y-86984164D01*
X126187841Y-87064543D01*
X126182679Y-87079700D01*
X126164933Y-87194331D01*
X126212391Y-87263934D01*
X126336093Y-87297105D01*
X126469719Y-87303240D01*
X126710183Y-87257763D01*
X126834662Y-87192817D01*
X126988395Y-87040246D01*
X127069927Y-86852971D01*
X127077244Y-86655085D01*
X127008331Y-86470685D01*
X126904672Y-86355134D01*
X126801177Y-86290442D01*
X126638508Y-86208542D01*
X126448946Y-86125486D01*
X126417350Y-86112795D01*
X126209131Y-86020908D01*
X126089102Y-85939923D01*
X126050499Y-85859413D01*
X126086560Y-85768950D01*
X126148467Y-85698238D01*
X126294787Y-85611170D01*
X126455783Y-85604640D01*
X126603427Y-85671735D01*
X126709690Y-85805544D01*
X126723638Y-85840067D01*
X126804840Y-85967042D01*
X126923392Y-86061309D01*
X127072988Y-86138668D01*
X127072988Y-85919307D01*
X127064183Y-85785280D01*
X127026430Y-85679644D01*
X126942721Y-85566939D01*
X126862364Y-85480127D01*
X126737409Y-85357204D01*
X126640323Y-85291171D01*
X126536046Y-85264684D01*
X126418011Y-85260307D01*
X126159322Y-85298594D01*
G36*
X124457184Y-85306697D02*
X124399024Y-85332116D01*
X124260205Y-85442059D01*
X124141495Y-85601030D01*
X124068079Y-85770677D01*
X124056130Y-85854313D01*
X124096191Y-85971078D01*
X124184065Y-86032862D01*
X124278282Y-86070273D01*
X124321423Y-86077167D01*
X124342429Y-86027138D01*
X124383910Y-85918269D01*
X124402108Y-85869076D01*
X124504152Y-85698913D01*
X124651897Y-85614038D01*
X124841345Y-85616648D01*
X124855377Y-85619991D01*
X124956519Y-85667945D01*
X125030876Y-85761432D01*
X125081662Y-85911939D01*
X125112092Y-86130951D01*
X125125382Y-86429956D01*
X125126628Y-86589056D01*
X125127246Y-86839855D01*
X125131295Y-87010825D01*
X125142067Y-87119454D01*
X125162853Y-87183230D01*
X125196945Y-87219643D01*
X125247635Y-87246179D01*
X125250565Y-87247515D01*
X125348182Y-87288787D01*
X125396542Y-87303985D01*
X125403973Y-87258037D01*
X125410334Y-87131034D01*
X125415168Y-86939235D01*
X125418015Y-86698902D01*
X125418582Y-86523024D01*
X125415687Y-86182688D01*
X125404363Y-85924495D01*
X125380654Y-85733374D01*
X125340603Y-85594253D01*
X125280253Y-85492060D01*
X125195647Y-85411724D01*
X125112101Y-85355655D01*
X124911209Y-85281032D01*
X124677404Y-85264202D01*
X124457184Y-85306697D01*
X124457184Y-85306697D01*
G37*
X124457184Y-85306697D02*
X124399024Y-85332116D01*
X124260205Y-85442059D01*
X124141495Y-85601030D01*
X124068079Y-85770677D01*
X124056130Y-85854313D01*
X124096191Y-85971078D01*
X124184065Y-86032862D01*
X124278282Y-86070273D01*
X124321423Y-86077167D01*
X124342429Y-86027138D01*
X124383910Y-85918269D01*
X124402108Y-85869076D01*
X124504152Y-85698913D01*
X124651897Y-85614038D01*
X124841345Y-85616648D01*
X124855377Y-85619991D01*
X124956519Y-85667945D01*
X125030876Y-85761432D01*
X125081662Y-85911939D01*
X125112092Y-86130951D01*
X125125382Y-86429956D01*
X125126628Y-86589056D01*
X125127246Y-86839855D01*
X125131295Y-87010825D01*
X125142067Y-87119454D01*
X125162853Y-87183230D01*
X125196945Y-87219643D01*
X125247635Y-87246179D01*
X125250565Y-87247515D01*
X125348182Y-87288787D01*
X125396542Y-87303985D01*
X125403973Y-87258037D01*
X125410334Y-87131034D01*
X125415168Y-86939235D01*
X125418015Y-86698902D01*
X125418582Y-86523024D01*
X125415687Y-86182688D01*
X125404363Y-85924495D01*
X125380654Y-85733374D01*
X125340603Y-85594253D01*
X125280253Y-85492060D01*
X125195647Y-85411724D01*
X125112101Y-85355655D01*
X124911209Y-85281032D01*
X124677404Y-85264202D01*
X124457184Y-85306697D01*
G36*
X122777601Y-85334233D02*
X122585083Y-85460057D01*
X122492226Y-85572696D01*
X122418660Y-85777092D01*
X122412817Y-85938830D01*
X122426053Y-86155094D01*
X122924808Y-86373398D01*
X123167315Y-86484930D01*
X123325771Y-86574650D01*
X123408164Y-86652361D01*
X123422482Y-86727867D01*
X123376713Y-86810971D01*
X123326245Y-86866054D01*
X123179395Y-86954389D01*
X123019672Y-86960579D01*
X122872980Y-86891735D01*
X122765219Y-86754972D01*
X122745945Y-86706680D01*
X122653624Y-86555848D01*
X122547412Y-86491567D01*
X122401724Y-86436576D01*
X122401724Y-86645057D01*
X122414604Y-86786926D01*
X122465057Y-86906563D01*
X122570803Y-87043927D01*
X122586520Y-87061777D01*
X122704145Y-87183986D01*
X122805254Y-87249570D01*
X122931750Y-87279742D01*
X123036616Y-87289623D01*
X123224189Y-87292085D01*
X123357716Y-87260892D01*
X123441017Y-87214579D01*
X123571937Y-87112735D01*
X123662561Y-87002591D01*
X123719913Y-86864069D01*
X123751020Y-86677090D01*
X123762906Y-86421577D01*
X123763855Y-86291894D01*
X123760629Y-86136421D01*
X123466834Y-86136421D01*
X123463427Y-86219827D01*
X123454934Y-86233487D01*
X123398890Y-86214931D01*
X123278282Y-86165822D01*
X123117087Y-86096002D01*
X123083378Y-86080995D01*
X122879661Y-85977404D01*
X122767421Y-85886359D01*
X122742753Y-85801081D01*
X122801755Y-85714794D01*
X122850482Y-85676667D01*
X123026306Y-85600417D01*
X123190873Y-85613014D01*
X123328646Y-85706086D01*
X123424087Y-85871256D01*
X123454686Y-86002357D01*
X123466834Y-86136421D01*
X123760629Y-86136421D01*
X123757568Y-85988919D01*
X123734401Y-85764756D01*
X123688510Y-85601526D01*
X123614046Y-85481352D01*
X123505164Y-85386355D01*
X123457695Y-85355655D01*
X123242062Y-85275703D01*
X123005979Y-85270672D01*
X122777601Y-85334233D01*
X122777601Y-85334233D01*
G37*
X122777601Y-85334233D02*
X122585083Y-85460057D01*
X122492226Y-85572696D01*
X122418660Y-85777092D01*
X122412817Y-85938830D01*
X122426053Y-86155094D01*
X122924808Y-86373398D01*
X123167315Y-86484930D01*
X123325771Y-86574650D01*
X123408164Y-86652361D01*
X123422482Y-86727867D01*
X123376713Y-86810971D01*
X123326245Y-86866054D01*
X123179395Y-86954389D01*
X123019672Y-86960579D01*
X122872980Y-86891735D01*
X122765219Y-86754972D01*
X122745945Y-86706680D01*
X122653624Y-86555848D01*
X122547412Y-86491567D01*
X122401724Y-86436576D01*
X122401724Y-86645057D01*
X122414604Y-86786926D01*
X122465057Y-86906563D01*
X122570803Y-87043927D01*
X122586520Y-87061777D01*
X122704145Y-87183986D01*
X122805254Y-87249570D01*
X122931750Y-87279742D01*
X123036616Y-87289623D01*
X123224189Y-87292085D01*
X123357716Y-87260892D01*
X123441017Y-87214579D01*
X123571937Y-87112735D01*
X123662561Y-87002591D01*
X123719913Y-86864069D01*
X123751020Y-86677090D01*
X123762906Y-86421577D01*
X123763855Y-86291894D01*
X123760629Y-86136421D01*
X123466834Y-86136421D01*
X123463427Y-86219827D01*
X123454934Y-86233487D01*
X123398890Y-86214931D01*
X123278282Y-86165822D01*
X123117087Y-86096002D01*
X123083378Y-86080995D01*
X122879661Y-85977404D01*
X122767421Y-85886359D01*
X122742753Y-85801081D01*
X122801755Y-85714794D01*
X122850482Y-85676667D01*
X123026306Y-85600417D01*
X123190873Y-85613014D01*
X123328646Y-85706086D01*
X123424087Y-85871256D01*
X123454686Y-86002357D01*
X123466834Y-86136421D01*
X123760629Y-86136421D01*
X123757568Y-85988919D01*
X123734401Y-85764756D01*
X123688510Y-85601526D01*
X123614046Y-85481352D01*
X123505164Y-85386355D01*
X123457695Y-85355655D01*
X123242062Y-85275703D01*
X123005979Y-85270672D01*
X122777601Y-85334233D01*
G36*
X133001643Y-69494997D02*
X132738323Y-69496439D01*
X132547754Y-69500342D01*
X132417655Y-69507937D01*
X132335743Y-69520450D01*
X132289734Y-69539111D01*
X132267347Y-69565148D01*
X132256298Y-69599788D01*
X132255224Y-69604272D01*
X132238441Y-69685189D01*
X132207375Y-69844842D01*
X132165258Y-70066238D01*
X132115321Y-70332385D01*
X132060797Y-70626290D01*
X132058893Y-70636612D01*
X132004277Y-70924636D01*
X131953178Y-71179115D01*
X131908894Y-71384785D01*
X131874721Y-71526385D01*
X131853957Y-71588650D01*
X131852967Y-71589753D01*
X131791801Y-71620159D01*
X131665690Y-71670828D01*
X131501869Y-71730822D01*
X131500957Y-71731142D01*
X131294612Y-71808704D01*
X131051340Y-71907507D01*
X130822031Y-72006848D01*
X130811178Y-72011760D01*
X130437683Y-72181276D01*
X129610635Y-71616495D01*
X129356923Y-71444320D01*
X129127098Y-71290395D01*
X128934475Y-71163474D01*
X128792368Y-71072309D01*
X128714093Y-71025655D01*
X128706660Y-71022195D01*
X128649776Y-71037600D01*
X128543531Y-71111927D01*
X128383781Y-71248681D01*
X128166384Y-71451368D01*
X127944452Y-71667008D01*
X127730509Y-71879503D01*
X127539031Y-72073410D01*
X127381545Y-72236754D01*
X127269578Y-72357561D01*
X127214657Y-72423855D01*
X127212614Y-72427268D01*
X127206542Y-72472761D01*
X127229416Y-72547056D01*
X127286885Y-72660186D01*
X127384601Y-72822185D01*
X127528216Y-73043086D01*
X127719667Y-73327460D01*
X127889577Y-73577759D01*
X128041462Y-73802250D01*
X128166545Y-73987900D01*
X128256051Y-74121675D01*
X128301200Y-74190542D01*
X128304042Y-74195218D01*
X128298530Y-74261201D01*
X128256745Y-74389448D01*
X128187003Y-74555720D01*
X128162146Y-74608819D01*
X128053689Y-74845377D01*
X127937980Y-75113789D01*
X127843985Y-75346035D01*
X127776255Y-75518407D01*
X127722457Y-75649403D01*
X127691369Y-75717867D01*
X127687504Y-75723142D01*
X127630329Y-75731880D01*
X127495552Y-75755823D01*
X127301094Y-75791562D01*
X127064875Y-75835689D01*
X126804816Y-75884795D01*
X126538837Y-75935472D01*
X126284857Y-75984313D01*
X126060799Y-76027909D01*
X125884580Y-76062851D01*
X125774123Y-76085732D01*
X125747030Y-76092201D01*
X125719044Y-76108167D01*
X125697919Y-76144227D01*
X125682703Y-76212552D01*
X125672447Y-76325315D01*
X125666200Y-76494686D01*
X125663012Y-76732838D01*
X125661933Y-77051942D01*
X125661877Y-77182741D01*
X125661877Y-78246511D01*
X125917337Y-78296933D01*
X126059463Y-78324273D01*
X126271550Y-78364182D01*
X126527807Y-78411845D01*
X126802442Y-78462446D01*
X126878352Y-78476344D01*
X127131779Y-78525617D01*
X127352553Y-78574070D01*
X127522143Y-78617215D01*
X127622020Y-78650563D01*
X127638657Y-78660502D01*
X127679511Y-78730891D01*
X127738087Y-78867283D01*
X127803045Y-79042805D01*
X127815929Y-79080613D01*
X127901066Y-79315030D01*
X128006744Y-79579524D01*
X128110160Y-79817041D01*
X128110670Y-79818144D01*
X128282888Y-80190733D01*
X127716476Y-81023893D01*
X127150065Y-81857053D01*
X127877298Y-82585500D01*
X128097252Y-82802302D01*
X128297868Y-82993414D01*
X128467878Y-83148636D01*
X128596015Y-83257764D01*
X128671011Y-83310595D01*
X128681769Y-83313947D01*
X128744933Y-83287549D01*
X128873820Y-83214160D01*
X129054351Y-83102484D01*
X129272446Y-82961224D01*
X129508246Y-82803027D01*
X129747564Y-82641664D01*
X129960941Y-82501252D01*
X130134825Y-82390431D01*
X130255666Y-82317838D01*
X130309737Y-82292108D01*
X130375706Y-82313880D01*
X130500802Y-82371251D01*
X130659220Y-82452300D01*
X130676013Y-82461309D01*
X130889348Y-82568300D01*
X131035636Y-82620772D01*
X131126620Y-82621330D01*
X131174041Y-82572580D01*
X131174317Y-82571897D01*
X131198020Y-82514164D01*
X131254551Y-82377115D01*
X131339526Y-82171357D01*
X131448562Y-81907498D01*
X131577276Y-81596144D01*
X131721285Y-81247904D01*
X131860749Y-80910744D01*
X132014020Y-80538666D01*
X132154749Y-80193987D01*
X132278718Y-79887271D01*
X132381709Y-79629085D01*
X132459504Y-79429994D01*
X132507886Y-79300565D01*
X132522796Y-79252261D01*
X132485406Y-79196850D01*
X132387602Y-79108538D01*
X132257185Y-79011174D01*
X131885777Y-78703253D01*
X131595470Y-78350304D01*
X131389744Y-77959761D01*
X131272077Y-77539057D01*
X131245949Y-77095629D01*
X131264940Y-76890958D01*
X131368417Y-76466323D01*
X131546627Y-76091336D01*
X131788518Y-75769696D01*
X132083037Y-75505101D01*
X132419129Y-75301250D01*
X132785742Y-75161842D01*
X133171823Y-75090574D01*
X133566319Y-75091145D01*
X133958175Y-75167254D01*
X134336340Y-75322599D01*
X134689760Y-75560879D01*
X134837273Y-75695639D01*
X135120184Y-76041679D01*
X135317168Y-76419826D01*
X135429536Y-76819055D01*
X135458599Y-77228345D01*
X135405669Y-77636672D01*
X135272057Y-78033013D01*
X135059075Y-78406345D01*
X134768034Y-78745645D01*
X134442814Y-79011174D01*
X134307348Y-79112671D01*
X134211651Y-79200025D01*
X134177203Y-79252343D01*
X134195240Y-79309398D01*
X134246538Y-79445698D01*
X134326876Y-79650678D01*
X134432036Y-79913772D01*
X134557796Y-80224416D01*
X134699937Y-80572043D01*
X134839635Y-80910826D01*
X134993759Y-81283222D01*
X135136518Y-81628307D01*
X135263529Y-81935477D01*
X135370411Y-82194125D01*
X135452780Y-82393647D01*
X135506253Y-82523435D01*
X135526067Y-82571897D01*
X135572876Y-82621129D01*
X135663417Y-82620985D01*
X135809342Y-82568877D01*
X136022302Y-82462216D01*
X136023986Y-82461309D01*
X136184330Y-82378536D01*
X136313948Y-82318242D01*
X136387037Y-82292346D01*
X136390263Y-82292108D01*
X136445284Y-82318374D01*
X136566757Y-82391416D01*
X136741129Y-82502595D01*
X136954850Y-82643273D01*
X137191753Y-82803027D01*
X137432945Y-82964779D01*
X137650326Y-83105450D01*
X137829816Y-83216335D01*
X137957336Y-83288730D01*
X138018230Y-83313947D01*
X138074303Y-83280803D01*
X138187040Y-83188173D01*
X138345177Y-83046257D01*
X138537449Y-82865255D01*
X138752591Y-82655369D01*
X138822952Y-82585249D01*
X139550434Y-81856552D01*
X138996705Y-81043900D01*
X138828423Y-80794342D01*
X138680729Y-80570366D01*
X138561910Y-80384949D01*
X138480250Y-80251065D01*
X138444036Y-80181690D01*
X138442975Y-80176755D01*
X138462067Y-80111364D01*
X138513418Y-79979825D01*
X138588140Y-79804181D01*
X138640588Y-79686591D01*
X138738654Y-79461461D01*
X138831007Y-79234015D01*
X138902606Y-79041839D01*
X138922056Y-78983295D01*
X138977314Y-78826956D01*
X139031331Y-78706158D01*
X139061001Y-78660502D01*
X139126476Y-78632561D01*
X139269376Y-78592951D01*
X139471161Y-78546162D01*
X139713288Y-78496683D01*
X139821647Y-78476344D01*
X140096811Y-78425781D01*
X140360746Y-78376822D01*
X140587659Y-78334281D01*
X140751761Y-78302975D01*
X140782662Y-78296933D01*
X141038122Y-78246511D01*
X141038122Y-77182741D01*
X141037548Y-76832950D01*
X141035193Y-76568300D01*
X141030107Y-76376622D01*
X141021339Y-76245744D01*
X141007938Y-76163493D01*
X140988954Y-76117698D01*
X140963438Y-76096188D01*
X140952969Y-76092201D01*
X140889826Y-76078056D01*
X140750325Y-76049834D01*
X140552389Y-76010943D01*
X140313935Y-75964792D01*
X140052886Y-75914788D01*
X139787161Y-75864341D01*
X139534681Y-75816858D01*
X139313365Y-75775748D01*
X139141134Y-75744419D01*
X139035908Y-75726278D01*
X139012495Y-75723142D01*
X138991284Y-75681173D01*
X138944332Y-75569370D01*
X138880419Y-75408888D01*
X138856014Y-75346035D01*
X138757580Y-75103203D01*
X138641666Y-74834918D01*
X138537853Y-74608819D01*
X138461465Y-74435935D01*
X138410644Y-74293877D01*
X138393679Y-74206878D01*
X138396384Y-74195218D01*
X138432239Y-74140170D01*
X138514108Y-74017739D01*
X138633205Y-73840962D01*
X138780742Y-73622877D01*
X138947931Y-73376520D01*
X138980990Y-73327891D01*
X139174980Y-73039773D01*
X139317579Y-72820377D01*
X139414473Y-72659602D01*
X139471346Y-72547346D01*
X139493884Y-72473510D01*
X139487772Y-72427990D01*
X139487616Y-72427700D01*
X139439511Y-72367910D01*
X139333111Y-72252319D01*
X139179948Y-72092909D01*
X138991555Y-71901665D01*
X138779465Y-71690568D01*
X138755547Y-71667008D01*
X138488262Y-71408172D01*
X138281992Y-71218117D01*
X138132592Y-71093337D01*
X138035920Y-71030327D01*
X137993339Y-71022195D01*
X137931196Y-71057672D01*
X137802237Y-71139623D01*
X137619778Y-71259292D01*
X137397133Y-71407926D01*
X137147616Y-71576772D01*
X137089364Y-71616495D01*
X136262316Y-72181276D01*
X135888821Y-72011760D01*
X135661684Y-71912971D01*
X135417872Y-71813617D01*
X135208275Y-71734401D01*
X135199042Y-71731142D01*
X135035095Y-71671129D01*
X134908715Y-71620382D01*
X134847137Y-71589841D01*
X134847032Y-71589753D01*
X134827493Y-71534548D01*
X134794279Y-71398779D01*
X134750687Y-71197709D01*
X134700016Y-70946599D01*
X134645561Y-70660713D01*
X134641106Y-70636612D01*
X134586482Y-70342059D01*
X134536336Y-70074684D01*
X134493898Y-69851480D01*
X134462402Y-69689439D01*
X134445077Y-69605553D01*
X134444775Y-69604272D01*
X134434232Y-69568588D01*
X134413731Y-69541646D01*
X134370989Y-69522218D01*
X134293724Y-69509075D01*
X134169652Y-69500989D01*
X133986491Y-69496732D01*
X133731958Y-69495075D01*
X133393769Y-69494790D01*
X133350000Y-69494790D01*
X133001643Y-69494997D01*
X133001643Y-69494997D01*
G37*
X133001643Y-69494997D02*
X132738323Y-69496439D01*
X132547754Y-69500342D01*
X132417655Y-69507937D01*
X132335743Y-69520450D01*
X132289734Y-69539111D01*
X132267347Y-69565148D01*
X132256298Y-69599788D01*
X132255224Y-69604272D01*
X132238441Y-69685189D01*
X132207375Y-69844842D01*
X132165258Y-70066238D01*
X132115321Y-70332385D01*
X132060797Y-70626290D01*
X132058893Y-70636612D01*
X132004277Y-70924636D01*
X131953178Y-71179115D01*
X131908894Y-71384785D01*
X131874721Y-71526385D01*
X131853957Y-71588650D01*
X131852967Y-71589753D01*
X131791801Y-71620159D01*
X131665690Y-71670828D01*
X131501869Y-71730822D01*
X131500957Y-71731142D01*
X131294612Y-71808704D01*
X131051340Y-71907507D01*
X130822031Y-72006848D01*
X130811178Y-72011760D01*
X130437683Y-72181276D01*
X129610635Y-71616495D01*
X129356923Y-71444320D01*
X129127098Y-71290395D01*
X128934475Y-71163474D01*
X128792368Y-71072309D01*
X128714093Y-71025655D01*
X128706660Y-71022195D01*
X128649776Y-71037600D01*
X128543531Y-71111927D01*
X128383781Y-71248681D01*
X128166384Y-71451368D01*
X127944452Y-71667008D01*
X127730509Y-71879503D01*
X127539031Y-72073410D01*
X127381545Y-72236754D01*
X127269578Y-72357561D01*
X127214657Y-72423855D01*
X127212614Y-72427268D01*
X127206542Y-72472761D01*
X127229416Y-72547056D01*
X127286885Y-72660186D01*
X127384601Y-72822185D01*
X127528216Y-73043086D01*
X127719667Y-73327460D01*
X127889577Y-73577759D01*
X128041462Y-73802250D01*
X128166545Y-73987900D01*
X128256051Y-74121675D01*
X128301200Y-74190542D01*
X128304042Y-74195218D01*
X128298530Y-74261201D01*
X128256745Y-74389448D01*
X128187003Y-74555720D01*
X128162146Y-74608819D01*
X128053689Y-74845377D01*
X127937980Y-75113789D01*
X127843985Y-75346035D01*
X127776255Y-75518407D01*
X127722457Y-75649403D01*
X127691369Y-75717867D01*
X127687504Y-75723142D01*
X127630329Y-75731880D01*
X127495552Y-75755823D01*
X127301094Y-75791562D01*
X127064875Y-75835689D01*
X126804816Y-75884795D01*
X126538837Y-75935472D01*
X126284857Y-75984313D01*
X126060799Y-76027909D01*
X125884580Y-76062851D01*
X125774123Y-76085732D01*
X125747030Y-76092201D01*
X125719044Y-76108167D01*
X125697919Y-76144227D01*
X125682703Y-76212552D01*
X125672447Y-76325315D01*
X125666200Y-76494686D01*
X125663012Y-76732838D01*
X125661933Y-77051942D01*
X125661877Y-77182741D01*
X125661877Y-78246511D01*
X125917337Y-78296933D01*
X126059463Y-78324273D01*
X126271550Y-78364182D01*
X126527807Y-78411845D01*
X126802442Y-78462446D01*
X126878352Y-78476344D01*
X127131779Y-78525617D01*
X127352553Y-78574070D01*
X127522143Y-78617215D01*
X127622020Y-78650563D01*
X127638657Y-78660502D01*
X127679511Y-78730891D01*
X127738087Y-78867283D01*
X127803045Y-79042805D01*
X127815929Y-79080613D01*
X127901066Y-79315030D01*
X128006744Y-79579524D01*
X128110160Y-79817041D01*
X128110670Y-79818144D01*
X128282888Y-80190733D01*
X127716476Y-81023893D01*
X127150065Y-81857053D01*
X127877298Y-82585500D01*
X128097252Y-82802302D01*
X128297868Y-82993414D01*
X128467878Y-83148636D01*
X128596015Y-83257764D01*
X128671011Y-83310595D01*
X128681769Y-83313947D01*
X128744933Y-83287549D01*
X128873820Y-83214160D01*
X129054351Y-83102484D01*
X129272446Y-82961224D01*
X129508246Y-82803027D01*
X129747564Y-82641664D01*
X129960941Y-82501252D01*
X130134825Y-82390431D01*
X130255666Y-82317838D01*
X130309737Y-82292108D01*
X130375706Y-82313880D01*
X130500802Y-82371251D01*
X130659220Y-82452300D01*
X130676013Y-82461309D01*
X130889348Y-82568300D01*
X131035636Y-82620772D01*
X131126620Y-82621330D01*
X131174041Y-82572580D01*
X131174317Y-82571897D01*
X131198020Y-82514164D01*
X131254551Y-82377115D01*
X131339526Y-82171357D01*
X131448562Y-81907498D01*
X131577276Y-81596144D01*
X131721285Y-81247904D01*
X131860749Y-80910744D01*
X132014020Y-80538666D01*
X132154749Y-80193987D01*
X132278718Y-79887271D01*
X132381709Y-79629085D01*
X132459504Y-79429994D01*
X132507886Y-79300565D01*
X132522796Y-79252261D01*
X132485406Y-79196850D01*
X132387602Y-79108538D01*
X132257185Y-79011174D01*
X131885777Y-78703253D01*
X131595470Y-78350304D01*
X131389744Y-77959761D01*
X131272077Y-77539057D01*
X131245949Y-77095629D01*
X131264940Y-76890958D01*
X131368417Y-76466323D01*
X131546627Y-76091336D01*
X131788518Y-75769696D01*
X132083037Y-75505101D01*
X132419129Y-75301250D01*
X132785742Y-75161842D01*
X133171823Y-75090574D01*
X133566319Y-75091145D01*
X133958175Y-75167254D01*
X134336340Y-75322599D01*
X134689760Y-75560879D01*
X134837273Y-75695639D01*
X135120184Y-76041679D01*
X135317168Y-76419826D01*
X135429536Y-76819055D01*
X135458599Y-77228345D01*
X135405669Y-77636672D01*
X135272057Y-78033013D01*
X135059075Y-78406345D01*
X134768034Y-78745645D01*
X134442814Y-79011174D01*
X134307348Y-79112671D01*
X134211651Y-79200025D01*
X134177203Y-79252343D01*
X134195240Y-79309398D01*
X134246538Y-79445698D01*
X134326876Y-79650678D01*
X134432036Y-79913772D01*
X134557796Y-80224416D01*
X134699937Y-80572043D01*
X134839635Y-80910826D01*
X134993759Y-81283222D01*
X135136518Y-81628307D01*
X135263529Y-81935477D01*
X135370411Y-82194125D01*
X135452780Y-82393647D01*
X135506253Y-82523435D01*
X135526067Y-82571897D01*
X135572876Y-82621129D01*
X135663417Y-82620985D01*
X135809342Y-82568877D01*
X136022302Y-82462216D01*
X136023986Y-82461309D01*
X136184330Y-82378536D01*
X136313948Y-82318242D01*
X136387037Y-82292346D01*
X136390263Y-82292108D01*
X136445284Y-82318374D01*
X136566757Y-82391416D01*
X136741129Y-82502595D01*
X136954850Y-82643273D01*
X137191753Y-82803027D01*
X137432945Y-82964779D01*
X137650326Y-83105450D01*
X137829816Y-83216335D01*
X137957336Y-83288730D01*
X138018230Y-83313947D01*
X138074303Y-83280803D01*
X138187040Y-83188173D01*
X138345177Y-83046257D01*
X138537449Y-82865255D01*
X138752591Y-82655369D01*
X138822952Y-82585249D01*
X139550434Y-81856552D01*
X138996705Y-81043900D01*
X138828423Y-80794342D01*
X138680729Y-80570366D01*
X138561910Y-80384949D01*
X138480250Y-80251065D01*
X138444036Y-80181690D01*
X138442975Y-80176755D01*
X138462067Y-80111364D01*
X138513418Y-79979825D01*
X138588140Y-79804181D01*
X138640588Y-79686591D01*
X138738654Y-79461461D01*
X138831007Y-79234015D01*
X138902606Y-79041839D01*
X138922056Y-78983295D01*
X138977314Y-78826956D01*
X139031331Y-78706158D01*
X139061001Y-78660502D01*
X139126476Y-78632561D01*
X139269376Y-78592951D01*
X139471161Y-78546162D01*
X139713288Y-78496683D01*
X139821647Y-78476344D01*
X140096811Y-78425781D01*
X140360746Y-78376822D01*
X140587659Y-78334281D01*
X140751761Y-78302975D01*
X140782662Y-78296933D01*
X141038122Y-78246511D01*
X141038122Y-77182741D01*
X141037548Y-76832950D01*
X141035193Y-76568300D01*
X141030107Y-76376622D01*
X141021339Y-76245744D01*
X141007938Y-76163493D01*
X140988954Y-76117698D01*
X140963438Y-76096188D01*
X140952969Y-76092201D01*
X140889826Y-76078056D01*
X140750325Y-76049834D01*
X140552389Y-76010943D01*
X140313935Y-75964792D01*
X140052886Y-75914788D01*
X139787161Y-75864341D01*
X139534681Y-75816858D01*
X139313365Y-75775748D01*
X139141134Y-75744419D01*
X139035908Y-75726278D01*
X139012495Y-75723142D01*
X138991284Y-75681173D01*
X138944332Y-75569370D01*
X138880419Y-75408888D01*
X138856014Y-75346035D01*
X138757580Y-75103203D01*
X138641666Y-74834918D01*
X138537853Y-74608819D01*
X138461465Y-74435935D01*
X138410644Y-74293877D01*
X138393679Y-74206878D01*
X138396384Y-74195218D01*
X138432239Y-74140170D01*
X138514108Y-74017739D01*
X138633205Y-73840962D01*
X138780742Y-73622877D01*
X138947931Y-73376520D01*
X138980990Y-73327891D01*
X139174980Y-73039773D01*
X139317579Y-72820377D01*
X139414473Y-72659602D01*
X139471346Y-72547346D01*
X139493884Y-72473510D01*
X139487772Y-72427990D01*
X139487616Y-72427700D01*
X139439511Y-72367910D01*
X139333111Y-72252319D01*
X139179948Y-72092909D01*
X138991555Y-71901665D01*
X138779465Y-71690568D01*
X138755547Y-71667008D01*
X138488262Y-71408172D01*
X138281992Y-71218117D01*
X138132592Y-71093337D01*
X138035920Y-71030327D01*
X137993339Y-71022195D01*
X137931196Y-71057672D01*
X137802237Y-71139623D01*
X137619778Y-71259292D01*
X137397133Y-71407926D01*
X137147616Y-71576772D01*
X137089364Y-71616495D01*
X136262316Y-72181276D01*
X135888821Y-72011760D01*
X135661684Y-71912971D01*
X135417872Y-71813617D01*
X135208275Y-71734401D01*
X135199042Y-71731142D01*
X135035095Y-71671129D01*
X134908715Y-71620382D01*
X134847137Y-71589841D01*
X134847032Y-71589753D01*
X134827493Y-71534548D01*
X134794279Y-71398779D01*
X134750687Y-71197709D01*
X134700016Y-70946599D01*
X134645561Y-70660713D01*
X134641106Y-70636612D01*
X134586482Y-70342059D01*
X134536336Y-70074684D01*
X134493898Y-69851480D01*
X134462402Y-69689439D01*
X134445077Y-69605553D01*
X134444775Y-69604272D01*
X134434232Y-69568588D01*
X134413731Y-69541646D01*
X134370989Y-69522218D01*
X134293724Y-69509075D01*
X134169652Y-69500989D01*
X133986491Y-69496732D01*
X133731958Y-69495075D01*
X133393769Y-69494790D01*
X133350000Y-69494790D01*
X133001643Y-69494997D01*
G04 #@! TD*
M02*
