M48
;DRILL file {KiCad (5.0.1)-4} date 11/29/2018 3:58:39 PM
;FORMAT={-:-/ absolute / inch / decimal}
FMAT,2
INCH,TZ
T1C0.0362
T2C0.0394
T3C0.0472
T4C0.0591
T5C0.0906
%
G90
G05
M72
T1
X5.15Y-3.95
X5.15Y-4.0531
X5.2484Y-3.95
X5.2484Y-4.0531
X5.3272Y-3.95
X5.3272Y-4.0531
X5.4256Y-3.95
X5.4256Y-4.0531
T2
X4.46Y-3.48
X4.46Y-3.58
X4.46Y-3.68
X4.46Y-3.78
X4.46Y-3.88
X4.625Y-4.075
X4.625Y-4.175
X5.925Y-4.075
X5.925Y-4.175
X5.775Y-4.075
X5.775Y-4.175
X4.775Y-4.075
X4.775Y-4.175
X6.1Y-3.5
X6.1Y-3.6
X6.1Y-3.7
T3
X4.45Y-3.025
X4.55Y-3.025
X4.65Y-3.025
X4.9Y-3.025
X5.Y-3.025
X5.1Y-3.025
X5.175Y-3.6
X5.275Y-3.6
X5.375Y-3.6
X4.45Y-3.225
X4.55Y-3.225
X4.65Y-3.225
X5.9Y-3.025
X6.Y-3.025
X6.1Y-3.025
X5.45Y-3.025
X5.55Y-3.025
X5.65Y-3.025
X5.9Y-3.225
X6.Y-3.225
X6.1Y-3.225
X4.9Y-3.225
X5.Y-3.225
X5.1Y-3.225
X5.45Y-3.225
X5.55Y-3.225
X5.65Y-3.225
T4
X5.525Y-2.5
X5.7281Y-2.5
X4.8Y-2.5
X5.0031Y-2.5
T5
X5.0291Y-3.9362
X5.0291Y-4.1598
X5.5465Y-3.9362
X5.5465Y-4.1598
T0
M30
