G04 #@! TF.GenerationSoftware,KiCad,Pcbnew,(5.0.1)-4*
G04 #@! TF.CreationDate,2018-11-27T15:03:00-07:00*
G04 #@! TF.ProjectId,robot,726F626F742E6B696361645F70636200,rev?*
G04 #@! TF.SameCoordinates,Original*
G04 #@! TF.FileFunction,Soldermask,Bot*
G04 #@! TF.FilePolarity,Negative*
%FSLAX46Y46*%
G04 Gerber Fmt 4.6, Leading zero omitted, Abs format (unit mm)*
G04 Created by KiCad (PCBNEW (5.0.1)-4) date 11/27/2018 3:03:00 PM*
%MOMM*%
%LPD*%
G01*
G04 APERTURE LIST*
%ADD10C,0.100000*%
G04 APERTURE END LIST*
D10*
G36*
X156589196Y-105429958D02*
X156825780Y-105527954D01*
X157038705Y-105670226D01*
X157219774Y-105851295D01*
X157362046Y-106064220D01*
X157460042Y-106300804D01*
X157510000Y-106551960D01*
X157510000Y-106808040D01*
X157460042Y-107059196D01*
X157362046Y-107295780D01*
X157219774Y-107508705D01*
X157038705Y-107689774D01*
X156825780Y-107832046D01*
X156589196Y-107930042D01*
X156338040Y-107980000D01*
X156081960Y-107980000D01*
X155830804Y-107930042D01*
X155594220Y-107832046D01*
X155381295Y-107689774D01*
X155200226Y-107508705D01*
X155057954Y-107295780D01*
X154959958Y-107059196D01*
X154910000Y-106808040D01*
X154910000Y-106551960D01*
X154959958Y-106300804D01*
X155057954Y-106064220D01*
X155200226Y-105851295D01*
X155381295Y-105670226D01*
X155594220Y-105527954D01*
X155830804Y-105429958D01*
X156081960Y-105380000D01*
X156338040Y-105380000D01*
X156589196Y-105429958D01*
X156589196Y-105429958D01*
G37*
G36*
X112139196Y-105429958D02*
X112375780Y-105527954D01*
X112588705Y-105670226D01*
X112769774Y-105851295D01*
X112912046Y-106064220D01*
X113010042Y-106300804D01*
X113060000Y-106551960D01*
X113060000Y-106808040D01*
X113010042Y-107059196D01*
X112912046Y-107295780D01*
X112769774Y-107508705D01*
X112588705Y-107689774D01*
X112375780Y-107832046D01*
X112139196Y-107930042D01*
X111888040Y-107980000D01*
X111631960Y-107980000D01*
X111380804Y-107930042D01*
X111144220Y-107832046D01*
X110931295Y-107689774D01*
X110750226Y-107508705D01*
X110607954Y-107295780D01*
X110509958Y-107059196D01*
X110460000Y-106808040D01*
X110460000Y-106551960D01*
X110509958Y-106300804D01*
X110607954Y-106064220D01*
X110750226Y-105851295D01*
X110931295Y-105670226D01*
X111144220Y-105527954D01*
X111380804Y-105429958D01*
X111631960Y-105380000D01*
X111888040Y-105380000D01*
X112139196Y-105429958D01*
X112139196Y-105429958D01*
G37*
G36*
X121413707Y-105002596D02*
X121490836Y-105010193D01*
X121622787Y-105050220D01*
X121688763Y-105070233D01*
X121871172Y-105167733D01*
X122031054Y-105298946D01*
X122162267Y-105458828D01*
X122259767Y-105641237D01*
X122279780Y-105707213D01*
X122319807Y-105839164D01*
X122340080Y-106045000D01*
X122319807Y-106250836D01*
X122304649Y-106300804D01*
X122259767Y-106448763D01*
X122162267Y-106631172D01*
X122031054Y-106791054D01*
X121871172Y-106922267D01*
X121688763Y-107019767D01*
X121622787Y-107039780D01*
X121490836Y-107079807D01*
X121413707Y-107087404D01*
X121336580Y-107095000D01*
X121233420Y-107095000D01*
X121156293Y-107087404D01*
X121079164Y-107079807D01*
X120947213Y-107039780D01*
X120881237Y-107019767D01*
X120698828Y-106922267D01*
X120538946Y-106791054D01*
X120407733Y-106631172D01*
X120310233Y-106448763D01*
X120265351Y-106300804D01*
X120250193Y-106250836D01*
X120229920Y-106045000D01*
X120250193Y-105839164D01*
X120290220Y-105707213D01*
X120310233Y-105641237D01*
X120407733Y-105458828D01*
X120538946Y-105298946D01*
X120698828Y-105167733D01*
X120881237Y-105070233D01*
X120947213Y-105050220D01*
X121079164Y-105010193D01*
X121156293Y-105002596D01*
X121233420Y-104995000D01*
X121336580Y-104995000D01*
X121413707Y-105002596D01*
X121413707Y-105002596D01*
G37*
G36*
X117603707Y-105002596D02*
X117680836Y-105010193D01*
X117812787Y-105050220D01*
X117878763Y-105070233D01*
X118061172Y-105167733D01*
X118221054Y-105298946D01*
X118352267Y-105458828D01*
X118449767Y-105641237D01*
X118469780Y-105707213D01*
X118509807Y-105839164D01*
X118530080Y-106045000D01*
X118509807Y-106250836D01*
X118494649Y-106300804D01*
X118449767Y-106448763D01*
X118352267Y-106631172D01*
X118221054Y-106791054D01*
X118061172Y-106922267D01*
X117878763Y-107019767D01*
X117812787Y-107039780D01*
X117680836Y-107079807D01*
X117603707Y-107087404D01*
X117526580Y-107095000D01*
X117423420Y-107095000D01*
X117346293Y-107087404D01*
X117269164Y-107079807D01*
X117137213Y-107039780D01*
X117071237Y-107019767D01*
X116888828Y-106922267D01*
X116728946Y-106791054D01*
X116597733Y-106631172D01*
X116500233Y-106448763D01*
X116455351Y-106300804D01*
X116440193Y-106250836D01*
X116419920Y-106045000D01*
X116440193Y-105839164D01*
X116480220Y-105707213D01*
X116500233Y-105641237D01*
X116597733Y-105458828D01*
X116728946Y-105298946D01*
X116888828Y-105167733D01*
X117071237Y-105070233D01*
X117137213Y-105050220D01*
X117269164Y-105010193D01*
X117346293Y-105002596D01*
X117423420Y-104995000D01*
X117526580Y-104995000D01*
X117603707Y-105002596D01*
X117603707Y-105002596D01*
G37*
G36*
X146813707Y-105002596D02*
X146890836Y-105010193D01*
X147022787Y-105050220D01*
X147088763Y-105070233D01*
X147271172Y-105167733D01*
X147431054Y-105298946D01*
X147562267Y-105458828D01*
X147659767Y-105641237D01*
X147679780Y-105707213D01*
X147719807Y-105839164D01*
X147740080Y-106045000D01*
X147719807Y-106250836D01*
X147704649Y-106300804D01*
X147659767Y-106448763D01*
X147562267Y-106631172D01*
X147431054Y-106791054D01*
X147271172Y-106922267D01*
X147088763Y-107019767D01*
X147022787Y-107039780D01*
X146890836Y-107079807D01*
X146813707Y-107087404D01*
X146736580Y-107095000D01*
X146633420Y-107095000D01*
X146556293Y-107087404D01*
X146479164Y-107079807D01*
X146347213Y-107039780D01*
X146281237Y-107019767D01*
X146098828Y-106922267D01*
X145938946Y-106791054D01*
X145807733Y-106631172D01*
X145710233Y-106448763D01*
X145665351Y-106300804D01*
X145650193Y-106250836D01*
X145629920Y-106045000D01*
X145650193Y-105839164D01*
X145690220Y-105707213D01*
X145710233Y-105641237D01*
X145807733Y-105458828D01*
X145938946Y-105298946D01*
X146098828Y-105167733D01*
X146281237Y-105070233D01*
X146347213Y-105050220D01*
X146479164Y-105010193D01*
X146556293Y-105002596D01*
X146633420Y-104995000D01*
X146736580Y-104995000D01*
X146813707Y-105002596D01*
X146813707Y-105002596D01*
G37*
G36*
X150623707Y-105002596D02*
X150700836Y-105010193D01*
X150832787Y-105050220D01*
X150898763Y-105070233D01*
X151081172Y-105167733D01*
X151241054Y-105298946D01*
X151372267Y-105458828D01*
X151469767Y-105641237D01*
X151489780Y-105707213D01*
X151529807Y-105839164D01*
X151550080Y-106045000D01*
X151529807Y-106250836D01*
X151514649Y-106300804D01*
X151469767Y-106448763D01*
X151372267Y-106631172D01*
X151241054Y-106791054D01*
X151081172Y-106922267D01*
X150898763Y-107019767D01*
X150832787Y-107039780D01*
X150700836Y-107079807D01*
X150623707Y-107087404D01*
X150546580Y-107095000D01*
X150443420Y-107095000D01*
X150366293Y-107087404D01*
X150289164Y-107079807D01*
X150157213Y-107039780D01*
X150091237Y-107019767D01*
X149908828Y-106922267D01*
X149748946Y-106791054D01*
X149617733Y-106631172D01*
X149520233Y-106448763D01*
X149475351Y-106300804D01*
X149460193Y-106250836D01*
X149439920Y-106045000D01*
X149460193Y-105839164D01*
X149500220Y-105707213D01*
X149520233Y-105641237D01*
X149617733Y-105458828D01*
X149748946Y-105298946D01*
X149908828Y-105167733D01*
X150091237Y-105070233D01*
X150157213Y-105050220D01*
X150289164Y-105010193D01*
X150366293Y-105002596D01*
X150443420Y-104995000D01*
X150546580Y-104995000D01*
X150623707Y-105002596D01*
X150623707Y-105002596D01*
G37*
G36*
X127636393Y-101343553D02*
X127745872Y-101365330D01*
X128055252Y-101493479D01*
X128333687Y-101679523D01*
X128570477Y-101916313D01*
X128756521Y-102194748D01*
X128884670Y-102504128D01*
X128950000Y-102832565D01*
X128950000Y-103167435D01*
X128884670Y-103495872D01*
X128756521Y-103805252D01*
X128570477Y-104083687D01*
X128333687Y-104320477D01*
X128055252Y-104506521D01*
X127745872Y-104634670D01*
X127636393Y-104656447D01*
X127417437Y-104700000D01*
X127082563Y-104700000D01*
X126863607Y-104656447D01*
X126754128Y-104634670D01*
X126444748Y-104506521D01*
X126166313Y-104320477D01*
X125929523Y-104083687D01*
X125743479Y-103805252D01*
X125615330Y-103495872D01*
X125550000Y-103167435D01*
X125550000Y-102832565D01*
X125615330Y-102504128D01*
X125743479Y-102194748D01*
X125929523Y-101916313D01*
X126166313Y-101679523D01*
X126444748Y-101493479D01*
X126754128Y-101365330D01*
X126863607Y-101343553D01*
X127082563Y-101300000D01*
X127417437Y-101300000D01*
X127636393Y-101343553D01*
X127636393Y-101343553D01*
G37*
G36*
X141356393Y-101343553D02*
X141465872Y-101365330D01*
X141775252Y-101493479D01*
X142053687Y-101679523D01*
X142290477Y-101916313D01*
X142476521Y-102194748D01*
X142604670Y-102504128D01*
X142670000Y-102832565D01*
X142670000Y-103167435D01*
X142604670Y-103495872D01*
X142476521Y-103805252D01*
X142290477Y-104083687D01*
X142053687Y-104320477D01*
X141775252Y-104506521D01*
X141465872Y-104634670D01*
X141356393Y-104656447D01*
X141137437Y-104700000D01*
X140802563Y-104700000D01*
X140583607Y-104656447D01*
X140474128Y-104634670D01*
X140164748Y-104506521D01*
X139886313Y-104320477D01*
X139649523Y-104083687D01*
X139463479Y-103805252D01*
X139335330Y-103495872D01*
X139270000Y-103167435D01*
X139270000Y-102832565D01*
X139335330Y-102504128D01*
X139463479Y-102194748D01*
X139649523Y-101916313D01*
X139886313Y-101679523D01*
X140164748Y-101493479D01*
X140474128Y-101365330D01*
X140583607Y-101343553D01*
X140802563Y-101300000D01*
X141137437Y-101300000D01*
X141356393Y-101343553D01*
X141356393Y-101343553D01*
G37*
G36*
X122335000Y-104555000D02*
X120235000Y-104555000D01*
X120235000Y-102455000D01*
X122335000Y-102455000D01*
X122335000Y-104555000D01*
X122335000Y-104555000D01*
G37*
G36*
X118525000Y-104555000D02*
X116425000Y-104555000D01*
X116425000Y-102455000D01*
X118525000Y-102455000D01*
X118525000Y-104555000D01*
X118525000Y-104555000D01*
G37*
G36*
X151545000Y-104555000D02*
X149445000Y-104555000D01*
X149445000Y-102455000D01*
X151545000Y-102455000D01*
X151545000Y-104555000D01*
X151545000Y-104555000D01*
G37*
G36*
X147735000Y-104555000D02*
X145635000Y-104555000D01*
X145635000Y-102455000D01*
X147735000Y-102455000D01*
X147735000Y-104555000D01*
X147735000Y-104555000D01*
G37*
G36*
X130949451Y-99389127D02*
X131087105Y-99416508D01*
X131259994Y-99488121D01*
X131415590Y-99592087D01*
X131547913Y-99724410D01*
X131651879Y-99880006D01*
X131723492Y-100052895D01*
X131760000Y-100236433D01*
X131760000Y-100423567D01*
X131723492Y-100607105D01*
X131651879Y-100779994D01*
X131547913Y-100935590D01*
X131415590Y-101067913D01*
X131259994Y-101171879D01*
X131087105Y-101243492D01*
X130949451Y-101270873D01*
X130903568Y-101280000D01*
X130716432Y-101280000D01*
X130670549Y-101270873D01*
X130532895Y-101243492D01*
X130360006Y-101171879D01*
X130204410Y-101067913D01*
X130072087Y-100935590D01*
X129968121Y-100779994D01*
X129896508Y-100607105D01*
X129860000Y-100423567D01*
X129860000Y-100236433D01*
X129896508Y-100052895D01*
X129968121Y-99880006D01*
X130072087Y-99724410D01*
X130204410Y-99592087D01*
X130360006Y-99488121D01*
X130532895Y-99416508D01*
X130670549Y-99389127D01*
X130716432Y-99380000D01*
X130903568Y-99380000D01*
X130949451Y-99389127D01*
X130949451Y-99389127D01*
G37*
G36*
X133489451Y-99389127D02*
X133627105Y-99416508D01*
X133799994Y-99488121D01*
X133955590Y-99592087D01*
X134087913Y-99724410D01*
X134191879Y-99880006D01*
X134249518Y-100019158D01*
X134261067Y-100040764D01*
X134276612Y-100059706D01*
X134295554Y-100075251D01*
X134317165Y-100086802D01*
X134340614Y-100093915D01*
X134365000Y-100096317D01*
X134389387Y-100093915D01*
X134412836Y-100086802D01*
X134434447Y-100075250D01*
X134453389Y-100059705D01*
X134468934Y-100040763D01*
X134480482Y-100019158D01*
X134538121Y-99880006D01*
X134642087Y-99724410D01*
X134774410Y-99592087D01*
X134930006Y-99488121D01*
X135102895Y-99416508D01*
X135240549Y-99389127D01*
X135286432Y-99380000D01*
X135473568Y-99380000D01*
X135519451Y-99389127D01*
X135657105Y-99416508D01*
X135829994Y-99488121D01*
X135985590Y-99592087D01*
X136117913Y-99724410D01*
X136221879Y-99880006D01*
X136293492Y-100052895D01*
X136330000Y-100236433D01*
X136330000Y-100423567D01*
X136293492Y-100607105D01*
X136221879Y-100779994D01*
X136117913Y-100935590D01*
X135985590Y-101067913D01*
X135829994Y-101171879D01*
X135657105Y-101243492D01*
X135519451Y-101270873D01*
X135473568Y-101280000D01*
X135286432Y-101280000D01*
X135240549Y-101270873D01*
X135102895Y-101243492D01*
X134930006Y-101171879D01*
X134774410Y-101067913D01*
X134642087Y-100935590D01*
X134538121Y-100779994D01*
X134480482Y-100640842D01*
X134468933Y-100619236D01*
X134453388Y-100600294D01*
X134434446Y-100584749D01*
X134412835Y-100573198D01*
X134389386Y-100566085D01*
X134365000Y-100563683D01*
X134340613Y-100566085D01*
X134317164Y-100573198D01*
X134295553Y-100584750D01*
X134276611Y-100600295D01*
X134261066Y-100619237D01*
X134249518Y-100640842D01*
X134191879Y-100779994D01*
X134087913Y-100935590D01*
X133955590Y-101067913D01*
X133799994Y-101171879D01*
X133627105Y-101243492D01*
X133489451Y-101270873D01*
X133443568Y-101280000D01*
X133256432Y-101280000D01*
X133210549Y-101270873D01*
X133072895Y-101243492D01*
X132900006Y-101171879D01*
X132744410Y-101067913D01*
X132612087Y-100935590D01*
X132508121Y-100779994D01*
X132436508Y-100607105D01*
X132400000Y-100423567D01*
X132400000Y-100236433D01*
X132436508Y-100052895D01*
X132508121Y-99880006D01*
X132612087Y-99724410D01*
X132744410Y-99592087D01*
X132900006Y-99488121D01*
X133072895Y-99416508D01*
X133210549Y-99389127D01*
X133256432Y-99380000D01*
X133443568Y-99380000D01*
X133489451Y-99389127D01*
X133489451Y-99389127D01*
G37*
G36*
X138059451Y-99389127D02*
X138197105Y-99416508D01*
X138369994Y-99488121D01*
X138525590Y-99592087D01*
X138657913Y-99724410D01*
X138761879Y-99880006D01*
X138833492Y-100052895D01*
X138870000Y-100236433D01*
X138870000Y-100423567D01*
X138833492Y-100607105D01*
X138761879Y-100779994D01*
X138657913Y-100935590D01*
X138525590Y-101067913D01*
X138369994Y-101171879D01*
X138197105Y-101243492D01*
X138059451Y-101270873D01*
X138013568Y-101280000D01*
X137826432Y-101280000D01*
X137780549Y-101270873D01*
X137642895Y-101243492D01*
X137470006Y-101171879D01*
X137314410Y-101067913D01*
X137182087Y-100935590D01*
X137078121Y-100779994D01*
X137006508Y-100607105D01*
X136970000Y-100423567D01*
X136970000Y-100236433D01*
X137006508Y-100052895D01*
X137078121Y-99880006D01*
X137182087Y-99724410D01*
X137314410Y-99592087D01*
X137470006Y-99488121D01*
X137642895Y-99416508D01*
X137780549Y-99389127D01*
X137826432Y-99380000D01*
X138013568Y-99380000D01*
X138059451Y-99389127D01*
X138059451Y-99389127D01*
G37*
G36*
X113412707Y-97509596D02*
X113489836Y-97517193D01*
X113621787Y-97557220D01*
X113687763Y-97577233D01*
X113870172Y-97674733D01*
X114030054Y-97805946D01*
X114161267Y-97965828D01*
X114258767Y-98148237D01*
X114258767Y-98148238D01*
X114318807Y-98346164D01*
X114339080Y-98552000D01*
X114318807Y-98757836D01*
X114278780Y-98889787D01*
X114258767Y-98955763D01*
X114161267Y-99138172D01*
X114030054Y-99298054D01*
X113870172Y-99429267D01*
X113687763Y-99526767D01*
X113621787Y-99546780D01*
X113489836Y-99586807D01*
X113412707Y-99594403D01*
X113335580Y-99602000D01*
X113232420Y-99602000D01*
X113155293Y-99594403D01*
X113078164Y-99586807D01*
X112946213Y-99546780D01*
X112880237Y-99526767D01*
X112697828Y-99429267D01*
X112537946Y-99298054D01*
X112406733Y-99138172D01*
X112309233Y-98955763D01*
X112289220Y-98889787D01*
X112249193Y-98757836D01*
X112228920Y-98552000D01*
X112249193Y-98346164D01*
X112309233Y-98148238D01*
X112309233Y-98148237D01*
X112406733Y-97965828D01*
X112537946Y-97805946D01*
X112697828Y-97674733D01*
X112880237Y-97577233D01*
X112946213Y-97557220D01*
X113078164Y-97517193D01*
X113155293Y-97509596D01*
X113232420Y-97502000D01*
X113335580Y-97502000D01*
X113412707Y-97509596D01*
X113412707Y-97509596D01*
G37*
G36*
X113412707Y-94969596D02*
X113489836Y-94977193D01*
X113613833Y-95014807D01*
X113687763Y-95037233D01*
X113870172Y-95134733D01*
X114030054Y-95265946D01*
X114161267Y-95425828D01*
X114258767Y-95608237D01*
X114258767Y-95608238D01*
X114318807Y-95806164D01*
X114339080Y-96012000D01*
X114318807Y-96217836D01*
X114278780Y-96349787D01*
X114258767Y-96415763D01*
X114161267Y-96598172D01*
X114030054Y-96758054D01*
X113870172Y-96889267D01*
X113687763Y-96986767D01*
X113621787Y-97006780D01*
X113489836Y-97046807D01*
X113412707Y-97054403D01*
X113335580Y-97062000D01*
X113232420Y-97062000D01*
X113155293Y-97054403D01*
X113078164Y-97046807D01*
X112946213Y-97006780D01*
X112880237Y-96986767D01*
X112697828Y-96889267D01*
X112537946Y-96758054D01*
X112406733Y-96598172D01*
X112309233Y-96415763D01*
X112289220Y-96349787D01*
X112249193Y-96217836D01*
X112228920Y-96012000D01*
X112249193Y-95806164D01*
X112309233Y-95608238D01*
X112309233Y-95608237D01*
X112406733Y-95425828D01*
X112537946Y-95265946D01*
X112697828Y-95134733D01*
X112880237Y-95037233D01*
X112954167Y-95014807D01*
X113078164Y-94977193D01*
X113155293Y-94969596D01*
X113232420Y-94962000D01*
X113335580Y-94962000D01*
X113412707Y-94969596D01*
X113412707Y-94969596D01*
G37*
G36*
X155068707Y-92937596D02*
X155145836Y-92945193D01*
X155277787Y-92985220D01*
X155343763Y-93005233D01*
X155526172Y-93102733D01*
X155686054Y-93233946D01*
X155817267Y-93393828D01*
X155914767Y-93576237D01*
X155914767Y-93576238D01*
X155974807Y-93774164D01*
X155995080Y-93980000D01*
X155974807Y-94185836D01*
X155934780Y-94317787D01*
X155914767Y-94383763D01*
X155817267Y-94566172D01*
X155686054Y-94726054D01*
X155526172Y-94857267D01*
X155343763Y-94954767D01*
X155277787Y-94974780D01*
X155145836Y-95014807D01*
X155068707Y-95022403D01*
X154991580Y-95030000D01*
X154888420Y-95030000D01*
X154811293Y-95022403D01*
X154734164Y-95014807D01*
X154602213Y-94974780D01*
X154536237Y-94954767D01*
X154353828Y-94857267D01*
X154193946Y-94726054D01*
X154062733Y-94566172D01*
X153965233Y-94383763D01*
X153945220Y-94317787D01*
X153905193Y-94185836D01*
X153884920Y-93980000D01*
X153905193Y-93774164D01*
X153965233Y-93576238D01*
X153965233Y-93576237D01*
X154062733Y-93393828D01*
X154193946Y-93233946D01*
X154353828Y-93102733D01*
X154536237Y-93005233D01*
X154602213Y-92985220D01*
X154734164Y-92945193D01*
X154811293Y-92937596D01*
X154888420Y-92930000D01*
X154991580Y-92930000D01*
X155068707Y-92937596D01*
X155068707Y-92937596D01*
G37*
G36*
X113412707Y-92429597D02*
X113489836Y-92437193D01*
X113613833Y-92474807D01*
X113687763Y-92497233D01*
X113870172Y-92594733D01*
X114030054Y-92725946D01*
X114161267Y-92885828D01*
X114258767Y-93068237D01*
X114258767Y-93068238D01*
X114318807Y-93266164D01*
X114339080Y-93472000D01*
X114318807Y-93677836D01*
X114289586Y-93774164D01*
X114258767Y-93875763D01*
X114161267Y-94058172D01*
X114030054Y-94218054D01*
X113870172Y-94349267D01*
X113687763Y-94446767D01*
X113621787Y-94466780D01*
X113489836Y-94506807D01*
X113412707Y-94514403D01*
X113335580Y-94522000D01*
X113232420Y-94522000D01*
X113155293Y-94514403D01*
X113078164Y-94506807D01*
X112946213Y-94466780D01*
X112880237Y-94446767D01*
X112697828Y-94349267D01*
X112537946Y-94218054D01*
X112406733Y-94058172D01*
X112309233Y-93875763D01*
X112278414Y-93774164D01*
X112249193Y-93677836D01*
X112228920Y-93472000D01*
X112249193Y-93266164D01*
X112309233Y-93068238D01*
X112309233Y-93068237D01*
X112406733Y-92885828D01*
X112537946Y-92725946D01*
X112697828Y-92594733D01*
X112880237Y-92497233D01*
X112954167Y-92474807D01*
X113078164Y-92437193D01*
X113155293Y-92429597D01*
X113232420Y-92422000D01*
X113335580Y-92422000D01*
X113412707Y-92429597D01*
X113412707Y-92429597D01*
G37*
G36*
X134220241Y-89957363D02*
X134446442Y-90025981D01*
X134446444Y-90025982D01*
X134446447Y-90025983D01*
X134654910Y-90137408D01*
X134837634Y-90287366D01*
X134987592Y-90470090D01*
X135089760Y-90661234D01*
X135103374Y-90681609D01*
X135120701Y-90698936D01*
X135141075Y-90712550D01*
X135163714Y-90721927D01*
X135187748Y-90726708D01*
X135212252Y-90726708D01*
X135236285Y-90721928D01*
X135258924Y-90712550D01*
X135279299Y-90698936D01*
X135296626Y-90681609D01*
X135310240Y-90661235D01*
X135319617Y-90638596D01*
X135324398Y-90614562D01*
X135325000Y-90602310D01*
X135325000Y-89940000D01*
X137725000Y-89940000D01*
X137725000Y-92940000D01*
X135325000Y-92940000D01*
X135325000Y-92277690D01*
X135322598Y-92253304D01*
X135315485Y-92229855D01*
X135303934Y-92208244D01*
X135288388Y-92189302D01*
X135269446Y-92173756D01*
X135247835Y-92162205D01*
X135224386Y-92155092D01*
X135200000Y-92152690D01*
X135175614Y-92155092D01*
X135152165Y-92162205D01*
X135130554Y-92173756D01*
X135111612Y-92189302D01*
X135096066Y-92208244D01*
X135089760Y-92218766D01*
X134987592Y-92409910D01*
X134837637Y-92592631D01*
X134837635Y-92592632D01*
X134837634Y-92592634D01*
X134837630Y-92592637D01*
X134654905Y-92742594D01*
X134446446Y-92854017D01*
X134446443Y-92854018D01*
X134446441Y-92854019D01*
X134220240Y-92922637D01*
X133985000Y-92945806D01*
X133749759Y-92922637D01*
X133523558Y-92854019D01*
X133523556Y-92854018D01*
X133523553Y-92854017D01*
X133315090Y-92742592D01*
X133132369Y-92592637D01*
X133132368Y-92592635D01*
X133132366Y-92592634D01*
X132982409Y-92409909D01*
X132982408Y-92409908D01*
X132982406Y-92409905D01*
X132870980Y-92201441D01*
X132834617Y-92081568D01*
X132825240Y-92058929D01*
X132811626Y-92038555D01*
X132794299Y-92021228D01*
X132773924Y-92007614D01*
X132751285Y-91998236D01*
X132727252Y-91993456D01*
X132702748Y-91993456D01*
X132678714Y-91998237D01*
X132656075Y-92007614D01*
X132635701Y-92021228D01*
X132618374Y-92038555D01*
X132604760Y-92058930D01*
X132595384Y-92081565D01*
X132595383Y-92081568D01*
X132595382Y-92081569D01*
X132559018Y-92201446D01*
X132447592Y-92409910D01*
X132297637Y-92592631D01*
X132297635Y-92592632D01*
X132297634Y-92592634D01*
X132297630Y-92592637D01*
X132114905Y-92742594D01*
X131906446Y-92854017D01*
X131906443Y-92854018D01*
X131906441Y-92854019D01*
X131680240Y-92922637D01*
X131445000Y-92945806D01*
X131209759Y-92922637D01*
X130983558Y-92854019D01*
X130983556Y-92854018D01*
X130983553Y-92854017D01*
X130775090Y-92742592D01*
X130592369Y-92592637D01*
X130592368Y-92592635D01*
X130592366Y-92592634D01*
X130442409Y-92409909D01*
X130442408Y-92409908D01*
X130442406Y-92409905D01*
X130330983Y-92201446D01*
X130327299Y-92189302D01*
X130262363Y-91975240D01*
X130245000Y-91798949D01*
X130245000Y-91081050D01*
X130262363Y-90904759D01*
X130330981Y-90678558D01*
X130330983Y-90678554D01*
X130330983Y-90678553D01*
X130442408Y-90470090D01*
X130592367Y-90287366D01*
X130775091Y-90137408D01*
X130983554Y-90025983D01*
X130983557Y-90025982D01*
X130983559Y-90025981D01*
X131209760Y-89957363D01*
X131445000Y-89934194D01*
X131680241Y-89957363D01*
X131906442Y-90025981D01*
X131906444Y-90025982D01*
X131906447Y-90025983D01*
X132114910Y-90137408D01*
X132297634Y-90287366D01*
X132447592Y-90470090D01*
X132559018Y-90678554D01*
X132595382Y-90798431D01*
X132604760Y-90821071D01*
X132618374Y-90841445D01*
X132635701Y-90858772D01*
X132656075Y-90872386D01*
X132678714Y-90881764D01*
X132702748Y-90886544D01*
X132727252Y-90886544D01*
X132751285Y-90881764D01*
X132773925Y-90872386D01*
X132794299Y-90858772D01*
X132811626Y-90841445D01*
X132825240Y-90821071D01*
X132834618Y-90798431D01*
X132870982Y-90678554D01*
X132982408Y-90470090D01*
X133132367Y-90287366D01*
X133315091Y-90137408D01*
X133523554Y-90025983D01*
X133523557Y-90025982D01*
X133523559Y-90025981D01*
X133749760Y-89957363D01*
X133985000Y-89934194D01*
X134220241Y-89957363D01*
X134220241Y-89957363D01*
G37*
G36*
X155068707Y-90397597D02*
X155145836Y-90405193D01*
X155277787Y-90445220D01*
X155343763Y-90465233D01*
X155526172Y-90562733D01*
X155686054Y-90693946D01*
X155817267Y-90853828D01*
X155914767Y-91036237D01*
X155914767Y-91036238D01*
X155974807Y-91234164D01*
X155995080Y-91440000D01*
X155974807Y-91645836D01*
X155934780Y-91777787D01*
X155914767Y-91843763D01*
X155817267Y-92026172D01*
X155686054Y-92186054D01*
X155526172Y-92317267D01*
X155343763Y-92414767D01*
X155277787Y-92434780D01*
X155145836Y-92474807D01*
X155068707Y-92482403D01*
X154991580Y-92490000D01*
X154888420Y-92490000D01*
X154811293Y-92482404D01*
X154734164Y-92474807D01*
X154602213Y-92434780D01*
X154536237Y-92414767D01*
X154353828Y-92317267D01*
X154193946Y-92186054D01*
X154062733Y-92026172D01*
X153965233Y-91843763D01*
X153945220Y-91777787D01*
X153905193Y-91645836D01*
X153884920Y-91440000D01*
X153905193Y-91234164D01*
X153965233Y-91036238D01*
X153965233Y-91036237D01*
X154062733Y-90853828D01*
X154193946Y-90693946D01*
X154353828Y-90562733D01*
X154536237Y-90465233D01*
X154602213Y-90445220D01*
X154734164Y-90405193D01*
X154811293Y-90397597D01*
X154888420Y-90390000D01*
X154991580Y-90390000D01*
X155068707Y-90397597D01*
X155068707Y-90397597D01*
G37*
G36*
X113412707Y-89889596D02*
X113489836Y-89897193D01*
X113611812Y-89934194D01*
X113687763Y-89957233D01*
X113870172Y-90054733D01*
X114030054Y-90185946D01*
X114161267Y-90345828D01*
X114258767Y-90528237D01*
X114258767Y-90528238D01*
X114318807Y-90726164D01*
X114339080Y-90932000D01*
X114318807Y-91137836D01*
X114289586Y-91234164D01*
X114258767Y-91335763D01*
X114161267Y-91518172D01*
X114030054Y-91678054D01*
X113870172Y-91809267D01*
X113687763Y-91906767D01*
X113621787Y-91926780D01*
X113489836Y-91966807D01*
X113412707Y-91974403D01*
X113335580Y-91982000D01*
X113232420Y-91982000D01*
X113155293Y-91974403D01*
X113078164Y-91966807D01*
X112946213Y-91926780D01*
X112880237Y-91906767D01*
X112697828Y-91809267D01*
X112537946Y-91678054D01*
X112406733Y-91518172D01*
X112309233Y-91335763D01*
X112278414Y-91234164D01*
X112249193Y-91137836D01*
X112228920Y-90932000D01*
X112249193Y-90726164D01*
X112309233Y-90528238D01*
X112309233Y-90528237D01*
X112406733Y-90345828D01*
X112537946Y-90185946D01*
X112697828Y-90054733D01*
X112880237Y-89957233D01*
X112956188Y-89934194D01*
X113078164Y-89897193D01*
X113155293Y-89889596D01*
X113232420Y-89882000D01*
X113335580Y-89882000D01*
X113412707Y-89889596D01*
X113412707Y-89889596D01*
G37*
G36*
X155990000Y-89950000D02*
X153890000Y-89950000D01*
X153890000Y-87850000D01*
X155990000Y-87850000D01*
X155990000Y-89950000D01*
X155990000Y-89950000D01*
G37*
G36*
X114334000Y-89442000D02*
X112234000Y-89442000D01*
X112234000Y-87342000D01*
X114334000Y-87342000D01*
X114334000Y-89442000D01*
X114334000Y-89442000D01*
G37*
G36*
X129775240Y-80432363D02*
X130001441Y-80500981D01*
X130001443Y-80500982D01*
X130001446Y-80500983D01*
X130209905Y-80612406D01*
X130209908Y-80612408D01*
X130209909Y-80612409D01*
X130392634Y-80762366D01*
X130392635Y-80762368D01*
X130392637Y-80762369D01*
X130542592Y-80945090D01*
X130654017Y-81153553D01*
X130654017Y-81153554D01*
X130654019Y-81153558D01*
X130722637Y-81379759D01*
X130740000Y-81556050D01*
X130740000Y-82273949D01*
X130722637Y-82450240D01*
X130697250Y-82533929D01*
X130654018Y-82676446D01*
X130542592Y-82884910D01*
X130392634Y-83067634D01*
X130209910Y-83217592D01*
X130001447Y-83329017D01*
X130001444Y-83329018D01*
X130001442Y-83329019D01*
X129775241Y-83397637D01*
X129540000Y-83420806D01*
X129304760Y-83397637D01*
X129078559Y-83329019D01*
X129078557Y-83329018D01*
X129078554Y-83329017D01*
X128870091Y-83217592D01*
X128687367Y-83067634D01*
X128537408Y-82884910D01*
X128425982Y-82676446D01*
X128389618Y-82556569D01*
X128380240Y-82533929D01*
X128366626Y-82513555D01*
X128349299Y-82496228D01*
X128328925Y-82482614D01*
X128306286Y-82473236D01*
X128282252Y-82468456D01*
X128257748Y-82468456D01*
X128233715Y-82473236D01*
X128211075Y-82482614D01*
X128190701Y-82496228D01*
X128173374Y-82513555D01*
X128159760Y-82533929D01*
X128150382Y-82556569D01*
X128114018Y-82676446D01*
X128002592Y-82884910D01*
X127852634Y-83067634D01*
X127669910Y-83217592D01*
X127461447Y-83329017D01*
X127461444Y-83329018D01*
X127461442Y-83329019D01*
X127235241Y-83397637D01*
X127000000Y-83420806D01*
X126764760Y-83397637D01*
X126538559Y-83329019D01*
X126538557Y-83329018D01*
X126538554Y-83329017D01*
X126330091Y-83217592D01*
X126147367Y-83067634D01*
X125997408Y-82884910D01*
X125895240Y-82693766D01*
X125881626Y-82673391D01*
X125864299Y-82656064D01*
X125843925Y-82642450D01*
X125821286Y-82633073D01*
X125797252Y-82628292D01*
X125772748Y-82628292D01*
X125748715Y-82633072D01*
X125726076Y-82642450D01*
X125705701Y-82656064D01*
X125688374Y-82673391D01*
X125674760Y-82693765D01*
X125665383Y-82716404D01*
X125660602Y-82740438D01*
X125660000Y-82752690D01*
X125660000Y-83415000D01*
X123260000Y-83415000D01*
X123260000Y-80415000D01*
X125660000Y-80415000D01*
X125660000Y-81077311D01*
X125662402Y-81101697D01*
X125669515Y-81125146D01*
X125681066Y-81146757D01*
X125696612Y-81165699D01*
X125715554Y-81181245D01*
X125737165Y-81192796D01*
X125760614Y-81199909D01*
X125785000Y-81202311D01*
X125809386Y-81199909D01*
X125832835Y-81192796D01*
X125854446Y-81181245D01*
X125873388Y-81165699D01*
X125888934Y-81146757D01*
X125895240Y-81136235D01*
X125997406Y-80945095D01*
X126147364Y-80762369D01*
X126147366Y-80762366D01*
X126147368Y-80762365D01*
X126147369Y-80762363D01*
X126330090Y-80612408D01*
X126538553Y-80500983D01*
X126538556Y-80500982D01*
X126538558Y-80500981D01*
X126764759Y-80432363D01*
X127000000Y-80409194D01*
X127235240Y-80432363D01*
X127461441Y-80500981D01*
X127461443Y-80500982D01*
X127461446Y-80500983D01*
X127669905Y-80612406D01*
X127669908Y-80612408D01*
X127669909Y-80612409D01*
X127852634Y-80762366D01*
X127852635Y-80762368D01*
X127852637Y-80762369D01*
X128002592Y-80945090D01*
X128114018Y-81153554D01*
X128117702Y-81165699D01*
X128150384Y-81273435D01*
X128159760Y-81296071D01*
X128173374Y-81316445D01*
X128190701Y-81333772D01*
X128211075Y-81347386D01*
X128233714Y-81356764D01*
X128257748Y-81361544D01*
X128282252Y-81361544D01*
X128306285Y-81356764D01*
X128328925Y-81347386D01*
X128349299Y-81333772D01*
X128366626Y-81316445D01*
X128380240Y-81296071D01*
X128389617Y-81273432D01*
X128425980Y-81153559D01*
X128537406Y-80945095D01*
X128687364Y-80762369D01*
X128687366Y-80762366D01*
X128687368Y-80762365D01*
X128687369Y-80762363D01*
X128870090Y-80612408D01*
X129078553Y-80500983D01*
X129078556Y-80500982D01*
X129078558Y-80500981D01*
X129304759Y-80432363D01*
X129540000Y-80409194D01*
X129775240Y-80432363D01*
X129775240Y-80432363D01*
G37*
G36*
X118345240Y-80432363D02*
X118571441Y-80500981D01*
X118571443Y-80500982D01*
X118571446Y-80500983D01*
X118779905Y-80612406D01*
X118779908Y-80612408D01*
X118779909Y-80612409D01*
X118962634Y-80762366D01*
X118962635Y-80762368D01*
X118962637Y-80762369D01*
X119112592Y-80945090D01*
X119224017Y-81153553D01*
X119224017Y-81153554D01*
X119224019Y-81153558D01*
X119292637Y-81379759D01*
X119310000Y-81556050D01*
X119310000Y-82273949D01*
X119292637Y-82450240D01*
X119267250Y-82533929D01*
X119224018Y-82676446D01*
X119112592Y-82884910D01*
X118962634Y-83067634D01*
X118779910Y-83217592D01*
X118571447Y-83329017D01*
X118571444Y-83329018D01*
X118571442Y-83329019D01*
X118345241Y-83397637D01*
X118110000Y-83420806D01*
X117874760Y-83397637D01*
X117648559Y-83329019D01*
X117648557Y-83329018D01*
X117648554Y-83329017D01*
X117440091Y-83217592D01*
X117257367Y-83067634D01*
X117107408Y-82884910D01*
X116995982Y-82676446D01*
X116959618Y-82556569D01*
X116950240Y-82533929D01*
X116936626Y-82513555D01*
X116919299Y-82496228D01*
X116898925Y-82482614D01*
X116876286Y-82473236D01*
X116852252Y-82468456D01*
X116827748Y-82468456D01*
X116803715Y-82473236D01*
X116781075Y-82482614D01*
X116760701Y-82496228D01*
X116743374Y-82513555D01*
X116729760Y-82533929D01*
X116720382Y-82556569D01*
X116684018Y-82676446D01*
X116572592Y-82884910D01*
X116422634Y-83067634D01*
X116239910Y-83217592D01*
X116031447Y-83329017D01*
X116031444Y-83329018D01*
X116031442Y-83329019D01*
X115805241Y-83397637D01*
X115570000Y-83420806D01*
X115334760Y-83397637D01*
X115108559Y-83329019D01*
X115108557Y-83329018D01*
X115108554Y-83329017D01*
X114900091Y-83217592D01*
X114717367Y-83067634D01*
X114567408Y-82884910D01*
X114465240Y-82693766D01*
X114451626Y-82673391D01*
X114434299Y-82656064D01*
X114413925Y-82642450D01*
X114391286Y-82633073D01*
X114367252Y-82628292D01*
X114342748Y-82628292D01*
X114318715Y-82633072D01*
X114296076Y-82642450D01*
X114275701Y-82656064D01*
X114258374Y-82673391D01*
X114244760Y-82693765D01*
X114235383Y-82716404D01*
X114230602Y-82740438D01*
X114230000Y-82752690D01*
X114230000Y-83415000D01*
X111830000Y-83415000D01*
X111830000Y-80415000D01*
X114230000Y-80415000D01*
X114230000Y-81077311D01*
X114232402Y-81101697D01*
X114239515Y-81125146D01*
X114251066Y-81146757D01*
X114266612Y-81165699D01*
X114285554Y-81181245D01*
X114307165Y-81192796D01*
X114330614Y-81199909D01*
X114355000Y-81202311D01*
X114379386Y-81199909D01*
X114402835Y-81192796D01*
X114424446Y-81181245D01*
X114443388Y-81165699D01*
X114458934Y-81146757D01*
X114465240Y-81136235D01*
X114567406Y-80945095D01*
X114717364Y-80762369D01*
X114717366Y-80762366D01*
X114717368Y-80762365D01*
X114717369Y-80762363D01*
X114900090Y-80612408D01*
X115108553Y-80500983D01*
X115108556Y-80500982D01*
X115108558Y-80500981D01*
X115334759Y-80432363D01*
X115570000Y-80409194D01*
X115805240Y-80432363D01*
X116031441Y-80500981D01*
X116031443Y-80500982D01*
X116031446Y-80500983D01*
X116239905Y-80612406D01*
X116239908Y-80612408D01*
X116239909Y-80612409D01*
X116422634Y-80762366D01*
X116422635Y-80762368D01*
X116422637Y-80762369D01*
X116572592Y-80945090D01*
X116684018Y-81153554D01*
X116687702Y-81165699D01*
X116720384Y-81273435D01*
X116729760Y-81296071D01*
X116743374Y-81316445D01*
X116760701Y-81333772D01*
X116781075Y-81347386D01*
X116803714Y-81356764D01*
X116827748Y-81361544D01*
X116852252Y-81361544D01*
X116876285Y-81356764D01*
X116898925Y-81347386D01*
X116919299Y-81333772D01*
X116936626Y-81316445D01*
X116950240Y-81296071D01*
X116959617Y-81273432D01*
X116995980Y-81153559D01*
X117107406Y-80945095D01*
X117257364Y-80762369D01*
X117257366Y-80762366D01*
X117257368Y-80762365D01*
X117257369Y-80762363D01*
X117440090Y-80612408D01*
X117648553Y-80500983D01*
X117648556Y-80500982D01*
X117648558Y-80500981D01*
X117874759Y-80432363D01*
X118110000Y-80409194D01*
X118345240Y-80432363D01*
X118345240Y-80432363D01*
G37*
G36*
X155175240Y-80432363D02*
X155401441Y-80500981D01*
X155401443Y-80500982D01*
X155401446Y-80500983D01*
X155609905Y-80612406D01*
X155609908Y-80612408D01*
X155609909Y-80612409D01*
X155792634Y-80762366D01*
X155792635Y-80762368D01*
X155792637Y-80762369D01*
X155942592Y-80945090D01*
X156054017Y-81153553D01*
X156054017Y-81153554D01*
X156054019Y-81153558D01*
X156122637Y-81379759D01*
X156140000Y-81556050D01*
X156140000Y-82273949D01*
X156122637Y-82450240D01*
X156097250Y-82533929D01*
X156054018Y-82676446D01*
X155942592Y-82884910D01*
X155792634Y-83067634D01*
X155609910Y-83217592D01*
X155401447Y-83329017D01*
X155401444Y-83329018D01*
X155401442Y-83329019D01*
X155175241Y-83397637D01*
X154940000Y-83420806D01*
X154704760Y-83397637D01*
X154478559Y-83329019D01*
X154478557Y-83329018D01*
X154478554Y-83329017D01*
X154270091Y-83217592D01*
X154087367Y-83067634D01*
X153937408Y-82884910D01*
X153825982Y-82676446D01*
X153789618Y-82556569D01*
X153780240Y-82533929D01*
X153766626Y-82513555D01*
X153749299Y-82496228D01*
X153728925Y-82482614D01*
X153706286Y-82473236D01*
X153682252Y-82468456D01*
X153657748Y-82468456D01*
X153633715Y-82473236D01*
X153611075Y-82482614D01*
X153590701Y-82496228D01*
X153573374Y-82513555D01*
X153559760Y-82533929D01*
X153550382Y-82556569D01*
X153514018Y-82676446D01*
X153402592Y-82884910D01*
X153252634Y-83067634D01*
X153069910Y-83217592D01*
X152861447Y-83329017D01*
X152861444Y-83329018D01*
X152861442Y-83329019D01*
X152635241Y-83397637D01*
X152400000Y-83420806D01*
X152164760Y-83397637D01*
X151938559Y-83329019D01*
X151938557Y-83329018D01*
X151938554Y-83329017D01*
X151730091Y-83217592D01*
X151547367Y-83067634D01*
X151397408Y-82884910D01*
X151295240Y-82693766D01*
X151281626Y-82673391D01*
X151264299Y-82656064D01*
X151243925Y-82642450D01*
X151221286Y-82633073D01*
X151197252Y-82628292D01*
X151172748Y-82628292D01*
X151148715Y-82633072D01*
X151126076Y-82642450D01*
X151105701Y-82656064D01*
X151088374Y-82673391D01*
X151074760Y-82693765D01*
X151065383Y-82716404D01*
X151060602Y-82740438D01*
X151060000Y-82752690D01*
X151060000Y-83415000D01*
X148660000Y-83415000D01*
X148660000Y-80415000D01*
X151060000Y-80415000D01*
X151060000Y-81077311D01*
X151062402Y-81101697D01*
X151069515Y-81125146D01*
X151081066Y-81146757D01*
X151096612Y-81165699D01*
X151115554Y-81181245D01*
X151137165Y-81192796D01*
X151160614Y-81199909D01*
X151185000Y-81202311D01*
X151209386Y-81199909D01*
X151232835Y-81192796D01*
X151254446Y-81181245D01*
X151273388Y-81165699D01*
X151288934Y-81146757D01*
X151295240Y-81136235D01*
X151397406Y-80945095D01*
X151547364Y-80762369D01*
X151547366Y-80762366D01*
X151547368Y-80762365D01*
X151547369Y-80762363D01*
X151730090Y-80612408D01*
X151938553Y-80500983D01*
X151938556Y-80500982D01*
X151938558Y-80500981D01*
X152164759Y-80432363D01*
X152400000Y-80409194D01*
X152635240Y-80432363D01*
X152861441Y-80500981D01*
X152861443Y-80500982D01*
X152861446Y-80500983D01*
X153069905Y-80612406D01*
X153069908Y-80612408D01*
X153069909Y-80612409D01*
X153252634Y-80762366D01*
X153252635Y-80762368D01*
X153252637Y-80762369D01*
X153402592Y-80945090D01*
X153514018Y-81153554D01*
X153517702Y-81165699D01*
X153550384Y-81273435D01*
X153559760Y-81296071D01*
X153573374Y-81316445D01*
X153590701Y-81333772D01*
X153611075Y-81347386D01*
X153633714Y-81356764D01*
X153657748Y-81361544D01*
X153682252Y-81361544D01*
X153706285Y-81356764D01*
X153728925Y-81347386D01*
X153749299Y-81333772D01*
X153766626Y-81316445D01*
X153780240Y-81296071D01*
X153789617Y-81273432D01*
X153825980Y-81153559D01*
X153937406Y-80945095D01*
X154087364Y-80762369D01*
X154087366Y-80762366D01*
X154087368Y-80762365D01*
X154087369Y-80762363D01*
X154270090Y-80612408D01*
X154478553Y-80500983D01*
X154478556Y-80500982D01*
X154478558Y-80500981D01*
X154704759Y-80432363D01*
X154940000Y-80409194D01*
X155175240Y-80432363D01*
X155175240Y-80432363D01*
G37*
G36*
X143745240Y-80432363D02*
X143971441Y-80500981D01*
X143971443Y-80500982D01*
X143971446Y-80500983D01*
X144179905Y-80612406D01*
X144179908Y-80612408D01*
X144179909Y-80612409D01*
X144362634Y-80762366D01*
X144362635Y-80762368D01*
X144362637Y-80762369D01*
X144512592Y-80945090D01*
X144624017Y-81153553D01*
X144624017Y-81153554D01*
X144624019Y-81153558D01*
X144692637Y-81379759D01*
X144710000Y-81556050D01*
X144710000Y-82273949D01*
X144692637Y-82450240D01*
X144667250Y-82533929D01*
X144624018Y-82676446D01*
X144512592Y-82884910D01*
X144362634Y-83067634D01*
X144179910Y-83217592D01*
X143971447Y-83329017D01*
X143971444Y-83329018D01*
X143971442Y-83329019D01*
X143745241Y-83397637D01*
X143510000Y-83420806D01*
X143274760Y-83397637D01*
X143048559Y-83329019D01*
X143048557Y-83329018D01*
X143048554Y-83329017D01*
X142840091Y-83217592D01*
X142657367Y-83067634D01*
X142507408Y-82884910D01*
X142395982Y-82676446D01*
X142359618Y-82556569D01*
X142350240Y-82533929D01*
X142336626Y-82513555D01*
X142319299Y-82496228D01*
X142298925Y-82482614D01*
X142276286Y-82473236D01*
X142252252Y-82468456D01*
X142227748Y-82468456D01*
X142203715Y-82473236D01*
X142181075Y-82482614D01*
X142160701Y-82496228D01*
X142143374Y-82513555D01*
X142129760Y-82533929D01*
X142120382Y-82556569D01*
X142084018Y-82676446D01*
X141972592Y-82884910D01*
X141822634Y-83067634D01*
X141639910Y-83217592D01*
X141431447Y-83329017D01*
X141431444Y-83329018D01*
X141431442Y-83329019D01*
X141205241Y-83397637D01*
X140970000Y-83420806D01*
X140734760Y-83397637D01*
X140508559Y-83329019D01*
X140508557Y-83329018D01*
X140508554Y-83329017D01*
X140300091Y-83217592D01*
X140117367Y-83067634D01*
X139967408Y-82884910D01*
X139865240Y-82693766D01*
X139851626Y-82673391D01*
X139834299Y-82656064D01*
X139813925Y-82642450D01*
X139791286Y-82633073D01*
X139767252Y-82628292D01*
X139742748Y-82628292D01*
X139718715Y-82633072D01*
X139696076Y-82642450D01*
X139675701Y-82656064D01*
X139658374Y-82673391D01*
X139644760Y-82693765D01*
X139635383Y-82716404D01*
X139630602Y-82740438D01*
X139630000Y-82752690D01*
X139630000Y-83415000D01*
X137230000Y-83415000D01*
X137230000Y-80415000D01*
X139630000Y-80415000D01*
X139630000Y-81077311D01*
X139632402Y-81101697D01*
X139639515Y-81125146D01*
X139651066Y-81146757D01*
X139666612Y-81165699D01*
X139685554Y-81181245D01*
X139707165Y-81192796D01*
X139730614Y-81199909D01*
X139755000Y-81202311D01*
X139779386Y-81199909D01*
X139802835Y-81192796D01*
X139824446Y-81181245D01*
X139843388Y-81165699D01*
X139858934Y-81146757D01*
X139865240Y-81136235D01*
X139967406Y-80945095D01*
X140117364Y-80762369D01*
X140117366Y-80762366D01*
X140117368Y-80762365D01*
X140117369Y-80762363D01*
X140300090Y-80612408D01*
X140508553Y-80500983D01*
X140508556Y-80500982D01*
X140508558Y-80500981D01*
X140734759Y-80432363D01*
X140970000Y-80409194D01*
X141205240Y-80432363D01*
X141431441Y-80500981D01*
X141431443Y-80500982D01*
X141431446Y-80500983D01*
X141639905Y-80612406D01*
X141639908Y-80612408D01*
X141639909Y-80612409D01*
X141822634Y-80762366D01*
X141822635Y-80762368D01*
X141822637Y-80762369D01*
X141972592Y-80945090D01*
X142084018Y-81153554D01*
X142087702Y-81165699D01*
X142120384Y-81273435D01*
X142129760Y-81296071D01*
X142143374Y-81316445D01*
X142160701Y-81333772D01*
X142181075Y-81347386D01*
X142203714Y-81356764D01*
X142227748Y-81361544D01*
X142252252Y-81361544D01*
X142276285Y-81356764D01*
X142298925Y-81347386D01*
X142319299Y-81333772D01*
X142336626Y-81316445D01*
X142350240Y-81296071D01*
X142359617Y-81273432D01*
X142395980Y-81153559D01*
X142507406Y-80945095D01*
X142657364Y-80762369D01*
X142657366Y-80762366D01*
X142657368Y-80762365D01*
X142657369Y-80762363D01*
X142840090Y-80612408D01*
X143048553Y-80500983D01*
X143048556Y-80500982D01*
X143048558Y-80500981D01*
X143274759Y-80432363D01*
X143510000Y-80409194D01*
X143745240Y-80432363D01*
X143745240Y-80432363D01*
G37*
G36*
X118345240Y-75352363D02*
X118571441Y-75420981D01*
X118571443Y-75420982D01*
X118571446Y-75420983D01*
X118779905Y-75532406D01*
X118779908Y-75532408D01*
X118779909Y-75532409D01*
X118962634Y-75682366D01*
X118962635Y-75682368D01*
X118962637Y-75682369D01*
X119112592Y-75865090D01*
X119224017Y-76073553D01*
X119224017Y-76073554D01*
X119224019Y-76073558D01*
X119292637Y-76299759D01*
X119310000Y-76476050D01*
X119310000Y-77193949D01*
X119292637Y-77370240D01*
X119267250Y-77453929D01*
X119224018Y-77596446D01*
X119112592Y-77804910D01*
X118962634Y-77987634D01*
X118779910Y-78137592D01*
X118571447Y-78249017D01*
X118571444Y-78249018D01*
X118571442Y-78249019D01*
X118345241Y-78317637D01*
X118110000Y-78340806D01*
X117874760Y-78317637D01*
X117648559Y-78249019D01*
X117648557Y-78249018D01*
X117648554Y-78249017D01*
X117440091Y-78137592D01*
X117257367Y-77987634D01*
X117107408Y-77804910D01*
X116995982Y-77596446D01*
X116959618Y-77476569D01*
X116950240Y-77453929D01*
X116936626Y-77433555D01*
X116919299Y-77416228D01*
X116898925Y-77402614D01*
X116876286Y-77393236D01*
X116852252Y-77388456D01*
X116827748Y-77388456D01*
X116803715Y-77393236D01*
X116781075Y-77402614D01*
X116760701Y-77416228D01*
X116743374Y-77433555D01*
X116729760Y-77453929D01*
X116720382Y-77476569D01*
X116684018Y-77596446D01*
X116572592Y-77804910D01*
X116422634Y-77987634D01*
X116239910Y-78137592D01*
X116031447Y-78249017D01*
X116031444Y-78249018D01*
X116031442Y-78249019D01*
X115805241Y-78317637D01*
X115570000Y-78340806D01*
X115334760Y-78317637D01*
X115108559Y-78249019D01*
X115108557Y-78249018D01*
X115108554Y-78249017D01*
X114900091Y-78137592D01*
X114717367Y-77987634D01*
X114567408Y-77804910D01*
X114465240Y-77613766D01*
X114451626Y-77593391D01*
X114434299Y-77576064D01*
X114413925Y-77562450D01*
X114391286Y-77553073D01*
X114367252Y-77548292D01*
X114342748Y-77548292D01*
X114318715Y-77553072D01*
X114296076Y-77562450D01*
X114275701Y-77576064D01*
X114258374Y-77593391D01*
X114244760Y-77613765D01*
X114235383Y-77636404D01*
X114230602Y-77660438D01*
X114230000Y-77672690D01*
X114230000Y-78335000D01*
X111830000Y-78335000D01*
X111830000Y-75335000D01*
X114230000Y-75335000D01*
X114230000Y-75997311D01*
X114232402Y-76021697D01*
X114239515Y-76045146D01*
X114251066Y-76066757D01*
X114266612Y-76085699D01*
X114285554Y-76101245D01*
X114307165Y-76112796D01*
X114330614Y-76119909D01*
X114355000Y-76122311D01*
X114379386Y-76119909D01*
X114402835Y-76112796D01*
X114424446Y-76101245D01*
X114443388Y-76085699D01*
X114458934Y-76066757D01*
X114465240Y-76056235D01*
X114567406Y-75865095D01*
X114717364Y-75682369D01*
X114717366Y-75682366D01*
X114717368Y-75682365D01*
X114717369Y-75682363D01*
X114900090Y-75532408D01*
X115108553Y-75420983D01*
X115108556Y-75420982D01*
X115108558Y-75420981D01*
X115334759Y-75352363D01*
X115570000Y-75329194D01*
X115805240Y-75352363D01*
X116031441Y-75420981D01*
X116031443Y-75420982D01*
X116031446Y-75420983D01*
X116239905Y-75532406D01*
X116239908Y-75532408D01*
X116239909Y-75532409D01*
X116422634Y-75682366D01*
X116422635Y-75682368D01*
X116422637Y-75682369D01*
X116572592Y-75865090D01*
X116684018Y-76073554D01*
X116687702Y-76085699D01*
X116720384Y-76193435D01*
X116729760Y-76216071D01*
X116743374Y-76236445D01*
X116760701Y-76253772D01*
X116781075Y-76267386D01*
X116803714Y-76276764D01*
X116827748Y-76281544D01*
X116852252Y-76281544D01*
X116876285Y-76276764D01*
X116898925Y-76267386D01*
X116919299Y-76253772D01*
X116936626Y-76236445D01*
X116950240Y-76216071D01*
X116959617Y-76193432D01*
X116995980Y-76073559D01*
X117107406Y-75865095D01*
X117257364Y-75682369D01*
X117257366Y-75682366D01*
X117257368Y-75682365D01*
X117257369Y-75682363D01*
X117440090Y-75532408D01*
X117648553Y-75420983D01*
X117648556Y-75420982D01*
X117648558Y-75420981D01*
X117874759Y-75352363D01*
X118110000Y-75329194D01*
X118345240Y-75352363D01*
X118345240Y-75352363D01*
G37*
G36*
X143745240Y-75352363D02*
X143971441Y-75420981D01*
X143971443Y-75420982D01*
X143971446Y-75420983D01*
X144179905Y-75532406D01*
X144179908Y-75532408D01*
X144179909Y-75532409D01*
X144362634Y-75682366D01*
X144362635Y-75682368D01*
X144362637Y-75682369D01*
X144512592Y-75865090D01*
X144624017Y-76073553D01*
X144624017Y-76073554D01*
X144624019Y-76073558D01*
X144692637Y-76299759D01*
X144710000Y-76476050D01*
X144710000Y-77193949D01*
X144692637Y-77370240D01*
X144667250Y-77453929D01*
X144624018Y-77596446D01*
X144512592Y-77804910D01*
X144362634Y-77987634D01*
X144179910Y-78137592D01*
X143971447Y-78249017D01*
X143971444Y-78249018D01*
X143971442Y-78249019D01*
X143745241Y-78317637D01*
X143510000Y-78340806D01*
X143274760Y-78317637D01*
X143048559Y-78249019D01*
X143048557Y-78249018D01*
X143048554Y-78249017D01*
X142840091Y-78137592D01*
X142657367Y-77987634D01*
X142507408Y-77804910D01*
X142395982Y-77596446D01*
X142359618Y-77476569D01*
X142350240Y-77453929D01*
X142336626Y-77433555D01*
X142319299Y-77416228D01*
X142298925Y-77402614D01*
X142276286Y-77393236D01*
X142252252Y-77388456D01*
X142227748Y-77388456D01*
X142203715Y-77393236D01*
X142181075Y-77402614D01*
X142160701Y-77416228D01*
X142143374Y-77433555D01*
X142129760Y-77453929D01*
X142120382Y-77476569D01*
X142084018Y-77596446D01*
X141972592Y-77804910D01*
X141822634Y-77987634D01*
X141639910Y-78137592D01*
X141431447Y-78249017D01*
X141431444Y-78249018D01*
X141431442Y-78249019D01*
X141205241Y-78317637D01*
X140970000Y-78340806D01*
X140734760Y-78317637D01*
X140508559Y-78249019D01*
X140508557Y-78249018D01*
X140508554Y-78249017D01*
X140300091Y-78137592D01*
X140117367Y-77987634D01*
X139967408Y-77804910D01*
X139865240Y-77613766D01*
X139851626Y-77593391D01*
X139834299Y-77576064D01*
X139813925Y-77562450D01*
X139791286Y-77553073D01*
X139767252Y-77548292D01*
X139742748Y-77548292D01*
X139718715Y-77553072D01*
X139696076Y-77562450D01*
X139675701Y-77576064D01*
X139658374Y-77593391D01*
X139644760Y-77613765D01*
X139635383Y-77636404D01*
X139630602Y-77660438D01*
X139630000Y-77672690D01*
X139630000Y-78335000D01*
X137230000Y-78335000D01*
X137230000Y-75335000D01*
X139630000Y-75335000D01*
X139630000Y-75997311D01*
X139632402Y-76021697D01*
X139639515Y-76045146D01*
X139651066Y-76066757D01*
X139666612Y-76085699D01*
X139685554Y-76101245D01*
X139707165Y-76112796D01*
X139730614Y-76119909D01*
X139755000Y-76122311D01*
X139779386Y-76119909D01*
X139802835Y-76112796D01*
X139824446Y-76101245D01*
X139843388Y-76085699D01*
X139858934Y-76066757D01*
X139865240Y-76056235D01*
X139967406Y-75865095D01*
X140117364Y-75682369D01*
X140117366Y-75682366D01*
X140117368Y-75682365D01*
X140117369Y-75682363D01*
X140300090Y-75532408D01*
X140508553Y-75420983D01*
X140508556Y-75420982D01*
X140508558Y-75420981D01*
X140734759Y-75352363D01*
X140970000Y-75329194D01*
X141205240Y-75352363D01*
X141431441Y-75420981D01*
X141431443Y-75420982D01*
X141431446Y-75420983D01*
X141639905Y-75532406D01*
X141639908Y-75532408D01*
X141639909Y-75532409D01*
X141822634Y-75682366D01*
X141822635Y-75682368D01*
X141822637Y-75682369D01*
X141972592Y-75865090D01*
X142084018Y-76073554D01*
X142087702Y-76085699D01*
X142120384Y-76193435D01*
X142129760Y-76216071D01*
X142143374Y-76236445D01*
X142160701Y-76253772D01*
X142181075Y-76267386D01*
X142203714Y-76276764D01*
X142227748Y-76281544D01*
X142252252Y-76281544D01*
X142276285Y-76276764D01*
X142298925Y-76267386D01*
X142319299Y-76253772D01*
X142336626Y-76236445D01*
X142350240Y-76216071D01*
X142359617Y-76193432D01*
X142395980Y-76073559D01*
X142507406Y-75865095D01*
X142657364Y-75682369D01*
X142657366Y-75682366D01*
X142657368Y-75682365D01*
X142657369Y-75682363D01*
X142840090Y-75532408D01*
X143048553Y-75420983D01*
X143048556Y-75420982D01*
X143048558Y-75420981D01*
X143274759Y-75352363D01*
X143510000Y-75329194D01*
X143745240Y-75352363D01*
X143745240Y-75352363D01*
G37*
G36*
X155175240Y-75352363D02*
X155401441Y-75420981D01*
X155401443Y-75420982D01*
X155401446Y-75420983D01*
X155609905Y-75532406D01*
X155609908Y-75532408D01*
X155609909Y-75532409D01*
X155792634Y-75682366D01*
X155792635Y-75682368D01*
X155792637Y-75682369D01*
X155942592Y-75865090D01*
X156054017Y-76073553D01*
X156054017Y-76073554D01*
X156054019Y-76073558D01*
X156122637Y-76299759D01*
X156140000Y-76476050D01*
X156140000Y-77193949D01*
X156122637Y-77370240D01*
X156097250Y-77453929D01*
X156054018Y-77596446D01*
X155942592Y-77804910D01*
X155792634Y-77987634D01*
X155609910Y-78137592D01*
X155401447Y-78249017D01*
X155401444Y-78249018D01*
X155401442Y-78249019D01*
X155175241Y-78317637D01*
X154940000Y-78340806D01*
X154704760Y-78317637D01*
X154478559Y-78249019D01*
X154478557Y-78249018D01*
X154478554Y-78249017D01*
X154270091Y-78137592D01*
X154087367Y-77987634D01*
X153937408Y-77804910D01*
X153825982Y-77596446D01*
X153789618Y-77476569D01*
X153780240Y-77453929D01*
X153766626Y-77433555D01*
X153749299Y-77416228D01*
X153728925Y-77402614D01*
X153706286Y-77393236D01*
X153682252Y-77388456D01*
X153657748Y-77388456D01*
X153633715Y-77393236D01*
X153611075Y-77402614D01*
X153590701Y-77416228D01*
X153573374Y-77433555D01*
X153559760Y-77453929D01*
X153550382Y-77476569D01*
X153514018Y-77596446D01*
X153402592Y-77804910D01*
X153252634Y-77987634D01*
X153069910Y-78137592D01*
X152861447Y-78249017D01*
X152861444Y-78249018D01*
X152861442Y-78249019D01*
X152635241Y-78317637D01*
X152400000Y-78340806D01*
X152164760Y-78317637D01*
X151938559Y-78249019D01*
X151938557Y-78249018D01*
X151938554Y-78249017D01*
X151730091Y-78137592D01*
X151547367Y-77987634D01*
X151397408Y-77804910D01*
X151295240Y-77613766D01*
X151281626Y-77593391D01*
X151264299Y-77576064D01*
X151243925Y-77562450D01*
X151221286Y-77553073D01*
X151197252Y-77548292D01*
X151172748Y-77548292D01*
X151148715Y-77553072D01*
X151126076Y-77562450D01*
X151105701Y-77576064D01*
X151088374Y-77593391D01*
X151074760Y-77613765D01*
X151065383Y-77636404D01*
X151060602Y-77660438D01*
X151060000Y-77672690D01*
X151060000Y-78335000D01*
X148660000Y-78335000D01*
X148660000Y-75335000D01*
X151060000Y-75335000D01*
X151060000Y-75997311D01*
X151062402Y-76021697D01*
X151069515Y-76045146D01*
X151081066Y-76066757D01*
X151096612Y-76085699D01*
X151115554Y-76101245D01*
X151137165Y-76112796D01*
X151160614Y-76119909D01*
X151185000Y-76122311D01*
X151209386Y-76119909D01*
X151232835Y-76112796D01*
X151254446Y-76101245D01*
X151273388Y-76085699D01*
X151288934Y-76066757D01*
X151295240Y-76056235D01*
X151397406Y-75865095D01*
X151547364Y-75682369D01*
X151547366Y-75682366D01*
X151547368Y-75682365D01*
X151547369Y-75682363D01*
X151730090Y-75532408D01*
X151938553Y-75420983D01*
X151938556Y-75420982D01*
X151938558Y-75420981D01*
X152164759Y-75352363D01*
X152400000Y-75329194D01*
X152635240Y-75352363D01*
X152861441Y-75420981D01*
X152861443Y-75420982D01*
X152861446Y-75420983D01*
X153069905Y-75532406D01*
X153069908Y-75532408D01*
X153069909Y-75532409D01*
X153252634Y-75682366D01*
X153252635Y-75682368D01*
X153252637Y-75682369D01*
X153402592Y-75865090D01*
X153514018Y-76073554D01*
X153517702Y-76085699D01*
X153550384Y-76193435D01*
X153559760Y-76216071D01*
X153573374Y-76236445D01*
X153590701Y-76253772D01*
X153611075Y-76267386D01*
X153633714Y-76276764D01*
X153657748Y-76281544D01*
X153682252Y-76281544D01*
X153706285Y-76276764D01*
X153728925Y-76267386D01*
X153749299Y-76253772D01*
X153766626Y-76236445D01*
X153780240Y-76216071D01*
X153789617Y-76193432D01*
X153825980Y-76073559D01*
X153937406Y-75865095D01*
X154087364Y-75682369D01*
X154087366Y-75682366D01*
X154087368Y-75682365D01*
X154087369Y-75682363D01*
X154270090Y-75532408D01*
X154478553Y-75420983D01*
X154478556Y-75420982D01*
X154478558Y-75420981D01*
X154704759Y-75352363D01*
X154940000Y-75329194D01*
X155175240Y-75352363D01*
X155175240Y-75352363D01*
G37*
G36*
X129775240Y-75352363D02*
X130001441Y-75420981D01*
X130001443Y-75420982D01*
X130001446Y-75420983D01*
X130209905Y-75532406D01*
X130209908Y-75532408D01*
X130209909Y-75532409D01*
X130392634Y-75682366D01*
X130392635Y-75682368D01*
X130392637Y-75682369D01*
X130542592Y-75865090D01*
X130654017Y-76073553D01*
X130654017Y-76073554D01*
X130654019Y-76073558D01*
X130722637Y-76299759D01*
X130740000Y-76476050D01*
X130740000Y-77193949D01*
X130722637Y-77370240D01*
X130697250Y-77453929D01*
X130654018Y-77596446D01*
X130542592Y-77804910D01*
X130392634Y-77987634D01*
X130209910Y-78137592D01*
X130001447Y-78249017D01*
X130001444Y-78249018D01*
X130001442Y-78249019D01*
X129775241Y-78317637D01*
X129540000Y-78340806D01*
X129304760Y-78317637D01*
X129078559Y-78249019D01*
X129078557Y-78249018D01*
X129078554Y-78249017D01*
X128870091Y-78137592D01*
X128687367Y-77987634D01*
X128537408Y-77804910D01*
X128425982Y-77596446D01*
X128389618Y-77476569D01*
X128380240Y-77453929D01*
X128366626Y-77433555D01*
X128349299Y-77416228D01*
X128328925Y-77402614D01*
X128306286Y-77393236D01*
X128282252Y-77388456D01*
X128257748Y-77388456D01*
X128233715Y-77393236D01*
X128211075Y-77402614D01*
X128190701Y-77416228D01*
X128173374Y-77433555D01*
X128159760Y-77453929D01*
X128150382Y-77476569D01*
X128114018Y-77596446D01*
X128002592Y-77804910D01*
X127852634Y-77987634D01*
X127669910Y-78137592D01*
X127461447Y-78249017D01*
X127461444Y-78249018D01*
X127461442Y-78249019D01*
X127235241Y-78317637D01*
X127000000Y-78340806D01*
X126764760Y-78317637D01*
X126538559Y-78249019D01*
X126538557Y-78249018D01*
X126538554Y-78249017D01*
X126330091Y-78137592D01*
X126147367Y-77987634D01*
X125997408Y-77804910D01*
X125895240Y-77613766D01*
X125881626Y-77593391D01*
X125864299Y-77576064D01*
X125843925Y-77562450D01*
X125821286Y-77553073D01*
X125797252Y-77548292D01*
X125772748Y-77548292D01*
X125748715Y-77553072D01*
X125726076Y-77562450D01*
X125705701Y-77576064D01*
X125688374Y-77593391D01*
X125674760Y-77613765D01*
X125665383Y-77636404D01*
X125660602Y-77660438D01*
X125660000Y-77672690D01*
X125660000Y-78335000D01*
X123260000Y-78335000D01*
X123260000Y-75335000D01*
X125660000Y-75335000D01*
X125660000Y-75997311D01*
X125662402Y-76021697D01*
X125669515Y-76045146D01*
X125681066Y-76066757D01*
X125696612Y-76085699D01*
X125715554Y-76101245D01*
X125737165Y-76112796D01*
X125760614Y-76119909D01*
X125785000Y-76122311D01*
X125809386Y-76119909D01*
X125832835Y-76112796D01*
X125854446Y-76101245D01*
X125873388Y-76085699D01*
X125888934Y-76066757D01*
X125895240Y-76056235D01*
X125997406Y-75865095D01*
X126147364Y-75682369D01*
X126147366Y-75682366D01*
X126147368Y-75682365D01*
X126147369Y-75682363D01*
X126330090Y-75532408D01*
X126538553Y-75420983D01*
X126538556Y-75420982D01*
X126538558Y-75420981D01*
X126764759Y-75352363D01*
X127000000Y-75329194D01*
X127235240Y-75352363D01*
X127461441Y-75420981D01*
X127461443Y-75420982D01*
X127461446Y-75420983D01*
X127669905Y-75532406D01*
X127669908Y-75532408D01*
X127669909Y-75532409D01*
X127852634Y-75682366D01*
X127852635Y-75682368D01*
X127852637Y-75682369D01*
X128002592Y-75865090D01*
X128114018Y-76073554D01*
X128117702Y-76085699D01*
X128150384Y-76193435D01*
X128159760Y-76216071D01*
X128173374Y-76236445D01*
X128190701Y-76253772D01*
X128211075Y-76267386D01*
X128233714Y-76276764D01*
X128257748Y-76281544D01*
X128282252Y-76281544D01*
X128306285Y-76276764D01*
X128328925Y-76267386D01*
X128349299Y-76253772D01*
X128366626Y-76236445D01*
X128380240Y-76216071D01*
X128389617Y-76193432D01*
X128425980Y-76073559D01*
X128537406Y-75865095D01*
X128687364Y-75682369D01*
X128687366Y-75682366D01*
X128687368Y-75682365D01*
X128687369Y-75682363D01*
X128870090Y-75532408D01*
X129078553Y-75420983D01*
X129078556Y-75420982D01*
X129078558Y-75420981D01*
X129304759Y-75352363D01*
X129540000Y-75329194D01*
X129775240Y-75352363D01*
X129775240Y-75352363D01*
G37*
G36*
X122251629Y-61832793D02*
X122415834Y-61865455D01*
X122543973Y-61918532D01*
X122725189Y-61993594D01*
X123003607Y-62179627D01*
X123240373Y-62416393D01*
X123426406Y-62694811D01*
X123554545Y-63004167D01*
X123619870Y-63332576D01*
X123619870Y-63667424D01*
X123554545Y-63995833D01*
X123426406Y-64305189D01*
X123240373Y-64583607D01*
X123003607Y-64820373D01*
X122725189Y-65006406D01*
X122543973Y-65081468D01*
X122415834Y-65134545D01*
X122251629Y-65167207D01*
X122087424Y-65199870D01*
X121752576Y-65199870D01*
X121588371Y-65167207D01*
X121424166Y-65134545D01*
X121296027Y-65081468D01*
X121114811Y-65006406D01*
X120836393Y-64820373D01*
X120599627Y-64583607D01*
X120413594Y-64305189D01*
X120285455Y-63995833D01*
X120220130Y-63667424D01*
X120220130Y-63332576D01*
X120285455Y-63004167D01*
X120413594Y-62694811D01*
X120599627Y-62416393D01*
X120836393Y-62179627D01*
X121114811Y-61993594D01*
X121296027Y-61918532D01*
X121424166Y-61865455D01*
X121588371Y-61832793D01*
X121752576Y-61800130D01*
X122087424Y-61800130D01*
X122251629Y-61832793D01*
X122251629Y-61832793D01*
G37*
G36*
X127411629Y-61832793D02*
X127575834Y-61865455D01*
X127703973Y-61918532D01*
X127885189Y-61993594D01*
X128163607Y-62179627D01*
X128400373Y-62416393D01*
X128586406Y-62694811D01*
X128714545Y-63004167D01*
X128779870Y-63332576D01*
X128779870Y-63667424D01*
X128714545Y-63995833D01*
X128586406Y-64305189D01*
X128400373Y-64583607D01*
X128163607Y-64820373D01*
X127885189Y-65006406D01*
X127703973Y-65081468D01*
X127575834Y-65134545D01*
X127411629Y-65167207D01*
X127247424Y-65199870D01*
X126912576Y-65199870D01*
X126748371Y-65167207D01*
X126584166Y-65134545D01*
X126456027Y-65081468D01*
X126274811Y-65006406D01*
X125996393Y-64820373D01*
X125759627Y-64583607D01*
X125573594Y-64305189D01*
X125445455Y-63995833D01*
X125380130Y-63667424D01*
X125380130Y-63332576D01*
X125445455Y-63004167D01*
X125573594Y-62694811D01*
X125759627Y-62416393D01*
X125996393Y-62179627D01*
X126274811Y-61993594D01*
X126456027Y-61918532D01*
X126584166Y-61865455D01*
X126748371Y-61832793D01*
X126912576Y-61800130D01*
X127247424Y-61800130D01*
X127411629Y-61832793D01*
X127411629Y-61832793D01*
G37*
G36*
X140666629Y-61832793D02*
X140830834Y-61865455D01*
X140958973Y-61918532D01*
X141140189Y-61993594D01*
X141418607Y-62179627D01*
X141655373Y-62416393D01*
X141841406Y-62694811D01*
X141969545Y-63004167D01*
X142034870Y-63332576D01*
X142034870Y-63667424D01*
X141969545Y-63995833D01*
X141841406Y-64305189D01*
X141655373Y-64583607D01*
X141418607Y-64820373D01*
X141140189Y-65006406D01*
X140958973Y-65081468D01*
X140830834Y-65134545D01*
X140666629Y-65167207D01*
X140502424Y-65199870D01*
X140167576Y-65199870D01*
X140003371Y-65167207D01*
X139839166Y-65134545D01*
X139711027Y-65081468D01*
X139529811Y-65006406D01*
X139251393Y-64820373D01*
X139014627Y-64583607D01*
X138828594Y-64305189D01*
X138700455Y-63995833D01*
X138635130Y-63667424D01*
X138635130Y-63332576D01*
X138700455Y-63004167D01*
X138828594Y-62694811D01*
X139014627Y-62416393D01*
X139251393Y-62179627D01*
X139529811Y-61993594D01*
X139711027Y-61918532D01*
X139839166Y-61865455D01*
X140003371Y-61832793D01*
X140167576Y-61800130D01*
X140502424Y-61800130D01*
X140666629Y-61832793D01*
X140666629Y-61832793D01*
G37*
G36*
X145826629Y-61832793D02*
X145990834Y-61865455D01*
X146118973Y-61918532D01*
X146300189Y-61993594D01*
X146578607Y-62179627D01*
X146815373Y-62416393D01*
X147001406Y-62694811D01*
X147129545Y-63004167D01*
X147194870Y-63332576D01*
X147194870Y-63667424D01*
X147129545Y-63995833D01*
X147001406Y-64305189D01*
X146815373Y-64583607D01*
X146578607Y-64820373D01*
X146300189Y-65006406D01*
X146118973Y-65081468D01*
X145990834Y-65134545D01*
X145826629Y-65167207D01*
X145662424Y-65199870D01*
X145327576Y-65199870D01*
X145163371Y-65167207D01*
X144999166Y-65134545D01*
X144871027Y-65081468D01*
X144689811Y-65006406D01*
X144411393Y-64820373D01*
X144174627Y-64583607D01*
X143988594Y-64305189D01*
X143860455Y-63995833D01*
X143795130Y-63667424D01*
X143795130Y-63332576D01*
X143860455Y-63004167D01*
X143988594Y-62694811D01*
X144174627Y-62416393D01*
X144411393Y-62179627D01*
X144689811Y-61993594D01*
X144871027Y-61918532D01*
X144999166Y-61865455D01*
X145163371Y-61832793D01*
X145327576Y-61800130D01*
X145662424Y-61800130D01*
X145826629Y-61832793D01*
X145826629Y-61832793D01*
G37*
G36*
X112139196Y-60979958D02*
X112375780Y-61077954D01*
X112588705Y-61220226D01*
X112769774Y-61401295D01*
X112912046Y-61614220D01*
X113010042Y-61850804D01*
X113060000Y-62101960D01*
X113060000Y-62358040D01*
X113010042Y-62609196D01*
X112912046Y-62845780D01*
X112769774Y-63058705D01*
X112588705Y-63239774D01*
X112375780Y-63382046D01*
X112139196Y-63480042D01*
X111888040Y-63530000D01*
X111631960Y-63530000D01*
X111380804Y-63480042D01*
X111144220Y-63382046D01*
X110931295Y-63239774D01*
X110750226Y-63058705D01*
X110607954Y-62845780D01*
X110509958Y-62609196D01*
X110460000Y-62358040D01*
X110460000Y-62101960D01*
X110509958Y-61850804D01*
X110607954Y-61614220D01*
X110750226Y-61401295D01*
X110931295Y-61220226D01*
X111144220Y-61077954D01*
X111380804Y-60979958D01*
X111631960Y-60930000D01*
X111888040Y-60930000D01*
X112139196Y-60979958D01*
X112139196Y-60979958D01*
G37*
G36*
X156589196Y-60979958D02*
X156825780Y-61077954D01*
X157038705Y-61220226D01*
X157219774Y-61401295D01*
X157362046Y-61614220D01*
X157460042Y-61850804D01*
X157510000Y-62101960D01*
X157510000Y-62358040D01*
X157460042Y-62609196D01*
X157362046Y-62845780D01*
X157219774Y-63058705D01*
X157038705Y-63239774D01*
X156825780Y-63382046D01*
X156589196Y-63480042D01*
X156338040Y-63530000D01*
X156081960Y-63530000D01*
X155830804Y-63480042D01*
X155594220Y-63382046D01*
X155381295Y-63239774D01*
X155200226Y-63058705D01*
X155057954Y-62845780D01*
X154959958Y-62609196D01*
X154910000Y-62358040D01*
X154910000Y-62101960D01*
X154959958Y-61850804D01*
X155057954Y-61614220D01*
X155200226Y-61401295D01*
X155381295Y-61220226D01*
X155594220Y-61077954D01*
X155830804Y-60979958D01*
X156081960Y-60930000D01*
X156338040Y-60930000D01*
X156589196Y-60979958D01*
X156589196Y-60979958D01*
G37*
M02*
