M48
;DRILL file {KiCad (5.0.1)-4} date 11/27/2018 3:02:55 PM
;FORMAT={-:-/ absolute / inch / decimal}
FMAT,2
INCH,TZ
T1C0.0394
T2C0.0472
T3C0.0591
T4C0.0906
%
G90
G05
M72
T1
X4.46Y-3.68
X4.46Y-3.78
X5.15Y-3.95
X5.25Y-3.95
X5.3299Y-3.95
X5.4299Y-3.95
X5.775Y-4.075
X5.775Y-4.175
X6.1Y-3.5
X6.1Y-3.6
X6.1Y-3.7
X4.775Y-4.075
X4.775Y-4.175
X4.46Y-3.48
X4.46Y-3.58
X4.46Y-3.88
X5.925Y-4.075
X5.925Y-4.175
X4.625Y-4.075
X4.625Y-4.175
T2
X5.175Y-3.6
X5.275Y-3.6
X5.375Y-3.6
X4.9Y-3.225
X5.Y-3.225
X5.1Y-3.225
X4.9Y-3.025
X5.Y-3.025
X5.1Y-3.025
X5.9Y-3.025
X6.Y-3.025
X6.1Y-3.025
X4.45Y-3.225
X4.55Y-3.225
X4.65Y-3.225
X5.45Y-3.025
X5.55Y-3.025
X5.65Y-3.025
X5.9Y-3.225
X6.Y-3.225
X6.1Y-3.225
X4.45Y-3.025
X4.55Y-3.025
X4.65Y-3.025
X5.45Y-3.225
X5.55Y-3.225
X5.65Y-3.225
T3
X5.525Y-2.5
X5.7281Y-2.5
X4.8Y-2.5
X5.0031Y-2.5
T4
X5.0098Y-4.0551
X5.55Y-4.0551
T0
M30
