G04 #@! TF.GenerationSoftware,KiCad,Pcbnew,(5.0.1)-4*
G04 #@! TF.CreationDate,2018-11-29T15:58:35-07:00*
G04 #@! TF.ProjectId,robot,726F626F742E6B696361645F70636200,rev?*
G04 #@! TF.SameCoordinates,Original*
G04 #@! TF.FileFunction,Copper,L1,Top,Signal*
G04 #@! TF.FilePolarity,Positive*
%FSLAX46Y46*%
G04 Gerber Fmt 4.6, Leading zero omitted, Abs format (unit mm)*
G04 Created by KiCad (PCBNEW (5.0.1)-4) date 11/29/2018 3:58:35 PM*
%MOMM*%
%LPD*%
G01*
G04 APERTURE LIST*
G04 #@! TA.AperFunction,SMDPad,CuDef*
%ADD10R,2.000000X1.700000*%
G04 #@! TD*
G04 #@! TA.AperFunction,ComponentPad*
%ADD11R,2.000000X2.600000*%
G04 #@! TD*
G04 #@! TA.AperFunction,ComponentPad*
%ADD12O,2.000000X2.600000*%
G04 #@! TD*
G04 #@! TA.AperFunction,ComponentPad*
%ADD13R,1.700000X1.700000*%
G04 #@! TD*
G04 #@! TA.AperFunction,ComponentPad*
%ADD14O,1.700000X1.700000*%
G04 #@! TD*
G04 #@! TA.AperFunction,ComponentPad*
%ADD15C,2.999740*%
G04 #@! TD*
G04 #@! TA.AperFunction,ComponentPad*
%ADD16C,1.500000*%
G04 #@! TD*
G04 #@! TA.AperFunction,ComponentPad*
%ADD17C,3.000000*%
G04 #@! TD*
G04 #@! TA.AperFunction,ComponentPad*
%ADD18R,1.500000X1.500000*%
G04 #@! TD*
G04 #@! TA.AperFunction,Conductor*
%ADD19C,0.250000*%
G04 #@! TD*
G04 #@! TA.AperFunction,Conductor*
%ADD20C,2.000000*%
G04 #@! TD*
G04 #@! TA.AperFunction,Conductor*
%ADD21C,0.254000*%
G04 #@! TD*
G04 APERTURE END LIST*
D10*
G04 #@! TO.P,D1,1*
G04 #@! TO.N,Net-(D1-Pad1)*
X125285000Y-95885000D03*
G04 #@! TO.P,D1,2*
G04 #@! TO.N,Net-(D1-Pad2)*
X121285000Y-95885000D03*
G04 #@! TD*
D11*
G04 #@! TO.P,J1,1*
G04 #@! TO.N,DATA*
X113030000Y-76835000D03*
D12*
G04 #@! TO.P,J1,2*
G04 #@! TO.N,Net-(D1-Pad2)*
X115570000Y-76835000D03*
G04 #@! TO.P,J1,3*
G04 #@! TO.N,GND*
X118110000Y-76835000D03*
G04 #@! TD*
D13*
G04 #@! TO.P,J3,1*
G04 #@! TO.N,DATA*
X154940000Y-88900000D03*
D14*
G04 #@! TO.P,J3,2*
G04 #@! TO.N,Net-(J12-Pad2)*
X154940000Y-91440000D03*
G04 #@! TO.P,J3,3*
G04 #@! TO.N,GND*
X154940000Y-93980000D03*
G04 #@! TD*
D11*
G04 #@! TO.P,J8,1*
G04 #@! TO.N,DATA*
X124460000Y-76835000D03*
D12*
G04 #@! TO.P,J8,2*
G04 #@! TO.N,Net-(D1-Pad2)*
X127000000Y-76835000D03*
G04 #@! TO.P,J8,3*
G04 #@! TO.N,GND*
X129540000Y-76835000D03*
G04 #@! TD*
D11*
G04 #@! TO.P,J10,1*
G04 #@! TO.N,DATA*
X113030000Y-81915000D03*
D12*
G04 #@! TO.P,J10,2*
G04 #@! TO.N,Net-(D1-Pad2)*
X115570000Y-81915000D03*
G04 #@! TO.P,J10,3*
G04 #@! TO.N,GND*
X118110000Y-81915000D03*
G04 #@! TD*
D11*
G04 #@! TO.P,J11,1*
G04 #@! TO.N,DATA*
X124460000Y-81915000D03*
D12*
G04 #@! TO.P,J11,2*
G04 #@! TO.N,Net-(D1-Pad2)*
X127000000Y-81915000D03*
G04 #@! TO.P,J11,3*
G04 #@! TO.N,GND*
X129540000Y-81915000D03*
G04 #@! TD*
D10*
G04 #@! TO.P,R1,1*
G04 #@! TO.N,Net-(D1-Pad1)*
X121285000Y-91440000D03*
G04 #@! TO.P,R1,2*
G04 #@! TO.N,GND*
X125285000Y-91440000D03*
G04 #@! TD*
D11*
G04 #@! TO.P,J12,1*
G04 #@! TO.N,DATA*
X149860000Y-81915000D03*
D12*
G04 #@! TO.P,J12,2*
G04 #@! TO.N,Net-(J12-Pad2)*
X152400000Y-81915000D03*
G04 #@! TO.P,J12,3*
G04 #@! TO.N,GND*
X154940000Y-81915000D03*
G04 #@! TD*
D11*
G04 #@! TO.P,J13,1*
G04 #@! TO.N,DATA*
X138430000Y-81915000D03*
D12*
G04 #@! TO.P,J13,2*
G04 #@! TO.N,Net-(J12-Pad2)*
X140970000Y-81915000D03*
G04 #@! TO.P,J13,3*
G04 #@! TO.N,GND*
X143510000Y-81915000D03*
G04 #@! TD*
D11*
G04 #@! TO.P,J14,1*
G04 #@! TO.N,DATA*
X149860000Y-76835000D03*
D12*
G04 #@! TO.P,J14,2*
G04 #@! TO.N,Net-(J12-Pad2)*
X152400000Y-76835000D03*
G04 #@! TO.P,J14,3*
G04 #@! TO.N,GND*
X154940000Y-76835000D03*
G04 #@! TD*
D11*
G04 #@! TO.P,J15,1*
G04 #@! TO.N,DATA*
X138430000Y-76835000D03*
D12*
G04 #@! TO.P,J15,2*
G04 #@! TO.N,Net-(J12-Pad2)*
X140970000Y-76835000D03*
G04 #@! TO.P,J15,3*
G04 #@! TO.N,GND*
X143510000Y-76835000D03*
G04 #@! TD*
D11*
G04 #@! TO.P,J2,1*
G04 #@! TO.N,DATA*
X136525000Y-91440000D03*
D12*
G04 #@! TO.P,J2,2*
G04 #@! TO.N,+5V*
X133985000Y-91440000D03*
G04 #@! TO.P,J2,3*
G04 #@! TO.N,GND*
X131445000Y-91440000D03*
G04 #@! TD*
D14*
G04 #@! TO.P,J6,5*
G04 #@! TO.N,+5V*
X113284000Y-98552000D03*
G04 #@! TO.P,J6,4*
G04 #@! TO.N,GND*
X113284000Y-96012000D03*
G04 #@! TO.P,J6,3*
X113284000Y-93472000D03*
G04 #@! TO.P,J6,2*
G04 #@! TO.N,Net-(D1-Pad2)*
X113284000Y-90932000D03*
D13*
G04 #@! TO.P,J6,1*
G04 #@! TO.N,N/C*
X113284000Y-88392000D03*
G04 #@! TD*
D15*
G04 #@! TO.P,J4,1*
G04 #@! TO.N,GND*
X121920000Y-63500000D03*
G04 #@! TO.P,J4,2*
G04 #@! TO.N,Net-(D1-Pad2)*
X127080000Y-63500000D03*
G04 #@! TD*
G04 #@! TO.P,J7,2*
G04 #@! TO.N,Net-(J12-Pad2)*
X140335000Y-63500000D03*
G04 #@! TO.P,J7,1*
G04 #@! TO.N,GND*
X145495000Y-63500000D03*
G04 #@! TD*
D13*
G04 #@! TO.P,J9,1*
G04 #@! TO.N,+5V*
X121285000Y-103505000D03*
D14*
G04 #@! TO.P,J9,2*
G04 #@! TO.N,GND*
X121285000Y-106045000D03*
G04 #@! TD*
G04 #@! TO.P,J16,2*
G04 #@! TO.N,GND*
X117475000Y-106045000D03*
D13*
G04 #@! TO.P,J16,1*
G04 #@! TO.N,+5V*
X117475000Y-103505000D03*
G04 #@! TD*
G04 #@! TO.P,J17,1*
G04 #@! TO.N,Net-(J12-Pad2)*
X150495000Y-103505000D03*
D14*
G04 #@! TO.P,J17,2*
G04 #@! TO.N,GND*
X150495000Y-106045000D03*
G04 #@! TD*
G04 #@! TO.P,J18,2*
G04 #@! TO.N,GND*
X146685000Y-106045000D03*
D13*
G04 #@! TO.P,J18,1*
G04 #@! TO.N,Net-(J12-Pad2)*
X146685000Y-103505000D03*
G04 #@! TD*
D16*
G04 #@! TO.P,J5,8*
G04 #@! TO.N,GND*
X137810000Y-102950000D03*
G04 #@! TO.P,J5,7*
G04 #@! TO.N,N/C*
X135310000Y-102950000D03*
G04 #@! TO.P,J5,6*
X133310000Y-102950000D03*
G04 #@! TO.P,J5,5*
G04 #@! TO.N,+5V*
X130810000Y-102950000D03*
D17*
G04 #@! TO.P,J5,9*
G04 #@! TO.N,GND*
X140880000Y-105660000D03*
X127740000Y-105660000D03*
D16*
G04 #@! TO.P,J5,4*
X137810000Y-100330000D03*
G04 #@! TO.P,J5,3*
G04 #@! TO.N,N/C*
X135310000Y-100330000D03*
G04 #@! TO.P,J5,2*
X133310000Y-100330000D03*
D18*
G04 #@! TO.P,J5,1*
G04 #@! TO.N,+5V*
X130810000Y-100330000D03*
D17*
G04 #@! TO.P,J5,9*
G04 #@! TO.N,GND*
X127740000Y-99980000D03*
X140880000Y-99980000D03*
G04 #@! TD*
D19*
G04 #@! TO.N,Net-(D1-Pad1)*
X121285000Y-92540000D02*
X122090000Y-93345000D01*
X121285000Y-91440000D02*
X121285000Y-92540000D01*
X122090000Y-93345000D02*
X124460000Y-93345000D01*
X125285000Y-94170000D02*
X125285000Y-95885000D01*
X124460000Y-93345000D02*
X125285000Y-94170000D01*
D20*
G04 #@! TO.N,Net-(J12-Pad2)*
X152400000Y-85215000D02*
X151130000Y-86485000D01*
X152400000Y-81915000D02*
X152400000Y-85215000D01*
X151130000Y-86485000D02*
X151130000Y-90805000D01*
X151765000Y-91440000D02*
X154940000Y-91440000D01*
X151130000Y-90805000D02*
X151765000Y-91440000D01*
X146685000Y-103505000D02*
X150495000Y-103505000D01*
X150495000Y-92710000D02*
X151765000Y-91440000D01*
X150495000Y-103505000D02*
X150495000Y-92710000D01*
X140970000Y-76835000D02*
X140970000Y-81915000D01*
X140335000Y-63500000D02*
X140335000Y-71120000D01*
X140970000Y-71755000D02*
X140970000Y-76835000D01*
X140335000Y-71120000D02*
X140970000Y-71755000D01*
X141834869Y-64999869D02*
X141834869Y-67539869D01*
X140335000Y-63500000D02*
X141834869Y-64999869D01*
X141834869Y-67539869D02*
X145415000Y-71120000D01*
X145415000Y-71120000D02*
X151130000Y-71120000D01*
X152400000Y-72390000D02*
X152400000Y-76835000D01*
X151130000Y-71120000D02*
X152400000Y-72390000D01*
X152400000Y-76835000D02*
X152400000Y-81915000D01*
G04 #@! TO.N,Net-(D1-Pad2)*
X116713000Y-90932000D02*
X113284000Y-90932000D01*
X120015000Y-87630000D02*
X116713000Y-90932000D01*
X128579869Y-64999869D02*
X128579869Y-65079869D01*
X127080000Y-63500000D02*
X128579869Y-64999869D01*
X128579869Y-65079869D02*
X133985000Y-70485000D01*
X133985000Y-70485000D02*
X133985000Y-84455000D01*
X133985000Y-84455000D02*
X130810000Y-87630000D01*
X130810000Y-87630000D02*
X120015000Y-87630000D01*
D19*
X121285000Y-94785000D02*
X121285000Y-95885000D01*
X117432000Y-90932000D02*
X121285000Y-94785000D01*
X113284000Y-90932000D02*
X117432000Y-90932000D01*
D20*
X127080000Y-76755000D02*
X127000000Y-76835000D01*
X127080000Y-63500000D02*
X127080000Y-76755000D01*
X127000000Y-76835000D02*
X127000000Y-81915000D01*
X115570000Y-73535000D02*
X115570000Y-76835000D01*
X117350000Y-71755000D02*
X115570000Y-73535000D01*
X123190000Y-71755000D02*
X117350000Y-71755000D01*
X127080000Y-67865000D02*
X123190000Y-71755000D01*
X127080000Y-63500000D02*
X127080000Y-67865000D01*
X115570000Y-76835000D02*
X115570000Y-81915000D01*
G04 #@! TD*
D21*
G04 #@! TO.N,GND*
G36*
X158040000Y-61957269D02*
X157808026Y-61397234D01*
X157277767Y-60866975D01*
X156584950Y-60580001D01*
X155835050Y-60580001D01*
X155142233Y-60866975D01*
X154611974Y-61397234D01*
X154325000Y-62090051D01*
X154325000Y-62839951D01*
X154611974Y-63532768D01*
X155142233Y-64063027D01*
X155835050Y-64350001D01*
X156584950Y-64350001D01*
X157277767Y-64063027D01*
X157808026Y-63532768D01*
X158040000Y-62972733D01*
X158040001Y-98990074D01*
X158040000Y-106172268D01*
X157808026Y-105612233D01*
X157277767Y-105081974D01*
X156584950Y-104795000D01*
X155835050Y-104795000D01*
X155142233Y-105081974D01*
X154611974Y-105612233D01*
X154325000Y-106305050D01*
X154325000Y-107054950D01*
X154611974Y-107747767D01*
X155142233Y-108278026D01*
X155702268Y-108510000D01*
X112267732Y-108510000D01*
X112827767Y-108278026D01*
X113358026Y-107747767D01*
X113645000Y-107054950D01*
X113645000Y-106401890D01*
X116033524Y-106401890D01*
X116203355Y-106811924D01*
X116593642Y-107240183D01*
X117118108Y-107486486D01*
X117348000Y-107365819D01*
X117348000Y-106172000D01*
X117602000Y-106172000D01*
X117602000Y-107365819D01*
X117831892Y-107486486D01*
X118356358Y-107240183D01*
X118746645Y-106811924D01*
X118916476Y-106401890D01*
X119843524Y-106401890D01*
X120013355Y-106811924D01*
X120403642Y-107240183D01*
X120928108Y-107486486D01*
X121158000Y-107365819D01*
X121158000Y-106172000D01*
X121412000Y-106172000D01*
X121412000Y-107365819D01*
X121641892Y-107486486D01*
X122166358Y-107240183D01*
X122226700Y-107173970D01*
X126405635Y-107173970D01*
X126565418Y-107492739D01*
X127356187Y-107802723D01*
X128205387Y-107786497D01*
X128914582Y-107492739D01*
X129074365Y-107173970D01*
X139545635Y-107173970D01*
X139705418Y-107492739D01*
X140496187Y-107802723D01*
X141345387Y-107786497D01*
X142054582Y-107492739D01*
X142214365Y-107173970D01*
X140880000Y-105839605D01*
X139545635Y-107173970D01*
X129074365Y-107173970D01*
X127740000Y-105839605D01*
X126405635Y-107173970D01*
X122226700Y-107173970D01*
X122556645Y-106811924D01*
X122726476Y-106401890D01*
X122605155Y-106172000D01*
X121412000Y-106172000D01*
X121158000Y-106172000D01*
X119964845Y-106172000D01*
X119843524Y-106401890D01*
X118916476Y-106401890D01*
X118795155Y-106172000D01*
X117602000Y-106172000D01*
X117348000Y-106172000D01*
X116154845Y-106172000D01*
X116033524Y-106401890D01*
X113645000Y-106401890D01*
X113645000Y-106305050D01*
X113358026Y-105612233D01*
X112827767Y-105081974D01*
X112134950Y-104795000D01*
X111385050Y-104795000D01*
X110692233Y-105081974D01*
X110161974Y-105612233D01*
X109930000Y-106172268D01*
X109930000Y-102655000D01*
X115977560Y-102655000D01*
X115977560Y-104355000D01*
X116026843Y-104602765D01*
X116167191Y-104812809D01*
X116377235Y-104953157D01*
X116480708Y-104973739D01*
X116203355Y-105278076D01*
X116033524Y-105688110D01*
X116154845Y-105918000D01*
X117348000Y-105918000D01*
X117348000Y-105898000D01*
X117602000Y-105898000D01*
X117602000Y-105918000D01*
X118795155Y-105918000D01*
X118916476Y-105688110D01*
X118746645Y-105278076D01*
X118469292Y-104973739D01*
X118572765Y-104953157D01*
X118782809Y-104812809D01*
X118923157Y-104602765D01*
X118972440Y-104355000D01*
X118972440Y-102655000D01*
X119787560Y-102655000D01*
X119787560Y-104355000D01*
X119836843Y-104602765D01*
X119977191Y-104812809D01*
X120187235Y-104953157D01*
X120290708Y-104973739D01*
X120013355Y-105278076D01*
X119843524Y-105688110D01*
X119964845Y-105918000D01*
X121158000Y-105918000D01*
X121158000Y-105898000D01*
X121412000Y-105898000D01*
X121412000Y-105918000D01*
X122605155Y-105918000D01*
X122726476Y-105688110D01*
X122556645Y-105278076D01*
X122554924Y-105276187D01*
X125597277Y-105276187D01*
X125613503Y-106125387D01*
X125907261Y-106834582D01*
X126226030Y-106994365D01*
X127560395Y-105660000D01*
X127919605Y-105660000D01*
X129253970Y-106994365D01*
X129572739Y-106834582D01*
X129882723Y-106043813D01*
X129868056Y-105276187D01*
X138737277Y-105276187D01*
X138753503Y-106125387D01*
X139047261Y-106834582D01*
X139366030Y-106994365D01*
X140700395Y-105660000D01*
X141059605Y-105660000D01*
X142393970Y-106994365D01*
X142712739Y-106834582D01*
X142882355Y-106401890D01*
X145243524Y-106401890D01*
X145413355Y-106811924D01*
X145803642Y-107240183D01*
X146328108Y-107486486D01*
X146558000Y-107365819D01*
X146558000Y-106172000D01*
X146812000Y-106172000D01*
X146812000Y-107365819D01*
X147041892Y-107486486D01*
X147566358Y-107240183D01*
X147956645Y-106811924D01*
X148126476Y-106401890D01*
X149053524Y-106401890D01*
X149223355Y-106811924D01*
X149613642Y-107240183D01*
X150138108Y-107486486D01*
X150368000Y-107365819D01*
X150368000Y-106172000D01*
X150622000Y-106172000D01*
X150622000Y-107365819D01*
X150851892Y-107486486D01*
X151376358Y-107240183D01*
X151766645Y-106811924D01*
X151936476Y-106401890D01*
X151815155Y-106172000D01*
X150622000Y-106172000D01*
X150368000Y-106172000D01*
X149174845Y-106172000D01*
X149053524Y-106401890D01*
X148126476Y-106401890D01*
X148005155Y-106172000D01*
X146812000Y-106172000D01*
X146558000Y-106172000D01*
X145364845Y-106172000D01*
X145243524Y-106401890D01*
X142882355Y-106401890D01*
X143022723Y-106043813D01*
X143006497Y-105194613D01*
X142712739Y-104485418D01*
X142393970Y-104325635D01*
X141059605Y-105660000D01*
X140700395Y-105660000D01*
X139366030Y-104325635D01*
X139047261Y-104485418D01*
X138737277Y-105276187D01*
X129868056Y-105276187D01*
X129866497Y-105194613D01*
X129572739Y-104485418D01*
X129253970Y-104325635D01*
X127919605Y-105660000D01*
X127560395Y-105660000D01*
X126226030Y-104325635D01*
X125907261Y-104485418D01*
X125597277Y-105276187D01*
X122554924Y-105276187D01*
X122279292Y-104973739D01*
X122382765Y-104953157D01*
X122592809Y-104812809D01*
X122733157Y-104602765D01*
X122782440Y-104355000D01*
X122782440Y-104146030D01*
X126405635Y-104146030D01*
X127740000Y-105480395D01*
X129074365Y-104146030D01*
X128914582Y-103827261D01*
X128123813Y-103517277D01*
X127274613Y-103533503D01*
X126565418Y-103827261D01*
X126405635Y-104146030D01*
X122782440Y-104146030D01*
X122782440Y-102655000D01*
X122733157Y-102407235D01*
X122592809Y-102197191D01*
X122382765Y-102056843D01*
X122135000Y-102007560D01*
X120435000Y-102007560D01*
X120187235Y-102056843D01*
X119977191Y-102197191D01*
X119836843Y-102407235D01*
X119787560Y-102655000D01*
X118972440Y-102655000D01*
X118923157Y-102407235D01*
X118782809Y-102197191D01*
X118572765Y-102056843D01*
X118325000Y-102007560D01*
X116625000Y-102007560D01*
X116377235Y-102056843D01*
X116167191Y-102197191D01*
X116026843Y-102407235D01*
X115977560Y-102655000D01*
X109930000Y-102655000D01*
X109930000Y-101493970D01*
X126405635Y-101493970D01*
X126565418Y-101812739D01*
X127356187Y-102122723D01*
X128205387Y-102106497D01*
X128914582Y-101812739D01*
X129074365Y-101493970D01*
X127740000Y-100159605D01*
X126405635Y-101493970D01*
X109930000Y-101493970D01*
X109930000Y-98552000D01*
X111769908Y-98552000D01*
X111885161Y-99131418D01*
X112213375Y-99622625D01*
X112704582Y-99950839D01*
X113137744Y-100037000D01*
X113430256Y-100037000D01*
X113863418Y-99950839D01*
X114354625Y-99622625D01*
X114372290Y-99596187D01*
X125597277Y-99596187D01*
X125613503Y-100445387D01*
X125907261Y-101154582D01*
X126226030Y-101314365D01*
X127560395Y-99980000D01*
X127919605Y-99980000D01*
X129253970Y-101314365D01*
X129440573Y-101220830D01*
X129461843Y-101327765D01*
X129602191Y-101537809D01*
X129812235Y-101678157D01*
X130060000Y-101727440D01*
X130142340Y-101727440D01*
X130025460Y-101775853D01*
X129635853Y-102165460D01*
X129425000Y-102674506D01*
X129425000Y-103225494D01*
X129635853Y-103734540D01*
X130025460Y-104124147D01*
X130534506Y-104335000D01*
X131085494Y-104335000D01*
X131594540Y-104124147D01*
X131984147Y-103734540D01*
X132060000Y-103551414D01*
X132135853Y-103734540D01*
X132525460Y-104124147D01*
X133034506Y-104335000D01*
X133585494Y-104335000D01*
X134094540Y-104124147D01*
X134310000Y-103908687D01*
X134525460Y-104124147D01*
X135034506Y-104335000D01*
X135585494Y-104335000D01*
X136094540Y-104124147D01*
X136297170Y-103921517D01*
X137018088Y-103921517D01*
X137086077Y-104162460D01*
X137605171Y-104347201D01*
X138155448Y-104319230D01*
X138533923Y-104162460D01*
X138538559Y-104146030D01*
X139545635Y-104146030D01*
X140880000Y-105480395D01*
X142214365Y-104146030D01*
X142054582Y-103827261D01*
X141263813Y-103517277D01*
X140414613Y-103533503D01*
X139705418Y-103827261D01*
X139545635Y-104146030D01*
X138538559Y-104146030D01*
X138601912Y-103921517D01*
X137810000Y-103129605D01*
X137018088Y-103921517D01*
X136297170Y-103921517D01*
X136484147Y-103734540D01*
X136553397Y-103567354D01*
X136597540Y-103673923D01*
X136838483Y-103741912D01*
X137630395Y-102950000D01*
X137989605Y-102950000D01*
X138781517Y-103741912D01*
X139022460Y-103673923D01*
X139207201Y-103154829D01*
X139179230Y-102604552D01*
X139022460Y-102226077D01*
X138781517Y-102158088D01*
X137989605Y-102950000D01*
X137630395Y-102950000D01*
X136838483Y-102158088D01*
X136597540Y-102226077D01*
X136556741Y-102340717D01*
X136484147Y-102165460D01*
X136094540Y-101775853D01*
X135766561Y-101640000D01*
X136094540Y-101504147D01*
X136297170Y-101301517D01*
X137018088Y-101301517D01*
X137086077Y-101542460D01*
X137339393Y-101632613D01*
X137086077Y-101737540D01*
X137018088Y-101978483D01*
X137810000Y-102770395D01*
X138601912Y-101978483D01*
X138533923Y-101737540D01*
X138280607Y-101647387D01*
X138533923Y-101542460D01*
X138547605Y-101493970D01*
X139545635Y-101493970D01*
X139705418Y-101812739D01*
X140496187Y-102122723D01*
X141345387Y-102106497D01*
X142054582Y-101812739D01*
X142214365Y-101493970D01*
X140880000Y-100159605D01*
X139545635Y-101493970D01*
X138547605Y-101493970D01*
X138601912Y-101301517D01*
X137810000Y-100509605D01*
X137018088Y-101301517D01*
X136297170Y-101301517D01*
X136484147Y-101114540D01*
X136553397Y-100947354D01*
X136597540Y-101053923D01*
X136838483Y-101121912D01*
X137630395Y-100330000D01*
X137989605Y-100330000D01*
X138781517Y-101121912D01*
X139007335Y-101058191D01*
X139047261Y-101154582D01*
X139366030Y-101314365D01*
X140700395Y-99980000D01*
X141059605Y-99980000D01*
X142393970Y-101314365D01*
X142712739Y-101154582D01*
X143022723Y-100363813D01*
X143006497Y-99514613D01*
X142712739Y-98805418D01*
X142393970Y-98645635D01*
X141059605Y-99980000D01*
X140700395Y-99980000D01*
X139366030Y-98645635D01*
X139047261Y-98805418D01*
X138746213Y-99573392D01*
X137989605Y-100330000D01*
X137630395Y-100330000D01*
X136838483Y-99538088D01*
X136597540Y-99606077D01*
X136556741Y-99720717D01*
X136484147Y-99545460D01*
X136297170Y-99358483D01*
X137018088Y-99358483D01*
X137810000Y-100150395D01*
X138601912Y-99358483D01*
X138533923Y-99117540D01*
X138014829Y-98932799D01*
X137464552Y-98960770D01*
X137086077Y-99117540D01*
X137018088Y-99358483D01*
X136297170Y-99358483D01*
X136094540Y-99155853D01*
X135585494Y-98945000D01*
X135034506Y-98945000D01*
X134525460Y-99155853D01*
X134310000Y-99371313D01*
X134094540Y-99155853D01*
X133585494Y-98945000D01*
X133034506Y-98945000D01*
X132525460Y-99155853D01*
X132189833Y-99491480D01*
X132158157Y-99332235D01*
X132017809Y-99122191D01*
X131807765Y-98981843D01*
X131560000Y-98932560D01*
X130060000Y-98932560D01*
X129812235Y-98981843D01*
X129681892Y-99068936D01*
X129572739Y-98805418D01*
X129253970Y-98645635D01*
X127919605Y-99980000D01*
X127560395Y-99980000D01*
X126226030Y-98645635D01*
X125907261Y-98805418D01*
X125597277Y-99596187D01*
X114372290Y-99596187D01*
X114682839Y-99131418D01*
X114798092Y-98552000D01*
X114780992Y-98466030D01*
X126405635Y-98466030D01*
X127740000Y-99800395D01*
X129074365Y-98466030D01*
X139545635Y-98466030D01*
X140880000Y-99800395D01*
X142214365Y-98466030D01*
X142054582Y-98147261D01*
X141263813Y-97837277D01*
X140414613Y-97853503D01*
X139705418Y-98147261D01*
X139545635Y-98466030D01*
X129074365Y-98466030D01*
X128914582Y-98147261D01*
X128123813Y-97837277D01*
X127274613Y-97853503D01*
X126565418Y-98147261D01*
X126405635Y-98466030D01*
X114780992Y-98466030D01*
X114682839Y-97972582D01*
X114354625Y-97481375D01*
X114035522Y-97268157D01*
X114165358Y-97207183D01*
X114555645Y-96778924D01*
X114725476Y-96368890D01*
X114604155Y-96139000D01*
X113411000Y-96139000D01*
X113411000Y-96159000D01*
X113157000Y-96159000D01*
X113157000Y-96139000D01*
X111963845Y-96139000D01*
X111842524Y-96368890D01*
X112012355Y-96778924D01*
X112402642Y-97207183D01*
X112532478Y-97268157D01*
X112213375Y-97481375D01*
X111885161Y-97972582D01*
X111769908Y-98552000D01*
X109930000Y-98552000D01*
X109930000Y-93828890D01*
X111842524Y-93828890D01*
X112012355Y-94238924D01*
X112402642Y-94667183D01*
X112561954Y-94742000D01*
X112402642Y-94816817D01*
X112012355Y-95245076D01*
X111842524Y-95655110D01*
X111963845Y-95885000D01*
X113157000Y-95885000D01*
X113157000Y-93599000D01*
X113411000Y-93599000D01*
X113411000Y-95885000D01*
X114604155Y-95885000D01*
X114725476Y-95655110D01*
X114555645Y-95245076D01*
X114165358Y-94816817D01*
X114006046Y-94742000D01*
X114165358Y-94667183D01*
X114555645Y-94238924D01*
X114725476Y-93828890D01*
X114604155Y-93599000D01*
X113411000Y-93599000D01*
X113157000Y-93599000D01*
X111963845Y-93599000D01*
X111842524Y-93828890D01*
X109930000Y-93828890D01*
X109930000Y-75535000D01*
X111382560Y-75535000D01*
X111382560Y-78135000D01*
X111431843Y-78382765D01*
X111572191Y-78592809D01*
X111782235Y-78733157D01*
X112030000Y-78782440D01*
X113935000Y-78782440D01*
X113935001Y-79967560D01*
X112030000Y-79967560D01*
X111782235Y-80016843D01*
X111572191Y-80157191D01*
X111431843Y-80367235D01*
X111382560Y-80615000D01*
X111382560Y-83215000D01*
X111431843Y-83462765D01*
X111572191Y-83672809D01*
X111782235Y-83813157D01*
X112030000Y-83862440D01*
X114030000Y-83862440D01*
X114277765Y-83813157D01*
X114487809Y-83672809D01*
X114586900Y-83524510D01*
X114932056Y-83755136D01*
X115570000Y-83882031D01*
X116207945Y-83755136D01*
X116748769Y-83393769D01*
X116859952Y-83227371D01*
X117043683Y-83460922D01*
X117601645Y-83774144D01*
X117729566Y-83805124D01*
X117983000Y-83685777D01*
X117983000Y-82042000D01*
X118237000Y-82042000D01*
X118237000Y-83685777D01*
X118490434Y-83805124D01*
X118618355Y-83774144D01*
X119176317Y-83460922D01*
X119571942Y-82958020D01*
X119745000Y-82342000D01*
X119745000Y-82042000D01*
X118237000Y-82042000D01*
X117983000Y-82042000D01*
X117963000Y-82042000D01*
X117963000Y-81788000D01*
X117983000Y-81788000D01*
X117983000Y-80144223D01*
X118237000Y-80144223D01*
X118237000Y-81788000D01*
X119745000Y-81788000D01*
X119745000Y-81488000D01*
X119571942Y-80871980D01*
X119176317Y-80369078D01*
X118618355Y-80055856D01*
X118490434Y-80024876D01*
X118237000Y-80144223D01*
X117983000Y-80144223D01*
X117729566Y-80024876D01*
X117601645Y-80055856D01*
X117205000Y-80278520D01*
X117205000Y-78471480D01*
X117601645Y-78694144D01*
X117729566Y-78725124D01*
X117983000Y-78605777D01*
X117983000Y-76962000D01*
X118237000Y-76962000D01*
X118237000Y-78605777D01*
X118490434Y-78725124D01*
X118618355Y-78694144D01*
X119176317Y-78380922D01*
X119571942Y-77878020D01*
X119745000Y-77262000D01*
X119745000Y-76962000D01*
X118237000Y-76962000D01*
X117983000Y-76962000D01*
X117963000Y-76962000D01*
X117963000Y-76708000D01*
X117983000Y-76708000D01*
X117983000Y-75064223D01*
X118237000Y-75064223D01*
X118237000Y-76708000D01*
X119745000Y-76708000D01*
X119745000Y-76408000D01*
X119571942Y-75791980D01*
X119176317Y-75289078D01*
X118618355Y-74975856D01*
X118490434Y-74944876D01*
X118237000Y-75064223D01*
X117983000Y-75064223D01*
X117729566Y-74944876D01*
X117601645Y-74975856D01*
X117205000Y-75198520D01*
X117205000Y-74212238D01*
X118027239Y-73390000D01*
X123028970Y-73390000D01*
X123190000Y-73422031D01*
X123351030Y-73390000D01*
X123351031Y-73390000D01*
X123827945Y-73295136D01*
X124368769Y-72933769D01*
X124459988Y-72797250D01*
X125445001Y-71812238D01*
X125445001Y-74887560D01*
X123460000Y-74887560D01*
X123212235Y-74936843D01*
X123002191Y-75077191D01*
X122861843Y-75287235D01*
X122812560Y-75535000D01*
X122812560Y-78135000D01*
X122861843Y-78382765D01*
X123002191Y-78592809D01*
X123212235Y-78733157D01*
X123460000Y-78782440D01*
X125365000Y-78782440D01*
X125365001Y-79967560D01*
X123460000Y-79967560D01*
X123212235Y-80016843D01*
X123002191Y-80157191D01*
X122861843Y-80367235D01*
X122812560Y-80615000D01*
X122812560Y-83215000D01*
X122861843Y-83462765D01*
X123002191Y-83672809D01*
X123212235Y-83813157D01*
X123460000Y-83862440D01*
X125460000Y-83862440D01*
X125707765Y-83813157D01*
X125917809Y-83672809D01*
X126016900Y-83524510D01*
X126362056Y-83755136D01*
X127000000Y-83882031D01*
X127637945Y-83755136D01*
X128178769Y-83393769D01*
X128289952Y-83227371D01*
X128473683Y-83460922D01*
X129031645Y-83774144D01*
X129159566Y-83805124D01*
X129413000Y-83685777D01*
X129413000Y-82042000D01*
X129667000Y-82042000D01*
X129667000Y-83685777D01*
X129920434Y-83805124D01*
X130048355Y-83774144D01*
X130606317Y-83460922D01*
X131001942Y-82958020D01*
X131175000Y-82342000D01*
X131175000Y-82042000D01*
X129667000Y-82042000D01*
X129413000Y-82042000D01*
X129393000Y-82042000D01*
X129393000Y-81788000D01*
X129413000Y-81788000D01*
X129413000Y-80144223D01*
X129667000Y-80144223D01*
X129667000Y-81788000D01*
X131175000Y-81788000D01*
X131175000Y-81488000D01*
X131001942Y-80871980D01*
X130606317Y-80369078D01*
X130048355Y-80055856D01*
X129920434Y-80024876D01*
X129667000Y-80144223D01*
X129413000Y-80144223D01*
X129159566Y-80024876D01*
X129031645Y-80055856D01*
X128635000Y-80278520D01*
X128635000Y-78471480D01*
X129031645Y-78694144D01*
X129159566Y-78725124D01*
X129413000Y-78605777D01*
X129413000Y-76962000D01*
X129667000Y-76962000D01*
X129667000Y-78605777D01*
X129920434Y-78725124D01*
X130048355Y-78694144D01*
X130606317Y-78380922D01*
X131001942Y-77878020D01*
X131175000Y-77262000D01*
X131175000Y-76962000D01*
X129667000Y-76962000D01*
X129413000Y-76962000D01*
X129393000Y-76962000D01*
X129393000Y-76708000D01*
X129413000Y-76708000D01*
X129413000Y-75064223D01*
X129667000Y-75064223D01*
X129667000Y-76708000D01*
X131175000Y-76708000D01*
X131175000Y-76408000D01*
X131001942Y-75791980D01*
X130606317Y-75289078D01*
X130048355Y-74975856D01*
X129920434Y-74944876D01*
X129667000Y-75064223D01*
X129413000Y-75064223D01*
X129159566Y-74944876D01*
X129031645Y-74975856D01*
X128715000Y-75153610D01*
X128715000Y-68026031D01*
X128747031Y-67865000D01*
X128715000Y-67703969D01*
X128715000Y-67527238D01*
X132350000Y-71162240D01*
X132350001Y-83777760D01*
X130132762Y-85995000D01*
X120176025Y-85995000D01*
X120014999Y-85962970D01*
X119853973Y-85995000D01*
X119853969Y-85995000D01*
X119377055Y-86089864D01*
X118836231Y-86451231D01*
X118745014Y-86587747D01*
X116035762Y-89297000D01*
X114770500Y-89297000D01*
X114781440Y-89242000D01*
X114781440Y-87542000D01*
X114732157Y-87294235D01*
X114591809Y-87084191D01*
X114381765Y-86943843D01*
X114134000Y-86894560D01*
X112434000Y-86894560D01*
X112186235Y-86943843D01*
X111976191Y-87084191D01*
X111835843Y-87294235D01*
X111786560Y-87542000D01*
X111786560Y-89242000D01*
X111835843Y-89489765D01*
X111976191Y-89699809D01*
X112090079Y-89775907D01*
X111743864Y-90294055D01*
X111616969Y-90932000D01*
X111743864Y-91569945D01*
X112105231Y-92110769D01*
X112384134Y-92297126D01*
X112012355Y-92705076D01*
X111842524Y-93115110D01*
X111963845Y-93345000D01*
X113157000Y-93345000D01*
X113157000Y-93325000D01*
X113411000Y-93325000D01*
X113411000Y-93345000D01*
X114604155Y-93345000D01*
X114725476Y-93115110D01*
X114555645Y-92705076D01*
X114429812Y-92567000D01*
X116551970Y-92567000D01*
X116713000Y-92599031D01*
X116874030Y-92567000D01*
X116874031Y-92567000D01*
X117350945Y-92472136D01*
X117678482Y-92253283D01*
X119932214Y-94507016D01*
X119827191Y-94577191D01*
X119686843Y-94787235D01*
X119637560Y-95035000D01*
X119637560Y-96735000D01*
X119686843Y-96982765D01*
X119827191Y-97192809D01*
X120037235Y-97333157D01*
X120285000Y-97382440D01*
X122285000Y-97382440D01*
X122532765Y-97333157D01*
X122742809Y-97192809D01*
X122883157Y-96982765D01*
X122932440Y-96735000D01*
X122932440Y-95035000D01*
X122883157Y-94787235D01*
X122742809Y-94577191D01*
X122532765Y-94436843D01*
X122285000Y-94387560D01*
X121933483Y-94387560D01*
X121832929Y-94237071D01*
X121769473Y-94194671D01*
X120512242Y-92937440D01*
X120636518Y-92937440D01*
X120737072Y-93087929D01*
X120800528Y-93130329D01*
X121499670Y-93829472D01*
X121542071Y-93892929D01*
X121793463Y-94060904D01*
X122015148Y-94105000D01*
X122015153Y-94105000D01*
X122090000Y-94119888D01*
X122164847Y-94105000D01*
X124145199Y-94105000D01*
X124427758Y-94387560D01*
X124285000Y-94387560D01*
X124037235Y-94436843D01*
X123827191Y-94577191D01*
X123686843Y-94787235D01*
X123637560Y-95035000D01*
X123637560Y-96735000D01*
X123686843Y-96982765D01*
X123827191Y-97192809D01*
X124037235Y-97333157D01*
X124285000Y-97382440D01*
X126285000Y-97382440D01*
X126532765Y-97333157D01*
X126742809Y-97192809D01*
X126883157Y-96982765D01*
X126932440Y-96735000D01*
X126932440Y-95035000D01*
X126883157Y-94787235D01*
X126742809Y-94577191D01*
X126532765Y-94436843D01*
X126285000Y-94387560D01*
X126045000Y-94387560D01*
X126045000Y-94244846D01*
X126059888Y-94169999D01*
X126045000Y-94095152D01*
X126045000Y-94095148D01*
X126000904Y-93873463D01*
X125832929Y-93622071D01*
X125769473Y-93579671D01*
X125057026Y-92867224D01*
X125158000Y-92766250D01*
X125158000Y-91567000D01*
X125412000Y-91567000D01*
X125412000Y-92766250D01*
X125570750Y-92925000D01*
X126411309Y-92925000D01*
X126644698Y-92828327D01*
X126823327Y-92649699D01*
X126920000Y-92416310D01*
X126920000Y-91725750D01*
X126761250Y-91567000D01*
X129810000Y-91567000D01*
X129810000Y-91867000D01*
X129983058Y-92483020D01*
X130378683Y-92985922D01*
X130936645Y-93299144D01*
X131064566Y-93330124D01*
X131318000Y-93210777D01*
X131318000Y-91567000D01*
X129810000Y-91567000D01*
X126761250Y-91567000D01*
X125412000Y-91567000D01*
X125158000Y-91567000D01*
X123808750Y-91567000D01*
X123650000Y-91725750D01*
X123650000Y-92416310D01*
X123719874Y-92585000D01*
X122851595Y-92585000D01*
X122883157Y-92537765D01*
X122932440Y-92290000D01*
X122932440Y-90590000D01*
X122907316Y-90463690D01*
X123650000Y-90463690D01*
X123650000Y-91154250D01*
X123808750Y-91313000D01*
X125158000Y-91313000D01*
X125158000Y-90113750D01*
X125412000Y-90113750D01*
X125412000Y-91313000D01*
X126761250Y-91313000D01*
X126920000Y-91154250D01*
X126920000Y-91013000D01*
X129810000Y-91013000D01*
X129810000Y-91313000D01*
X131318000Y-91313000D01*
X131318000Y-89669223D01*
X131572000Y-89669223D01*
X131572000Y-91313000D01*
X131592000Y-91313000D01*
X131592000Y-91567000D01*
X131572000Y-91567000D01*
X131572000Y-93210777D01*
X131825434Y-93330124D01*
X131953355Y-93299144D01*
X132511317Y-92985922D01*
X132695048Y-92752371D01*
X132806231Y-92918769D01*
X133347055Y-93280136D01*
X133985000Y-93407031D01*
X134622944Y-93280136D01*
X134968100Y-93049510D01*
X135067191Y-93197809D01*
X135277235Y-93338157D01*
X135525000Y-93387440D01*
X137525000Y-93387440D01*
X137772765Y-93338157D01*
X137982809Y-93197809D01*
X138123157Y-92987765D01*
X138172440Y-92740000D01*
X138172440Y-90140000D01*
X138123157Y-89892235D01*
X137982809Y-89682191D01*
X137772765Y-89541843D01*
X137525000Y-89492560D01*
X135525000Y-89492560D01*
X135277235Y-89541843D01*
X135067191Y-89682191D01*
X134968100Y-89830489D01*
X134622945Y-89599864D01*
X133985000Y-89472969D01*
X133347056Y-89599864D01*
X132806231Y-89961231D01*
X132695048Y-90127629D01*
X132511317Y-89894078D01*
X131953355Y-89580856D01*
X131825434Y-89549876D01*
X131572000Y-89669223D01*
X131318000Y-89669223D01*
X131064566Y-89549876D01*
X130936645Y-89580856D01*
X130378683Y-89894078D01*
X129983058Y-90396980D01*
X129810000Y-91013000D01*
X126920000Y-91013000D01*
X126920000Y-90463690D01*
X126823327Y-90230301D01*
X126644698Y-90051673D01*
X126411309Y-89955000D01*
X125570750Y-89955000D01*
X125412000Y-90113750D01*
X125158000Y-90113750D01*
X124999250Y-89955000D01*
X124158691Y-89955000D01*
X123925302Y-90051673D01*
X123746673Y-90230301D01*
X123650000Y-90463690D01*
X122907316Y-90463690D01*
X122883157Y-90342235D01*
X122742809Y-90132191D01*
X122532765Y-89991843D01*
X122285000Y-89942560D01*
X120285000Y-89942560D01*
X120037235Y-89991843D01*
X119827191Y-90132191D01*
X119686843Y-90342235D01*
X119637560Y-90590000D01*
X119637560Y-92062759D01*
X118766020Y-91191219D01*
X120692239Y-89265000D01*
X130648970Y-89265000D01*
X130810000Y-89297031D01*
X130971030Y-89265000D01*
X130971031Y-89265000D01*
X131447945Y-89170136D01*
X131988769Y-88808769D01*
X132079988Y-88672250D01*
X135027253Y-85724986D01*
X135163769Y-85633769D01*
X135525136Y-85092945D01*
X135620000Y-84616031D01*
X135652031Y-84455001D01*
X135620000Y-84293971D01*
X135620000Y-75535000D01*
X136782560Y-75535000D01*
X136782560Y-78135000D01*
X136831843Y-78382765D01*
X136972191Y-78592809D01*
X137182235Y-78733157D01*
X137430000Y-78782440D01*
X139335000Y-78782440D01*
X139335001Y-79967560D01*
X137430000Y-79967560D01*
X137182235Y-80016843D01*
X136972191Y-80157191D01*
X136831843Y-80367235D01*
X136782560Y-80615000D01*
X136782560Y-83215000D01*
X136831843Y-83462765D01*
X136972191Y-83672809D01*
X137182235Y-83813157D01*
X137430000Y-83862440D01*
X139430000Y-83862440D01*
X139677765Y-83813157D01*
X139887809Y-83672809D01*
X139986900Y-83524510D01*
X140332056Y-83755136D01*
X140970000Y-83882031D01*
X141607945Y-83755136D01*
X142148769Y-83393769D01*
X142259952Y-83227371D01*
X142443683Y-83460922D01*
X143001645Y-83774144D01*
X143129566Y-83805124D01*
X143383000Y-83685777D01*
X143383000Y-82042000D01*
X143637000Y-82042000D01*
X143637000Y-83685777D01*
X143890434Y-83805124D01*
X144018355Y-83774144D01*
X144576317Y-83460922D01*
X144971942Y-82958020D01*
X145145000Y-82342000D01*
X145145000Y-82042000D01*
X143637000Y-82042000D01*
X143383000Y-82042000D01*
X143363000Y-82042000D01*
X143363000Y-81788000D01*
X143383000Y-81788000D01*
X143383000Y-80144223D01*
X143637000Y-80144223D01*
X143637000Y-81788000D01*
X145145000Y-81788000D01*
X145145000Y-81488000D01*
X144971942Y-80871980D01*
X144576317Y-80369078D01*
X144018355Y-80055856D01*
X143890434Y-80024876D01*
X143637000Y-80144223D01*
X143383000Y-80144223D01*
X143129566Y-80024876D01*
X143001645Y-80055856D01*
X142605000Y-80278520D01*
X142605000Y-78471480D01*
X143001645Y-78694144D01*
X143129566Y-78725124D01*
X143383000Y-78605777D01*
X143383000Y-76962000D01*
X143637000Y-76962000D01*
X143637000Y-78605777D01*
X143890434Y-78725124D01*
X144018355Y-78694144D01*
X144576317Y-78380922D01*
X144971942Y-77878020D01*
X145145000Y-77262000D01*
X145145000Y-76962000D01*
X143637000Y-76962000D01*
X143383000Y-76962000D01*
X143363000Y-76962000D01*
X143363000Y-76708000D01*
X143383000Y-76708000D01*
X143383000Y-75064223D01*
X143637000Y-75064223D01*
X143637000Y-76708000D01*
X145145000Y-76708000D01*
X145145000Y-76408000D01*
X144971942Y-75791980D01*
X144576317Y-75289078D01*
X144018355Y-74975856D01*
X143890434Y-74944876D01*
X143637000Y-75064223D01*
X143383000Y-75064223D01*
X143129566Y-74944876D01*
X143001645Y-74975856D01*
X142605000Y-75198520D01*
X142605000Y-71916031D01*
X142637031Y-71755000D01*
X142510136Y-71117055D01*
X142148769Y-70576231D01*
X142012250Y-70485012D01*
X141970000Y-70442762D01*
X141970000Y-69987238D01*
X144145014Y-72162253D01*
X144236231Y-72298769D01*
X144777055Y-72660136D01*
X145253969Y-72755000D01*
X145253970Y-72755000D01*
X145415000Y-72787031D01*
X145576030Y-72755000D01*
X150452762Y-72755000D01*
X150765000Y-73067239D01*
X150765001Y-74887560D01*
X148860000Y-74887560D01*
X148612235Y-74936843D01*
X148402191Y-75077191D01*
X148261843Y-75287235D01*
X148212560Y-75535000D01*
X148212560Y-78135000D01*
X148261843Y-78382765D01*
X148402191Y-78592809D01*
X148612235Y-78733157D01*
X148860000Y-78782440D01*
X150765000Y-78782440D01*
X150765001Y-79967560D01*
X148860000Y-79967560D01*
X148612235Y-80016843D01*
X148402191Y-80157191D01*
X148261843Y-80367235D01*
X148212560Y-80615000D01*
X148212560Y-83215000D01*
X148261843Y-83462765D01*
X148402191Y-83672809D01*
X148612235Y-83813157D01*
X148860000Y-83862440D01*
X150765001Y-83862440D01*
X150765001Y-84537761D01*
X150087750Y-85215012D01*
X149951231Y-85306231D01*
X149589864Y-85847056D01*
X149508271Y-86257254D01*
X149462969Y-86485000D01*
X149495000Y-86646030D01*
X149495001Y-90643966D01*
X149462969Y-90805000D01*
X149564017Y-91313000D01*
X149566630Y-91326132D01*
X149452748Y-91440014D01*
X149316232Y-91531231D01*
X149225015Y-91667747D01*
X148954865Y-92072055D01*
X148827969Y-92710000D01*
X148860001Y-92871035D01*
X148860000Y-101870000D01*
X146523969Y-101870000D01*
X146047055Y-101964864D01*
X145983156Y-102007560D01*
X145835000Y-102007560D01*
X145587235Y-102056843D01*
X145377191Y-102197191D01*
X145236843Y-102407235D01*
X145187560Y-102655000D01*
X145187560Y-102803156D01*
X145144864Y-102867055D01*
X145017969Y-103505000D01*
X145144864Y-104142945D01*
X145187560Y-104206844D01*
X145187560Y-104355000D01*
X145236843Y-104602765D01*
X145377191Y-104812809D01*
X145587235Y-104953157D01*
X145690708Y-104973739D01*
X145413355Y-105278076D01*
X145243524Y-105688110D01*
X145364845Y-105918000D01*
X146558000Y-105918000D01*
X146558000Y-105898000D01*
X146812000Y-105898000D01*
X146812000Y-105918000D01*
X148005155Y-105918000D01*
X148126476Y-105688110D01*
X147956645Y-105278076D01*
X147830812Y-105140000D01*
X149349188Y-105140000D01*
X149223355Y-105278076D01*
X149053524Y-105688110D01*
X149174845Y-105918000D01*
X150368000Y-105918000D01*
X150368000Y-105898000D01*
X150622000Y-105898000D01*
X150622000Y-105918000D01*
X151815155Y-105918000D01*
X151936476Y-105688110D01*
X151766645Y-105278076D01*
X151489292Y-104973739D01*
X151592765Y-104953157D01*
X151802809Y-104812809D01*
X151943157Y-104602765D01*
X151992440Y-104355000D01*
X151992440Y-104206844D01*
X152035136Y-104142945D01*
X152162031Y-103505000D01*
X152130000Y-103343969D01*
X152130000Y-94336890D01*
X153498524Y-94336890D01*
X153668355Y-94746924D01*
X154058642Y-95175183D01*
X154583108Y-95421486D01*
X154813000Y-95300819D01*
X154813000Y-94107000D01*
X155067000Y-94107000D01*
X155067000Y-95300819D01*
X155296892Y-95421486D01*
X155821358Y-95175183D01*
X156211645Y-94746924D01*
X156381476Y-94336890D01*
X156260155Y-94107000D01*
X155067000Y-94107000D01*
X154813000Y-94107000D01*
X153619845Y-94107000D01*
X153498524Y-94336890D01*
X152130000Y-94336890D01*
X152130000Y-93387238D01*
X152442239Y-93075000D01*
X153794188Y-93075000D01*
X153668355Y-93213076D01*
X153498524Y-93623110D01*
X153619845Y-93853000D01*
X154813000Y-93853000D01*
X154813000Y-93833000D01*
X155067000Y-93833000D01*
X155067000Y-93853000D01*
X156260155Y-93853000D01*
X156381476Y-93623110D01*
X156211645Y-93213076D01*
X155839866Y-92805126D01*
X156118769Y-92618769D01*
X156480136Y-92077945D01*
X156607031Y-91440000D01*
X156480136Y-90802055D01*
X156133921Y-90283907D01*
X156247809Y-90207809D01*
X156388157Y-89997765D01*
X156437440Y-89750000D01*
X156437440Y-88050000D01*
X156388157Y-87802235D01*
X156247809Y-87592191D01*
X156037765Y-87451843D01*
X155790000Y-87402560D01*
X154090000Y-87402560D01*
X153842235Y-87451843D01*
X153632191Y-87592191D01*
X153491843Y-87802235D01*
X153442560Y-88050000D01*
X153442560Y-89750000D01*
X153453500Y-89805000D01*
X152765000Y-89805000D01*
X152765000Y-87162238D01*
X153442252Y-86484986D01*
X153578769Y-86393769D01*
X153940136Y-85852945D01*
X154035000Y-85376031D01*
X154035000Y-85376027D01*
X154067030Y-85215001D01*
X154035000Y-85053975D01*
X154035000Y-83551480D01*
X154431645Y-83774144D01*
X154559566Y-83805124D01*
X154813000Y-83685777D01*
X154813000Y-82042000D01*
X155067000Y-82042000D01*
X155067000Y-83685777D01*
X155320434Y-83805124D01*
X155448355Y-83774144D01*
X156006317Y-83460922D01*
X156401942Y-82958020D01*
X156575000Y-82342000D01*
X156575000Y-82042000D01*
X155067000Y-82042000D01*
X154813000Y-82042000D01*
X154793000Y-82042000D01*
X154793000Y-81788000D01*
X154813000Y-81788000D01*
X154813000Y-80144223D01*
X155067000Y-80144223D01*
X155067000Y-81788000D01*
X156575000Y-81788000D01*
X156575000Y-81488000D01*
X156401942Y-80871980D01*
X156006317Y-80369078D01*
X155448355Y-80055856D01*
X155320434Y-80024876D01*
X155067000Y-80144223D01*
X154813000Y-80144223D01*
X154559566Y-80024876D01*
X154431645Y-80055856D01*
X154035000Y-80278520D01*
X154035000Y-78471480D01*
X154431645Y-78694144D01*
X154559566Y-78725124D01*
X154813000Y-78605777D01*
X154813000Y-76962000D01*
X155067000Y-76962000D01*
X155067000Y-78605777D01*
X155320434Y-78725124D01*
X155448355Y-78694144D01*
X156006317Y-78380922D01*
X156401942Y-77878020D01*
X156575000Y-77262000D01*
X156575000Y-76962000D01*
X155067000Y-76962000D01*
X154813000Y-76962000D01*
X154793000Y-76962000D01*
X154793000Y-76708000D01*
X154813000Y-76708000D01*
X154813000Y-75064223D01*
X155067000Y-75064223D01*
X155067000Y-76708000D01*
X156575000Y-76708000D01*
X156575000Y-76408000D01*
X156401942Y-75791980D01*
X156006317Y-75289078D01*
X155448355Y-74975856D01*
X155320434Y-74944876D01*
X155067000Y-75064223D01*
X154813000Y-75064223D01*
X154559566Y-74944876D01*
X154431645Y-74975856D01*
X154035000Y-75198520D01*
X154035000Y-72551025D01*
X154067030Y-72389999D01*
X154035000Y-72228973D01*
X154035000Y-72228969D01*
X153940136Y-71752055D01*
X153578769Y-71211231D01*
X153442253Y-71120014D01*
X152399988Y-70077750D01*
X152308769Y-69941231D01*
X151767945Y-69579864D01*
X151291031Y-69485000D01*
X151291030Y-69485000D01*
X151130000Y-69452969D01*
X150968970Y-69485000D01*
X146092239Y-69485000D01*
X143469869Y-66862631D01*
X143469869Y-65160898D01*
X143499113Y-65013877D01*
X144160728Y-65013877D01*
X144320495Y-65332632D01*
X145111217Y-65642595D01*
X145960366Y-65626367D01*
X146669505Y-65332632D01*
X146829272Y-65013877D01*
X145495000Y-63679605D01*
X144160728Y-65013877D01*
X143499113Y-65013877D01*
X143501900Y-64999868D01*
X143468961Y-64834272D01*
X143375005Y-64361924D01*
X143013638Y-63821100D01*
X142877122Y-63729883D01*
X142469870Y-63322631D01*
X142469870Y-63116217D01*
X143352405Y-63116217D01*
X143368633Y-63965366D01*
X143662368Y-64674505D01*
X143981123Y-64834272D01*
X145315395Y-63500000D01*
X145674605Y-63500000D01*
X147008877Y-64834272D01*
X147327632Y-64674505D01*
X147637595Y-63883783D01*
X147621367Y-63034634D01*
X147327632Y-62325495D01*
X147008877Y-62165728D01*
X145674605Y-63500000D01*
X145315395Y-63500000D01*
X143981123Y-62165728D01*
X143662368Y-62325495D01*
X143352405Y-63116217D01*
X142469870Y-63116217D01*
X142469870Y-63075348D01*
X142144856Y-62290693D01*
X141840286Y-61986123D01*
X144160728Y-61986123D01*
X145495000Y-63320395D01*
X146829272Y-61986123D01*
X146669505Y-61667368D01*
X145878783Y-61357405D01*
X145029634Y-61373633D01*
X144320495Y-61667368D01*
X144160728Y-61986123D01*
X141840286Y-61986123D01*
X141544307Y-61690144D01*
X140759652Y-61365130D01*
X139910348Y-61365130D01*
X139125693Y-61690144D01*
X138525144Y-62290693D01*
X138200130Y-63075348D01*
X138200130Y-63924652D01*
X138525144Y-64709307D01*
X138700000Y-64884163D01*
X138700001Y-70958966D01*
X138667969Y-71120000D01*
X138713271Y-71347746D01*
X138794865Y-71757945D01*
X139156232Y-72298769D01*
X139292748Y-72389986D01*
X139335000Y-72432238D01*
X139335001Y-74887560D01*
X137430000Y-74887560D01*
X137182235Y-74936843D01*
X136972191Y-75077191D01*
X136831843Y-75287235D01*
X136782560Y-75535000D01*
X135620000Y-75535000D01*
X135620000Y-70646031D01*
X135652031Y-70485000D01*
X135525136Y-69847054D01*
X135254986Y-69442746D01*
X135254984Y-69442744D01*
X135163769Y-69306231D01*
X135027256Y-69215016D01*
X130010950Y-64198712D01*
X129758638Y-63821100D01*
X129622122Y-63729883D01*
X129214870Y-63322631D01*
X129214870Y-63075348D01*
X128889856Y-62290693D01*
X128289307Y-61690144D01*
X127504652Y-61365130D01*
X126655348Y-61365130D01*
X125870693Y-61690144D01*
X125270144Y-62290693D01*
X124945130Y-63075348D01*
X124945130Y-63924652D01*
X125270144Y-64709307D01*
X125445000Y-64884163D01*
X125445000Y-67187761D01*
X122512762Y-70120000D01*
X117511029Y-70120000D01*
X117349999Y-70087969D01*
X117188969Y-70120000D01*
X116712055Y-70214864D01*
X116171231Y-70576231D01*
X116080014Y-70712747D01*
X114527750Y-72265012D01*
X114391231Y-72356231D01*
X114029864Y-72897056D01*
X114003829Y-73027945D01*
X113902969Y-73535000D01*
X113935000Y-73696030D01*
X113935000Y-74887560D01*
X112030000Y-74887560D01*
X111782235Y-74936843D01*
X111572191Y-75077191D01*
X111431843Y-75287235D01*
X111382560Y-75535000D01*
X109930000Y-75535000D01*
X109930000Y-65013877D01*
X120585728Y-65013877D01*
X120745495Y-65332632D01*
X121536217Y-65642595D01*
X122385366Y-65626367D01*
X123094505Y-65332632D01*
X123254272Y-65013877D01*
X121920000Y-63679605D01*
X120585728Y-65013877D01*
X109930000Y-65013877D01*
X109930000Y-62972733D01*
X110161974Y-63532768D01*
X110692233Y-64063027D01*
X111385050Y-64350001D01*
X112134950Y-64350001D01*
X112827767Y-64063027D01*
X113358026Y-63532768D01*
X113530566Y-63116217D01*
X119777405Y-63116217D01*
X119793633Y-63965366D01*
X120087368Y-64674505D01*
X120406123Y-64834272D01*
X121740395Y-63500000D01*
X122099605Y-63500000D01*
X123433877Y-64834272D01*
X123752632Y-64674505D01*
X124062595Y-63883783D01*
X124046367Y-63034634D01*
X123752632Y-62325495D01*
X123433877Y-62165728D01*
X122099605Y-63500000D01*
X121740395Y-63500000D01*
X120406123Y-62165728D01*
X120087368Y-62325495D01*
X119777405Y-63116217D01*
X113530566Y-63116217D01*
X113645000Y-62839951D01*
X113645000Y-62090051D01*
X113601952Y-61986123D01*
X120585728Y-61986123D01*
X121920000Y-63320395D01*
X123254272Y-61986123D01*
X123094505Y-61667368D01*
X122303783Y-61357405D01*
X121454634Y-61373633D01*
X120745495Y-61667368D01*
X120585728Y-61986123D01*
X113601952Y-61986123D01*
X113358026Y-61397234D01*
X112827767Y-60866975D01*
X112134950Y-60580001D01*
X111385050Y-60580001D01*
X110692233Y-60866975D01*
X110161974Y-61397234D01*
X109930000Y-61957269D01*
X109930000Y-60400000D01*
X158040000Y-60400000D01*
X158040000Y-61957269D01*
X158040000Y-61957269D01*
G37*
X158040000Y-61957269D02*
X157808026Y-61397234D01*
X157277767Y-60866975D01*
X156584950Y-60580001D01*
X155835050Y-60580001D01*
X155142233Y-60866975D01*
X154611974Y-61397234D01*
X154325000Y-62090051D01*
X154325000Y-62839951D01*
X154611974Y-63532768D01*
X155142233Y-64063027D01*
X155835050Y-64350001D01*
X156584950Y-64350001D01*
X157277767Y-64063027D01*
X157808026Y-63532768D01*
X158040000Y-62972733D01*
X158040001Y-98990074D01*
X158040000Y-106172268D01*
X157808026Y-105612233D01*
X157277767Y-105081974D01*
X156584950Y-104795000D01*
X155835050Y-104795000D01*
X155142233Y-105081974D01*
X154611974Y-105612233D01*
X154325000Y-106305050D01*
X154325000Y-107054950D01*
X154611974Y-107747767D01*
X155142233Y-108278026D01*
X155702268Y-108510000D01*
X112267732Y-108510000D01*
X112827767Y-108278026D01*
X113358026Y-107747767D01*
X113645000Y-107054950D01*
X113645000Y-106401890D01*
X116033524Y-106401890D01*
X116203355Y-106811924D01*
X116593642Y-107240183D01*
X117118108Y-107486486D01*
X117348000Y-107365819D01*
X117348000Y-106172000D01*
X117602000Y-106172000D01*
X117602000Y-107365819D01*
X117831892Y-107486486D01*
X118356358Y-107240183D01*
X118746645Y-106811924D01*
X118916476Y-106401890D01*
X119843524Y-106401890D01*
X120013355Y-106811924D01*
X120403642Y-107240183D01*
X120928108Y-107486486D01*
X121158000Y-107365819D01*
X121158000Y-106172000D01*
X121412000Y-106172000D01*
X121412000Y-107365819D01*
X121641892Y-107486486D01*
X122166358Y-107240183D01*
X122226700Y-107173970D01*
X126405635Y-107173970D01*
X126565418Y-107492739D01*
X127356187Y-107802723D01*
X128205387Y-107786497D01*
X128914582Y-107492739D01*
X129074365Y-107173970D01*
X139545635Y-107173970D01*
X139705418Y-107492739D01*
X140496187Y-107802723D01*
X141345387Y-107786497D01*
X142054582Y-107492739D01*
X142214365Y-107173970D01*
X140880000Y-105839605D01*
X139545635Y-107173970D01*
X129074365Y-107173970D01*
X127740000Y-105839605D01*
X126405635Y-107173970D01*
X122226700Y-107173970D01*
X122556645Y-106811924D01*
X122726476Y-106401890D01*
X122605155Y-106172000D01*
X121412000Y-106172000D01*
X121158000Y-106172000D01*
X119964845Y-106172000D01*
X119843524Y-106401890D01*
X118916476Y-106401890D01*
X118795155Y-106172000D01*
X117602000Y-106172000D01*
X117348000Y-106172000D01*
X116154845Y-106172000D01*
X116033524Y-106401890D01*
X113645000Y-106401890D01*
X113645000Y-106305050D01*
X113358026Y-105612233D01*
X112827767Y-105081974D01*
X112134950Y-104795000D01*
X111385050Y-104795000D01*
X110692233Y-105081974D01*
X110161974Y-105612233D01*
X109930000Y-106172268D01*
X109930000Y-102655000D01*
X115977560Y-102655000D01*
X115977560Y-104355000D01*
X116026843Y-104602765D01*
X116167191Y-104812809D01*
X116377235Y-104953157D01*
X116480708Y-104973739D01*
X116203355Y-105278076D01*
X116033524Y-105688110D01*
X116154845Y-105918000D01*
X117348000Y-105918000D01*
X117348000Y-105898000D01*
X117602000Y-105898000D01*
X117602000Y-105918000D01*
X118795155Y-105918000D01*
X118916476Y-105688110D01*
X118746645Y-105278076D01*
X118469292Y-104973739D01*
X118572765Y-104953157D01*
X118782809Y-104812809D01*
X118923157Y-104602765D01*
X118972440Y-104355000D01*
X118972440Y-102655000D01*
X119787560Y-102655000D01*
X119787560Y-104355000D01*
X119836843Y-104602765D01*
X119977191Y-104812809D01*
X120187235Y-104953157D01*
X120290708Y-104973739D01*
X120013355Y-105278076D01*
X119843524Y-105688110D01*
X119964845Y-105918000D01*
X121158000Y-105918000D01*
X121158000Y-105898000D01*
X121412000Y-105898000D01*
X121412000Y-105918000D01*
X122605155Y-105918000D01*
X122726476Y-105688110D01*
X122556645Y-105278076D01*
X122554924Y-105276187D01*
X125597277Y-105276187D01*
X125613503Y-106125387D01*
X125907261Y-106834582D01*
X126226030Y-106994365D01*
X127560395Y-105660000D01*
X127919605Y-105660000D01*
X129253970Y-106994365D01*
X129572739Y-106834582D01*
X129882723Y-106043813D01*
X129868056Y-105276187D01*
X138737277Y-105276187D01*
X138753503Y-106125387D01*
X139047261Y-106834582D01*
X139366030Y-106994365D01*
X140700395Y-105660000D01*
X141059605Y-105660000D01*
X142393970Y-106994365D01*
X142712739Y-106834582D01*
X142882355Y-106401890D01*
X145243524Y-106401890D01*
X145413355Y-106811924D01*
X145803642Y-107240183D01*
X146328108Y-107486486D01*
X146558000Y-107365819D01*
X146558000Y-106172000D01*
X146812000Y-106172000D01*
X146812000Y-107365819D01*
X147041892Y-107486486D01*
X147566358Y-107240183D01*
X147956645Y-106811924D01*
X148126476Y-106401890D01*
X149053524Y-106401890D01*
X149223355Y-106811924D01*
X149613642Y-107240183D01*
X150138108Y-107486486D01*
X150368000Y-107365819D01*
X150368000Y-106172000D01*
X150622000Y-106172000D01*
X150622000Y-107365819D01*
X150851892Y-107486486D01*
X151376358Y-107240183D01*
X151766645Y-106811924D01*
X151936476Y-106401890D01*
X151815155Y-106172000D01*
X150622000Y-106172000D01*
X150368000Y-106172000D01*
X149174845Y-106172000D01*
X149053524Y-106401890D01*
X148126476Y-106401890D01*
X148005155Y-106172000D01*
X146812000Y-106172000D01*
X146558000Y-106172000D01*
X145364845Y-106172000D01*
X145243524Y-106401890D01*
X142882355Y-106401890D01*
X143022723Y-106043813D01*
X143006497Y-105194613D01*
X142712739Y-104485418D01*
X142393970Y-104325635D01*
X141059605Y-105660000D01*
X140700395Y-105660000D01*
X139366030Y-104325635D01*
X139047261Y-104485418D01*
X138737277Y-105276187D01*
X129868056Y-105276187D01*
X129866497Y-105194613D01*
X129572739Y-104485418D01*
X129253970Y-104325635D01*
X127919605Y-105660000D01*
X127560395Y-105660000D01*
X126226030Y-104325635D01*
X125907261Y-104485418D01*
X125597277Y-105276187D01*
X122554924Y-105276187D01*
X122279292Y-104973739D01*
X122382765Y-104953157D01*
X122592809Y-104812809D01*
X122733157Y-104602765D01*
X122782440Y-104355000D01*
X122782440Y-104146030D01*
X126405635Y-104146030D01*
X127740000Y-105480395D01*
X129074365Y-104146030D01*
X128914582Y-103827261D01*
X128123813Y-103517277D01*
X127274613Y-103533503D01*
X126565418Y-103827261D01*
X126405635Y-104146030D01*
X122782440Y-104146030D01*
X122782440Y-102655000D01*
X122733157Y-102407235D01*
X122592809Y-102197191D01*
X122382765Y-102056843D01*
X122135000Y-102007560D01*
X120435000Y-102007560D01*
X120187235Y-102056843D01*
X119977191Y-102197191D01*
X119836843Y-102407235D01*
X119787560Y-102655000D01*
X118972440Y-102655000D01*
X118923157Y-102407235D01*
X118782809Y-102197191D01*
X118572765Y-102056843D01*
X118325000Y-102007560D01*
X116625000Y-102007560D01*
X116377235Y-102056843D01*
X116167191Y-102197191D01*
X116026843Y-102407235D01*
X115977560Y-102655000D01*
X109930000Y-102655000D01*
X109930000Y-101493970D01*
X126405635Y-101493970D01*
X126565418Y-101812739D01*
X127356187Y-102122723D01*
X128205387Y-102106497D01*
X128914582Y-101812739D01*
X129074365Y-101493970D01*
X127740000Y-100159605D01*
X126405635Y-101493970D01*
X109930000Y-101493970D01*
X109930000Y-98552000D01*
X111769908Y-98552000D01*
X111885161Y-99131418D01*
X112213375Y-99622625D01*
X112704582Y-99950839D01*
X113137744Y-100037000D01*
X113430256Y-100037000D01*
X113863418Y-99950839D01*
X114354625Y-99622625D01*
X114372290Y-99596187D01*
X125597277Y-99596187D01*
X125613503Y-100445387D01*
X125907261Y-101154582D01*
X126226030Y-101314365D01*
X127560395Y-99980000D01*
X127919605Y-99980000D01*
X129253970Y-101314365D01*
X129440573Y-101220830D01*
X129461843Y-101327765D01*
X129602191Y-101537809D01*
X129812235Y-101678157D01*
X130060000Y-101727440D01*
X130142340Y-101727440D01*
X130025460Y-101775853D01*
X129635853Y-102165460D01*
X129425000Y-102674506D01*
X129425000Y-103225494D01*
X129635853Y-103734540D01*
X130025460Y-104124147D01*
X130534506Y-104335000D01*
X131085494Y-104335000D01*
X131594540Y-104124147D01*
X131984147Y-103734540D01*
X132060000Y-103551414D01*
X132135853Y-103734540D01*
X132525460Y-104124147D01*
X133034506Y-104335000D01*
X133585494Y-104335000D01*
X134094540Y-104124147D01*
X134310000Y-103908687D01*
X134525460Y-104124147D01*
X135034506Y-104335000D01*
X135585494Y-104335000D01*
X136094540Y-104124147D01*
X136297170Y-103921517D01*
X137018088Y-103921517D01*
X137086077Y-104162460D01*
X137605171Y-104347201D01*
X138155448Y-104319230D01*
X138533923Y-104162460D01*
X138538559Y-104146030D01*
X139545635Y-104146030D01*
X140880000Y-105480395D01*
X142214365Y-104146030D01*
X142054582Y-103827261D01*
X141263813Y-103517277D01*
X140414613Y-103533503D01*
X139705418Y-103827261D01*
X139545635Y-104146030D01*
X138538559Y-104146030D01*
X138601912Y-103921517D01*
X137810000Y-103129605D01*
X137018088Y-103921517D01*
X136297170Y-103921517D01*
X136484147Y-103734540D01*
X136553397Y-103567354D01*
X136597540Y-103673923D01*
X136838483Y-103741912D01*
X137630395Y-102950000D01*
X137989605Y-102950000D01*
X138781517Y-103741912D01*
X139022460Y-103673923D01*
X139207201Y-103154829D01*
X139179230Y-102604552D01*
X139022460Y-102226077D01*
X138781517Y-102158088D01*
X137989605Y-102950000D01*
X137630395Y-102950000D01*
X136838483Y-102158088D01*
X136597540Y-102226077D01*
X136556741Y-102340717D01*
X136484147Y-102165460D01*
X136094540Y-101775853D01*
X135766561Y-101640000D01*
X136094540Y-101504147D01*
X136297170Y-101301517D01*
X137018088Y-101301517D01*
X137086077Y-101542460D01*
X137339393Y-101632613D01*
X137086077Y-101737540D01*
X137018088Y-101978483D01*
X137810000Y-102770395D01*
X138601912Y-101978483D01*
X138533923Y-101737540D01*
X138280607Y-101647387D01*
X138533923Y-101542460D01*
X138547605Y-101493970D01*
X139545635Y-101493970D01*
X139705418Y-101812739D01*
X140496187Y-102122723D01*
X141345387Y-102106497D01*
X142054582Y-101812739D01*
X142214365Y-101493970D01*
X140880000Y-100159605D01*
X139545635Y-101493970D01*
X138547605Y-101493970D01*
X138601912Y-101301517D01*
X137810000Y-100509605D01*
X137018088Y-101301517D01*
X136297170Y-101301517D01*
X136484147Y-101114540D01*
X136553397Y-100947354D01*
X136597540Y-101053923D01*
X136838483Y-101121912D01*
X137630395Y-100330000D01*
X137989605Y-100330000D01*
X138781517Y-101121912D01*
X139007335Y-101058191D01*
X139047261Y-101154582D01*
X139366030Y-101314365D01*
X140700395Y-99980000D01*
X141059605Y-99980000D01*
X142393970Y-101314365D01*
X142712739Y-101154582D01*
X143022723Y-100363813D01*
X143006497Y-99514613D01*
X142712739Y-98805418D01*
X142393970Y-98645635D01*
X141059605Y-99980000D01*
X140700395Y-99980000D01*
X139366030Y-98645635D01*
X139047261Y-98805418D01*
X138746213Y-99573392D01*
X137989605Y-100330000D01*
X137630395Y-100330000D01*
X136838483Y-99538088D01*
X136597540Y-99606077D01*
X136556741Y-99720717D01*
X136484147Y-99545460D01*
X136297170Y-99358483D01*
X137018088Y-99358483D01*
X137810000Y-100150395D01*
X138601912Y-99358483D01*
X138533923Y-99117540D01*
X138014829Y-98932799D01*
X137464552Y-98960770D01*
X137086077Y-99117540D01*
X137018088Y-99358483D01*
X136297170Y-99358483D01*
X136094540Y-99155853D01*
X135585494Y-98945000D01*
X135034506Y-98945000D01*
X134525460Y-99155853D01*
X134310000Y-99371313D01*
X134094540Y-99155853D01*
X133585494Y-98945000D01*
X133034506Y-98945000D01*
X132525460Y-99155853D01*
X132189833Y-99491480D01*
X132158157Y-99332235D01*
X132017809Y-99122191D01*
X131807765Y-98981843D01*
X131560000Y-98932560D01*
X130060000Y-98932560D01*
X129812235Y-98981843D01*
X129681892Y-99068936D01*
X129572739Y-98805418D01*
X129253970Y-98645635D01*
X127919605Y-99980000D01*
X127560395Y-99980000D01*
X126226030Y-98645635D01*
X125907261Y-98805418D01*
X125597277Y-99596187D01*
X114372290Y-99596187D01*
X114682839Y-99131418D01*
X114798092Y-98552000D01*
X114780992Y-98466030D01*
X126405635Y-98466030D01*
X127740000Y-99800395D01*
X129074365Y-98466030D01*
X139545635Y-98466030D01*
X140880000Y-99800395D01*
X142214365Y-98466030D01*
X142054582Y-98147261D01*
X141263813Y-97837277D01*
X140414613Y-97853503D01*
X139705418Y-98147261D01*
X139545635Y-98466030D01*
X129074365Y-98466030D01*
X128914582Y-98147261D01*
X128123813Y-97837277D01*
X127274613Y-97853503D01*
X126565418Y-98147261D01*
X126405635Y-98466030D01*
X114780992Y-98466030D01*
X114682839Y-97972582D01*
X114354625Y-97481375D01*
X114035522Y-97268157D01*
X114165358Y-97207183D01*
X114555645Y-96778924D01*
X114725476Y-96368890D01*
X114604155Y-96139000D01*
X113411000Y-96139000D01*
X113411000Y-96159000D01*
X113157000Y-96159000D01*
X113157000Y-96139000D01*
X111963845Y-96139000D01*
X111842524Y-96368890D01*
X112012355Y-96778924D01*
X112402642Y-97207183D01*
X112532478Y-97268157D01*
X112213375Y-97481375D01*
X111885161Y-97972582D01*
X111769908Y-98552000D01*
X109930000Y-98552000D01*
X109930000Y-93828890D01*
X111842524Y-93828890D01*
X112012355Y-94238924D01*
X112402642Y-94667183D01*
X112561954Y-94742000D01*
X112402642Y-94816817D01*
X112012355Y-95245076D01*
X111842524Y-95655110D01*
X111963845Y-95885000D01*
X113157000Y-95885000D01*
X113157000Y-93599000D01*
X113411000Y-93599000D01*
X113411000Y-95885000D01*
X114604155Y-95885000D01*
X114725476Y-95655110D01*
X114555645Y-95245076D01*
X114165358Y-94816817D01*
X114006046Y-94742000D01*
X114165358Y-94667183D01*
X114555645Y-94238924D01*
X114725476Y-93828890D01*
X114604155Y-93599000D01*
X113411000Y-93599000D01*
X113157000Y-93599000D01*
X111963845Y-93599000D01*
X111842524Y-93828890D01*
X109930000Y-93828890D01*
X109930000Y-75535000D01*
X111382560Y-75535000D01*
X111382560Y-78135000D01*
X111431843Y-78382765D01*
X111572191Y-78592809D01*
X111782235Y-78733157D01*
X112030000Y-78782440D01*
X113935000Y-78782440D01*
X113935001Y-79967560D01*
X112030000Y-79967560D01*
X111782235Y-80016843D01*
X111572191Y-80157191D01*
X111431843Y-80367235D01*
X111382560Y-80615000D01*
X111382560Y-83215000D01*
X111431843Y-83462765D01*
X111572191Y-83672809D01*
X111782235Y-83813157D01*
X112030000Y-83862440D01*
X114030000Y-83862440D01*
X114277765Y-83813157D01*
X114487809Y-83672809D01*
X114586900Y-83524510D01*
X114932056Y-83755136D01*
X115570000Y-83882031D01*
X116207945Y-83755136D01*
X116748769Y-83393769D01*
X116859952Y-83227371D01*
X117043683Y-83460922D01*
X117601645Y-83774144D01*
X117729566Y-83805124D01*
X117983000Y-83685777D01*
X117983000Y-82042000D01*
X118237000Y-82042000D01*
X118237000Y-83685777D01*
X118490434Y-83805124D01*
X118618355Y-83774144D01*
X119176317Y-83460922D01*
X119571942Y-82958020D01*
X119745000Y-82342000D01*
X119745000Y-82042000D01*
X118237000Y-82042000D01*
X117983000Y-82042000D01*
X117963000Y-82042000D01*
X117963000Y-81788000D01*
X117983000Y-81788000D01*
X117983000Y-80144223D01*
X118237000Y-80144223D01*
X118237000Y-81788000D01*
X119745000Y-81788000D01*
X119745000Y-81488000D01*
X119571942Y-80871980D01*
X119176317Y-80369078D01*
X118618355Y-80055856D01*
X118490434Y-80024876D01*
X118237000Y-80144223D01*
X117983000Y-80144223D01*
X117729566Y-80024876D01*
X117601645Y-80055856D01*
X117205000Y-80278520D01*
X117205000Y-78471480D01*
X117601645Y-78694144D01*
X117729566Y-78725124D01*
X117983000Y-78605777D01*
X117983000Y-76962000D01*
X118237000Y-76962000D01*
X118237000Y-78605777D01*
X118490434Y-78725124D01*
X118618355Y-78694144D01*
X119176317Y-78380922D01*
X119571942Y-77878020D01*
X119745000Y-77262000D01*
X119745000Y-76962000D01*
X118237000Y-76962000D01*
X117983000Y-76962000D01*
X117963000Y-76962000D01*
X117963000Y-76708000D01*
X117983000Y-76708000D01*
X117983000Y-75064223D01*
X118237000Y-75064223D01*
X118237000Y-76708000D01*
X119745000Y-76708000D01*
X119745000Y-76408000D01*
X119571942Y-75791980D01*
X119176317Y-75289078D01*
X118618355Y-74975856D01*
X118490434Y-74944876D01*
X118237000Y-75064223D01*
X117983000Y-75064223D01*
X117729566Y-74944876D01*
X117601645Y-74975856D01*
X117205000Y-75198520D01*
X117205000Y-74212238D01*
X118027239Y-73390000D01*
X123028970Y-73390000D01*
X123190000Y-73422031D01*
X123351030Y-73390000D01*
X123351031Y-73390000D01*
X123827945Y-73295136D01*
X124368769Y-72933769D01*
X124459988Y-72797250D01*
X125445001Y-71812238D01*
X125445001Y-74887560D01*
X123460000Y-74887560D01*
X123212235Y-74936843D01*
X123002191Y-75077191D01*
X122861843Y-75287235D01*
X122812560Y-75535000D01*
X122812560Y-78135000D01*
X122861843Y-78382765D01*
X123002191Y-78592809D01*
X123212235Y-78733157D01*
X123460000Y-78782440D01*
X125365000Y-78782440D01*
X125365001Y-79967560D01*
X123460000Y-79967560D01*
X123212235Y-80016843D01*
X123002191Y-80157191D01*
X122861843Y-80367235D01*
X122812560Y-80615000D01*
X122812560Y-83215000D01*
X122861843Y-83462765D01*
X123002191Y-83672809D01*
X123212235Y-83813157D01*
X123460000Y-83862440D01*
X125460000Y-83862440D01*
X125707765Y-83813157D01*
X125917809Y-83672809D01*
X126016900Y-83524510D01*
X126362056Y-83755136D01*
X127000000Y-83882031D01*
X127637945Y-83755136D01*
X128178769Y-83393769D01*
X128289952Y-83227371D01*
X128473683Y-83460922D01*
X129031645Y-83774144D01*
X129159566Y-83805124D01*
X129413000Y-83685777D01*
X129413000Y-82042000D01*
X129667000Y-82042000D01*
X129667000Y-83685777D01*
X129920434Y-83805124D01*
X130048355Y-83774144D01*
X130606317Y-83460922D01*
X131001942Y-82958020D01*
X131175000Y-82342000D01*
X131175000Y-82042000D01*
X129667000Y-82042000D01*
X129413000Y-82042000D01*
X129393000Y-82042000D01*
X129393000Y-81788000D01*
X129413000Y-81788000D01*
X129413000Y-80144223D01*
X129667000Y-80144223D01*
X129667000Y-81788000D01*
X131175000Y-81788000D01*
X131175000Y-81488000D01*
X131001942Y-80871980D01*
X130606317Y-80369078D01*
X130048355Y-80055856D01*
X129920434Y-80024876D01*
X129667000Y-80144223D01*
X129413000Y-80144223D01*
X129159566Y-80024876D01*
X129031645Y-80055856D01*
X128635000Y-80278520D01*
X128635000Y-78471480D01*
X129031645Y-78694144D01*
X129159566Y-78725124D01*
X129413000Y-78605777D01*
X129413000Y-76962000D01*
X129667000Y-76962000D01*
X129667000Y-78605777D01*
X129920434Y-78725124D01*
X130048355Y-78694144D01*
X130606317Y-78380922D01*
X131001942Y-77878020D01*
X131175000Y-77262000D01*
X131175000Y-76962000D01*
X129667000Y-76962000D01*
X129413000Y-76962000D01*
X129393000Y-76962000D01*
X129393000Y-76708000D01*
X129413000Y-76708000D01*
X129413000Y-75064223D01*
X129667000Y-75064223D01*
X129667000Y-76708000D01*
X131175000Y-76708000D01*
X131175000Y-76408000D01*
X131001942Y-75791980D01*
X130606317Y-75289078D01*
X130048355Y-74975856D01*
X129920434Y-74944876D01*
X129667000Y-75064223D01*
X129413000Y-75064223D01*
X129159566Y-74944876D01*
X129031645Y-74975856D01*
X128715000Y-75153610D01*
X128715000Y-68026031D01*
X128747031Y-67865000D01*
X128715000Y-67703969D01*
X128715000Y-67527238D01*
X132350000Y-71162240D01*
X132350001Y-83777760D01*
X130132762Y-85995000D01*
X120176025Y-85995000D01*
X120014999Y-85962970D01*
X119853973Y-85995000D01*
X119853969Y-85995000D01*
X119377055Y-86089864D01*
X118836231Y-86451231D01*
X118745014Y-86587747D01*
X116035762Y-89297000D01*
X114770500Y-89297000D01*
X114781440Y-89242000D01*
X114781440Y-87542000D01*
X114732157Y-87294235D01*
X114591809Y-87084191D01*
X114381765Y-86943843D01*
X114134000Y-86894560D01*
X112434000Y-86894560D01*
X112186235Y-86943843D01*
X111976191Y-87084191D01*
X111835843Y-87294235D01*
X111786560Y-87542000D01*
X111786560Y-89242000D01*
X111835843Y-89489765D01*
X111976191Y-89699809D01*
X112090079Y-89775907D01*
X111743864Y-90294055D01*
X111616969Y-90932000D01*
X111743864Y-91569945D01*
X112105231Y-92110769D01*
X112384134Y-92297126D01*
X112012355Y-92705076D01*
X111842524Y-93115110D01*
X111963845Y-93345000D01*
X113157000Y-93345000D01*
X113157000Y-93325000D01*
X113411000Y-93325000D01*
X113411000Y-93345000D01*
X114604155Y-93345000D01*
X114725476Y-93115110D01*
X114555645Y-92705076D01*
X114429812Y-92567000D01*
X116551970Y-92567000D01*
X116713000Y-92599031D01*
X116874030Y-92567000D01*
X116874031Y-92567000D01*
X117350945Y-92472136D01*
X117678482Y-92253283D01*
X119932214Y-94507016D01*
X119827191Y-94577191D01*
X119686843Y-94787235D01*
X119637560Y-95035000D01*
X119637560Y-96735000D01*
X119686843Y-96982765D01*
X119827191Y-97192809D01*
X120037235Y-97333157D01*
X120285000Y-97382440D01*
X122285000Y-97382440D01*
X122532765Y-97333157D01*
X122742809Y-97192809D01*
X122883157Y-96982765D01*
X122932440Y-96735000D01*
X122932440Y-95035000D01*
X122883157Y-94787235D01*
X122742809Y-94577191D01*
X122532765Y-94436843D01*
X122285000Y-94387560D01*
X121933483Y-94387560D01*
X121832929Y-94237071D01*
X121769473Y-94194671D01*
X120512242Y-92937440D01*
X120636518Y-92937440D01*
X120737072Y-93087929D01*
X120800528Y-93130329D01*
X121499670Y-93829472D01*
X121542071Y-93892929D01*
X121793463Y-94060904D01*
X122015148Y-94105000D01*
X122015153Y-94105000D01*
X122090000Y-94119888D01*
X122164847Y-94105000D01*
X124145199Y-94105000D01*
X124427758Y-94387560D01*
X124285000Y-94387560D01*
X124037235Y-94436843D01*
X123827191Y-94577191D01*
X123686843Y-94787235D01*
X123637560Y-95035000D01*
X123637560Y-96735000D01*
X123686843Y-96982765D01*
X123827191Y-97192809D01*
X124037235Y-97333157D01*
X124285000Y-97382440D01*
X126285000Y-97382440D01*
X126532765Y-97333157D01*
X126742809Y-97192809D01*
X126883157Y-96982765D01*
X126932440Y-96735000D01*
X126932440Y-95035000D01*
X126883157Y-94787235D01*
X126742809Y-94577191D01*
X126532765Y-94436843D01*
X126285000Y-94387560D01*
X126045000Y-94387560D01*
X126045000Y-94244846D01*
X126059888Y-94169999D01*
X126045000Y-94095152D01*
X126045000Y-94095148D01*
X126000904Y-93873463D01*
X125832929Y-93622071D01*
X125769473Y-93579671D01*
X125057026Y-92867224D01*
X125158000Y-92766250D01*
X125158000Y-91567000D01*
X125412000Y-91567000D01*
X125412000Y-92766250D01*
X125570750Y-92925000D01*
X126411309Y-92925000D01*
X126644698Y-92828327D01*
X126823327Y-92649699D01*
X126920000Y-92416310D01*
X126920000Y-91725750D01*
X126761250Y-91567000D01*
X129810000Y-91567000D01*
X129810000Y-91867000D01*
X129983058Y-92483020D01*
X130378683Y-92985922D01*
X130936645Y-93299144D01*
X131064566Y-93330124D01*
X131318000Y-93210777D01*
X131318000Y-91567000D01*
X129810000Y-91567000D01*
X126761250Y-91567000D01*
X125412000Y-91567000D01*
X125158000Y-91567000D01*
X123808750Y-91567000D01*
X123650000Y-91725750D01*
X123650000Y-92416310D01*
X123719874Y-92585000D01*
X122851595Y-92585000D01*
X122883157Y-92537765D01*
X122932440Y-92290000D01*
X122932440Y-90590000D01*
X122907316Y-90463690D01*
X123650000Y-90463690D01*
X123650000Y-91154250D01*
X123808750Y-91313000D01*
X125158000Y-91313000D01*
X125158000Y-90113750D01*
X125412000Y-90113750D01*
X125412000Y-91313000D01*
X126761250Y-91313000D01*
X126920000Y-91154250D01*
X126920000Y-91013000D01*
X129810000Y-91013000D01*
X129810000Y-91313000D01*
X131318000Y-91313000D01*
X131318000Y-89669223D01*
X131572000Y-89669223D01*
X131572000Y-91313000D01*
X131592000Y-91313000D01*
X131592000Y-91567000D01*
X131572000Y-91567000D01*
X131572000Y-93210777D01*
X131825434Y-93330124D01*
X131953355Y-93299144D01*
X132511317Y-92985922D01*
X132695048Y-92752371D01*
X132806231Y-92918769D01*
X133347055Y-93280136D01*
X133985000Y-93407031D01*
X134622944Y-93280136D01*
X134968100Y-93049510D01*
X135067191Y-93197809D01*
X135277235Y-93338157D01*
X135525000Y-93387440D01*
X137525000Y-93387440D01*
X137772765Y-93338157D01*
X137982809Y-93197809D01*
X138123157Y-92987765D01*
X138172440Y-92740000D01*
X138172440Y-90140000D01*
X138123157Y-89892235D01*
X137982809Y-89682191D01*
X137772765Y-89541843D01*
X137525000Y-89492560D01*
X135525000Y-89492560D01*
X135277235Y-89541843D01*
X135067191Y-89682191D01*
X134968100Y-89830489D01*
X134622945Y-89599864D01*
X133985000Y-89472969D01*
X133347056Y-89599864D01*
X132806231Y-89961231D01*
X132695048Y-90127629D01*
X132511317Y-89894078D01*
X131953355Y-89580856D01*
X131825434Y-89549876D01*
X131572000Y-89669223D01*
X131318000Y-89669223D01*
X131064566Y-89549876D01*
X130936645Y-89580856D01*
X130378683Y-89894078D01*
X129983058Y-90396980D01*
X129810000Y-91013000D01*
X126920000Y-91013000D01*
X126920000Y-90463690D01*
X126823327Y-90230301D01*
X126644698Y-90051673D01*
X126411309Y-89955000D01*
X125570750Y-89955000D01*
X125412000Y-90113750D01*
X125158000Y-90113750D01*
X124999250Y-89955000D01*
X124158691Y-89955000D01*
X123925302Y-90051673D01*
X123746673Y-90230301D01*
X123650000Y-90463690D01*
X122907316Y-90463690D01*
X122883157Y-90342235D01*
X122742809Y-90132191D01*
X122532765Y-89991843D01*
X122285000Y-89942560D01*
X120285000Y-89942560D01*
X120037235Y-89991843D01*
X119827191Y-90132191D01*
X119686843Y-90342235D01*
X119637560Y-90590000D01*
X119637560Y-92062759D01*
X118766020Y-91191219D01*
X120692239Y-89265000D01*
X130648970Y-89265000D01*
X130810000Y-89297031D01*
X130971030Y-89265000D01*
X130971031Y-89265000D01*
X131447945Y-89170136D01*
X131988769Y-88808769D01*
X132079988Y-88672250D01*
X135027253Y-85724986D01*
X135163769Y-85633769D01*
X135525136Y-85092945D01*
X135620000Y-84616031D01*
X135652031Y-84455001D01*
X135620000Y-84293971D01*
X135620000Y-75535000D01*
X136782560Y-75535000D01*
X136782560Y-78135000D01*
X136831843Y-78382765D01*
X136972191Y-78592809D01*
X137182235Y-78733157D01*
X137430000Y-78782440D01*
X139335000Y-78782440D01*
X139335001Y-79967560D01*
X137430000Y-79967560D01*
X137182235Y-80016843D01*
X136972191Y-80157191D01*
X136831843Y-80367235D01*
X136782560Y-80615000D01*
X136782560Y-83215000D01*
X136831843Y-83462765D01*
X136972191Y-83672809D01*
X137182235Y-83813157D01*
X137430000Y-83862440D01*
X139430000Y-83862440D01*
X139677765Y-83813157D01*
X139887809Y-83672809D01*
X139986900Y-83524510D01*
X140332056Y-83755136D01*
X140970000Y-83882031D01*
X141607945Y-83755136D01*
X142148769Y-83393769D01*
X142259952Y-83227371D01*
X142443683Y-83460922D01*
X143001645Y-83774144D01*
X143129566Y-83805124D01*
X143383000Y-83685777D01*
X143383000Y-82042000D01*
X143637000Y-82042000D01*
X143637000Y-83685777D01*
X143890434Y-83805124D01*
X144018355Y-83774144D01*
X144576317Y-83460922D01*
X144971942Y-82958020D01*
X145145000Y-82342000D01*
X145145000Y-82042000D01*
X143637000Y-82042000D01*
X143383000Y-82042000D01*
X143363000Y-82042000D01*
X143363000Y-81788000D01*
X143383000Y-81788000D01*
X143383000Y-80144223D01*
X143637000Y-80144223D01*
X143637000Y-81788000D01*
X145145000Y-81788000D01*
X145145000Y-81488000D01*
X144971942Y-80871980D01*
X144576317Y-80369078D01*
X144018355Y-80055856D01*
X143890434Y-80024876D01*
X143637000Y-80144223D01*
X143383000Y-80144223D01*
X143129566Y-80024876D01*
X143001645Y-80055856D01*
X142605000Y-80278520D01*
X142605000Y-78471480D01*
X143001645Y-78694144D01*
X143129566Y-78725124D01*
X143383000Y-78605777D01*
X143383000Y-76962000D01*
X143637000Y-76962000D01*
X143637000Y-78605777D01*
X143890434Y-78725124D01*
X144018355Y-78694144D01*
X144576317Y-78380922D01*
X144971942Y-77878020D01*
X145145000Y-77262000D01*
X145145000Y-76962000D01*
X143637000Y-76962000D01*
X143383000Y-76962000D01*
X143363000Y-76962000D01*
X143363000Y-76708000D01*
X143383000Y-76708000D01*
X143383000Y-75064223D01*
X143637000Y-75064223D01*
X143637000Y-76708000D01*
X145145000Y-76708000D01*
X145145000Y-76408000D01*
X144971942Y-75791980D01*
X144576317Y-75289078D01*
X144018355Y-74975856D01*
X143890434Y-74944876D01*
X143637000Y-75064223D01*
X143383000Y-75064223D01*
X143129566Y-74944876D01*
X143001645Y-74975856D01*
X142605000Y-75198520D01*
X142605000Y-71916031D01*
X142637031Y-71755000D01*
X142510136Y-71117055D01*
X142148769Y-70576231D01*
X142012250Y-70485012D01*
X141970000Y-70442762D01*
X141970000Y-69987238D01*
X144145014Y-72162253D01*
X144236231Y-72298769D01*
X144777055Y-72660136D01*
X145253969Y-72755000D01*
X145253970Y-72755000D01*
X145415000Y-72787031D01*
X145576030Y-72755000D01*
X150452762Y-72755000D01*
X150765000Y-73067239D01*
X150765001Y-74887560D01*
X148860000Y-74887560D01*
X148612235Y-74936843D01*
X148402191Y-75077191D01*
X148261843Y-75287235D01*
X148212560Y-75535000D01*
X148212560Y-78135000D01*
X148261843Y-78382765D01*
X148402191Y-78592809D01*
X148612235Y-78733157D01*
X148860000Y-78782440D01*
X150765000Y-78782440D01*
X150765001Y-79967560D01*
X148860000Y-79967560D01*
X148612235Y-80016843D01*
X148402191Y-80157191D01*
X148261843Y-80367235D01*
X148212560Y-80615000D01*
X148212560Y-83215000D01*
X148261843Y-83462765D01*
X148402191Y-83672809D01*
X148612235Y-83813157D01*
X148860000Y-83862440D01*
X150765001Y-83862440D01*
X150765001Y-84537761D01*
X150087750Y-85215012D01*
X149951231Y-85306231D01*
X149589864Y-85847056D01*
X149508271Y-86257254D01*
X149462969Y-86485000D01*
X149495000Y-86646030D01*
X149495001Y-90643966D01*
X149462969Y-90805000D01*
X149564017Y-91313000D01*
X149566630Y-91326132D01*
X149452748Y-91440014D01*
X149316232Y-91531231D01*
X149225015Y-91667747D01*
X148954865Y-92072055D01*
X148827969Y-92710000D01*
X148860001Y-92871035D01*
X148860000Y-101870000D01*
X146523969Y-101870000D01*
X146047055Y-101964864D01*
X145983156Y-102007560D01*
X145835000Y-102007560D01*
X145587235Y-102056843D01*
X145377191Y-102197191D01*
X145236843Y-102407235D01*
X145187560Y-102655000D01*
X145187560Y-102803156D01*
X145144864Y-102867055D01*
X145017969Y-103505000D01*
X145144864Y-104142945D01*
X145187560Y-104206844D01*
X145187560Y-104355000D01*
X145236843Y-104602765D01*
X145377191Y-104812809D01*
X145587235Y-104953157D01*
X145690708Y-104973739D01*
X145413355Y-105278076D01*
X145243524Y-105688110D01*
X145364845Y-105918000D01*
X146558000Y-105918000D01*
X146558000Y-105898000D01*
X146812000Y-105898000D01*
X146812000Y-105918000D01*
X148005155Y-105918000D01*
X148126476Y-105688110D01*
X147956645Y-105278076D01*
X147830812Y-105140000D01*
X149349188Y-105140000D01*
X149223355Y-105278076D01*
X149053524Y-105688110D01*
X149174845Y-105918000D01*
X150368000Y-105918000D01*
X150368000Y-105898000D01*
X150622000Y-105898000D01*
X150622000Y-105918000D01*
X151815155Y-105918000D01*
X151936476Y-105688110D01*
X151766645Y-105278076D01*
X151489292Y-104973739D01*
X151592765Y-104953157D01*
X151802809Y-104812809D01*
X151943157Y-104602765D01*
X151992440Y-104355000D01*
X151992440Y-104206844D01*
X152035136Y-104142945D01*
X152162031Y-103505000D01*
X152130000Y-103343969D01*
X152130000Y-94336890D01*
X153498524Y-94336890D01*
X153668355Y-94746924D01*
X154058642Y-95175183D01*
X154583108Y-95421486D01*
X154813000Y-95300819D01*
X154813000Y-94107000D01*
X155067000Y-94107000D01*
X155067000Y-95300819D01*
X155296892Y-95421486D01*
X155821358Y-95175183D01*
X156211645Y-94746924D01*
X156381476Y-94336890D01*
X156260155Y-94107000D01*
X155067000Y-94107000D01*
X154813000Y-94107000D01*
X153619845Y-94107000D01*
X153498524Y-94336890D01*
X152130000Y-94336890D01*
X152130000Y-93387238D01*
X152442239Y-93075000D01*
X153794188Y-93075000D01*
X153668355Y-93213076D01*
X153498524Y-93623110D01*
X153619845Y-93853000D01*
X154813000Y-93853000D01*
X154813000Y-93833000D01*
X155067000Y-93833000D01*
X155067000Y-93853000D01*
X156260155Y-93853000D01*
X156381476Y-93623110D01*
X156211645Y-93213076D01*
X155839866Y-92805126D01*
X156118769Y-92618769D01*
X156480136Y-92077945D01*
X156607031Y-91440000D01*
X156480136Y-90802055D01*
X156133921Y-90283907D01*
X156247809Y-90207809D01*
X156388157Y-89997765D01*
X156437440Y-89750000D01*
X156437440Y-88050000D01*
X156388157Y-87802235D01*
X156247809Y-87592191D01*
X156037765Y-87451843D01*
X155790000Y-87402560D01*
X154090000Y-87402560D01*
X153842235Y-87451843D01*
X153632191Y-87592191D01*
X153491843Y-87802235D01*
X153442560Y-88050000D01*
X153442560Y-89750000D01*
X153453500Y-89805000D01*
X152765000Y-89805000D01*
X152765000Y-87162238D01*
X153442252Y-86484986D01*
X153578769Y-86393769D01*
X153940136Y-85852945D01*
X154035000Y-85376031D01*
X154035000Y-85376027D01*
X154067030Y-85215001D01*
X154035000Y-85053975D01*
X154035000Y-83551480D01*
X154431645Y-83774144D01*
X154559566Y-83805124D01*
X154813000Y-83685777D01*
X154813000Y-82042000D01*
X155067000Y-82042000D01*
X155067000Y-83685777D01*
X155320434Y-83805124D01*
X155448355Y-83774144D01*
X156006317Y-83460922D01*
X156401942Y-82958020D01*
X156575000Y-82342000D01*
X156575000Y-82042000D01*
X155067000Y-82042000D01*
X154813000Y-82042000D01*
X154793000Y-82042000D01*
X154793000Y-81788000D01*
X154813000Y-81788000D01*
X154813000Y-80144223D01*
X155067000Y-80144223D01*
X155067000Y-81788000D01*
X156575000Y-81788000D01*
X156575000Y-81488000D01*
X156401942Y-80871980D01*
X156006317Y-80369078D01*
X155448355Y-80055856D01*
X155320434Y-80024876D01*
X155067000Y-80144223D01*
X154813000Y-80144223D01*
X154559566Y-80024876D01*
X154431645Y-80055856D01*
X154035000Y-80278520D01*
X154035000Y-78471480D01*
X154431645Y-78694144D01*
X154559566Y-78725124D01*
X154813000Y-78605777D01*
X154813000Y-76962000D01*
X155067000Y-76962000D01*
X155067000Y-78605777D01*
X155320434Y-78725124D01*
X155448355Y-78694144D01*
X156006317Y-78380922D01*
X156401942Y-77878020D01*
X156575000Y-77262000D01*
X156575000Y-76962000D01*
X155067000Y-76962000D01*
X154813000Y-76962000D01*
X154793000Y-76962000D01*
X154793000Y-76708000D01*
X154813000Y-76708000D01*
X154813000Y-75064223D01*
X155067000Y-75064223D01*
X155067000Y-76708000D01*
X156575000Y-76708000D01*
X156575000Y-76408000D01*
X156401942Y-75791980D01*
X156006317Y-75289078D01*
X155448355Y-74975856D01*
X155320434Y-74944876D01*
X155067000Y-75064223D01*
X154813000Y-75064223D01*
X154559566Y-74944876D01*
X154431645Y-74975856D01*
X154035000Y-75198520D01*
X154035000Y-72551025D01*
X154067030Y-72389999D01*
X154035000Y-72228973D01*
X154035000Y-72228969D01*
X153940136Y-71752055D01*
X153578769Y-71211231D01*
X153442253Y-71120014D01*
X152399988Y-70077750D01*
X152308769Y-69941231D01*
X151767945Y-69579864D01*
X151291031Y-69485000D01*
X151291030Y-69485000D01*
X151130000Y-69452969D01*
X150968970Y-69485000D01*
X146092239Y-69485000D01*
X143469869Y-66862631D01*
X143469869Y-65160898D01*
X143499113Y-65013877D01*
X144160728Y-65013877D01*
X144320495Y-65332632D01*
X145111217Y-65642595D01*
X145960366Y-65626367D01*
X146669505Y-65332632D01*
X146829272Y-65013877D01*
X145495000Y-63679605D01*
X144160728Y-65013877D01*
X143499113Y-65013877D01*
X143501900Y-64999868D01*
X143468961Y-64834272D01*
X143375005Y-64361924D01*
X143013638Y-63821100D01*
X142877122Y-63729883D01*
X142469870Y-63322631D01*
X142469870Y-63116217D01*
X143352405Y-63116217D01*
X143368633Y-63965366D01*
X143662368Y-64674505D01*
X143981123Y-64834272D01*
X145315395Y-63500000D01*
X145674605Y-63500000D01*
X147008877Y-64834272D01*
X147327632Y-64674505D01*
X147637595Y-63883783D01*
X147621367Y-63034634D01*
X147327632Y-62325495D01*
X147008877Y-62165728D01*
X145674605Y-63500000D01*
X145315395Y-63500000D01*
X143981123Y-62165728D01*
X143662368Y-62325495D01*
X143352405Y-63116217D01*
X142469870Y-63116217D01*
X142469870Y-63075348D01*
X142144856Y-62290693D01*
X141840286Y-61986123D01*
X144160728Y-61986123D01*
X145495000Y-63320395D01*
X146829272Y-61986123D01*
X146669505Y-61667368D01*
X145878783Y-61357405D01*
X145029634Y-61373633D01*
X144320495Y-61667368D01*
X144160728Y-61986123D01*
X141840286Y-61986123D01*
X141544307Y-61690144D01*
X140759652Y-61365130D01*
X139910348Y-61365130D01*
X139125693Y-61690144D01*
X138525144Y-62290693D01*
X138200130Y-63075348D01*
X138200130Y-63924652D01*
X138525144Y-64709307D01*
X138700000Y-64884163D01*
X138700001Y-70958966D01*
X138667969Y-71120000D01*
X138713271Y-71347746D01*
X138794865Y-71757945D01*
X139156232Y-72298769D01*
X139292748Y-72389986D01*
X139335000Y-72432238D01*
X139335001Y-74887560D01*
X137430000Y-74887560D01*
X137182235Y-74936843D01*
X136972191Y-75077191D01*
X136831843Y-75287235D01*
X136782560Y-75535000D01*
X135620000Y-75535000D01*
X135620000Y-70646031D01*
X135652031Y-70485000D01*
X135525136Y-69847054D01*
X135254986Y-69442746D01*
X135254984Y-69442744D01*
X135163769Y-69306231D01*
X135027256Y-69215016D01*
X130010950Y-64198712D01*
X129758638Y-63821100D01*
X129622122Y-63729883D01*
X129214870Y-63322631D01*
X129214870Y-63075348D01*
X128889856Y-62290693D01*
X128289307Y-61690144D01*
X127504652Y-61365130D01*
X126655348Y-61365130D01*
X125870693Y-61690144D01*
X125270144Y-62290693D01*
X124945130Y-63075348D01*
X124945130Y-63924652D01*
X125270144Y-64709307D01*
X125445000Y-64884163D01*
X125445000Y-67187761D01*
X122512762Y-70120000D01*
X117511029Y-70120000D01*
X117349999Y-70087969D01*
X117188969Y-70120000D01*
X116712055Y-70214864D01*
X116171231Y-70576231D01*
X116080014Y-70712747D01*
X114527750Y-72265012D01*
X114391231Y-72356231D01*
X114029864Y-72897056D01*
X114003829Y-73027945D01*
X113902969Y-73535000D01*
X113935000Y-73696030D01*
X113935000Y-74887560D01*
X112030000Y-74887560D01*
X111782235Y-74936843D01*
X111572191Y-75077191D01*
X111431843Y-75287235D01*
X111382560Y-75535000D01*
X109930000Y-75535000D01*
X109930000Y-65013877D01*
X120585728Y-65013877D01*
X120745495Y-65332632D01*
X121536217Y-65642595D01*
X122385366Y-65626367D01*
X123094505Y-65332632D01*
X123254272Y-65013877D01*
X121920000Y-63679605D01*
X120585728Y-65013877D01*
X109930000Y-65013877D01*
X109930000Y-62972733D01*
X110161974Y-63532768D01*
X110692233Y-64063027D01*
X111385050Y-64350001D01*
X112134950Y-64350001D01*
X112827767Y-64063027D01*
X113358026Y-63532768D01*
X113530566Y-63116217D01*
X119777405Y-63116217D01*
X119793633Y-63965366D01*
X120087368Y-64674505D01*
X120406123Y-64834272D01*
X121740395Y-63500000D01*
X122099605Y-63500000D01*
X123433877Y-64834272D01*
X123752632Y-64674505D01*
X124062595Y-63883783D01*
X124046367Y-63034634D01*
X123752632Y-62325495D01*
X123433877Y-62165728D01*
X122099605Y-63500000D01*
X121740395Y-63500000D01*
X120406123Y-62165728D01*
X120087368Y-62325495D01*
X119777405Y-63116217D01*
X113530566Y-63116217D01*
X113645000Y-62839951D01*
X113645000Y-62090051D01*
X113601952Y-61986123D01*
X120585728Y-61986123D01*
X121920000Y-63320395D01*
X123254272Y-61986123D01*
X123094505Y-61667368D01*
X122303783Y-61357405D01*
X121454634Y-61373633D01*
X120745495Y-61667368D01*
X120585728Y-61986123D01*
X113601952Y-61986123D01*
X113358026Y-61397234D01*
X112827767Y-60866975D01*
X112134950Y-60580001D01*
X111385050Y-60580001D01*
X110692233Y-60866975D01*
X110161974Y-61397234D01*
X109930000Y-61957269D01*
X109930000Y-60400000D01*
X158040000Y-60400000D01*
X158040000Y-61957269D01*
G04 #@! TD*
M02*
